<svg xmlns="http://www.w3.org/2000/svg" viewBox="0 0 343.36 116.06"><defs><style>.cls-1,.cls-2,.cls-3{fill:#fff;stroke:#000;stroke-linecap:round;stroke-linejoin:round;}.cls-1{stroke-width:5px;}.cls-2{stroke-width:5px;}.cls-3{stroke-width:3px;}</style></defs><title>sccisorArms</title><g id="Layer_2" data-name="Layer 2"><g id="Layer_43" data-name="Layer 43"><path class="cls-1" d="M173.06,30.45H137.85a32.19,32.19,0,0,1,4.63-2.58c-.71-1.69-2.49-2.67-5.94-2.67H35C17,25.2,2.5,40.92,2.5,60.3S17,95.39,35,95.39H136.54c3.43,0,5.2-1,5.92-2.67a32.52,32.52,0,0,1-4.61-2.58h35.21c13.9,0,25.17-13.36,25.17-29.84h0C198.23,43.82,187,30.45,173.06,30.45Z"/><path id="imagebot_17" data-name="imagebot 17" class="cls-2" d="M230.84,2.53c-19.34-.87-49.46,17.57-56.39,39.14-3.47,11.14-4.34,36.15,2.26,44.91,11.22,15,25.7,22.51,43.46,25.8a81,81,0,0,0,19.34,1c21.6-1.79,34.15-18.58,39.06-25.73,14.1-.36,31.1.91,47.09,3,23.91,3.16,17.58-30.13-4.85-32.86-10.5-1.28-19.13-3.59-42.64-5.89,12.62-4,30.72-10.67,43.26-13,20.69-3.8,8-33.39-17.2-28.22-17.16,3.53-29.76,9-46.1,12.42-2.76-3.43-7.22-19.7-27.29-20.61Z"/><path id="imagebot_16" data-name="imagebot 16" d="M278.62,49.14C263.07,53,256,58.57,252.31,60.65,262,58,264.43,57,275,54.9a22.18,22.18,0,0,1,6.56-.2Z"/><path id="imagebot_15" data-name="imagebot 15" d="M278.43,85.14c-9.41.24-20.67,2.79-27.68,6.38,10.18-.47,18.22-.86,27.9-1.53,0,0-.2-2.42-.23-4.85Z"/><path id="imagebot_11" data-name="imagebot 11" d="M259.29,20.33c-20.61,5-28.79-1.21-39.29-5.28,10.89,6.23,14.66,14.8,38.76,10.52l.53-5.24Z"/><path class="cls-1" d="M126.32,101.54h17.82c4,0,7.25-3.85,7.25-8.6l-.5-2.46a149.77,149.77,0,0,1-.15-59.58l.65-3.24c0-4.75-3.24-8.6-7.25-8.6H126.32c-5.41,0-8.18,12.68-8.92,17.31a153.36,153.36,0,0,0-.05,47.72C118.09,88.78,120.71,101.54,126.32,101.54Z"/><path class="cls-3" d="M145.34,101.39,142.5,90.48a150.14,150.14,0,0,1-.15-59.58l3-11.76"/></g></g></svg>