<svg xmlns="http://www.w3.org/2000/svg" viewBox="0 0 388.55 158.05">
    <defs>
        <style>
            .cls-1,
            .cls-3,
            .cls-4 {
                fill: #fff;
            }

            .cls-1,
            .cls-2,
            .cls-3,
            .cls-4 {
                stroke: #000;
                stroke-linecap: round;
                stroke-linejoin: round;
            }

            .cls-1 {
                stroke-width: 5px;
            }

            .cls-2 {
                fill: none;
                stroke-width: 3px;
            }

            .cls-3 {
                stroke-width: 5px;
            }

            .cls-4 {
                stroke-width: 5px;
            }
        </style>
    </defs>
    <title>armsGR</title>
    <g id="armsRR" data-name="armsRR">
        <g id="RightArm">
            <path class="cls-1"
                d="M142.79,64.22H206a32.19,32.19,0,0,0-4.63-2.58C202,60,203.82,59,207.27,59H353.6c17.92,0,32.45,15.71,32.45,35.1s-14.53,35.09-32.45,35.09H207.27c-3.43,0-5.2-1-5.92-2.67a32.52,32.52,0,0,0,4.61-2.58H142.79c-3.86,0-7.52-2.3-10.79-5.63a34.75,34.75,0,0,1,0-48.43C135.27,66.53,138.93,64.22,142.79,64.22Z" />
            <path class="cls-1"
                d="M217.49,135.31H199.67c-4,0-7.25-3.85-7.25-8.6l.5-2.46a150.14,150.14,0,0,0,.15-59.58l-.65-3.24c0-4.75,3.24-8.61,7.25-8.61h17.82c5.41,0,8.18,12.69,8.92,17.32a153.66,153.66,0,0,1,.05,47.72C225.72,122.55,223.1,135.31,217.49,135.31Z" />
            <path class="cls-2" d="M198.47,135.16l2.84-10.91a150.14,150.14,0,0,0,.15-59.58l-3-11.76" />
        </g>
        <g id="RightRock">
            <path id="path32294" class="cls-1"
                d="M107.55,25.26C130.3,26,163.89,50.45,170,76.38c3,13.38,1.73,42.78-6.83,52.44-14.55,16.55-32.21,24-53.34,26.21a95.46,95.46,0,0,1-22.76-.64c-28.15-4-48.4-14.78-43.41-33.8-22.66-8-13.93-43.24,3.8-41.84-18.92-20.09,2.59-45,26.16-31.86C77.19,43.13,83.93,24.47,107.55,25.26Z" />
            <path id="path32296"
                d="M47.17,81.48c17.4,7.25,25,5.64,30,6.26-11.07-4.28-14-5.07-25.41-10.49-1.94-.92-4.35-1.58-6.4-4l-1.47,7.6c-.44,0,2,.27,3.31.6Z" />
            <path id="path32298" d="M40.4,121.67c10.65,3,24,5.85,33,5.12-5.87-1.61-20.83-6.57-29.72-8.86l-3.27,3.74Z" />
            <path id="path32306"
                d="M72.13,43.54C95.83,51.3,106,44.8,118.69,41c-13.35,6.3-18.59,15.3-46.44,8l-.12-5.49Z" />
        </g>
    </g>
</svg>