<svg xmlns="http://www.w3.org/2000/svg" viewBox="0 0 388.55 158.05">
    <defs>
        <style>
            .cls-1,
            .cls-3,
            .cls-4 {
                fill: #fff;
            }

            .cls-1,
            .cls-2,
            .cls-3,
            .cls-4 {
                stroke: #000;
                stroke-linecap: round;
                stroke-linejoin: round;
            }

            .cls-1 {
                stroke-width: 5px;
            }

            .cls-2 {
                fill: none;
                stroke-width: 3px;
            }

            .cls-3 {
                stroke-width: 5px;
            }

            .cls-4 {
                stroke-width: 5px;
            }
        </style>
    </defs>
    <title>armsGR</title>
    <g id="armsRR" data-name="armsRR">
        <g id="RightArm">
            <path class="cls-1"
                d="M142.79,64.22H206a32.19,32.19,0,0,0-4.63-2.58C202,60,203.82,59,207.27,59H353.6c17.92,0,32.45,15.71,32.45,35.1s-14.53,35.09-32.45,35.09H207.27c-3.43,0-5.2-1-5.92-2.67a32.52,32.52,0,0,0,4.61-2.58H142.79c-3.86,0-7.52-2.3-10.79-5.63a34.75,34.75,0,0,1,0-48.43C135.27,66.53,138.93,64.22,142.79,64.22Z" />
            <path class="cls-1"
                d="M217.49,135.31H199.67c-4,0-7.25-3.85-7.25-8.6l.5-2.46a150.14,150.14,0,0,0,.15-59.58l-.65-3.24c0-4.75,3.24-8.61,7.25-8.61h17.82c5.41,0,8.18,12.69,8.92,17.32a153.66,153.66,0,0,1,.05,47.72C225.72,122.55,223.1,135.31,217.49,135.31Z" />
            <path class="cls-2" d="M198.47,135.16l2.84-10.91a150.14,150.14,0,0,0,.15-59.58l-3-11.76" />
        </g>
       <g id="RightSccisors">
            <path id="imagebot_17" data-name="imagebot 17" class="cls-4"
                d="M113,34.37C92.9,35.29,88.44,51.56,85.68,55c-16.34-3.44-28.94-8.9-46.1-12.42C14.39,37.4,1.69,67,22.38,70.78c12.53,2.3,30.64,9,43.26,13C42.13,86.06,33.5,88.36,23,89.64c-22.43,2.73-28.76,36-4.85,32.87,16-2.12,33-3.39,47.08-3,4.92,7.16,17.47,23.94,39.07,25.73a80.48,80.48,0,0,0,19.34-1c17.76-3.29,32.24-10.79,43.46-25.8,6.6-8.76,5.73-33.77,2.26-44.91-6.94-21.57-37.05-40-56.39-39.14Z" />
            <path id="imagebot_16" data-name="imagebot 16"
                d="M62.28,86.54a21.8,21.8,0,0,1,6.56.21c10.54,2.1,12.94,3,22.66,5.74C87.83,90.42,80.74,84.87,65.19,81Z" />
            <path id="imagebot_15" data-name="imagebot 15"
                d="M65.39,117c0,2.44-.23,4.82-.23,4.85,9.68.68,17.72,1.06,27.9,1.53-7-3.59-18.28-6.13-27.68-6.38Z" />
            <path id="imagebot_11" data-name="imagebot 11"
                d="M84.52,52.17l.53,5.24c24.1,4.29,27.87-4.29,38.76-10.52-10.5,4.07-18.68,10.26-39.29,5.28Z" />
        </g>
    </g>
</svg>