<svg xmlns="http://www.w3.org/2000/svg" viewBox="0 0 388.55 158.05">
    <defs>
        <style>
            .cls-1,
            .cls-3,
            .cls-4 {
                fill: #fff;
            }

            .cls-1,
            .cls-2,
            .cls-3,
            .cls-4 {
                stroke: #000;
                stroke-linecap: round;
                stroke-linejoin: round;
            }

            .cls-1 {
                stroke-width: 5px;
            }

            .cls-2 {
                fill: none;
                stroke-width: 3px;
            }

            .cls-3 {
                stroke-width: 5px;
            }

            .cls-4 {
                stroke-width: 5px;
            }
        </style>
    </defs>
    <title>armsGR</title>
    <g id="armsPR" data-name="armsPR">
        <g id="RightArm">
            <path class="cls-1"
                d="M142.79,64.22H206a32.19,32.19,0,0,0-4.63-2.58C202,60,203.82,59,207.27,59H353.6c17.92,0,32.45,15.71,32.45,35.1s-14.53,35.09-32.45,35.09H207.27c-3.43,0-5.2-1-5.92-2.67a32.52,32.52,0,0,0,4.61-2.58H142.79c-3.86,0-7.52-2.3-10.79-5.63a34.75,34.75,0,0,1,0-48.43C135.27,66.53,138.93,64.22,142.79,64.22Z" />
            <path class="cls-1"
                d="M217.49,135.31H199.67c-4,0-7.25-3.85-7.25-8.6l.5-2.46a150.14,150.14,0,0,0,.15-59.58l-.65-3.24c0-4.75,3.24-8.61,7.25-8.61h17.82c5.41,0,8.18,12.69,8.92,17.32a153.66,153.66,0,0,1,.05,47.72C225.72,122.55,223.1,135.31,217.49,135.31Z" />
            <path class="cls-2" d="M198.47,135.16l2.84-10.91a150.14,150.14,0,0,0,.15-59.58l-3-11.76" />
        </g>
       <g id="RightPaper">
            <path id="path3112-2-8-6-8-2-9-8" class="cls-3"
                d="M122.33,3.23C91.9,16.87,109.26,42,118.39,54c-29.9.09-59.73-10.74-76.74-14.89-25-6.1-38.76,23-18.24,27.56,12.45,2.76,30.3,10.1,42.76,14.55-23.58,1.44-32.28,3.43-42.83,4.32-22.51,1.9-30.07,34.94-6.05,32.66,16.05-1.52,33.09-2.16,47.15-1.29,5.73.36-24.92,14.41-29.26,15.82-9,2.9-17.73,18.39-4.19,22.68,4.87,1.54,52.41-13.39,71.6-11.33a80.82,80.82,0,0,0,19.37-.28c17.87-2.63,32.55-9.6,44.36-24.18,6.9-8.51,7.12-33.58,3.84-44.8-5-17.24-28.82-32.64-29.82-40-2.59-18.85-7.91-36.19-18-31.66Z" />
            <path id="path3882-6-1-33-9-9-7-9"
                d="M62.67,83.92a22,22,0,0,1,6.54.45C79.68,86.86,82,87.89,91.6,90.94c-3.54-2.2-10.42-8-25.82-12.47Z" />
            <path id="path3884-6-1-2-9-6-6-0"
                d="M64.65,114.45c-.12,2.44,0,4.89-.82,7.23a9.61,9.61,0,0,1,6.58-1.75c7.76.76,16.55,1.52,21.67,1.92C85.2,118,74,115,64.65,114.45Z" />
        </g>
    </g>
</svg>