<svg xmlns="http://www.w3.org/2000/svg" viewBox="0 0 67.9 15.67">
    <defs>
        <style>
            .cls-1 {
                fill: #ffffff;
            }

            .cls-2 {
                fill: #da47ff;
            }
        </style>
    </defs>
    <title>Asset 4</title>
    <g id="Layer_2" data-name="Layer 2">
        <g id="Layer_1-2" data-name="Layer 1">
            <path class="cls-1"
                d="M4.06,0V6.69c.3-2,1.53-2.92,2.67-2.92s2.18.92,2.18,2.71V10c0,1.45.31,1.69.75,1.76H5c.3-.05.63-.21.63-1.79V7.48C5.6,6.21,5.33,5.7,5,5.7s-1,1-1,2.38v2.14c0,1.4.21,1.43.64,1.51H0c.27-.07.7-.09.7-1.41V1.53C.7.66.52.44,0,.44H0Z" />
            <path class="cls-1"
                d="M17.61,6.51v5c0,5.1,1.52,5.09,1.53,0l0-6.28c0-.87-.2-1.1-.7-1.08l4.06-.44V6.63c.58-3.9,4.84-3.82,4.84-.2V9.91c0,1.46.31,1.7.74,1.76H23.41c.31-.05.64-.22.64-1.84V7.42c0-3-1.53-1.79-1.53.6V12.3c0,4.49-8.27,4.49-8.27,0V9.84a2.78,2.78,0,0,1-2.46,1.93c-1.91,0-2.7-2.78-.35-3.83,1.24-.56,2.84-1.18,2.84-2.43V4.8a.77.77,0,1,0-1.53,0,.93.93,0,0,0,.93.89,1.8,1.8,0,0,1-1.93,1.7c-2-.07-2.21-3.71,2.5-3.68C16,3.7,17.61,4.5,17.61,6.51Zm-4.34,3c.05.95.83,1,1-.43l0-2.81A5.76,5.76,0,0,0,13.27,9.5Z" />
            <path class="cls-1"
                d="M36.73,0V10.08c0,1.4.19,1.56.54,1.63H33.12c-3.24,0-4.56-2.16-4.56-4.23,0-4.31,4.85-5.31,4.85-.72l0-5c0-.87-.08-1.22-.69-1.25ZM33.38,11.48V8.21c0-3.56-1.49-4.63-1.47-1S32.82,11.48,33.38,11.48Z" />
            <path class="cls-2"
                d="M40.32,8.71c.69.64,1.53,2.65,2.17,2.68a.49.49,0,0,0,.57-.5c.06-1.44-5.22-3.15-5.06-5.2.21-2.83,7-2.53,7.52-.07.23,1.13-1.26,2.08-2.54.77-.84-.85-.94-2.47-1.71-2.51a.55.55,0,0,0-.63.52C40.58,6.28,46.31,7.35,45.9,10s-7.58,2.46-8.15-.06A1.46,1.46,0,0,1,40.32,8.71Z" />
            <path class="cls-2"
                d="M54.59,7.75a4.1,4.1,0,1,1-4.1-4.1A4.1,4.1,0,0,1,54.59,7.75Zm-5.31,0c0,2.12.54,3.88,1.21,3.88S51.7,9.87,51.7,7.75s-.54-3.9-1.21-3.9S49.28,5.62,49.28,7.75Z" />
            <path class="cls-2"
                d="M58.82,10.22c0,1.4.18,1.44.41,1.51H55.05c.28-.08.42-.09.42-1.41V1.62c0-1.16-.12-1.28-.41-1.25L58.82,0Z" />
            <path class="cls-2"
                d="M67.9,7.75a4.1,4.1,0,1,1-4.1-4.1A4.1,4.1,0,0,1,67.9,7.75Zm-5.31,0c0,2.12.54,3.88,1.21,3.88S65,9.87,65,7.75s-.55-3.9-1.22-3.9S62.59,5.62,62.59,7.75Z" />
        </g>
    </g>
</svg>