<svg xmlns="http://www.w3.org/2000/svg" viewBox="0 0 633 633"><defs><style>.cls-1{fill:#bdccd4;}.cls-1,.cls-4,.cls-5,.cls-6{stroke:#000;stroke-miterlimit:10;}.cls-1,.cls-6{stroke-width:15px;}.cls-2{fill:#fcda76;}.cls-3{fill:#1d1d1d;}.cls-4,.cls-5,.cls-6{fill:none;}.cls-4{stroke-width:10px;}.cls-5{stroke-width:7px;}</style></defs><title>Asset 10</title><g id="Layer_2" data-name="Layer 2"><g id="Layer_46" data-name="Layer 46"><path class="cls-1" d="M207.44,605.7C90.6,561.62,7.5,448.77,7.5,316.5c0-170.66,138.34-309,309-309s309,138.34,309,309-138.34,309-309,309a308.2,308.2,0,0,1-109.06-19.8"/><path class="cls-2" d="M520.93,242.37c2,34.73-6.81,71.12-9,107.13-3.06,50.47-26.6,113.16-57.07,153-1.06,21.35-4.86,62.49-6.1,95.18a310,310,0,0,1-233.4,9.43c-3.12-40.17-6.24-91.83-9-109.17,0,0,0,.43-.07.2-15.53-18.24-39.67-28.09-55.45-45.55-25.78-28.51-40.62-63-47.17-100.4a25.14,25.14,0,0,1-.4-3.88c-.59-19.38,4.73-35.09,16.92-50.19,1.88-2.33,4.17-4.37,6.25-6.53-3.34-19.42-5-38.7-7.12-58.38-.51-4.7-1.34-9.35-2.06-14.38-2.5-17.8-3.5-36.11,2-53.43s15.59-29,32.63-33.29c12.81-3.22,22.75-2.12,35.27-.68,16-26.3,51-42.44,79.65-29.22,15.15,7,18.75,14.12,26.13,27.37,2.52-17.12,16.58-28.45,30.85-36.46,16.15-9.06,32.6-10,50.46-9.16,12.29.58,23.83,2.87,32.42,12.06,6.27,6.72,6.6,15.71,7.32,24.22,4.69-11.55,11.73-24,24.61-27.21,16.25-4,30.43,1.12,44.54,8.64s23.94,17.76,30.5,32.22a6.36,6.36,0,0,1,.29,1c5.55,20.31,4.23,42.49,6.83,63C522.94,214.91,519.88,224,520.93,242.37Z"/><path class="cls-3" d="M233,214.73a1,1,0,0,1,.88,0c3.26.64,8.43,3.5,4.28,10.82a3.44,3.44,0,0,1-.72.81c-6.33,2.38-12.54,5-18.72,7.76-7.57,3.46-15.05,7.1-22.33,11.12-1.84,1-3.61,2.05-5.42,3.06s-3.61,2.06-5.36,3.16l-5.3,3.26-5.2,3.41a247.07,247.07,0,0,0-19.95,14.77,217.2,217.2,0,0,0-18.26,16.7l-2.17,2.19-2.08,2.29c-1.36,1.51-2.83,3-4.1,4.55a64.23,64.23,0,0,0-6.79,9.44,57.61,57.61,0,0,0-7.64,21.52,60.37,60.37,0,0,0-.48,11.49c.08,1,.11,1.93.22,2.89l.35,2.88,1,6.07a190.75,190.75,0,0,0,5.93,23.89A186.65,186.65,0,0,0,142,421.26a193.61,193.61,0,0,0,14.58,19.83c1.35,1.56,2.62,3.16,4,4.67l4.18,4.58c2.88,3,5.71,6,8.74,8.74s6.09,5.54,9.18,8.25,6.36,5.2,9.7,7.56a152.88,152.88,0,0,0,20.77,12.91l1.35.71.68.36.36.17.66.3,1.32.61,2.63,1.22c.89.4,1.75.85,2.65,1.19l2.7,1.07,2.74,1.33c.84.44,1.9.88,3.08,1.38l3.93,1.68c1.41.66,3,1.14,4.56,1.75s3.23,1.27,4.91,1.8c3.38,1,6.78,2.27,9.94,3.06,5.35,1.48,8.93,2.18,11,3s2.59,1.44,2,2-2.38,1-4.91,1.36c-1.27.16-2.73.35-4.32.4s-3.31,0-5.12-.05c.74.24-7.91-.21-16.6-2.1l-3.26-.66-3.13-.82c-2-.55-3.95-1-5.56-1.51l-5.38-1.77c-2-.72-3.82-1.64-5.7-2.5l-2.83-1.31-.7-.32-.22-.1c-.25-.11-.48-.25-.72-.38l-1.44-.76c-1.92-1-3.85-2-5.74-3.06a190.78,190.78,0,0,1-21.52-14.41,223.53,223.53,0,0,1-19.3-17.05l-4.49-4.59c-1.49-1.54-2.9-3.14-4.35-4.71l-2.16-2.38-2.09-2.45c-1.39-1.64-2.79-3.27-4.11-5a198.42,198.42,0,0,1-14.81-21.11,199.53,199.53,0,0,1-26.72-72.15l-.53-3.18-.41-3.37c-.16-1.12-.18-2.27-.27-3.4s-.12-2.27-.12-3.41a69.51,69.51,0,0,1,1.11-13.64,71.86,71.86,0,0,1,10-25.33A85.08,85.08,0,0,1,120.4,289l4.33-4.75c1.43-1.6,3-3.08,4.48-4.62,3-3.1,6.17-5.94,9.27-8.89,3.24-2.79,6.41-5.67,9.78-8.31s6.72-5.27,10.13-7.84c1.71-1.27,3.48-2.47,5.21-3.7l2.62-1.84,2.67-1.76a316,316,0,0,1,44.68-24.54C220,219.93,226.41,217.19,233,214.73Z"/><path class="cls-3" d="M239.2,224.76a1.07,1.07,0,0,1-.43-.77,7.87,7.87,0,0,1,.21-5.73c1-1.86,3.1-3.24,7.27-3.19a3.27,3.27,0,0,1,1,.24c5.08,4.34,10.35,8.46,15.8,12.31A201.65,201.65,0,0,0,306.94,251q5.81,2.24,11.76,4.12l3,.93.75.23.37.11.66.19,3,.84,6,1.69,1.48.42.75.21a4.6,4.6,0,0,1-.16.75l-.74,3.11-1.47,6.2c-.13.52-.25,1-.39,1.5l-.32,1.06-.48,1.64c-.59,2.19-1.43,4.32-2.18,6.47-.36,1.08-.85,2.11-1.28,3.17s-.85,2.12-1.35,3.15c-1,2-1.92,4.14-3.09,6.12l-1.67,3-1.83,2.91c-1.18,2-2.61,3.77-3.93,5.65-.67.92-1.43,1.79-2.14,2.69s-1.42,1.81-2.22,2.63c-1.57,1.69-3.08,3.42-4.78,5-.84.79-1.66,1.6-2.51,2.37l-2.64,2.23-1.33,1.11-1.38,1-2.78,2.06c-.95.66-1.93,1.26-2.9,1.89s-1.91,1.29-2.94,1.82c-2,1.1-4,2.3-6.1,3.22a82.44,82.44,0,0,1-26.47,7.8l-2.4.26c-.55.05-1.1.13-1.65.13l-3.29.13c-.55,0-1.1.05-1.65.05l-1.65-.05-3.3-.11s-.32,0-.9-.13l-2.5-.43a35.79,35.79,0,0,1-3.74-.77l-2.22-.56a23.52,23.52,0,0,1-2.39-.69A68.33,68.33,0,0,1,221.48,332a54,54,0,0,1-5-2.78l-2.36-1.48c-.77-.49-1.47-1.06-2.17-1.57a38.3,38.3,0,0,1-8.76-7.94c-1.33-1.78-1.36-2.61-.52-2.73s2.56.42,4.77,1.4,5.05,2.22,8.17,3.44c-.57-.42,6.71,2.94,14.49,4.6,1,.24,2,.35,2.92.54s1.9.38,2.83.44l2.68.27c.42.05.83.1,1.23.13l1.17,0c1.49,0,2.73.12,3.6.1l1.36-.05,2.72.09,2.73-.1c.9,0,1.81,0,2.71-.16L256,326c1-.1,1.91-.19,2.86-.38a72.92,72.92,0,0,0,21.93-7.34,76.64,76.64,0,0,0,18.64-13.81A82.49,82.49,0,0,0,313,285.55a89,89,0,0,0,4.68-10.79c.33-.93.67-1.85,1-2.78l.83-2.83.21-.71-.33-.09-5.52-1.71c-2.07-.66-4.1-1.39-6.15-2.08s-4.06-1.52-6.09-2.27a214.15,214.15,0,0,1-45.71-24.49Q247.27,231.67,239.2,224.76Z"/><path d="M259.39,238a46.62,46.62,0,0,0-6.66,8.83,28.68,28.68,0,0,0-3.52,10.09,25.2,25.2,0,0,0,.71,10.34,34.5,34.5,0,0,0,4.28,9.52l-1.14-1.09a54.75,54.75,0,0,0,10.07,3.46c3.41.84,6.79,1.52,10.22,2a76,76,0,0,0,10.54.8c3.6.06,7.27-.15,11.11-.28l.21.67a38.18,38.18,0,0,1-10.7,4.51,41.5,41.5,0,0,1-11.79,1.26,37.1,37.1,0,0,1-11.66-2.38,78,78,0,0,1-10.57-5.09l-.82-.46-.33-.63a39.54,39.54,0,0,1-4-11.34,29.31,29.31,0,0,1,.41-12,31.41,31.41,0,0,1,5.14-10.57,42.26,42.26,0,0,1,8-8.18Z"/><path class="cls-4" d="M129.68,284.6c-4.27-23.91-4.57-45.77-8.37-70.25-2.54-16.41-3.14-36.51,1.94-53.22s16.61-29.67,32.61-33.19c28.14-6.19,51-1.33,66.25,21.67s15,44,17.52,69.59"/><path d="M157.1,261.68c-2-6.82-3.73-13.57-5.21-20.43a166.39,166.39,0,0,1-3.18-20.9,89.67,89.67,0,0,1,.67-21.45,55.11,55.11,0,0,1,7.17-20.18,156.72,156.72,0,0,0-1.69,20.67c-.1,6.8.3,13.57.83,20.41s1.21,13.73,1.64,20.72A120.73,120.73,0,0,1,157.1,261.68Z"/><path class="cls-4" d="M190.93,126.63c15.31-26.8,50.94-43.51,80.23-28.3,24.67,12.8,34.79,37,36.54,65.09s-6.37,61.37-14.18,88.8"/><path class="cls-3" d="M303,121a1,1,0,0,1-.75.43c-3.14,1-9.1,1.13-9.08-7.28a3.23,3.23,0,0,1,.23-1.07,204.85,204.85,0,0,1,14-16,80.17,80.17,0,0,1,9.92-8.38,74.3,74.3,0,0,1,11.28-6.66,82.9,82.9,0,0,1,24.89-7,124.89,124.89,0,0,1,25.25-.57A111.44,111.44,0,0,1,391.43,76a48.51,48.51,0,0,1,13,4.33,34.46,34.46,0,0,1,11.24,9.19L416.82,91c.36.5.67,1,1,1.53a34.51,34.51,0,0,1,1.8,3.18,37.84,37.84,0,0,1,2.53,6.7,52,52,0,0,1,1.76,13.48,103.75,103.75,0,0,1-.76,12.75q-2.78,24.12-7.27,48c-3,15.89-6.49,31.65-10.39,47.31-2,7.83-4,15.61-6.18,23.39s-4.53,15.66-7.48,23.44a116,116,0,0,1-11.35,22.66l-.89,1.35-1,1.31c-.64.87-1.26,1.76-1.93,2.61-1.37,1.68-2.71,3.39-4.22,5s-3.06,3.12-4.63,4.64c-.81.74-1.69,1.44-2.54,2.15L364,311.48c-.44.34-.9.65-1.35,1l-2.41,1.71c-.22.16-.48.3-.71.45l-1.46.87c-1,.56-1.91,1.19-2.94,1.66l-3,1.51c-1,.46-2.1.86-3.15,1.28a26.78,26.78,0,0,1-3.43.94,34.78,34.78,0,0,1-3.88.78,41,41,0,0,1-4.95.52,45.18,45.18,0,0,1-11.59-.83,40,40,0,0,1-5.76-1.71,27.83,27.83,0,0,1-2.68-1.1l-2.47-1.29c-.34-.17-.67-.33-1-.51l-.9-.58-1.64-1.1a19.65,19.65,0,0,1-2.64-2.11,24.34,24.34,0,0,1-1.9-1.85c-.49-.6-.89-1.13-1.21-1.59-1.29-1.84-1.24-2.67-.4-2.74s2.49.56,4.64,1.49c1.12.39,2.31,1,3.65,1.43l2.11.69c.36.11.71.26,1.08.36l1.15.27c-.14-.09.21,0,.91.15l1.32.35,1.82.31a35.52,35.52,0,0,0,10.18.32,44.56,44.56,0,0,0,5.47-.92,48.37,48.37,0,0,0,4.64-1.48l1.81-.7c.54-.2,1-.46,1.37-.63l1.19-.57a21.33,21.33,0,0,0,2.38-1.1c.78-.4,1.59-.73,2.34-1.2l2.26-1.36a5.21,5.21,0,0,0,.56-.34l1.76-1.26,1.07-.75c.35-.26.68-.56,1-.84l2-1.67a69.9,69.9,0,0,0,13.43-16.92c1-1.56,1.76-3.24,2.64-4.86s1.64-3.33,2.37-5.07c1.53-3.41,2.85-7,4.13-10.55,2.51-7.19,4.63-14.64,6.68-22.2s4-15.12,5.89-22.72q5.61-22.78,9.85-45.84,2.1-11.52,3.82-23.1c.56-3.86,1.11-7.72,1.6-11.59.26-1.93.49-3.87.72-5.81s.47-3.88.65-5.73c.73-7.44.74-14.72-1.35-20.77a25,25,0,0,0-1.92-4.27,22.3,22.3,0,0,0-10.2-9.08c-5.88-2.68-13.24-3.51-20.88-4a108.4,108.4,0,0,0-22.31.68,70.19,70.19,0,0,0-20.77,6,64.76,64.76,0,0,0-9.2,5.49,70,70,0,0,0-8.26,7A195.79,195.79,0,0,0,303,121Z"/><path d="M319,248.56c6,2.23,11.6,4.81,17.24,7.2s11.21,4.7,16.85,6.5,11.32,3.13,17,3a24.53,24.53,0,0,0,8.3-1.5c.67-.25,1.32-.58,2-.86l1.95-1.07,1.9-1.29c.61-.48,1.21-1,1.86-1.46a18.36,18.36,0,0,1-6,7.68,22.69,22.69,0,0,1-9.38,4,33.48,33.48,0,0,1-10.08.27,50.59,50.59,0,0,1-9.62-2.12,73.85,73.85,0,0,1-17.3-8.32A78.35,78.35,0,0,1,319,248.56Z"/><path class="cls-3" d="M424.52,121.08c-.06.27-.09.36-.46.64a9.17,9.17,0,0,1-5,2.5c-2.06.19-4.47-.66-6.44-4.71a4,4,0,0,1-.25-1.15,58.74,58.74,0,0,1,3.58-11A49.06,49.06,0,0,1,422,97.27a45.64,45.64,0,0,1,3.25-3.71,41.62,41.62,0,0,1,7.88-6.13,39.28,39.28,0,0,1,4.51-2.22c.77-.31,1.54-.67,2.33-.91l2.39-.74c.81-.27,1.56-.38,2.34-.57s1.54-.37,2.33-.48a55.86,55.86,0,0,1,9.49-.81,60.2,60.2,0,0,1,9.41.88,70.43,70.43,0,0,1,9,2.29,97.51,97.51,0,0,1,16.39,7.33c2.57,1.42,5.12,2.91,7.61,4.56a83.92,83.92,0,0,1,7.32,5.31,66.61,66.61,0,0,1,6.78,6.27,54.16,54.16,0,0,1,5.88,7.37,51.22,51.22,0,0,1,7.44,17.49,57.76,57.76,0,0,1,.87,18.74,87.24,87.24,0,0,1-4,17.6c-1.82,5.6-4,11-6.08,16.16l-12.92,31.08-12.94,31.06-1.61,3.88-1.21,2.86c-.83,1.92-1.69,3.85-2.63,5.78,0,0-.61,1.1-1.73,2.91a73.22,73.22,0,0,1-5,7c-1.12,1.35-2.34,2.76-3.71,4.12a39.78,39.78,0,0,1-4.54,4,32.59,32.59,0,0,1-10.58,5.34,25.89,25.89,0,0,1-7.55,1.2,17.86,17.86,0,0,1-4.66-.52c-2.18-.63-2.67-1.3-2.07-1.89,1.18-1.18,6.69-2,11.92-5.27-.33.05,1.18-.69,3.27-2.31a32.73,32.73,0,0,0,6.87-7.32,58.82,58.82,0,0,0,5.29-9.39c1.24-2.75,2-4.69,2-4.69q1.19-2.56,2.32-5.25l3.66-8.82L494.08,209c4.21-10.17,8.53-20.36,12.65-30.52s7.64-20,8.38-29.87a40.86,40.86,0,0,0-7.34-27.18c-5.6-7.83-14.13-13.84-23.36-18.83s-18.83-8.5-28.42-8.42a43.56,43.56,0,0,0-7.12.67c-.59.12-1.17.26-1.76.39l-.87.19c-.29.07-.54.17-.81.25l-1.61.48-1.54.64-.77.31-.73.39c-.48.27-1,.5-1.46.79a26.66,26.66,0,0,0-2.73,1.9,27.79,27.79,0,0,0-2.52,2.22c-.75.85-1.57,1.64-2.25,2.58a36,36,0,0,0-4.49,7.52A46.38,46.38,0,0,0,424.52,121.08Z"/><path d="M410.64,261a69.61,69.61,0,0,0,5.85,5.06,41.29,41.29,0,0,0,5.67,3.51c2,1,4.11,2,6.37,3a54.67,54.67,0,0,1,7.15,3.8A18,18,0,0,1,427.3,278a20,20,0,0,1-8.39-2.23,16.45,16.45,0,0,1-6.59-6.15A12.39,12.39,0,0,1,410.64,261Z"/><path class="cls-5" d="M381.46,286.87c3.41,7.06,6.18,14.33,12,20s12.1,10.36,20.79,10.46c9.67.11,16.54-2.52,25.22-9,14.36-10.78,28-27.93,37.37-43.86"/><path class="cls-3" d="M378.8,512.68a1.15,1.15,0,0,1-.46-.81,7.52,7.52,0,0,1,.29-5.81c1-1.83,3.29-3,7.3-3a3.2,3.2,0,0,1,1,.21,52.31,52.31,0,0,0,15.61,9.57A34.89,34.89,0,0,0,413.14,515a26,26,0,0,0,2.65,0c.89,0,1.76-.17,2.64-.24,1.93-.29,3.88-.63,5.76-1.08a45.84,45.84,0,0,0,20.12-10c1.46-1.22,2.83-2.58,4.19-4,.66-.73,1.31-1.42,2-2.19l2-2.39,4-4.78c1.32-1.62,2.58-3.28,3.87-4.92,5.18-6.55,9.84-13.48,14.36-20.49a248,248,0,0,0,21.89-44.87,251.27,251.27,0,0,0,12.18-48.46c.37-2.05.56-4.13.82-6.2l.74-6.23c.33-4.19.67-8.28,1-12.55q.81-12.92,1.91-25.72c1.43-17.09,3-34.09,4.22-51.06s2-33.92,2-50.79c0-.53,0-1.06,0-1.59l0-1.2,0-.75,0-1.49-.06-3c-.06-2-.06-4-.16-6,0,0,.07-4.65.29-11,0-3.15,0-6.71.07-10.33s-.12-7.23-.06-10.55c0-.71,0-1.38,0-2s-.05-1.25-.08-1.83c0-1.16-.06-2.21-.07-3.16a35.61,35.61,0,0,1,.19-4.46c.26-2.19.77-2.86,1.48-2.41s1.56,2.06,2.51,4.41c.47,1.17,1,2.53,1.47,4l.75,2.34c.21.82.42,1.66.63,2.53,0-.38.46,1.51,1.1,4.57.3,1.53.73,3.34,1,5.32s.65,4.12,1,6.26c.73,4.3,1.17,8.66,1.55,11.94.19,1.64.34,3,.45,4s.15,1.51.15,1.51l.13,6.06.07,3v.76l0,1c0,.53,0,1.07,0,1.6l0,6.38c-.13,17-1.09,34-2.35,50.81s-2.85,33.61-4.21,50.31l-1,12.51-.4,6.25c-.14,2.08-.26,4.13-.44,6.3-.37,4.29-.58,8.58-1.16,12.85l-.76,6.41c-.28,2.13-.67,4.25-1,6.38A253.44,253.44,0,0,1,484.36,473c-2.39,3.59-4.64,7.27-7.22,10.73L473.38,489c-1.29,1.72-2.63,3.4-3.95,5.1-2.59,3.45-5.42,6.69-8.2,10-.71.83-1.34,1.63-2.13,2.48s-1.52,1.69-2.34,2.5l-1.22,1.22-1.27,1.19c-.83.8-1.73,1.54-2.62,2.3a57.32,57.32,0,0,1-11.87,7.62,63.92,63.92,0,0,1-13.22,4.51c-1.12.25-2.24.46-3.36.69s-2.19.38-3.4.52a41.45,41.45,0,0,1-7.38.31,47,47,0,0,1-14.2-2.92A64.69,64.69,0,0,1,378.8,512.68Z"/><path d="M314.58,355c11.69,9,20.92,21.29,27.47,34.72a130.82,130.82,0,0,1,12.33,43c1.72,14.91.61,30.4-4.33,44.69-.57,1.8-1.33,3.53-2,5.29s-1.52,3.44-2.32,5.14-1.78,3.31-2.67,5-2,3.19-3,4.77a80.64,80.64,0,0,1-14.8,16.55,112.75,112.75,0,0,0,11.85-18.3c.77-1.63,1.59-3.22,2.34-4.85s1.41-3.3,2-5,1.25-3.35,1.78-5.05,1.1-3.39,1.51-5.13a115.5,115.5,0,0,0,2.6-42.32,159.65,159.65,0,0,0-10.35-41.57A131,131,0,0,0,314.58,355Z"/><path d="M348.15,365.94A81.38,81.38,0,0,1,376.51,337a90.09,90.09,0,0,1,39.13-12.77,84.62,84.62,0,0,1,40.71,6.43,86.57,86.57,0,0,1,32.68,24,118.8,118.8,0,0,0-34.61-18.88,94.26,94.26,0,0,0-38.15-4.57,102.11,102.11,0,0,0-37.1,10.54A108.29,108.29,0,0,0,348.15,365.94Z"/><path d="M513,288a24.19,24.19,0,0,1-9.3,6,31,31,0,0,1-11,2,32.12,32.12,0,0,1-5.62-.53,23.75,23.75,0,0,1-5.5-1.74,17.85,17.85,0,0,1-8.32-7.58,67.11,67.11,0,0,0,9.94,2.32,76.64,76.64,0,0,0,9.51.53c3.19,0,6.43-.13,9.76-.34S509.19,288.14,513,288Z"/><path class="cls-4" d="M211.37,493.07a852.47,852.47,0,0,1-1.62,112.5"/><path class="cls-4" d="M449.87,596.86c4.79-33.88,6.66-65.86,5-94.29"/><path d="M224.29,124.92a24.31,24.31,0,0,1,7.8-4.79,33.8,33.8,0,0,1,8.68-2.12,33.41,33.41,0,0,1,8.93.2,24.27,24.27,0,0,1,8.64,3,44.14,44.14,0,0,1-8.56,2.51c-2.78.56-5.51,1-8.26,1.26s-5.49.48-8.33.54A46,46,0,0,1,224.29,124.92Z"/><path d="M329.08,116.8a44,44,0,0,1,14.24-8.74A46.55,46.55,0,0,1,360.09,105a45.55,45.55,0,0,1,16.73,3.31,42.42,42.42,0,0,1,14,9.11c-5.41-1.42-10.5-2.87-15.61-3.84A82.72,82.72,0,0,0,360.05,112a85,85,0,0,0-15.25,1.36C339.67,114.22,334.53,115.55,329.08,116.8Z"/><path d="M307,122.26a102.13,102.13,0,0,1,10,24.3q.81,3.21,1.54,6.44l1.15,6.52c.27,2.19.48,4.39.72,6.58l.35,6.62-.09,6.63-.49,6.62-.94,6.56c-.43,2.16-.87,4.33-1.35,6.48a91.24,91.24,0,0,1-9.74,24.42,131.55,131.55,0,0,0,7.45-24.92l1.05-6.39.7-6.43.39-6.45,0-6.46-.28-6.46-.61-6.43-.92-6.41-1.22-6.36A156.8,156.8,0,0,0,307,122.26Z"/><path d="M448.7,119.94A34.07,34.07,0,0,1,464.1,117,33,33,0,0,1,491,133.46a32.94,32.94,0,0,1,4.22,15.12,115.85,115.85,0,0,0-8.73-12,45.9,45.9,0,0,0-23.13-14.17A127.3,127.3,0,0,0,448.7,119.94Z"/><path d="M338.66,360.22a24.7,24.7,0,0,1,.47-11.05A30,30,0,0,1,344,339.08a31,31,0,0,1,8.1-7.65,26.36,26.36,0,0,1,10.24-4.07c-2.19,3.08-4.49,5.63-6.62,8.22s-4.18,5.06-6.08,7.64-3.67,5.24-5.41,8.07S340.77,357.09,338.66,360.22Z"/><path d="M182.87,288.55a26,26,0,0,1,1.54,5.75,38.36,38.36,0,0,1,.45,5,35.69,35.69,0,0,1-.2,5,25,25,0,0,1-1.25,5.82,11.4,11.4,0,0,1-4.15-4.76,14.54,14.54,0,0,1-.28-11.84A11.46,11.46,0,0,1,182.87,288.55Z"/><path class="cls-5" d="M173.87,368.15c12.64-1.58,20.78-7.45,27.61-18.08"/><path class="cls-5" d="M205.45,340.27l5-11.87"/><path class="cls-5" d="M191,365.58q-3.92,9.92-7.86,19.84"/><path class="cls-6" d="M207.44,605.7C90.6,561.62,7.5,448.77,7.5,316.5c0-170.66,138.34-309,309-309s309,138.34,309,309-138.34,309-309,309a308.2,308.2,0,0,1-109.06-19.8"/></g></g></svg>