<svg xmlns="http://www.w3.org/2000/svg" viewBox="0 0 1484.74 496.63"><title>Asset 9</title><g id="Layer_2" data-name="Layer 2"><g id="Layer_23_copy" data-name="Layer 23 copy"><path d="M129.51,154.82c5.65-9.42,10.55-19.32,15.64-29,4.33-8.26,9.1-16.48,12.5-25.19A74.79,74.79,0,0,0,162.41,69c-1.31-21.32-11.14-42.58-28.19-55.8C117.34.08,95-2.85,74.7,2.8c-21.88,6.08-37,20.45-47.58,40C20.24,55.6,13.21,68.39,6.94,81.47A70.3,70.3,0,0,0,1.51,96.76a70.78,70.78,0,0,0,1.34,34.33c6.81,24,24,44.5,44.3,58.53C95,222.7,157.73,218.07,212.23,230.28c46.59,10.45,97.07,35.58,108,86.53a101.83,101.83,0,0,1,1,35.8,111.29,111.29,0,0,1-3.89,17.21q-1.23,4-2.76,7.87c-.65,1.66-1.37,3.29-2.09,4.93q-5.59,11.85,8.39-15.75,14.82-27.17,8.22-15.85c-13.52,21.63-33.82,37.51-57.62,46.57-49.93,19-105.14,6.52-147.35-24.43a223.41,223.41,0,0,1-55.16-59c-15.07-23.38-25.95-51.4-20.75-79.57a85.65,85.65,0,0,1,5.29-17.19L35.67,251.72,36.83,250c.83-1.1,1.63-2.22,2.5-3.29a58.45,58.45,0,0,1,7.19-7.4c9.85-8.42,22.33-12.91,35.17-13.86,27.7-2,53,11.18,73.67,28.52,23.38,19.63,43.8,43.27,64.28,65.82q32.43,35.74,63.09,73.05,14.88,18.12,29.33,36.58c-.83-1.05,10.79-20,11.85-22,2.74-5.21,5.48-10.43,8.17-15.68.57-1.13,3.61-5.51,3.25-6.56-10.73-31.3-21.83-63.71-20.68-97.25a114.48,114.48,0,0,1,7.88-38.38c.67-1.69,1.42-3.33,2.16-5l-18.54,35.22,1.71-2.81a82.87,82.87,0,0,1,5.48-7.58,75.79,75.79,0,0,1,14.12-13.54,62.92,62.92,0,0,1,62.83-6.31c9.34,4.22,17.63,10.85,22.94,19.7,7.53,12.54,7.34,28.48,8.92,42.61L435.3,429.51c-.09-.75,3.67-6.6,3.56-6.4,2.8-5.18,5.55-10.39,8.29-15.61s5.48-10.43,8.16-15.68c1-2,2.84-4.41,3.26-6.56q17.19-89.49,34.39-179l-23.27,44.26c45.9,45.4,62,116.56,40.23,177.32l23.27-44.25a179.3,179.3,0,0,1,11-80.1q2-5.33,4.39-10.52c9.36-20.48-23.31,42.22-13.64,25.84a175,175,0,0,1,12-17.74,177.19,177.19,0,0,1,28.87-29.45l1.48-3.08c-20,40.05-17.2,88.83,10.09,125,13.44,17.84,34.89,35.87,58.72,29.08,10.72-3.05,19.9-10.23,26.7-18.91A92.62,92.62,0,0,0,681,390.91c7.06-12.94,14-26,20.57-39.17,14.89-29.67,7.14-62.08-1-92.57.13.48-3.85,6.94-3.56,6.39-2.8,5.19-5.55,10.4-8.29,15.62s-5.48,10.43-8.16,15.68c-1,2-2.84,4.41-3.25,6.56-7.11,36.85-14.4,77.25,4,112.1C696,443.43,725,458,756,450.31a79.3,79.3,0,0,0,37.06-21.1A76.6,76.6,0,0,0,804.6,414c8.76-15,16.85-30.68,24.39-46.31,14.51-30.11,10.74-65.62-6.36-93.93-16.13-26.7-48.56-51.65-81.09-38.92-19,7.43-26,24.7-34.95,41.71C697.73,293.44,686,310,694.27,329.43,700.48,344,714.68,355,730.05,358.3c17.87,3.83,36.5-1.57,52.19-10.11,30.47-16.58,53.64-44.75,70.32-74.64,13.19-23.62,26.6-47.68,36.63-72.87a316.47,316.47,0,0,0,16.63-58.48c8.82-46.83,8.91-94.72,9-142.2,0,1-3.49,6.25-3.57,6.4Q907.08,14.17,903,22t-8.16,15.68c-1,2-2.85,4.42-3.25,6.57a1320.74,1320.74,0,0,0-18.31,352.87q4.14,50,12.1,99.5c-.11-.66,3.74-6.73,3.56-6.4q4.2-7.78,8.3-15.61t8.16-15.68c.82-1.62,3.28-4.81,3.25-6.57a319.52,319.52,0,0,1,29.13-138c1.19-2.59,2.42-5.17,3.66-7.74,6.47-13.41-20.69,38-11.39,21.89q4.86-8.42,10.21-16.54a340.29,340.29,0,0,1,20.91-28.45A331.4,331.4,0,0,1,1011.2,234,312.37,312.37,0,0,1,1078.57,193l23.27-44.25A541.26,541.26,0,0,0,921.1,292.66l-17.31,33.4c-6.81,12.78-1.62,3.89,2.09,1.05a30.41,30.41,0,0,1,6.71-3.85,41.11,41.11,0,0,1,19.17-2.69c13.12,1.08,26,7.13,34.72,17.1C989.42,364,987.74,402,999.83,433.19c10.78,27.76,35.54,53.79,67.87,42.71,14.84-5.08,26.9-16.56,35.56-29.34,6.68-9.84,11.89-20.74,17.41-31.23,5.83-11.1,12.3-22.21,16.72-34,7.46-19.88,7.51-41.8,7.4-62.76-.12-23.78-.88-47.61,4.78-70.89-.42,1.73-2.9,5.17-3.56,6.39-2.8,5.19-5.55,10.4-8.29,15.62-3.69,7-9.26,14.56-11.42,22.24-4.67,16.62,5.7,32.92,20.06,40.92,18.16,10.12,40.64,5.89,59.54.39,18.4-5.37,37.19-12.1,52.64-23.76,20.65-15.59,30.51-41.3,41.91-63.61,7.9-15.46,13-32.57,5.29-49.3-5.37-11.59-15.94-19.73-27.77-24-29.41-10.68-59.83.95-78.63,24.9-5.51,7-9.8,14.81-14,22.65-8,14.77-16.3,29.55-23.15,44.88-7.05,15.74-11.28,32.58-13.86,49.59-5.54,36.69-4.48,76.28,12.16,110.15,14.7,29.94,43.18,52.84,76.65,57.54,15.78,2.22,32-.16,46.05-7.89,15.63-8.61,27.32-22.56,36.92-37.31,20.5-31.5,34.18-73.06,69.93-91,26.33-13.24,72.26-1.42,71.44,33.88,0-1.07,3.44-6.16,3.56-6.39,2.8-5.19,5.55-10.4,8.29-15.62s5.48-10.43,8.16-15.68c.87-1.68,3.21-4.72,3.26-6.56.64-27.89-31-42.75-55.37-39.17-31,4.54-51.06,35.15-65.25,60.14-15.9,28-30.73,60.82-61.44,75.42-27.68,13.16-60.7,5.77-85-11.3-56.71-39.93-58-126-37.8-185.87,1.42-4.23,3-8.42,4.81-12.51l.91-2q5.67-11.87-8.26,15.53l-9.19,17.5q1.38-2.41,2.9-4.75a92.35,92.35,0,0,1,16.72-19.32A65.78,65.78,0,0,1,1224,213.27c23.89-2.6,52.29,7.52,60.25,32.24a48.19,48.19,0,0,1,.12,27.67c-.4,1.42-.89,2.81-1.36,4.22-5.82,17.38,27.13-44.39,13.54-26.64a71.85,71.85,0,0,1-9.25,9.93c-15,13.38-34.18,20.85-53.1,26.75-19.68,6.14-43.2,11.82-62.75,2.14-15.32-7.59-26.79-24.57-21.92-41.9l-23.27,44.25c-9.47,39-.31,79.31-7.87,118.44-1.51,7.85-4.25,15-7.32,22.3l18.39-35.06c-.75,1.3-1.54,2.56-2.38,3.8-1,1.49-2,3-3.07,4.39a90.6,90.6,0,0,1-8.23,9.6c-10.11,10.17-23.3,18.1-37.92,18.8-31.72,1.5-50.06-28.54-58.21-55.15-9-29.46-9.27-66.93-33.48-89.3a52.5,52.5,0,0,0-37.87-13.52A35.53,35.53,0,0,0,930.4,282c-7.54,5.15-11.1,13.77-15.25,21.57q-5.92,11.13-11.74,22.34c-1.68,3.23-3.25,8.19-5.58,11.06A541.29,541.29,0,0,1,1078.57,193c.94-.46,3.52-6.31,3.57-6.4q4.18-7.77,8.29-15.61t8.16-15.68c.6-1.18,2.25-6.12,3.25-6.56-48.3,21.53-90.36,55.43-122.77,97.14-20.5,26.38-35.81,55.82-51.15,85.39-12.78,24.65-24,49.77-31.34,76.61a313.42,313.42,0,0,0-11.23,88.71l23.27-44.26A1320.89,1320.89,0,0,1,900,99.13Q905.52,49.3,914.83,0L891.56,44.26c-.14,64.74-.26,131.44-22.74,193.07-2.42,6.63-5.08,13.18-8,19.6-9.16,20,20.46-36.89,11.24-21.09q-3.56,6.09-7.5,11.93a199.18,199.18,0,0,1-26.44,31.65c-20.45,19.75-48.09,38.09-77.81,35.63-27.55-2.29-56.31-31.13-42.19-59.65l-22.44,42.68c7.24-12.86,21.55-20.78,36-22.16,16.08-1.54,31.87,5.35,44.25,15.17,25.24,20,40.12,53.14,38.86,85.26a87.94,87.94,0,0,1-3.8,22.59c-.65,2.09-1.38,4.17-2.2,6.2l-.7,1.6q-9.44,21.6,18.83-35.44a76.64,76.64,0,0,1-7.3,10.14,79,79,0,0,1-34.83,23c-29,9.54-58.83-.29-75.83-25.81-23.75-35.64-16-80.12-8.41-119.49l-23.26,44.25c6.57,24.66,13.58,51.11,7.27,76.57-.6,2.41-1.44,4.72-2.22,7.07l-.38,1,17.32-32.88c-.87,1.11-1.61,2.37-2.47,3.5a61.09,61.09,0,0,1-10.27,10.68c-7.38,6-16.44,10.1-26,10.57-20.87,1-38.82-15.74-50.41-31.4a118.19,118.19,0,0,1-21.52-53c-3.19-21.64-.77-45.35,9.09-65.09a32.24,32.24,0,0,0,1.48-3.08c-33.39,27-52.1,65.29-70.68,103.17-14.83,30.23-21.65,63.69-18.57,97.3-.07-.79,3.65-6.55,3.56-6.4,2.8-5.18,5.55-10.39,8.29-15.61,3.8-7.23,8.65-14.53,11.42-22.24C555,322.85,538.86,251.68,493,206.28c.58.57-10.9,20.2-11.86,22Q477,236.12,472.94,244c-1,2-2.84,4.41-3.25,6.56Q452.5,340,435.3,429.51l23.27-44.25-12.83-114.8c-1.7-15.21-1.3-32.82-9.67-46.22-6.09-9.74-15.88-16.69-26.56-20.62-23.46-8.63-48.86-2.7-66.65,14.63-14,13.6-22,32.65-30.88,49.6-7.86,15-15.42,29.61-18.61,46.41-7.46,39.15,6.15,78.58,18.69,115.17l23.27-44.25q-59.54-76-126.26-146c-19.54-20.46-40.41-42-67.43-52.3-24-9.11-53.67-8.75-73.4,9.54-13.33,12.36-20.63,31.2-28.81,46.91-6.67,12.82-13.21,25.12-15.1,39.64-3.72,28.6,8.47,56.44,24.21,79.62,29.63,43.62,75.47,79.64,128.83,86.94,50.23,6.87,104.37-12.43,130.51-57.6,10.37-17.93,20.76-36.53,28.83-55.63a112.46,112.46,0,0,0,8.62-35.17c1.87-24.35-5.14-48.4-20.67-67.35-33.76-41.2-91.15-49.57-140.67-55.94-54.42-7-114.6-16.28-146.63-66.42C24.27,91,19.08,66.22,27.64,43,35,23.09-2.59,94.39,11.2,74.6A61.42,61.42,0,0,1,15.64,69,70.09,70.09,0,0,1,27.71,58.24,77.42,77.42,0,0,1,57.64,45.59c21.2-4,43.18,1.44,58.82,16.62,15.46,15,23.47,37,22.79,58.4a75.63,75.63,0,0,1-1.89,14.59,70,70,0,0,1-2,7.06c-.56,1.61-1.21,3.15-1.86,4.72-6.84,16.76,28.15-51.24,18.35-34.9-5.26,8.77-9.74,18.08-14.46,27.14-2.31,4.41-4.65,8.81-6.86,13.28-.2.4-2.24,4.38-1,2.32Z"/></g></g></svg>