<svg xmlns="http://www.w3.org/2000/svg" viewBox="0 0 317.89 349.28">
    <defs>
        <style>
            .a {
                fill: #ffffff;
            }
        </style>
    </defs>
    <title>avatar01</title>
    <path class="a" d="M234,148.72l.08.1h0l-.16-.21A1,1,0,0,0,234,148.72Z" />
    <path class="a" d="M239.49,163.07v.06l0,.1,0,.06C239.63,163.39,239.65,163.39,239.49,163.07Z" />
    <path class="a" d="M239.42,162.82v0s0-.05,0-.07Z" />
    <path class="a"
        d="M215.4,180.75a1.37,1.37,0,0,0-1.32-.19l-.35.26a1.6,1.6,0,0,0-.36.88l-.48,2.79a2.12,2.12,0,0,0,0,.87,2.71,2.71,0,0,0,.28.93,2.82,2.82,0,0,0,.53.82,2.4,2.4,0,0,0,.64.59,1.39,1.39,0,0,0,1.33.19l.34-.26a1.69,1.69,0,0,0,.37-.88l.48-2.79a2.3,2.3,0,0,0,0-.87,2.73,2.73,0,0,0-.29-.93,2.63,2.63,0,0,0-.53-.82A2.13,2.13,0,0,0,215.4,180.75Z" />
    <path class="a"
        d="M212.22,155.8c.05.31.1.63.14.94.08.53.15,1.07.21,1.61.13,1.12.23,2.24.29,3.36a53.68,53.68,0,0,1,0,6.47,3.56,3.56,0,0,0,1.49,3.2,1.26,1.26,0,0,0,2-.95,62.67,62.67,0,0,0-.86-15.17c-.18-1-1.2-2.37-2.31-2.32s-1.19,1.56-1,2.41A4.34,4.34,0,0,0,212.22,155.8Z" />
    <path class="a"
        d="M125,119.47a5.68,5.68,0,0,0-4.76,4.09c-.91,2.81-.21,5.74.59,8.48a3.87,3.87,0,0,0,1,1.68,2,2,0,0,0,1.34.64c1.16-.12,1.3-1.5,1-2.41-.15-.52-.31-1-.44-1.58-.07-.29-.14-.57-.2-.85l-.06-.28v-.07c0-.28-.07-.57-.09-.85,0-.13,0-.26,0-.38v0c0-.28.05-.57.09-.85,0,0,0-.13,0-.21l0-.07a5.18,5.18,0,0,1,.45-1s.17-.25.22-.32.28-.33.43-.48l.21-.19.12-.09.16-.1.24-.14a4.65,4.65,0,0,1,.52-.2l0,0h0l.36,0C128.64,124,127.06,119.32,125,119.47Zm-1.53,7.47Zm0-.11v0A.1.1,0,0,1,123.52,126.83Z" />
    <path class="a" d="M195.74,290.57s0,0,0,0h0Z" />
    <path class="a"
        d="M195.46,289.79a6.75,6.75,0,0,1,.57-1.36,6.51,6.51,0,0,1,.43-.6,2.07,2.07,0,0,0,.38-1.45,2.65,2.65,0,0,0-.23-.92,2.74,2.74,0,0,0-.44-.89,2.58,2.58,0,0,0-1.3-1.05,1.15,1.15,0,0,0-1.21.29,8.44,8.44,0,0,0-1.82,4.13,3.39,3.39,0,0,0,.33,1.8v0a3.51,3.51,0,0,0,.63,2.52c1.95,2.88,6.09,5.14,9.41,3.09a6,6,0,0,0,2.83-4.19,7.05,7.05,0,0,0-2.1-5.91,5.16,5.16,0,0,0-5.37-1.46,1.45,1.45,0,0,0-.71,1.14,3.3,3.3,0,0,0,.33,1.8c.44.88,1.38,2,2.49,1.59a.76.76,0,0,0,.18-.06l.06,0-.19,0a1,1,0,0,1,.35-.05h.5a5.51,5.51,0,0,0,.62.22l0,0,.2.13.09.08h0c0,.09,0,.22,0,.27v0c0,.12-.08.24-.13.36a3.78,3.78,0,0,1-.17.35v0l-.07.09a4,4,0,0,1-.57.65l-.3.27c.23-.22,0,0-.15.08a4,4,0,0,1-.71.37l-.38.13-.1,0h-.06a5.62,5.62,0,0,1-.91.05h-.32l-.27-.06c-.11,0-.81-.32-.92-.32l-.13-.07-.42-.27-.14-.1c.1.07.18.17,0,0l-.06,0,0,0,0,0-.31-.29,0,0a0,0,0,0,1,0,0C195.4,290.06,195.43,289.92,195.46,289.79Zm6-1.2s0,0,0,.07v0C201.5,288.62,201.47,288.58,201.49,288.59Z" />
    <path class="a"
        d="M211.73,327.09a1.26,1.26,0,0,0-2,1q-1,5.35-2,10.7a3.41,3.41,0,0,0,1.49,3.2,1.26,1.26,0,0,0,2-.95q1-5.36,2-10.7A3.41,3.41,0,0,0,211.73,327.09Z" />
    <path class="a"
        d="M118.66,292.13l-.33-.58a3,3,0,0,0-.84-.83l-.45-.22a1.19,1.19,0,0,0-.87,0l-.94.47a.92.92,0,0,0-.46.45,1.29,1.29,0,0,0-.25.69,2.33,2.33,0,0,0,0,.87,2.85,2.85,0,0,0,.28.93l.33.58a3.12,3.12,0,0,0,.84.82l.46.22a1.19,1.19,0,0,0,.87,0l.93-.46a.9.9,0,0,0,.46-.46,1.28,1.28,0,0,0,.25-.68,2.3,2.3,0,0,0,0-.87A2.73,2.73,0,0,0,118.66,292.13Z" />
    <path class="a" d="M97.48,292.77c-2.31,0-.79,4.72,1.27,4.72C101.06,297.49,99.54,292.77,97.48,292.77Z" />
    <path class="a" d="M271.75,117.3l-.06-.09,0,0A.43.43,0,0,1,271.75,117.3Z" />
    <path class="a"
        d="M238,77.3a2,2,0,0,0,.78.43c1.09.31,1.73-.74,1.59-1.73a53.62,53.62,0,0,0-8.43-22.35c-.51-.78-1.61-1.31-2.3-.93-.85-1.14-1.72-2.26-2.59-3.36a3.71,3.71,0,0,0-1-.9c0-.11,0-.22,0-.33a3.56,3.56,0,0,0-1.27-3c-.8-.61-1.58-.62-2.13.28l-.63,1-.16.13a1.9,1.9,0,0,0-.47-.24c-3.38-1-4.93,4.11-5.91,6.44-.15.35-.28.7-.42,1.05v0c-.23-1.1-2.59-3.64-3.31-1.57Q207.1,65.6,202.44,79a1.72,1.72,0,0,0-.88,1.76,4.11,4.11,0,0,0,.07.47,1.9,1.9,0,0,0-.19,1.19,3.55,3.55,0,0,0,.72,2,4.22,4.22,0,0,0,.86,1.91c.39,1.12,1.25,2.16,2.23,2.11,1.53-.08,3.05-.21,4.58-.37a84.54,84.54,0,0,0,25.26.1c1-.15,1.27-1,1.14-1.93A1.34,1.34,0,0,0,238,85.5a1.62,1.62,0,0,0,1.65.48c.41.55.83,1.1,1.26,1.63.58.72,1.65,1.62,2.51.76s.29-2.52-.3-3.26A46.58,46.58,0,0,1,238,77.3Zm-8.69-10.55a37.62,37.62,0,0,0,4,12.23,4.78,4.78,0,0,0-1.66.68,2.21,2.21,0,0,0-2.1-1.32,1.18,1.18,0,0,0-.84.52,2,2,0,0,0-.4,0,6,6,0,0,0-1.3.41c-.68.24-1.36.45-2.05.67q-6.49-1-12.93-2.38,5.14-10.1,9.33-20.64a2.42,2.42,0,0,0,.15-.81c.75-1.28,1.52-2.55,2.28-3.83Q226.34,59.58,229.29,66.75Z" />
    <path class="a"
        d="M317.81,341.33q-2.38-13-5.32-25.85Q311,309,309.41,302.64c-1-3.88-1.86-7.83-3.16-11.63-1.38-4.06-3.36-7.8-6.85-10.42a1.36,1.36,0,0,0-.68-.28c-.21-.23-.42-.47-.64-.7-.56-.58-1.14-1.13-1.74-1.66a2.8,2.8,0,0,0-.63-.68l-.73-.5a66.18,66.18,0,0,0-7.47-5.17,2.77,2.77,0,0,0-.84-.8c-1.18-.63-2.32-1.31-3.44-2l-1.33-.91a4.31,4.31,0,0,0-1-1.09c-3.34-2.59-6.75-5.07-10.22-7.47-5.25-4.42-10.43-8.93-16.24-12.48l-1-.66a79.64,79.64,0,0,0,7.27-25.12l2.09,2.29c.56.61,2,1,2.33-.08a1,1,0,0,0,.16-.12,1.36,1.36,0,0,0,.25-.39,1.15,1.15,0,0,0,1.58-.86,3.5,3.5,0,0,0-1-3.1l-.14-.16a30,30,0,0,0-.54-9.58,28.93,28.93,0,0,0-1.27-4.2q6.9-.68,13.82-1.26c.72,1.44,1.38,2.92,2,4.42a11.36,11.36,0,0,1,.44,1.15h0s0,0,0,.05c.08.22.16.44.23.66.27.78.52,1.57.75,2.35a4,4,0,0,0,1,1.68,2,2,0,0,0,1.35.64c1.15-.12,1.3-1.5,1-2.41a60.74,60.74,0,0,0-3.38-8.82l2.18-.18.13.06c.33.69.66,1.38,1,2.07l2.15,4.51a3.35,3.35,0,0,0,1.17,1.41,1.44,1.44,0,0,0,1.33.19c1-.57.79-2.07.38-2.94q-1.25-2.62-2.5-5.25l-.15-.33,2.23-.17c.32.49.65,1,.95,1.47l.28.47c.17.31.35.62.51.94a37.27,37.27,0,0,1,1.83,4,3.22,3.22,0,0,0,1.17,1.41,1.44,1.44,0,0,0,1.33.19c1.06-.59.73-2,.38-2.94a41.12,41.12,0,0,0-2.83-5.82l3.89-.28c1.66-.11,1.35-2.49.32-3.83L299,196a2,2,0,0,0,.38-1.44,3.76,3.76,0,0,0-.67-1.81,2.55,2.55,0,0,0-1.29-1.05,1.15,1.15,0,0,0-1.22.29l-3.29,4.17a2,2,0,0,0-.38,1.44s0,0,0,0l-3.33.25a20.27,20.27,0,0,0,2.24-3.13,2.65,2.65,0,0,0,0-1.67,3.74,3.74,0,0,0-1-1.67,1.9,1.9,0,0,0-1.35-.64l-.42.09a1.19,1.19,0,0,0-.58.65,17.71,17.71,0,0,1-4.3,4.75.85.85,0,0,0-.46.45,1.25,1.25,0,0,0-.25.68,2.75,2.75,0,0,0,.05.94l-1.38.11a19.78,19.78,0,0,0,1.67-3.73,2.85,2.85,0,0,0,0-1.66,3.68,3.68,0,0,0-1-1.68,1.88,1.88,0,0,0-1.35-.64,1.15,1.15,0,0,0-1,.74,16.66,16.66,0,0,1-3.06,5.69,2.12,2.12,0,0,0-.35,1.71c-5.1.43-10.19.91-15.29,1.41a5.62,5.62,0,0,0-1.15-.87,21.28,21.28,0,0,0-2-3.83,4.46,4.46,0,0,0-.64-1.64,11.48,11.48,0,0,0-.93-1.27c0-.05-.05-.09-.07-.15l-.06-.13a.09.09,0,0,1,0-.05l-.15-.56c0-.11,0-.23,0-.34s0-.28,0-.43,0-.48.05-.54a3.47,3.47,0,0,0-1.49-3.21l-.12-.05a1.63,1.63,0,0,0-.38-.17l-.45-.07a1,1,0,0,0-.76.36l-.24.39a2.22,2.22,0,0,0-.14,1.05v.2c0,.23,0,.45,0,.68-.26-.13-.53-.24-.81-.35.65-1.15,1.3-2.31,2-3.45a2.73,2.73,0,0,0-.4-2.62c.49-1,1-1.89,1.46-2.84a45.07,45.07,0,0,0,5-14.55c.23-.86.41-1.74.56-2.62a1.12,1.12,0,0,0,1.11-.31,2,2,0,0,0,.37-1.44c-.19-2.18-.37-4.35-.56-6.52a3.9,3.9,0,0,0-.67-1.81,3.13,3.13,0,0,0-.92-.89l-.14-.19v0a6.13,6.13,0,0,1,.42-1,5.5,5.5,0,0,1,1-1.1,4.37,4.37,0,0,1,1.33-.62c.5-.08,1-.11,1.51-.22a3.31,3.31,0,0,0,1.06-.35,2.65,2.65,0,0,0,1-1.14,2.19,2.19,0,0,0,.11-1.23,22.14,22.14,0,0,0,2.21-2.12c.6-.69.41-2.08-.18-3.12a19,19,0,0,0,1.47-2.5.43.43,0,0,0,0-.07l.05-.09A21.92,21.92,0,0,0,272,128a4.2,4.2,0,0,0,2-1.44c1.36-2,.29-4.74-1.58-6a3.08,3.08,0,0,0-.43-3c-.05-.08-.12-.21-.19-.31.06.11.1.21,0,0l0-.07,0-.06,0,0c-.13-.26-.26-.51-.37-.77s-.11-.26-.17-.4-.19-.57-.26-.86-.12-.46-.16-.69c0,0,0-.08,0-.15s0-.29,0-.43c0-.32-.05-.64-.05-1a.34.34,0,0,0,0-.09c0-.16,0-.32,0-.47a4,4,0,0,0-.38-1.93,41,41,0,0,0,11.48-3,12.26,12.26,0,0,0,5.74-5.07,11.66,11.66,0,0,0,.41-9.14,30.74,30.74,0,0,0-7.42-11.57q-.68-11.92-.74-23.88a2,2,0,0,0,1.62.93c1.17-.06,1.27-1.55,1-2.4-.36-1.29-.75-2.56-1.16-3.83a1.45,1.45,0,0,0,.67-1.06c.52-3-1.45-5.36-3.16-7.53l-1.61-2a104.77,104.77,0,0,0-7.23-13.34c-.41-.63-1.36-1.39-2.17-1A1.57,1.57,0,0,0,267,29l-4.35-5.52c-.57-.73-1.65-1.62-2.51-.76a1.71,1.71,0,0,0-.38,1.43l-1-1.12c-.79-.92-1.6-1.83-2.41-2.74l.42.2c1,.46,1.57-.69,1.59-1.45a3.61,3.61,0,0,0-1.5-2.93l-3.08-2.19a1.19,1.19,0,0,0-1.57,0q-3.89-1.78-7.82-3.47a21.75,21.75,0,0,0-2.48-1.06q-4.14-1.74-8.34-3.36c-.24-1.3-1.22-2.77-2.37-2.75l-2.87,0c-.43-1-1.18-1.8-2-1.84L186.5,0c-.83,0-1.15.58-1.14,1.37l-1.53.3c-2.17.44-4.34.9-6.5,1.4-3.36.76-6.7,1.61-10,2.5a1.37,1.37,0,0,0-.35,0,60.42,60.42,0,0,0-24.86,8.17c-.78.3-1.58.58-2.36.89a1.14,1.14,0,0,0-.61.55,1.25,1.25,0,0,0-.63.38c-3.42,3.66-7,7.21-10.16,11.12a30.59,30.59,0,0,0-2.45,3.51,3,3,0,0,0-.68-.62,1.23,1.23,0,0,0-1.91.46c-3.65,11.31-4.55,23.08-4.55,34.88a44.54,44.54,0,0,0-.68,8.15c-.71-.47-1.62-.59-2,.35a3.24,3.24,0,0,0,.65,3c-.88,0-1.17,1-1.18,1.8,0,1.93,0,3.86,0,5.79a29,29,0,0,1-7.43,9.55,70.12,70.12,0,0,1-8.51,4.33q-2.71.69-5.4,1.52a35.53,35.53,0,0,1-8.68-.13.76.76,0,0,0-.75.32A27.66,27.66,0,0,1,79.61,98,24.71,24.71,0,0,1,70,90.89c-.46-.57-1.13-1.26-2-1.06a1.51,1.51,0,0,0-.93,1.75,16.57,16.57,0,0,0,2.76,6.78,1.92,1.92,0,0,0-.38,1.35,16.79,16.79,0,0,0,4.82,10.78,4.14,4.14,0,0,0,1,1.15c.43.33.87.66,1.32,1a25.06,25.06,0,0,0,4.49,2.81,42.09,42.09,0,0,0,8.52,3.47c.74.22,1.17,0,1.38-.5,2.4.42,4.83.71,7.24.94s4.63.36,7,.42a40.41,40.41,0,0,0-2,7.56c-.63.76-1.3,1.5-2,2.22A46.6,46.6,0,0,1,86.91,139c-5.74,2.52-12.27,4.61-18.6,3.85l-1-.15c-1.86-.74-3.7-1.52-5.51-2.37a.88.88,0,0,0-1,.11,21.28,21.28,0,0,1-7.82-7.2c-.46-.72-1.52-1.48-2.34-.89s-.63,2-.21,2.81A54.25,54.25,0,0,0,72,157c5.2,2.79,10.7,4.06,16.55,2.85a38.48,38.48,0,0,0,7.32-2.33c.64,0,1.28-.06,1.91-.12A1.26,1.26,0,0,0,99,156a46,46,0,0,0,4.06-2.4,47.43,47.43,0,0,0,10-8.89,49.71,49.71,0,0,0,1.76,6c-3.45,10.22-13.33,18.16-24.29,18.52-1.18,0-1.26,1.56-1,2.41A2.94,2.94,0,0,0,91.79,174a32.25,32.25,0,0,0,29.07-12.75c.67.11,1.28-.17,1.31-1.15v-.28q1.06,2.41,2.17,4.82c.84,1.83,1.59,4.06,3,5.54-1,.24-2,.53-2.92.85a1.3,1.3,0,0,0-1.49.18,12.24,12.24,0,0,1-1.07.83,22.21,22.21,0,0,0-4.19,2.48l-.37.3a14.17,14.17,0,0,0-3.22,2.62,12.2,12.2,0,0,0-2.81,9.15,1.18,1.18,0,0,0-1.43,1.17,141.15,141.15,0,0,0,.32,17.58H110c-.87.06-1.24,1-1.14,1.8,1,7.44-2.61,14.54-7.56,19.88-5.39,5.82-12.33,10-19.08,14Q71.39,247.51,60,253.11C53.67,256.26,47.09,259,41,262.63c-5.48,3.23-10.49,7.22-14,12.5a1,1,0,0,0-1.29.32,167.21,167.21,0,0,0-19,30.67,1.93,1.93,0,0,0-.26.41L4.9,310A2.46,2.46,0,0,0,5,311.86,73.94,73.94,0,0,0,0,328a3.43,3.43,0,0,0,1.49,3.2,1.26,1.26,0,0,0,2-1,63.88,63.88,0,0,1,2-8c-.24,1.05-.47,2.11-.67,3.18-.47,2.39-1.08,4.93-.76,7.38s1.56,5.05,4.07,5.79,1.54-4-.37-4.59L7.72,334v0a13.11,13.11,0,0,1,0-2.17c.28-2.12.7-4.22,1.16-6.3a94,94,0,0,1,3.61-12.4,98.12,98.12,0,0,1,19-31.84,2.41,2.41,0,0,0,1,.4c4.66.59,8.34,4,11.47,7.24a92.11,92.11,0,0,1,9.15,11A94.24,94.24,0,0,1,66,325.39a94,94,0,0,1,3.62,15.78c.15,1.11.78,2.52,2,2.86s1.73-.75,1.59-1.73a102.2,102.2,0,0,0-27.25-56.46c-2.81-2.93-5.9-5.77-9.55-7.47a140.88,140.88,0,0,1,23.2-16.78,1.52,1.52,0,0,0,1.57.35,45.8,45.8,0,0,0,7.79-4.29l.52-.07a1.21,1.21,0,0,0,1.08-.93l.87-.53c3.35-2,6.8-3.81,10.32-5.5,6.47-3.11,13.13-5.78,19.8-8.42a4.79,4.79,0,0,0,.34,1.58c.41,1,.86,2,1.34,3a29.78,29.78,0,0,0,5.31,8.46c.8,1,1.65,1.95,2.53,2.88l1.45,1.61A121,121,0,0,0,127,273.36a1.26,1.26,0,0,0,2-.95,3.57,3.57,0,0,0-1.49-3.2,113.76,113.76,0,0,1-11-10.13,4.35,4.35,0,0,0-.83-1.28,57.19,57.19,0,0,1-10.23-14.92,3.09,3.09,0,0,0-1.6-1.62.08.08,0,0,1,0,0c.65-.52.58-1.65.14-2.64l.81-.4a1.63,1.63,0,0,0,.73-1.8c.57.52,1.51,1,2.07.27a39.75,39.75,0,0,0,2.44-3.59l.15-.18a17.69,17.69,0,0,1,1.58-1.54q.39-.34.81-.66l.21-.15.53-.36c1-.63.84-2,.38-2.93a3.87,3.87,0,0,0-1.31-1.51c.24-.53.45-1.07.64-1.62l.06.27a3.17,3.17,0,0,0,1.86,2.27.61.61,0,0,0-.13,0c-1,.59-.75,2-.38,2.94a17.47,17.47,0,0,0,5,6.36c2.12,1.84,4.3,3.61,6.45,5.41a2.12,2.12,0,0,0,1.35.64,1.16,1.16,0,0,0,1-.75,3.34,3.34,0,0,0-.93-3.34c-2.06-1.72-4.14-3.43-6.18-5.17a25.15,25.15,0,0,1-2.48-2.36c0-.06-.39-.43-.14-.16s-.1-.15-.12-.17c-.18-.23-.34-.46-.5-.7a2.13,2.13,0,0,0-.16-.25c-.14-.28-.27-.56-.39-.85a3.28,3.28,0,0,0-1.17-1.41,1.89,1.89,0,0,0-.52-.22c1-.24,1-1.56.8-2.36-.22-1-.41-2-.61-3a1.77,1.77,0,0,0,.25-.69c.06-.42.11-.84.17-1.26a3.37,3.37,0,0,0-.33-1.85c-.48-6.62-.72-13.26-.68-19.9a25.44,25.44,0,0,0,3.09,4.17,42.63,42.63,0,0,0,4.23,4.27,44.36,44.36,0,0,0,10,6.61,41.63,41.63,0,0,0,4.6,1.9l1.2,1a3.78,3.78,0,0,0,1,1.88c.73.7,1.54,1.45,2.41,2.18a2.14,2.14,0,0,0,.55.46,19,19,0,0,0,7.77,4.16c1.19.89,2.35,1.81,3.48,2.78a3.61,3.61,0,0,0,.92,1.61c.44.43,1.33.89,1.91.47a1.06,1.06,0,0,0,1.24-.67,1.89,1.89,0,0,0,.17-.8,1.69,1.69,0,0,0,.59-.62l1.23-2.15c1.09-1.44,2.17-2.89,3.26-4.34l1.68.42a.89.89,0,0,0,.66,0,.74.74,0,0,0,.55-.31,1.09,1.09,0,0,0,.3-.63,1.71,1.71,0,0,0,.08-.81c0-.2-.07-.4-.11-.61a3.87,3.87,0,0,0-.56-1.2l-.14-.17a2.75,2.75,0,0,0,0-2.36l.78-1.35c.85-1.48-1.82-5.28-3-3.68a.75.75,0,0,0-.32.1l-4.62,2.86a1.49,1.49,0,0,0-.71,1.14,3.09,3.09,0,0,0,.12,1.23,15.82,15.82,0,0,1-2.68-.87l-.18-.08-.11,0-.22-.12c-.29-.14-.56-.3-.83-.46s-.31-.22-.47-.33V213a3.35,3.35,0,0,0-2-2.86c-.61-.21-1.21-.45-1.81-.67a1.73,1.73,0,0,0-.87-.36l-.14,0a95,95,0,0,1-22.5-12.41,1.23,1.23,0,0,0-1.08-.23c-.36-.45-.72-.92-1.1-1.36-1.4-1.63-3-3.63-4.88-4.69a3.39,3.39,0,0,0-3.42-.11,5.69,5.69,0,0,0-.08-.82c.82,0,1.09-1,1.11-1.79,0,.36,0-.1,0-.17a4.63,4.63,0,0,1,.07-.52,2.54,2.54,0,0,1,.18-.72,8.63,8.63,0,0,1,.83-1.78,11.19,11.19,0,0,1,2.65-2.84,1.56,1.56,0,0,0,.33.14,3.93,3.93,0,0,0,.67.12h.67l.21,0,.19,0a8.29,8.29,0,0,0,3,5c1.73,1.46,3.58,2.79,5.43,4.08,2.17,1.53,4.41,3,6.69,4.32a1.92,1.92,0,0,0,1.12.66A109.41,109.41,0,0,0,155,203.74q3.66,1.38,7.41,2.47c1.18.34,2.37.66,3.56,1,.32.08.76.15,1.21.27a2.46,2.46,0,0,0-.2,1.93c.49,1.59.93,3.19,1.34,4.79a2.13,2.13,0,0,0-.5,2.23q1.74,6.39,3.6,12.73c1.49,8.29,2.86,16.62,5.36,24.68.44,1.39.91,2.77,1.42,4.14a32.39,32.39,0,0,0,5.53,14,72.94,72.94,0,0,1-16.22-6.77c-.9-.48-1.45-.26-1.73.26-5-1.1-9.45-3.7-13.63-6.66-2.11-1.51-4.24-3.05-6.25-4.68a17.31,17.31,0,0,1-4.71-5.23c-.42-.83-1.41-2.07-2.49-1.59s-.79,2.16-.39,2.93c2.75,5.34,7.85,8.79,12.6,12.22s10,6.62,15.85,7.75a1.21,1.21,0,0,0,1.21-.32,101.93,101.93,0,0,0,9.94,4.78,45.61,45.61,0,0,0,9.58,2.61,2.58,2.58,0,0,0,.82.94,18.15,18.15,0,0,0,16.17,1.4,20.87,20.87,0,0,0,2.91-.6,4.63,4.63,0,0,1,.54.29l.31,10a15.46,15.46,0,0,0,.19,3.19s0,0,0,0a18.29,18.29,0,0,1-10.94,6.28,48.53,48.53,0,0,1-11.29-.58,2.57,2.57,0,0,0-1.93-1.42c-7.1-.71-13.62-3.39-19.76-6.87a1.92,1.92,0,0,0,0-.24,3.41,3.41,0,0,0-2-2.86,89,89,0,0,1-9.5-4.42c-.54-.34-1.06-.68-1.58-1l-1.72-1.23a1.28,1.28,0,0,0-1.07-.23,90.44,90.44,0,0,1-12.89-9.49c-.73-.65-1.85-1-2.35.1a3.31,3.31,0,0,0,.93,3.34A96.63,96.63,0,0,0,152,286.27c2.65,1.88,5.35,3.73,8.12,5.46L152.92,290c-1.68-.4-1.83,1.47-1.2,3-7.79-1.25-15.62-2.28-23.48-3-1.19-.12-1.23,1.67-1,2.41a2.93,2.93,0,0,0,2.3,2.32q17.37,1.66,34.52,5c1.37.27,1.73-.88,1.5-2.1l11.07,2.65a1.25,1.25,0,0,0,1.1-.17c1.35.38,2.71.7,4.1,1a2.33,2.33,0,0,0,1.31,1.13,51.94,51.94,0,0,0,9.75,1.45,1.73,1.73,0,0,0,.94.37,22.46,22.46,0,0,0,5.41-.43c1.62-.12,3.23-.31,4.83-.59a1.35,1.35,0,0,0,1.13-1.34c.12.35.24.71.35,1.07.33,1,.62,2.1.86,3.16.12.52.23,1,.33,1.55,0,0,.07.36.09.44l.12.75c.17,1.08.29,2.16.38,3.26a3.74,3.74,0,0,0,.39,1.36.93.93,0,0,0-.23.37,2.85,2.85,0,0,0,0,1.66q.49,2.57,1,5.11a3.67,3.67,0,0,0,.95,1.68,2,2,0,0,0,1.35.64,1.14,1.14,0,0,0,1-.74,2.88,2.88,0,0,0,0-1.67c-.33-1.7-.66-3.41-1-5.11a2.46,2.46,0,0,0-.3-.77,2,2,0,0,0,.39-1.41,49.38,49.38,0,0,0-3-13.19,18.38,18.38,0,0,0,2.3-2,2.18,2.18,0,0,0,1,.63,1.17,1.17,0,0,0,1.5-.87l.2.08a2.55,2.55,0,0,0,0,1.5c.21.8,1.19,2.57,2.3,2.32l6.16-1.37a1.23,1.23,0,0,0,.93.25,133.57,133.57,0,0,0,25.13-7.52c2-.81-.1-5.36-2.11-4.53-1,.4-1.93.78-2.9,1.15a1.22,1.22,0,0,0-1.2,0c-4,2.15-8.39,3.13-12.77,4.1l-8.55,1.9a32.87,32.87,0,0,0,7-4.7,1.72,1.72,0,0,0,1.91.71l7-2.8a1.42,1.42,0,0,0,.7-1.14,3.2,3.2,0,0,0-.32-1.8c-.43-.85-1.39-2-2.5-1.59l-.28.11q2.55-5.13,4.88-10.38A1.1,1.1,0,0,0,239,273l7.87-18.85c.61.55,1.58,1.07,2.07.29l.65-1.07A205.58,205.58,0,0,1,268,265.47a2.38,2.38,0,0,0,1.41,1q7.54,5.66,14.54,12,4.83,4.39,9.36,9.09a2,2,0,0,0,.83.51,150.05,150.05,0,0,1,6.32,19.77c2.05,8,4,16.14,5.53,24.28a90.46,90.46,0,0,1,1.65,14.2,3.27,3.27,0,0,0,2,2.86c1.17.33,1.62-.76,1.59-1.73-.27-8.74-2.17-17.31-4.11-25.8-.5-2.2-1-4.39-1.51-6.59a135.47,135.47,0,0,1,4.31,15.55,131.36,131.36,0,0,1,2.17,14.5,3.32,3.32,0,0,0,2,2.86c1.13.32,1.69-.75,1.6-1.73s-.23-2.25-.37-3.37a1.86,1.86,0,0,0,1.52.83C318,343.67,318,342.19,317.81,341.33Zm-86-71.26c-1.28.44-1.36,2.06-1.72,3.18a25.57,25.57,0,0,1-3.34,6.87,27,27,0,0,1-4.27,4.83c-2.56,1.54-5.09,3.11-7.57,4.78a2.2,2.2,0,0,0-.55,2.52c-.28.1-.56.18-.84.27a14.74,14.74,0,0,0-1.79-14.43,4.33,4.33,0,0,0-.12-.72l2.19-.2c1.83-.17,1.27-3,0-4.22.35-.32.69-.66,1-1s.54-.62.8-.94a3.53,3.53,0,0,0,.05.56,3.43,3.43,0,0,0,.32,1.86l.15.27s0,.06,0,.09a2.44,2.44,0,0,0,.1.89c.08.21.16.42.23.63a3.81,3.81,0,0,0,.73,1.05l.44.35a1.66,1.66,0,0,0,.91.29h.93a.78.78,0,0,0,.59-.23.89.89,0,0,0,.41-.52,1.7,1.7,0,0,0,.14-.77,2.25,2.25,0,0,0-.11-.89l-.14-.38a53.16,53.16,0,0,0,6-4.59c.59.53,1.46.94,2,.24a82.52,82.52,0,0,0,5.38-7.36l-.06,3.19a2.05,2.05,0,0,0,.14.74l0,.14,0,.09-.06.25a3.36,3.36,0,0,0,.93,3.34l.24.21-.45,1C233.9,270.47,232.93,269.68,231.82,270.07Zm-10.44-39.62a2.75,2.75,0,0,0-1.29-1,1.19,1.19,0,0,0-1.09.18,2.49,2.49,0,0,0-.09-1.16l-1.26-3.89a2.83,2.83,0,0,0,.69.56,3,3,0,0,0,.06,1.38,3.68,3.68,0,0,0,1,1.68,1.9,1.9,0,0,0,1.34.64,1.39,1.39,0,0,0,.52-.18,3.35,3.35,0,0,0,.34,1.49,3.94,3.94,0,0,0,1.13,1.37l-.23-.19a7.84,7.84,0,0,1,.82.81c.15.19.28.38.41.58s.18.37.26.57.13.43.18.65l-1,.1A10.86,10.86,0,0,0,221.38,230.45Zm4.45-2.71a5.2,5.2,0,0,0,.64,1.59c-.38-.65,0,.06.1.19l.24.48c.18.37.33.75.49,1.13l.08.21.15.51c.07.23.12.47.18.7l-.52.25a12.54,12.54,0,0,0-1.22-2.56,10.54,10.54,0,0,0-1.15-1.49,1,1,0,0,0,.36-.1A1.38,1.38,0,0,0,225.83,227.74ZM237,203Q229,203.94,221,205l1-1.38a7.41,7.41,0,0,0,1.48-2.05,2.16,2.16,0,0,0,.13-1.24,2.47,2.47,0,0,0,0-.86l2.23-.45a1.16,1.16,0,0,0,.65.14,1.18,1.18,0,0,0,.83-.44h0a1.19,1.19,0,0,0,1-.75,1.89,1.89,0,0,0,.14-.72.91.91,0,0,0,.57-.33,1.74,1.74,0,0,0,.3-.61c1.16-.09,1.17-1.56,1-2.39l-.12-.55a2.1,2.1,0,0,0,.52-2.17c.88-.3.87-1.58.7-2.34-.1-.47-.2-.93-.29-1.39-.05-.25-.09-.5-.14-.75l0-.12a1.23,1.23,0,0,1,0-.13c-.15-.9-.29-1.8-.4-2.7a.31.31,0,0,1,0-.1c.92-.27.92-1.56.75-2.34-.87-3.95-1.67-7.9-2.44-11.86a2.28,2.28,0,0,0,.16-1c-.14-2.8-.27-5.6-.41-8.39a3.7,3.7,0,0,0-.53-1.59,1.42,1.42,0,0,0,.57.12c.25.43.5.85.78,1.25a9.05,9.05,0,0,0,2.39,2.39,13.33,13.33,0,0,0,8,7.24,1.12,1.12,0,0,0,.93-.1,15.5,15.5,0,0,0,7,1.81c1.17,0,1.27-1.59,1-2.41a5.15,5.15,0,0,0-.5-1.11,2.1,2.1,0,0,0,.31-1.35,3.64,3.64,0,0,0-.67-1.82c-.59-.79-1.61-1.55-2.51-.75l-.2.17-.17.11a5.57,5.57,0,0,1-.68.37c-.21.09-.43.18-.65.25l-.18.05-.21,0a6.54,6.54,0,0,1-1.53.05h0l-.34-.08c-.25-.06-.48-.16-.72-.24l-.28-.16-.28-.19h0a4.36,4.36,0,0,0-.43-.43l-.18-.26,0,0a1,1,0,0,0,0-.1,1.26,1.26,0,0,1-.07-.16l-.06-.15a.79.79,0,0,0,0,.09l-.06-.23v.07a.28.28,0,0,0,0-.09.43.43,0,0,0,0,0c-.07-.3,0-.16,0,0,0-.09,0-.19,0-.27s0-.6,0,0a3.73,3.73,0,0,0-1.25-3,1.46,1.46,0,0,0,.76-.26,11.66,11.66,0,0,0,3,.24,1.12,1.12,0,0,0,1.08-.84,11.44,11.44,0,0,0,6.84-1.87c1-.64.86-2,.39-2.93-.34-.67-1.53-2.25-2.5-1.6l0,0a1.64,1.64,0,0,0-.94,0,13,13,0,0,1-2.89.3h-.21a1.42,1.42,0,0,0-1.93-.2c-.26-.05-.52-.11-.82-.19a12.31,12.31,0,0,1-1.45-.48c-.24-.09-.48-.19-.71-.3l0,0-.09-.05-.34-.18a12.25,12.25,0,0,1-1.29-.82l-.38-.28v0l-.64-.58a1.84,1.84,0,0,0-1.77-.52l0,0,0,0h0l-.11-.13h0c-.07-.08-.12-.16-.08-.11s-.13-.17-.2-.26l3.42-1.49a1.37,1.37,0,0,0,.78-1.29h.1a3,3,0,0,0,.33,1.43,6.94,6.94,0,0,0,2.59,2.83,5.18,5.18,0,0,0,3,.74,4.64,4.64,0,0,0,2.06-.7,6.93,6.93,0,0,0,1.45.16,1,1,0,0,0,.76-.35,1.69,1.69,0,0,0,.37-.88,2.49,2.49,0,0,0,0-.72,3.91,3.91,0,0,0-.14-.76,4.48,4.48,0,0,0-.28-.72,2.91,2.91,0,0,0-.07-1,1,1,0,0,0,.76-.44h7a1.33,1.33,0,0,0,.21,0l.09.17a2.82,2.82,0,0,0,.53.82,2.4,2.4,0,0,0,.45.45,2.53,2.53,0,0,0,0,1.06,7.13,7.13,0,0,0-.64,5.39,1,1,0,0,0,0,.1,1.58,1.58,0,0,0,0,.31c.05.28.07.56.11.84s-.12.63-.19.94c0-.11,0-.23-.07-.35s-.16-.41-.23-.62a3.53,3.53,0,0,0-.73-1.05l-.44-.36-.16-.08h0a1.69,1.69,0,0,0-.31-.13,1.4,1.4,0,0,0-.41-.06h-.29a1.7,1.7,0,0,0-1.11-.47c-2.21,0-.89,4.35,1,4.69l.26.22a1.63,1.63,0,0,0,.91.28h.46a1.13,1.13,0,0,0,.61-.16.19.19,0,0,1,0,.07,27,27,0,0,1-1.44,3.58,2.4,2.4,0,0,0-.09,1.41,83.65,83.65,0,0,1-5.24,18.2c-.7,1.47-1.39,2.93-2.08,4.4q-4.24,9-8.5,18.07Zm-35-15,0,0S202,187.89,202.08,188Zm.08.15v0h0C202.22,188.26,202.2,188.21,202.16,188.13Zm0-.11c0-.05,0-.07,0,0ZM124.8,114.55a1.15,1.15,0,0,1-.1-.08Zm-8.2-3.72.34-.53c0,.08,0,.15,0,.22Zm-4.11,27-.33.45a33.73,33.73,0,0,1,1.2-6.21c.29,2,.68,4,1.14,6l-.11-.11C113.9,137.59,113,137.19,112.49,137.85ZM169.4,44.38a2.72,2.72,0,0,0,.34.42l-.76.8-.94.67a1.71,1.71,0,0,0-.71,1.3,1.52,1.52,0,0,0-.2.47c-.2.29-.39.59-.57.89a4.57,4.57,0,0,0-.12-.74,1.83,1.83,0,0,0,.07-.32c0-.18,0-.36,0-.53A26,26,0,0,1,169.4,44.38Zm85.5,43.81c-8.35,1.06-16.84,1.32-25.24,1.64q-27.22,1.07-54.47-.17l-3.37-.17a5.68,5.68,0,0,0-2.24-.41.86.86,0,0,0-.21-.07l-5.84-1.13q1.32-7.62,2-15.31a1.11,1.11,0,0,0,.25-.43,31.23,31.23,0,0,0,.51-17.3c.72.6,1.8.89,2.27-.18a19,19,0,0,1,2.83-4.48q12.93-6.76,26.36-12.53a139,139,0,0,1,24.58-2.72c2.55.62,5.19,1,7.78,1.46l19.83,3.52c1.33.23,1.7-.72,1.52-1.83,2.28,1,4.57,2,6.88,3a3.83,3.83,0,0,0,1,1.79,70.2,70.2,0,0,0,6.38,5.44c.9.8,1.8,1.6,2.69,2.41l1,1a4.64,4.64,0,0,0,2.1,3.74q.35,5.81.62,11.62a92.89,92.89,0,0,1-1.06,11.52,3.46,3.46,0,0,0,1.49,3.2.65.65,0,0,0,.17.08l0,.91C267.37,85.92,261.07,87.4,254.9,88.19Zm7,119.81c-.06-.13-.13-.25-.2-.38v-.31C261.75,207.54,261.82,207.77,261.88,208Zm-5.59,16.74-.33-.17c.23-.61.46-1.23.7-1.85C256.55,223.4,256.42,224.07,256.29,224.74Zm1.82-19.25a.22.22,0,0,1,0,.08c0,.29,0,.58,0,.86V207c0,.17,0,.33,0,.5-.67-.39-1.56-.47-1.89.44l-5.88,16.5a3.16,3.16,0,0,0,.35,2.6q-2.64,7.77-4.62,15.76c-.87-.05-1.29,1-1.23,1.81a3.56,3.56,0,0,0,.66,1.81l-.17.41a1.06,1.06,0,0,0-1.5.62c-1.79,5.46-3.79,10.85-5.95,16.17a22.18,22.18,0,0,0-.54-4.25,3.62,3.62,0,0,0-.73-1.45c1.23-2.2,2.37-4.45,3.39-6.76a2.91,2.91,0,0,0-.41-2.45q.36-.85.69-1.71c.59.13,1.13-.15,1.38-1.15q4.1-16.86,9.3-33.41a2.75,2.75,0,0,0,.08-1q.69-2.62,1.24-5.28C254.21,205.88,256.16,205.69,258.11,205.49Zm-35.67,18.8h0l0,.25C222.43,224.46,222.44,224.37,222.44,224.29Zm-.1,1.49a3.91,3.91,0,0,0,.34,1.28l0,.06a1.33,1.33,0,0,0-.69,0A8.21,8.21,0,0,0,222.34,225.78Zm-7.58,23.86a3.87,3.87,0,0,0,.07-1.73,13.3,13.3,0,0,0,2.94-1.07c-.22.8-.47,1.6-.71,2.37A17.6,17.6,0,0,0,214.76,249.64Zm8.44-5.52a.36.36,0,0,1,.07.1,4.21,4.21,0,0,0,.47,1.26c-.33.67-.66,1.33-1,2C222.92,246.36,223.06,245.24,223.2,244.12Zm-10.72-.73c-.52.16-1,.3-1.58.45a1.22,1.22,0,0,0,.44-.4l1.28-.09Zm19.75-7a3.2,3.2,0,0,0,.21,1,1.13,1.13,0,0,0-.81.22c0-.11,0-.21,0-.32l.1-.12C231.91,236.87,232.07,236.62,232.23,236.37Zm-32.74,23.46c.6.35,1.21.69,1.82,1a15.87,15.87,0,0,1-2.67-.12,12.36,12.36,0,0,1-6.39-2.92A12.75,12.75,0,0,0,199.49,259.83ZM75.15,104.37l.19.07c.28,1.14,1,2.31,1.83,2.45s1.57.33,2.34.54a2.49,2.49,0,0,0-.34.67l-2-.44A5.86,5.86,0,0,1,75.15,104.37Zm80.78-3.68-.27-.06s0-.09,0-.14Zm20,14.13a1.42,1.42,0,0,0-.59.19c-.84-.29-1.68-.6-2.52-.92l-.27-.16,4.06.83C176.38,114.78,176.15,114.79,175.93,114.82ZM135.64,94c-.1.81-.18,1.63-.26,2.45-.12-.67-.25-1.34-.36-2a5,5,0,0,0-.55-1.61c0-.1-.05-.2-.07-.29C134.82,93,135.23,93.46,135.64,94Zm6.5,2.64c0-.49,0-1,0-1.48l1.09.69c-.28.43-.54.86-.8,1.3Zm8.3,7.31c.14.22.27.44.42.65v0l-1.35-.8Zm79.7,48.94c.17.27.34.53.52.78a7.94,7.94,0,0,0-.15.85l0,0-.26-.33-.14-.22ZM138.46,30.66A1.26,1.26,0,0,0,140,29.4a17.76,17.76,0,0,1,3.57-.15,3.21,3.21,0,0,0,1.91,2.47,27,27,0,0,1,15.06,11.12c.09.65.18,1.3.25,1.95a4.26,4.26,0,0,0,.55,1.63c0,.21-.06.41-.1.62a2.54,2.54,0,0,0,0,.29q-2.89,18.93-5.78,37.87c-.2.42-.41.84-.62,1.26a1.3,1.3,0,0,0-.61,1.21l-.36.67-2.53-.2a71.26,71.26,0,0,1-25.74-14c.26-1.24.52-2.49.77-3.73a1.17,1.17,0,0,0,.11-.25A131.57,131.57,0,0,0,131,38.59a2.67,2.67,0,0,0,.18-1.05,11.49,11.49,0,0,1,.95-4.86A8.34,8.34,0,0,1,138.46,30.66Zm54.15,108.87h0s0,0,0-.06ZM159.3,87.06c.26-.58.51-1.17.76-1.75-.11.61-.2,1.22-.31,1.83ZM148.54,21.62a3.17,3.17,0,0,0-.54-.36l.46-.1A3.69,3.69,0,0,0,148.54,21.62Zm-35.74,98h0a54,54,0,0,0,.13,9.26,3.91,3.91,0,0,0-.45-.54A2.14,2.14,0,0,0,112,128v-.11a4.17,4.17,0,0,0-1.67-2.69c.45-.81.89-1.64,1.27-2.5S112.41,120.7,112.8,119.65Zm40.3-4.52a1.38,1.38,0,0,0-.2.33c-.34-.33-.65-.67-1-1Zm19.27,23a6.66,6.66,0,0,0,2.31-1.88,1.93,1.93,0,0,0,.28-.6,10.1,10.1,0,0,0,4.52-.45c.4-.11.84-.26,1.3-.4l1.74.07c.76,0,1.51.05,2.25.05a12.37,12.37,0,0,1,1,.81,2.25,2.25,0,0,0,1.33,1.07l.39.07c.53.28,1.07.52,1.62.75a18.43,18.43,0,0,1,2.36,1.05c.32.19.58.43.87.64l.12.27c-1.3.22-2.59.47-3.87.79a.65.65,0,0,0-.25.12,1.5,1.5,0,0,0-.68-.15,1.76,1.76,0,0,0-.69-.39l-4.31-1.14a13.87,13.87,0,0,0-4-.9,13.34,13.34,0,0,0-6.71,1.29A2.78,2.78,0,0,0,172.37,138.11Zm53.95,16.44,0,.31-.06-.35Zm.34,2.47c0,.08.08.16.13.24l-.1,0Zm20.53-16.64q8.13-2.64,16.41-4.73l-.88,2.37c-.3.54-.61,1.09-.94,1.61a2.53,2.53,0,0,0-.29,2c-.54.52-1.09,1-1.67,1.51a1.1,1.1,0,0,0-.26.34l-.16-.43a3.61,3.61,0,0,0-.73-1.05l-.44-.35a1.64,1.64,0,0,0-.91-.29h-.79a1,1,0,0,0-.41,0h0a2.11,2.11,0,0,0-1.58-1ZM188.9,271a4,4,0,0,0-1.28-2.5q-2.73-7.59-5.29-15.25a1.79,1.79,0,0,0,1.24.6l1.09,0,0,0,.75,6.2a4,4,0,0,0,.67,1.81,3.13,3.13,0,0,0,1,.93,3.58,3.58,0,0,0,.29.48,2.61,2.61,0,0,0,1.29,1,1.13,1.13,0,0,0,1.21-.29,2.15,2.15,0,0,0,.38-1.44v-2.09a15,15,0,0,0,6.91,4.42,18.18,18.18,0,0,0,11.14-.49,1,1,0,0,0,.89-.36,18.15,18.15,0,0,0,4.84-3.08,1.43,1.43,0,0,0,.46-1l.17-.05a3.8,3.8,0,0,0,.35,1.36c-.81-.29-1.47.21-1.66,1.13-1,4.83-5,8.28-9.15,10.69a84,84,0,0,1-15-.14h0C189.1,272.33,189,271.66,188.9,271Zm77.79-159.84q-.18,2.94-.38,5.88a4.43,4.43,0,0,0,.18,1.42,39.54,39.54,0,0,1-4.75,5.75c-.61.61-1.25,1.19-1.89,1.76-2.24.48-4.48.93-6.73,1.32a1.26,1.26,0,0,0-1.06,1q-2.44.72-4.82,1.63a1.42,1.42,0,0,0-1.22-.12q-10.67,4.13-21.65,7.28c-.83.24-.81,1.38-.61,2.23-.33.12-.66.26-1,.39l-.22-.09a2.8,2.8,0,0,0-2.18-1.95c-.51-.07-1-.1-1.54-.12-2.06-.17-4.12-.35-6.18-.47a2.52,2.52,0,0,0-1.94.58,2.87,2.87,0,0,0-.59-.35l-16.41-6.81a64.3,64.3,0,0,0-18.79-7.92c-1.15-.35-2.32-.67-3.5-1a2.31,2.31,0,0,0-1.37-1.27c-.87-.16-1.75-.32-2.63-.5a1.76,1.76,0,0,0,.48-1,3.51,3.51,0,0,0-.44-2.06c.35.11.71.21,1.07.3a38.78,38.78,0,0,0,6.88,4.19l0,0h0l.45.23a.93.93,0,0,0,1.21-.36l.52.28c.87.44,1.72.22,2-.7a48.69,48.69,0,0,0,17.62,3.36,32.66,32.66,0,0,0,18,1.06,46.6,46.6,0,0,0,22.76-2.07c4.14-.18,8.27-.5,12.39-1,6-.7,14.42-2,15.62-9.2a3.25,3.25,0,0,0-.22-1.54q0-.14,0-.3l1-.13Zm-36.2,2.5a5,5,0,0,0,.35,1l-1,.14a2,2,0,0,0,.06-1.11Zm-50.22-2.82.06.11-.86-.17a.45.45,0,0,0,0-.11Zm90.57-57.79.06,0S270.88,53.09,270.84,53.05Zm-1.28-10.23.06.1-.08.18a1.42,1.42,0,0,0-.11.33l-.2-.18A1.41,1.41,0,0,0,269.56,42.82Zm6.54,34.87q-.18-4.64-.4-9.28a98.18,98.18,0,0,0-.45-12,1.6,1.6,0,0,0,.56.18,1,1,0,0,0,.38,0q0,10.86.6,21.69Zm-.23-30.63a8.69,8.69,0,0,1-.29.86c-.33-1.34-.69-2.68-1-4l0,0C275,45,275.45,46,275.87,47.06ZM126.63,111.18s0-.08,0-.12c0-2.41,0-4.83.08-7.24.14,2.66.37,5.32.67,8C127.15,111.58,126.89,111.38,126.63,111.18ZM296.55,285.51a1.35,1.35,0,0,0,.58-.52c0,.73,0,1.45.06,2.18-.22-.55-.46-1.09-.69-1.64Zm5.49,7.66c.58,2.37,1,4.77,1.45,7.17-.37-1-.73-2.09-1.05-3.15a39.17,39.17,0,0,1-1.61-7.68A23.43,23.43,0,0,1,302,293.17Zm-40.83-79.92a2.36,2.36,0,0,0,.1-.38c.07-.46.12-.93.17-1.39.21-.45.4-.89.61-1.33a1.56,1.56,0,0,0,.14-.61c0,.23.09.47.13.7a24.68,24.68,0,0,1,.29,4.63Zm-9.51-19.69c.42.27.82.56,1.23.86l.09.07.19.16.56.5c.36.34.71.69,1,1.06l.19.22,0,0c.15.2.31.39.45.59.3.4.58.82.84,1.24a1,1,0,0,0,.08.14l.05.09.34.66c.13.27.29.56.41.85a2,2,0,0,0-.2.73l-3.83.38c0-.24.09-.48.13-.73a3.41,3.41,0,0,0-.67-2.39,4.48,4.48,0,0,0-1.07-2.53l-1.82-1.87c.26-.49.53-1,.8-1.47A3.27,3.27,0,0,0,251.7,193.56Zm27.14-90.3c-4.94,2.06-10.61,2.59-15.86,3.31-6.24.86-12.52,1.44-18.8,1.81-12.49.73-25,.69-37.51.39-4.26-.1-8.53-.28-12.79-.62a35.25,35.25,0,0,0-12.21-1.56c-1.37-.26-2.73-.53-4.08-.85a67.83,67.83,0,0,1-10.31-3.25c-3.13-1.94-6.2-4-9.22-6.11,1.46.12,2.91.25,4.36.42.65.08,1-.48,1.07-1.08a44.59,44.59,0,0,0,5.9.29c1.07,0,1.28-.93,1.09-1.93l.92,0c.69,1,1.67,1.55,2.34.66a2.26,2.26,0,0,0,.3-.52q5.25.26,10.5.42a2.25,2.25,0,0,0,1.82,1.25h9.09a1.09,1.09,0,0,0,1.06-1L201,95h3.35a1.6,1.6,0,0,0,.92.3,39.9,39.9,0,0,1,12.25,1.5c1.11.31,1.7-.76,1.59-1.74a1.62,1.62,0,0,0,0-.2c3.22-.06,6.44-.14,9.66-.26l2.35-.08a2.7,2.7,0,0,0,2.1,1.76,80.06,80.06,0,0,0,13.32.26c1.28-.08,1.38-1.55.88-2.82,1.73-.13,3.46-.28,5.18-.45a1.67,1.67,0,0,0,1.55.85l17.61-3.55c1.09-.22,1.27-1.32,1.06-2.28q.9-.45,1.8-1a.94.94,0,0,0,.23.1c.95.27,1.42-.4,1.55-1.18.41-.27.82-.55,1.22-.84a2.62,2.62,0,0,0,1.49,1.32,1.08,1.08,0,0,0,1.16-.28c.12.14.26.29.38.44a22.9,22.9,0,0,1,4,6.4C286.25,98.08,283,101.53,278.84,103.26ZM266.7,38.21q-5.29-2.8-10.79-5.16-1.24-.75-2.52-1.44a39.2,39.2,0,0,0-20.23-7,2.47,2.47,0,0,0-1.47-.94,61.41,61.41,0,0,0-23.4,1.83,2,2,0,0,0-2.29-.54,1.16,1.16,0,0,0-.72.82,1.12,1.12,0,0,0-.69.8L203.3,27c-.94.23-1.88.46-2.83.67-2.31.52-4.64,1-6.95,1.49a104,104,0,0,0-13.37,3.53,40.77,40.77,0,0,0-13.94,8.08c-.14-.81-.32-1.61-.53-2.41a3.93,3.93,0,0,0-1-1.68,2.14,2.14,0,0,0-1.25-.63c-.09-.27-.2-.55-.31-.82a4.12,4.12,0,0,0-.65-1.67c-.11-.16-.23-.31-.35-.47s-.24-.42-.36-.63l-.12-.44a3.29,3.29,0,0,0-1.82-2.25,18.46,18.46,0,0,0-3.21-3,14.69,14.69,0,0,0-1.54-1l-.34-.31a17.1,17.1,0,0,0-2.67-1.89l17.06-7.23A90.23,90.23,0,0,1,191,12.58c.84,0,1.17-.64,1.17-1.4,6.06-.16,12.13-.1,18.18.24,2.73.15,5.45.37,8.16.62a2.55,2.55,0,0,0,1.06.74,185,185,0,0,0,24.41,7.16,1.16,1.16,0,0,0,1.24-.26c2.09.77,4.21,1.47,6.35,2.07a1.29,1.29,0,0,0,1-.05l.62.25.26.09c1,1,1.9,2.05,2.81,3.09A139.44,139.44,0,0,1,266.7,38.21ZM114.21,161.48a30.38,30.38,0,0,0,3-5.15l.61,1.22A29.13,29.13,0,0,1,114.21,161.48Zm-8.47,67.64c.49-.62,1-1.27,1.42-1.92a3.64,3.64,0,0,0,.22.71C106.82,228.29,106.27,228.69,105.74,229.12Zm-5.08,5.52-.87.44.94-.81A2.2,2.2,0,0,0,100.66,234.64Zm32.67-48.28c.17.4.34.79.52,1.18s.39,1,.6,1.47c-.54-.34-1.07-.7-1.61-1C133,187.43,133.19,186.9,133.33,186.36ZM39.13,269.6c-1.86,1.5-3.69,3-5.47,4.64A39.33,39.33,0,0,1,39.13,269.6ZM7.76,334.08ZM149.92,214.16c0,.12,0,.24.07.36-.53-.21-1-.43-1.56-.66h.67Zm1.47,5.29.3.1-.18,0Zm3.32-5.22a1,1,0,0,1-.21-.1Zm-37.12-19.52a.42.42,0,0,1,.36-.12,3.07,3.07,0,0,0,.2.5,1.55,1.55,0,0,0,.12.22l-.51-.17-.22,0A.48.48,0,0,1,117.59,194.71Zm8.13-11.85s0,0,0-.07S125.74,182.86,125.72,182.86Zm.14-.24c0-.05.08-.09.07-.09a4.49,4.49,0,0,1,1-.54,8.33,8.33,0,0,0,.39,1.95c-.27-.23-.56-.44-.83-.67C126.43,183.23,126.09,182.85,125.86,182.62Zm39.94,20q-3-.78-6.05-1.72a105.76,105.76,0,0,1-11.94-4.59q-1.81-.83-3.6-1.74s0-.07,0-.11c-.15-4.79-.59-9.54-1.2-14.29.26-5,.68-10,1.3-14.93a3.53,3.53,0,0,0-1.28-3,1.48,1.48,0,0,0-1.61-.29,9.49,9.49,0,0,0-.12-1.84c-.19-1.11-.75-2.52-2-2.86-1.06-.3-1.76.74-1.59,1.74.55,3.2-1.58,6.26-4.45,7.56-1.05.48-3.54,1.19-4.48.23a10.18,10.18,0,0,1-1.12-2.43c-.48-1.06-1-2.11-1.45-3.17-3.75-8.28-7.25-16.77-9-25.73a52.59,52.59,0,0,1-.91-13.07,2.12,2.12,0,0,0,.4-1.41v-.42c0-.12,0-.29,0-.32,0-.33.07-.65.12-1l.09-.48c0-.06,0-.15,0-.21.1-.32.2-.63.32-.93a9,9,0,0,1,.44-1s.3-.45.09-.16l.27-.39a8.57,8.57,0,0,1,.68-.79l.41-.38.21-.16a7.3,7.3,0,0,1,.87-.47,1.57,1.57,0,0,0,.42.18,1.21,1.21,0,0,0,1.42-.59.75.75,0,0,0,.24-.08h.12l.43,0,.23,0a8.19,8.19,0,0,1,.85.23l.2.08.06,0,.17.11.17.11.07.06c.07.06.13.13.2.2a2.06,2.06,0,0,0,1.11.58l.24.2c.16.14.32.28.47.43.31.3.6.61.89.92l.09.1.07.09.33.42.25.35a3.31,3.31,0,0,0,.9,1.32l.27.42s.39.69.11.19l.17.3a2.12,2.12,0,0,0,.07.45l2.1,9.27a3.74,3.74,0,0,0,1,1.68c.11.1.26.21.41.32l.39,8.62a4.36,4.36,0,0,0-3.1,1.68,5.45,5.45,0,0,0-.86,4.53,13.64,13.64,0,0,0,2,4.17l0,.06c.05.1.09.21.15.31s0,0,0,0,0,.19.07.29,0,.05,0,.09v0l0,.14c-.07.12-.18.31,0,.11a2.88,2.88,0,0,0,.3,3.25c.44.6,1.8,1.76,2.51.76a5.34,5.34,0,0,0,.59-4.51,9,9,0,0,0-.77-2c-.22-.41-.46-.81-.7-1.21a6.38,6.38,0,0,0-.44-.75c-.06-.12-.13-.24-.19-.37l0-.11v-.11a.45.45,0,0,0,0-.17h0v0c0-.1.07-.19.11-.29a.26.26,0,0,0,0-.08h0c.08-.1.15-.21.24-.31a3.31,3.31,0,0,1,.26-.27l.15-.12a3.5,3.5,0,0,1,.54-.29l0,0a2.72,2.72,0,0,0,1,.87A1.22,1.22,0,0,0,137.4,145c0-.45.06-.89.1-1.34.15.4.3.81.46,1.22.3.74,1.18,1.75,2.08,1.69s1.13-1,1.14-1.8l.06-3.78a2.06,2.06,0,0,0,.13-.46,76.64,76.64,0,0,0,.77-10.26,1.94,1.94,0,0,0,.6-1.59c0-.33,0-.65,0-1a1.19,1.19,0,0,0,.91-.36,2,2,0,0,0,.37-1.44,3.58,3.58,0,0,0-1.12-2.29c.14-2.4.35-4.8.66-7.18.26-.67.53-1.34.8-2a3.68,3.68,0,0,0,1.46,1.35,36,36,0,0,1,6.23,3.71c.56.54,1.14,1,1.74,1.54a1.77,1.77,0,0,0,0,.23,4.17,4.17,0,0,0,.08.49,4.2,4.2,0,0,0,1.43,3.49c1.39.83,2.83,1.58,4.29,2.27a52.21,52.21,0,0,0,9.33,5.6l-.14.39a1.28,1.28,0,0,0-.24.39l-.07.21a1.88,1.88,0,0,0-.7,1.28,10.9,10.9,0,0,0-1.79,2.58,2.55,2.55,0,0,0,0,1.66,3.85,3.85,0,0,0,.76,1.44,2.7,2.7,0,0,0,1,.75c.23,1.34,1.25,2.78,2.38,2.59l.3,0c.52.54,1.19,1,1.75.54a11.13,11.13,0,0,1,1.47-.9,34.61,34.61,0,0,1,9,.54,4.14,4.14,0,0,0,.09,2.07,5.48,5.48,0,0,0,.48,1.11,2.6,2.6,0,0,0,0,1.63,3.76,3.76,0,0,0,1,1.68,2.07,2.07,0,0,0,1.35.64h2.18a1.15,1.15,0,0,0,1-.75,1.94,1.94,0,0,0,.14-.7l.21,0c.4-.1.65-.74.7-1.1a5.7,5.7,0,0,0,1.45-1,3.42,3.42,0,0,0,.39-.48c.56.28,1.13.58,1.68.9a1.55,1.55,0,0,0,1,.22l.05,0a2.88,2.88,0,0,0,0,1.54,2.33,2.33,0,0,0,.1.32l-2.45,2.11c-.52-.66-1.29-1.29-2.05-.89a14.27,14.27,0,0,1-5.82,1.61,21,21,0,0,1-5.9-1.38,1,1,0,0,0-.92.07c-.17-.09-.35-.15-.51-.24a1.27,1.27,0,0,0-2,1,.34.34,0,0,1,0,.1,5.27,5.27,0,0,1-.56-.51,4.12,4.12,0,0,0-.24-.67l-.33-.58a3.07,3.07,0,0,0-.41-.47c-.36-.93-1.13-2-2.17-1.95a1,1,0,0,0-1,.7h0a.86.86,0,0,0-.47.45,1.27,1.27,0,0,0-.24.69c0,.18,0,.37,0,.56a3.74,3.74,0,0,0,.33,1.23c.11.2.23.39.34.58a2.63,2.63,0,0,0,.47.53,3.66,3.66,0,0,0,1.07,2.73,16.87,16.87,0,0,0,12,4.82,18.28,18.28,0,0,0,3.79.62,2.22,2.22,0,0,0,.47.39,1.38,1.38,0,0,0,1.33.18c.47-.27.93-.55,1.39-.85a7.32,7.32,0,0,0,1.09-.36,17.45,17.45,0,0,1-1.63,1.59c-2.14,1.26-5,1.79-7.08,2.29-.7.17-1.49.32-2.3.44-.2,0-.4-.09-.59-.15a9.84,9.84,0,0,1-1-.36,3.72,3.72,0,0,1-.58-.24c.41.26-.17-.09-.25-.13a1.74,1.74,0,0,0-1-.27c-.56-.22-1.11-.47-1.66-.72a29.56,29.56,0,0,1-3.85-2.25,1.43,1.43,0,0,0-1.27-.2L169,158.6a3.61,3.61,0,0,0-1.17-1.4,1.78,1.78,0,0,0-.84-.27c-.4-1.09-1.23-2.1-2.18-2.1-2.25,0-.85,4.5,1.13,4.7a4.08,4.08,0,0,0,.18.42l2.67,5a3.46,3.46,0,0,0,1.17,1.4,1.86,1.86,0,0,0,.8.28,10.63,10.63,0,0,0,5.9,3.25,2.61,2.61,0,0,0,2,1.56,30.22,30.22,0,0,0,9.05-.67h.95a.81.81,0,0,0,.6-.23.92.92,0,0,0,.25-.23,30.51,30.51,0,0,0,6.07-2.49,1.77,1.77,0,0,0,.69-2,21.1,21.1,0,0,0,1.46-1.53,5.71,5.71,0,0,0,.93-1.12,2.69,2.69,0,0,0,.1-2.54,13.55,13.55,0,0,0,3-5.91c.52.2,1,0,1.43-.68l.24-.44a.79.79,0,0,0,.32-.1,19.11,19.11,0,0,0,5.1-3.81c.5.5,1.14.87,1.73.52,2.94-1.73,6.57-3.53,10.09-2.83.46.56.9,1.13,1.35,1.7q1.58,10.46,3.6,20.84A1.42,1.42,0,0,0,225,171a41.83,41.83,0,0,0,.27,8.07c-1.15.11-1.16,1.57-1,2.4l1.26,5.75a2.2,2.2,0,0,0-.18,1.13l.34,3.69-.27.6-.25,0a1,1,0,0,0-.77.36c-.08.13-.16.26-.23.39a2.22,2.22,0,0,0-.14,1.05v.06l-4.46.92a1.2,1.2,0,0,0-.89.56c-3.6,1.38-7-2.43-9.62-4.42a21.62,21.62,0,0,0-5.69-2.83,9.39,9.39,0,0,1-1.14-.58l-.06,0a.53.53,0,0,1,.28-.32c1-.58.8-2,.38-2.93s-1.48-2.18-2.49-1.6c-2.65,1.51-1.87,5.26-.42,7.35a5.94,5.94,0,0,0,1.62,1.55,2.92,2.92,0,0,0,.78,1.1l.65.6.1.28a20.88,20.88,0,0,0,3.2,5.52,8.92,8.92,0,0,0,2.87,3h0v0a5,5,0,0,0,.32,1.16,27.43,27.43,0,0,0-6.34.25,11.7,11.7,0,0,0-2.93.63,26.1,26.1,0,0,0-3.94,1.43c-2,.88.14,5.42,2.11,4.53l.53-.23a1.51,1.51,0,0,0,.67.12l2-.06a1.74,1.74,0,0,0,1.29.58c1.86-.18,3.73-.31,5.6-.42a1.61,1.61,0,0,0,.69.23,29.4,29.4,0,0,0,3.87,0,53.77,53.77,0,0,1,8.76,1c1.41.28,1.75-.92,1.47-2.17q6.45-.87,12.9-1.67l-1,2a1.94,1.94,0,0,0-.12,1c-1.33,2.71-2.62,5.44-3.84,8.21a11.29,11.29,0,0,0-4.06-3.11,1.14,1.14,0,0,0-1.21.29,2,2,0,0,0-.38,1.44,3.45,3.45,0,0,0,1.9,2.82c-.06,0-.11-.05,0,0l.25.13c.16.1.33.19.48.3a3.19,3.19,0,0,1,.42.3h0l.08.08c.22.19.41.41.61.62l.17.21c.07.09.13.19.19.28a.92.92,0,0,0-.58.32,2.15,2.15,0,0,0-.38,1.44v.34l-.21,1.22a2.65,2.65,0,0,0,0,.63c-.57-.64-1.67-1.22-2.28-.45-.06.08-.1.16-.15.24a18.6,18.6,0,0,0-.72-7,4.22,4.22,0,0,0-.78-1.48,3.11,3.11,0,0,0-.27-.55,2.81,2.81,0,0,0-.57-.76,2,2,0,0,0-1.34-.64,1.16,1.16,0,0,0-1,.75,2.53,2.53,0,0,0-.1,1.25,4,4,0,0,1,0,.49c0,.18,0,.36-.08.55s-.09.27-.14.4c-.14-.24-.31-.46-.47-.69v-3.09a2.64,2.64,0,0,0-.22-.92,3.16,3.16,0,0,0-.45-.9,2.59,2.59,0,0,0-1.29-1,1.13,1.13,0,0,0-1.22.29,2.15,2.15,0,0,0-.37,1.44v.72a1,1,0,0,0-.83,0l0,0-.38-.11a3.62,3.62,0,0,0-1.73-.8,2.87,2.87,0,0,0-1.61.18l-.17.09a1.62,1.62,0,0,0-1.1-.43,1,1,0,0,0-.49.14l-.14,0a1.46,1.46,0,0,0-.71,1.14v.25a1.13,1.13,0,0,0,0,.26.34.34,0,0,0,0,.1,8,8,0,0,0,.46,2.25l-.31-.72a2.82,2.82,0,0,0-.53-.82,2.4,2.4,0,0,0-.64-.59,1.44,1.44,0,0,0-1.33-.19c-1,.58-.76,2.05-.38,2.94l1.23,2.88a5,5,0,0,0,0,1,6.34,6.34,0,0,0,.69,2.29,7.92,7.92,0,0,0,1,1.47,5.43,5.43,0,0,0,.84.75,4.87,4.87,0,0,0,1,.52,2.08,2.08,0,0,0,.6.18.89.89,0,0,0,.66,0,.78.78,0,0,0,.56-.31,2,2,0,0,0,.37-1.44,3.7,3.7,0,0,0-.67-1.81L213,224a2.38,2.38,0,0,0-.9-.57l-.09,0a2.83,2.83,0,0,0-.08-1.23,2.66,2.66,0,0,0-.36-.85,4.86,4.86,0,0,0-.17-.5c-.28-.64-.55-1.28-.83-1.93a8.34,8.34,0,0,0,3.06,3.63l1.94,6a4.06,4.06,0,0,0,1,1.67,1.94,1.94,0,0,0,1.35.64,1.13,1.13,0,0,0,.64-.27,3.41,3.41,0,0,0,.65,2.39l.25.36v0c.1.2.2.39.29.59s.07.25.1.38,0,0,0,.06a.29.29,0,0,0,0,.09h0a.29.29,0,0,1,0-.09c0-.08,0-.09,0,.09-1.74.29-3.49.64-5.23,1a8.7,8.7,0,0,0-1.28-2.59,2.64,2.64,0,0,0-1.29-1,1.15,1.15,0,0,0-1.22.28c-.73.91-.32,2.41.3,3.26l.09.14a2.56,2.56,0,0,1,.11.24c0,.1.06.2.08.3a.38.38,0,0,1,0,.1l-1.27.28.27-1.67a3.39,3.39,0,0,0-.33-1.8,3.35,3.35,0,0,0-1.17-1.41,1.41,1.41,0,0,0-1.33-.19,1.46,1.46,0,0,0-.7,1.14c-.24,1.49-.47,3-.71,4.47L194,237.4a2.26,2.26,0,0,0-.65-.51,1.49,1.49,0,0,0,.52-1,3.71,3.71,0,0,0-.33-1.8c-.46-1.17-.93-2.33-1.4-3.5a2.91,2.91,0,0,0-.53-.81,2.4,2.4,0,0,0-.64-.59,1.23,1.23,0,0,0-2,.95,3.75,3.75,0,0,0,.33,1.8c.47,1.16.94,2.33,1.4,3.49a2.77,2.77,0,0,0,.53.81,2.14,2.14,0,0,0,.48.47c-.5,0-1,0-1.51-.09l-.25,0-.1,0-.64-.12c-.4-.09-.79-.19-1.18-.31s-.78-.25-1.15-.4l-.32-.13a19.55,19.55,0,0,0-8.42-4.59c-1-.25-1.57.52-1.59,1.45a3.51,3.51,0,0,0,1.5,2.93l.11.07a3,3,0,0,0,.1.83c.21.77.43,1.54.64,2.31-.64.66-.32,2,0,2.7.89,2.15,1.87,4.26,2.91,6.33l-.81,0a1.14,1.14,0,0,0-.39.06q-2.74-8.44-5.26-17-2.31-11.08-3.88-22.31a3.47,3.47,0,0,0-.58-2.77l-.19-.23a2.64,2.64,0,0,0-.79-.87A9.17,9.17,0,0,0,165.8,202.64Zm-32.38-55.31c.09.12.15.29,0,0Z" />
    <path class="a"
        d="M191.75,227.14a3,3,0,0,0,.39.91,2.49,2.49,0,0,0,.57.76,1.71,1.71,0,0,0,.66.47,1.25,1.25,0,0,0,.68.17l.42-.09a1.1,1.1,0,0,0,.45-.43l-.36,1.95a3.41,3.41,0,0,0,1.5,3.2,1.39,1.39,0,0,0,1.33.19,1.5,1.5,0,0,0,.71-1.14q.75-4.17,1.52-8.36a2.75,2.75,0,0,0-.11-1.32l0,0c.09.11.17.23.25.35l.16.33c0,.05,0,.1,0,.15a2.09,2.09,0,0,0,.08.23c0,.47-.09.94-.11,1.41a3.57,3.57,0,0,0,1.5,3.21l.06,0a2.32,2.32,0,0,0,.49.5,1.8,1.8,0,0,0,.68.4l.45.06a1.09,1.09,0,0,0,.77-.35c.07-.13.15-.26.23-.39a2.24,2.24,0,0,0,.14-1.06v-2.09a2.75,2.75,0,0,0-.22-.93,4.22,4.22,0,0,0-.18-.45c0-.15.05-.29.08-.44l.13.05a1.18,1.18,0,0,0,1.08-.17,10.85,10.85,0,0,0,.9,1.68,2.61,2.61,0,0,0,1.29,1.05,1.15,1.15,0,0,0,1.22-.29c.71-.88.33-2.19-.19-3.08a4.37,4.37,0,0,1-.23-.49c0-.13-.08-.27-.11-.41s-.05-.46-.06-.69a3.56,3.56,0,0,0-.32-1.73,3.26,3.26,0,0,0-1.17-1.4,2.14,2.14,0,0,0-.74-.28,3.69,3.69,0,0,0-1.1-2.38l-.19-.15a1.88,1.88,0,0,0-.75-.44,1.13,1.13,0,0,0-1.22.29,1.57,1.57,0,0,0-.32.71A24.36,24.36,0,0,0,201,220l-.15-.15a1.74,1.74,0,0,0-.67-.47,1.21,1.21,0,0,0-.68-.17,1.15,1.15,0,0,0-1,.74,2.62,2.62,0,0,0,0,1.66l.06.19a2.11,2.11,0,0,0-.35-.26,1.41,1.41,0,0,0-1.33-.18,1.48,1.48,0,0,0-.71,1.13c-.3,1.68-.61,3.35-.92,5a2.64,2.64,0,0,0-.08-.49c-.24-.7-.47-1.4-.7-2.1a3,3,0,0,0-.4-.92,2.77,2.77,0,0,0-.56-.76,1.71,1.71,0,0,0-.67-.46,1.16,1.16,0,0,0-.68-.18l-.42.1a1.16,1.16,0,0,0-.58.65c0,.16-.09.32-.13.49a3.1,3.1,0,0,0,.1,1.17C191.28,225.74,191.51,226.44,191.75,227.14Z" />
</svg>