<svg xmlns="http://www.w3.org/2000/svg" viewBox="0 0 405.28 648.11"><defs><style>.cls-1{fill:#fff;}</style></defs><title>logo_k</title><g id="Layer_2" data-name="Layer 2"><g id="Layer_57" data-name="Layer 57"><path class="cls-1" d="M0,72.68Q0,41.9,21.8,21T74.39,0q30.78,0,52.15,21t21.38,51.73V232.57L268.48,34.2Q289.84,0,329.19,0q20.52,0,40.18,11.12a81,81,0,0,1,26.51,27.36,67.34,67.34,0,0,1,9.4,34.2q0,22.25-12.82,38.47L261.64,324.91,393.31,534.39a94.77,94.77,0,0,1,8.55,18.81,62.45,62.45,0,0,1,3.42,19.67,71.18,71.18,0,0,1-9.4,35.48,79.54,79.54,0,0,1-26.51,27.79,76.8,76.8,0,0,1-19.66,8.12,79.71,79.71,0,0,1-20.52,3,77.07,77.07,0,0,1-35.06-8.13q-16.25-8.11-26.51-25.22L147.92,417.25V575.43q0,30.78-21.38,51.73t-52.15,21q-30.78,0-52.59-21T0,575.43ZM118.85,368.52a4.87,4.87,0,0,0,1.71,3.42Z"/></g></g></svg>