<svg xmlns="http://www.w3.org/2000/svg" viewBox="0 0 1043.53 837.12"><defs><style>.a{fill:#fff;}.b,.c{fill:none;stroke:#fff;stroke-miterlimit:10;}.c{stroke-linecap:round;stroke-width:130px;}</style></defs><title>LOGOTESTLINES</title><path class="a" d="M323.47,337.39a175.91,175.91,0,1,1-36.76,3.89,175.8,175.8,0,0,1,36.76-3.89m0-147a324,324,0,0,0-67.37,7.11,322.76,322.76,0,0,0,67,638.43,322.77,322.77,0,0,0,.35-645.54Z"/><path class="b" d="M256.11,197.5a322.17,322.17,0,1,0,128.2-1.3,320.68,320.68,0,0,0-128.2,1.3Z"/><line class="c" x1="138.11" y1="333.86" x2="390.06" y2="66.05"/><line class="c" x1="337.84" y1="772.12" x2="780.49" y2="772.12"/><line class="c" x1="559.91" y1="600.29" x2="899.54" y2="600.29"/><line class="c" x1="571.48" y1="428.47" x2="978.31" y2="428.47"/><line class="c" x1="327.52" y1="256.65" x2="874.85" y2="256.65"/><path class="a" d="M780.27,711.62a60.5,60.5,0,1,1-60.5,60.5,60.57,60.57,0,0,1,60.5-60.5m0-4a64.5,64.5,0,1,0,64.5,64.5,64.5,64.5,0,0,0-64.5-64.5Z"/><path class="a" d="M904.08,539.79a60.51,60.51,0,1,1-60.5,60.5,60.57,60.57,0,0,1,60.5-60.5m0-4a64.51,64.51,0,1,0,64.5,64.5,64.5,64.5,0,0,0-64.5-64.5Z"/><path class="a" d="M979,368a60.5,60.5,0,1,1-60.5,60.5A60.57,60.57,0,0,1,979,368m0-4a64.5,64.5,0,1,0,64.5,64.5A64.5,64.5,0,0,0,979,364Z"/><path class="a" d="M875.12,196.15a60.5,60.5,0,1,1-60.5,60.5,60.57,60.57,0,0,1,60.5-60.5m0-4a64.5,64.5,0,1,0,64.5,64.5,64.5,64.5,0,0,0-64.5-64.5Z"/><path class="a" d="M389.84,4a60.5,60.5,0,1,1-60.5,60.5A60.57,60.57,0,0,1,389.84,4m0-4a64.5,64.5,0,1,0,64.5,64.5A64.5,64.5,0,0,0,389.84,0Z"/></svg>