<svg xmlns="http://www.w3.org/2000/svg" viewBox="0 0 418.11 644.69"><defs><style>.cls-1{fill:#fff;}</style></defs><title>logo_r</title><g id="Layer_2" data-name="Layer 2"><g id="Layer_57" data-name="Layer 57"><path class="cls-1" d="M134.24,147.92H71.82a58.63,58.63,0,0,1-26.5-6.41,88.49,88.49,0,0,1-23.09-16.68A80.51,80.51,0,0,1,6,101.75,60.06,60.06,0,0,1,0,76.1,74.6,74.6,0,0,1,6,46.6,75.83,75.83,0,0,1,22.23,22.23,80.75,80.75,0,0,1,45.32,6a62,62,0,0,1,26.5-6H345.43a64.9,64.9,0,0,1,26.93,6,78.87,78.87,0,0,1,23.52,16.24A76,76,0,0,1,412.12,46.6a74.77,74.77,0,0,1,6,29.5,60.21,60.21,0,0,1-6,25.65,80.7,80.7,0,0,1-16.24,23.08,86,86,0,0,1-23.52,16.68,61.35,61.35,0,0,1-26.93,6.41H282.16V574.58q0,32.5-21.38,51.3t-52.15,18.81q-30.78,0-52.59-18.81t-21.8-51.3Z"/></g></g></svg>