<svg xmlns="http://www.w3.org/2000/svg" viewBox="0 0 1054.84 876.72"><defs><style>.cls-1{fill:#fff;}</style></defs><title>logo_hand</title><g id="Layer_2" data-name="Layer 2"><g id="Layer_57" data-name="Layer 57"><path class="cls-1" d="M983.54,398.26H602.37q-7.41-13.67-15.92-26.4h312.8a71.3,71.3,0,0,0,71.3-71.3h0a71.31,71.31,0,0,0-71.3-71.31H422.5L537.68,128.39a71.29,71.29,0,0,0,6.67-100.61l-3-3.45a71.31,71.31,0,0,0-100.62-6.67L121.27,297.39A72.6,72.6,0,0,0,111.34,308q-9,7.84-17.46,16.36Q50.5,368.18,25.26,427.12T0,552.57Q0,619.09,25.26,678T93.88,781.16A322.6,322.6,0,0,0,195.76,851q58.5,25.68,125,25.68c4.65,0,9.26-.11,13.85-.3,1.47.09,2.94.15,4.43.15H844.19a71.3,71.3,0,0,0,71.3-71.3h0a71.3,71.3,0,0,0-71.3-71.3H586.06q8.52-12.75,15.94-26.4H944.72a71.3,71.3,0,0,0,71.3-71.3h0a71.3,71.3,0,0,0-71.3-71.3H641.33c.15-4.12.25-8.24.25-12.4,0-3.93-.09-7.82-.23-11.71H983.54a71.3,71.3,0,0,0,71.3-71.3h0A71.3,71.3,0,0,0,983.54,398.26ZM197.44,677.6a178.08,178.08,0,0,1-37.89-56.41,176.44,176.44,0,0,1,0-137.24,178.08,178.08,0,0,1,37.89-56.41A187.25,187.25,0,0,1,253,389.23a162.26,162.26,0,0,1,67.78-14.32A165.2,165.2,0,0,1,389,389.23a185.78,185.78,0,0,1,56,38.31A172.57,172.57,0,0,1,482.44,484a181.4,181.4,0,0,1,0,137.24A172.57,172.57,0,0,1,445,677.6a179.5,179.5,0,0,1-56,37.89,169.46,169.46,0,0,1-68.2,13.89A166.43,166.43,0,0,1,253,715.49,180.79,180.79,0,0,1,197.44,677.6Z"/></g></g></svg>