<svg xmlns="http://www.w3.org/2000/svg" viewBox="0 0 1129.36 837.3"><defs><style>.cls-1,.cls-2,.cls-3,.cls-4{fill:none;stroke:#fff;stroke-miterlimit:10;}.cls-1,.cls-2,.cls-4{stroke-linecap:round;}.cls-1{stroke-width:150px;}.cls-2{stroke-width:160px;}.cls-3{stroke-width:153px;}.cls-4{stroke-width:130px;}</style></defs><title>Logo_morph_completo_1</title><g id="Layer_2" data-name="Layer 2"><g id="Rock"><line class="cls-1" x1="378.91" y1="758.93" x2="624.6" y2="758.93"/><line class="cls-2" x1="562.6" y1="594.9" x2="702.79" y2="594.9"/><line class="cls-2" x1="574.17" y1="430.86" x2="745.65" y2="430.86"/><line class="cls-1" x1="358.52" y1="266.82" x2="638.1" y2="266.82"/><line class="cls-1" x1="183.01" y1="307.44" x2="359.86" y2="193.27"/><circle class="cls-3" cx="325.6" cy="511.71" r="249.04"/></g><g id="Paper"><line class="cls-4" x1="140.81" y1="332.81" x2="392.75" y2="65"/><line class="cls-4" x1="562.6" y1="599.24" x2="902.23" y2="599.24"/><line class="cls-4" x1="574.17" y1="427.42" x2="981.01" y2="427.42"/><line class="cls-4" x1="330.21" y1="255.6" x2="877.55" y2="255.6"/><circle class="cls-3" cx="325.6" cy="511.71" r="249.04"/><line class="cls-4" x1="341.58" y1="772.11" x2="784.23" y2="772.11"/></g><g id="scissors"><line class="cls-2" x1="218.83" y1="282.58" x2="345.9" y2="187.54"/><line class="cls-1" x1="341.14" y1="761.15" x2="624.75" y2="761.15"/><line class="cls-2" x1="562.6" y1="599.24" x2="734.25" y2="599.24"/><line class="cls-2" x1="571.64" y1="422.26" x2="1049.36" y2="423.19"/><line class="cls-2" x1="466.58" y1="277.99" x2="932.94" y2="141.11"/><circle class="cls-3" cx="325.6" cy="511.71" r="249.04"/></g></g></svg>