<svg class="logo_p" xmlns="http://www.w3.org/2000/svg" viewBox="0 0 395.02 644.69">
    <defs>
        <style>
            .cls-1 {
                fill: #fff;
            }
        </style>
    </defs>
    <path class="cls-1"
        d="M0,75.24Q0,42.77,20.52,21.38T74.39,0H202.64Q244.52,0,280,15.39a185.24,185.24,0,0,1,61.14,42.32,192,192,0,0,1,39.76,62.85Q395,156.47,395,198.37T380.92,277a199.42,199.42,0,0,1-39.76,64.55A184.3,184.3,0,0,1,280,385.19Q244.53,401,202.64,401H147.92V567.74q0,31.63-22.23,54.29T71.82,644.69a64.93,64.93,0,0,1-28.64-6.41,76,76,0,0,1-23.09-17.1,72.94,72.94,0,0,1-15-24.8A83.16,83.16,0,0,1,0,567.74Zm147.92,72.68V253.09h54.72q12.83,0,21.38-6A49.35,49.35,0,0,0,237.7,233,55.79,55.79,0,0,0,245,215.47a78.65,78.65,0,0,0,2.13-17.1A64.84,64.84,0,0,0,245,183a51.93,51.93,0,0,0-7.27-16.25A47,47,0,0,0,224,153.48q-8.57-5.55-21.38-5.56Z" />
</svg>