<svg xmlns="http://www.w3.org/2000/svg" viewBox="0 0 3087.49 657.52">
    <defs>
        <style>
            .a{fill:#ffcc03}
        </style>
    </defs>
    <path d="M208.63 649.03c-19.82 0-37-6.12-50.95-18.2s-20.94-28.6-20.94-49.41V152.26H71.82a56.34 56.34 0 0 1-25.38-6.15A86.1 86.1 0 0 1 24 129.91 78.4 78.4 0 0 1 8.25 107.5 57.9 57.9 0 0 1 2.5 82.94a72.5 72.5 0 0 1 5.79-28.52A73.6 73.6 0 0 1 24 30.84a78.6 78.6 0 0 1 22.38-15.75 60 60 0 0 1 25.44-5.75h273.61a62.8 62.8 0 0 1 25.91 5.77 76.9 76.9 0 0 1 22.77 15.73 73.9 73.9 0 0 1 15.71 23.58 72.7 72.7 0 0 1 5.79 28.52 58.2 58.2 0 0 1-5.75 24.56 79 79 0 0 1-15.75 22.38 84.2 84.2 0 0 1-22.83 16.19 59.1 59.1 0 0 1-25.85 6.16h-65.77v429.19c0 20.81-6.91 37.44-20.53 49.42s-30.7 18.19-50.5 18.19" class="tFill"/>
    <path d="M345.43 11.84a60.4 60.4 0 0 1 24.87 5.54 74.5 74.5 0 0 1 22 15.23 71.5 71.5 0 0 1 15.2 22.78 70.3 70.3 0 0 1 5.59 27.55 55.65 55.65 0 0 1-5.5 23.56 76.2 76.2 0 0 1-15.25 21.67 81.4 81.4 0 0 1-22.15 15.71 56.7 56.7 0 0 1-24.76 5.91h-68.27v431.63c0 20.34-6.44 35.9-19.68 47.55s-29.68 17.53-48.85 17.53-35.79-5.92-49.32-17.6-20.07-27.18-20.07-47.51V149.76H71.82a54 54 0 0 1-24.27-5.88 83.7 83.7 0 0 1-21.78-15.74A76 76 0 0 1 10.5 106.5 55.45 55.45 0 0 1 5 82.94a70.05 70.05 0 0 1 5.59-27.55 71.1 71.1 0 0 1 15.18-22.78 76 76 0 0 1 21.66-15.25 57.5 57.5 0 0 1 24.39-5.52zm0-5H71.82a62 62 0 0 0-26.5 6 80.8 80.8 0 0 0-23.09 16.23A75.8 75.8 0 0 0 5.99 53.44a74.6 74.6 0 0 0-6 29.5 60.1 60.1 0 0 0 6 25.65 80.5 80.5 0 0 0 16.24 23.08 88.5 88.5 0 0 0 23.09 16.68 58.6 58.6 0 0 0 26.5 6.41h62.42v426.66q0 32.51 21.8 51.3t52.59 18.78q30.78 0 52.15-18.81t21.38-51.3V154.76h63.27a61.35 61.35 0 0 0 26.93-6.41 86 86 0 0 0 23.52-16.68 80.7 80.7 0 0 0 16.24-23.08 60.2 60.2 0 0 0 6-25.65 74.8 74.8 0 0 0-6-29.5 76 76 0 0 0-16.24-24.37 78.9 78.9 0 0 0-23.52-16.24 64.9 64.9 0 0 0-26.93-6Z" class="a"/>
    <path d="M712.24 655.02c-44.47 0-86.85-8.71-126-25.87a326.8 326.8 0 0 1-102.64-70.43 337.2 337.2 0 0 1-69.18-104c-16.88-39.4-25.45-81.93-25.45-126.42s8.57-87 25.45-126.41 40.18-74.28 69.17-103.54a330.7 330.7 0 0 1 102.68-70C625.39 11.2 667.77 2.5 712.24 2.5s86.84 8.7 126 25.87a330.9 330.9 0 0 1 102.68 70c29 29.28 52.27 64.12 69.17 103.54s25.41 81.94 25.41 126.42-8.57 87-25.45 126.42a337.7 337.7 0 0 1-69.17 104 327.2 327.2 0 0 1-102.68 70.43c-39.12 17.13-81.51 25.84-125.96 25.84m0-509.6a168.1 168.1 0 0 0-69.86 14.76 193.6 193.6 0 0 0-57.17 39.41 184.4 184.4 0 0 0-39 58.07 181.66 181.66 0 0 0 0 141.34 184.3 184.3 0 0 0 39 58.07 187 187 0 0 0 57.19 39 172.3 172.3 0 0 0 69.84 14.32 175.3 175.3 0 0 0 70.26-14.32 185.6 185.6 0 0 0 57.63-39 178.3 178.3 0 0 0 38.59-58.09 186.72 186.72 0 0 0 0-141.29 178.5 178.5 0 0 0-38.59-58.1 192 192 0 0 0-57.63-39.42 171 171 0 0 0-70.26-14.75" class="o1Fill"/>
    <path d="M712.24 5c44.11 0 86.15 8.63 125 25.66a328.5 328.5 0 0 1 101.92 69.48c28.77 29.06 51.87 63.64 68.64 102.76s25.25 81.3 25.25 125.43-8.5 86.35-25.25 125.43a334.9 334.9 0 0 1-68.7 103.21 324.6 324.6 0 0 1-101.9 69.89c-38.81 17-80.85 25.66-125 25.66s-86.16-8.64-125-25.66a324.4 324.4 0 0 1-101.9-69.89 334.7 334.7 0 0 1-68.66-103.21c-16.67-39.08-25.14-81.26-25.14-125.43s8.5-86.34 25.25-125.43 39.88-73.72 68.64-102.76a328.2 328.2 0 0 1 101.89-69.48c38.8-17 80.84-25.66 125-25.66m0 507.89a177.9 177.9 0 0 0 71.22-14.52 188.2 188.2 0 0 0 58.4-39.53 180.9 180.9 0 0 0 39.13-58.91 189.22 189.22 0 0 0 0-143.2 181 181 0 0 0-39.13-58.91 194.6 194.6 0 0 0-58.4-39.93 173.6 173.6 0 0 0-71.3-15 170.6 170.6 0 0 0-70.9 15 196.1 196.1 0 0 0-57.9 39.92 186.9 186.9 0 0 0-39.53 58.86 184 184 0 0 0 0 143.3 186.8 186.8 0 0 0 39.53 58.86 189.6 189.6 0 0 0 58 39.52 174.8 174.8 0 0 0 70.84 14.53m0-512.89q-67.56 0-127 26.08T481.81 96.62q-44.06 44.46-69.68 104.31t-25.63 127.4q0 67.56 25.66 127.4t69.65 104.77q44 44.89 103.46 71t127 26.08q67.53 0 127-26.08t103.46-71q44-44.88 69.69-104.74t25.65-127.4q0-67.53-25.65-127.4T942.67 96.62q-44-44.45-103.46-70.54T712.24 0Zm0 507.89a169.1 169.1 0 0 1-68.83-14.11 183.5 183.5 0 0 1-56.43-38.48 180.8 180.8 0 0 1-38.48-57.27 179.13 179.13 0 0 1 0-139.37 180.9 180.9 0 0 1 38.48-57.29 189.8 189.8 0 0 1 56.43-38.86 164.7 164.7 0 0 1 68.83-14.54 167.75 167.75 0 0 1 69.26 14.54 188.5 188.5 0 0 1 56.86 38.9 175.4 175.4 0 0 1 38 57.29 184.33 184.33 0 0 1 0 139.37 175.3 175.3 0 0 1-38 57.28 182.4 182.4 0 0 1-56.86 38.44 172.2 172.2 0 0 1-69.26 14.11Z" class="a"/>
    <path d="M1172.24 649.03c-19.77 0-36.88-6.81-50.85-20.25s-21-30.2-21-49.93V76.1c0-19.71 7.08-36.51 21-49.93s31.11-20.25 50.85-20.25 36.7 6.81 50.41 20.23 20.62 30.24 20.62 49.95v168.82l125.2-206c13.67-21.89 33.38-33 58.57-33 13.13 0 26.21 3.62 38.89 10.75a79.1 79.1 0 0 1 25.64 26.48 65.2 65.2 0 0 1 9.06 32.95c0 14.18-4.13 26.61-12.28 36.92l-.1.12-131.7 215.21 132.5 210.79a93.2 93.2 0 0 1 8.29 18.28 60 60 0 0 1 3.29 18.87 69 69 0 0 1-9.08 34.26 77.44 77.44 0 0 1-25.69 26.95 74.4 74.4 0 0 1-18.95 7.81 77.5 77.5 0 0 1-19.87 2.91 75.06 75.06 0 0 1-33.94-7.86c-10.35-5.17-18.92-13.34-25.48-24.28l-124.35-204.32v167.09c0 19.73-6.94 36.53-20.63 49.95s-30.65 20.23-50.4 20.23" class="kFill"/>
    <path d="M1427.04 8.42c12.67 0 25.32 3.5 37.59 10.39a76.55 76.55 0 0 1 24.77 25.59 62.64 62.64 0 0 1 8.73 31.7c0 13.8-3.84 25.37-11.74 35.37l-.19.24-.16.25-130.82 213.76-1.61 2.65 1.65 2.62 131.64 209.44a90 90 0 0 1 8.07 17.77 57.7 57.7 0 0 1 3.16 18.09 66.5 66.5 0 0 1-8.75 33 75.06 75.06 0 0 1-24.8 26 72.5 72.5 0 0 1-18.32 7.53 74.7 74.7 0 0 1-19.22 2.83 72.6 72.6 0 0 1-32.83-7.6c-9.91-5-18.14-12.8-24.46-23.35l-119.71-196.63-9.27-15.23v176c0 19.3-6.5 35-19.88 48.16s-29.31 19.5-48.65 19.5-35.44-6.39-49.12-19.55-20.27-28.84-20.27-48.13V76.1c0-19.27 6.63-35 20.27-48.13s29.76-19.55 49.12-19.55 35.24 6.39 48.65 19.52 19.88 28.88 19.88 48.16v177.74l9.27-15.26 120.54-198.33c13.4-21.42 31.86-31.83 56.46-31.83m0-5q-39.35 0-60.71 34.2l-120.56 198.37V76.1q0-30.78-21.38-51.73t-52.15-21q-30.78 0-52.59 21t-21.8 51.73v502.75q0 30.78 21.8 51.73t52.59 20.92q30.78 0 52.15-20.95t21.38-51.73V420.67l119.73 196.66q10.26 17.11 26.51 25.22a77.1 77.1 0 0 0 35.06 8.13 79.7 79.7 0 0 0 20.52-3 76.8 76.8 0 0 0 19.66-8.12 79.54 79.54 0 0 0 26.51-27.79 71.2 71.2 0 0 0 9.4-35.48 62.2 62.2 0 0 0-3.42-19.67 94.8 94.8 0 0 0-8.55-18.81L1359.5 328.33l130.82-213.76q12.82-16.23 12.82-38.47a67.34 67.34 0 0 0-9.4-34.2 81.06 81.06 0 0 0-26.52-27.4q-19.72-11.07-40.18-11.08" class="a"/>
    <path d="M1645.06 645.61c-19.73 0-36.68-7.08-50.37-21.05s-20.66-31.08-20.66-50.84V81.23c0-20.31 7-37.55 20.64-51.25s30.66-20.64 50.39-20.64h219.75c20.27 0 37.37 6.94 50.8 20.63s20.23 30.66 20.23 50.4-6.81 36.86-20.25 50.86-30.51 21-50.78 21h-147.86v101.65h147.86c20.27 0 37.37 6.94 50.8 20.62s20.23 30.67 20.23 50.41c0 20.32-6.81 37.57-20.23 51.26s-30.51 20.63-50.8 20.63h-147.86v105.89h147.86c20.27 0 37.36 7.08 50.78 21s20.25 31.1 20.25 50.85-6.81 36.71-20.23 50.41-30.51 20.62-50.8 20.62Z" class="eFill"/>
    <path d="M1864.81 11.84c19.85 0 35.89 6.5 49 19.87s19.52 29.33 19.52 48.66-6.4 35.42-19.55 49.12-29.14 20.27-49 20.27H1714.5v106.62h150.36c19.85 0 35.89 6.5 49 19.87s19.52 29.33 19.52 48.66c0 19.92-6.39 36.11-19.52 49.51s-29.14 19.88-49 19.88H1714.5v110.89h150.36c19.84 0 35.86 6.63 49 20.27s19.56 29.77 19.56 49.12-6.39 35.26-19.52 48.66-29.14 19.87-49 19.87h-219.84c-19.3 0-35.2-6.64-48.58-20.3s-20-29.74-20-49.09V81.23c0-19.9 6.51-36.08 19.91-49.48s29.3-19.91 48.62-19.91h219.75m0-5h-219.7q-30.78 0-52.15 21.38t-21.38 53v492.5q0 30.78 21.38 52.59t52.15 21.8h219.75q31.62 0 52.58-21.37t20.95-52.16q0-30.78-20.95-52.59t-52.58-21.8H1719.5V399.3h145.36q31.62 0 52.58-21.38t20.95-53q0-30.78-20.95-52.16t-52.58-21.37H1719.5v-96.63h145.36q31.62 0 52.58-21.8t20.95-52.59q0-30.78-20.95-52.15t-52.63-21.38Z" class="a"/>
    <path d="M2078.56 649.03a62.7 62.7 0 0 1-27.56-6.16 73.8 73.8 0 0 1-22.33-16.54 70.8 70.8 0 0 1-14.45-24 81 81 0 0 1-5-27.79V82.08c0-20.89 6.67-38.43 19.82-52.13s30.65-20.61 52.06-20.61h128.26c27.45 0 53.15 5.11 76.38 15.18a183.6 183.6 0 0 1 60.32 41.76 190.2 190.2 0 0 1 39.24 62c9.25 23.54 13.94 49.41 13.94 76.9a216.1 216.1 0 0 1-13.94 77.76 197.9 197.9 0 0 1-39.26 63.76 182.7 182.7 0 0 1-60.32 43c-23.21 10.35-48.9 15.6-76.36 15.6h-57.22v169.28c0 20.32-7.24 38-21.52 52.54s-31.77 21.91-52.06 21.91m73.6-386.6h57.22c9 0 16.71-2.17 22.81-6.44a52.1 52.1 0 0 0 14.36-14.82 58.6 58.6 0 0 0 7.59-18.31 81 81 0 0 0 2.2-17.65 68 68 0 0 0-2.21-16 54.6 54.6 0 0 0-7.62-17 49.8 49.8 0 0 0-14.39-14c-6.1-3.95-13.75-6-22.74-6h-57.22Z" class="pFill"/>
    <path d="M2209.38 11.84c27.11 0 52.47 5 75.39 15a181 181 0 0 1 59.5 41.18 187.7 187.7 0 0 1 38.73 61.23c9.13 23.24 13.76 48.8 13.76 76a213.7 213.7 0 0 1-13.78 76.87 195.1 195.1 0 0 1-38.76 62.95 180.1 180.1 0 0 1-59.5 42.43c-22.88 10.21-48.23 15.39-75.34 15.39h-59.72v171.69c0 19.92-6.81 36.53-20.8 50.79s-30.43 21.13-50.3 21.13a60.3 60.3 0 0 1-26.47-5.91 71.1 71.1 0 0 1-21.58-16 68.2 68.2 0 0 1-13.94-23.09 78.5 78.5 0 0 1-4.83-26.93V82.08c0-20.5 6.25-37 19.12-50.4s29.27-19.84 50.26-19.84zm-59.72 253.09h59.72c9.56 0 17.71-2.32 24.24-6.89a54.6 54.6 0 0 0 15-15.53 61 61 0 0 0 7.92-19.1 83.6 83.6 0 0 0 2.26-18.2 70 70 0 0 0-2.29-16.61 57.1 57.1 0 0 0-8-17.8 52.1 52.1 0 0 0-15.01-14.68c-6.5-4.22-14.61-6.36-24.09-6.36h-59.72v115.17m59.69-258.09h-128.26q-33.35 0-53.86 21.38t-20.52 53.86v492.5a83.2 83.2 0 0 0 5.13 28.64 72.9 72.9 0 0 0 15 24.8 75.9 75.9 0 0 0 23.08 17.1 65 65 0 0 0 28.65 6.41q31.62 0 53.87-22.66t22.23-54.29V407.85h54.72q41.88 0 77.38-15.82a184.4 184.4 0 0 0 61.13-43.61 199.3 199.3 0 0 0 39.76-64.55q14.11-36.75 14.11-78.66t-14.11-77.81a191.8 191.8 0 0 0-39.76-62.85 185.3 185.3 0 0 0-61.13-42.32q-35.49-15.39-77.38-15.39Zm-54.72 253.09V154.76h54.72q12.82 0 21.37 5.56a47 47 0 0 1 13.68 13.25 52 52 0 0 1 7.27 16.25 64.4 64.4 0 0 1 2.14 15.39 78 78 0 0 1-2.14 17.1 55.8 55.8 0 0 1-7.27 17.53 49.35 49.35 0 0 1-13.68 14.1q-8.55 6-21.37 6Z" class="a"/>
    <path d="M2761.72 655.02c-44.47 0-86.85-8.71-126-25.87a326.8 326.8 0 0 1-102.68-70.43 337.3 337.3 0 0 1-69.17-104c-16.88-39.4-25.45-81.93-25.45-126.42s8.57-87 25.45-126.41 40.18-74.28 69.17-103.54a330.5 330.5 0 0 1 102.68-70c39.15-17.15 81.53-25.85 126-25.85s86.84 8.7 126 25.87a330.9 330.9 0 0 1 102.68 70c29 29.29 52.27 64.12 69.17 103.54s25.45 81.94 25.45 126.41-8.57 87-25.45 126.42a337.7 337.7 0 0 1-69.17 104 327.2 327.2 0 0 1-102.68 70.43c-39.16 17.14-81.55 25.85-126 25.85m0-509.6a168.1 168.1 0 0 0-69.86 14.76 193.4 193.4 0 0 0-57.17 39.41 184.4 184.4 0 0 0-39 58.07 181.66 181.66 0 0 0 0 141.34 184.3 184.3 0 0 0 39 58.07 187 187 0 0 0 57.19 39 172.3 172.3 0 0 0 69.84 14.32 175.3 175.3 0 0 0 70.25-14.32 185.6 185.6 0 0 0 57.63-39 178.3 178.3 0 0 0 38.59-58.09 186.72 186.72 0 0 0 0-141.29 178.5 178.5 0 0 0-38.59-58.1 191.8 191.8 0 0 0-57.6-39.42 171.1 171.1 0 0 0-70.28-14.75" class="o2Fill"/>
    <path d="M2761.72 5c44.11 0 86.15 8.63 125 25.66a328.5 328.5 0 0 1 101.92 69.48c28.77 29.06 51.87 63.63 68.64 102.76s25.22 81.3 25.22 125.43-8.5 86.35-25.25 125.43a334.9 334.9 0 0 1-68.66 103.21 324.6 324.6 0 0 1-101.9 69.89c-38.81 17-80.85 25.66-125 25.66s-86.16-8.64-125-25.66a324.4 324.4 0 0 1-101.9-69.89 334.7 334.7 0 0 1-68.66-103.21c-16.75-39.08-25.25-81.28-25.25-125.43s8.5-86.34 25.25-125.43 39.88-73.72 68.64-102.76a328.3 328.3 0 0 1 101.92-69.48c38.8-17 80.84-25.66 125-25.66m0 507.89a177.9 177.9 0 0 0 71.25-14.52 188.2 188.2 0 0 0 58.4-39.53 180.9 180.9 0 0 0 39.16-58.91 189.22 189.22 0 0 0 0-143.2 181 181 0 0 0-39.13-58.91 194.6 194.6 0 0 0-58.35-39.93 173.6 173.6 0 0 0-71.3-15 170.6 170.6 0 0 0-70.9 15 196.1 196.1 0 0 0-57.9 39.92 186.9 186.9 0 0 0-39.53 58.86 184 184 0 0 0 0 143.3 186.8 186.8 0 0 0 39.53 58.86 189.6 189.6 0 0 0 58 39.52 174.8 174.8 0 0 0 70.84 14.53m0-512.89q-67.56 0-127 26.08t-103.47 70.55q-44.05 44.46-69.69 104.31t-25.65 127.4q0 67.56 25.65 127.4t69.69 104.77q44 44.89 103.46 71t127 26.08q67.53 0 127-26.08t103.46-71q44-44.88 69.68-104.74t25.61-127.43q0-67.53-25.66-127.4t-69.69-104.31q-44-44.45-103.46-70.54T2761.69 0Zm0 507.89a169.1 169.1 0 0 1-68.83-14.11 183.5 183.5 0 0 1-56.43-38.47 180.8 180.8 0 0 1-38.48-57.28 179.13 179.13 0 0 1 0-139.37 180.9 180.9 0 0 1 38.48-57.29 189.8 189.8 0 0 1 56.43-38.9 164.7 164.7 0 0 1 68.83-14.54 167.75 167.75 0 0 1 69.22 14.58 188.5 188.5 0 0 1 56.86 38.9 175.2 175.2 0 0 1 38 57.29 184.2 184.2 0 0 1 0 139.37 175.1 175.1 0 0 1-38 57.28 182.4 182.4 0 0 1-56.86 38.48 172.2 172.2 0 0 1-69.26 14.11Z" class="a"/>
</svg>
