<svg xmlns="http://www.w3.org/2000/svg" viewBox="0 0 3215.54 557.14"><defs><style>.a{fill:#1d1d1b;}.b{fill:#f39200;}.c{fill:#f9b233;}</style></defs><title>logo_tokenpo</title><path class="a" d="M109.61,151.53h-51A47.83,47.83,0,0,1,37,146.29a72.31,72.31,0,0,1-18.85-13.61A66,66,0,0,1,4.89,113.83,49.16,49.16,0,0,1,0,92.88,61,61,0,0,1,4.89,68.8,62.1,62.1,0,0,1,18.15,48.9,66.14,66.14,0,0,1,37,35.64a50.73,50.73,0,0,1,21.64-4.89H282a53.12,53.12,0,0,1,22,4.89,64.54,64.54,0,0,1,19.2,13.26A62.29,62.29,0,0,1,336.5,68.8a61.19,61.19,0,0,1,4.88,24.08,49.29,49.29,0,0,1-4.88,21,66.18,66.18,0,0,1-13.27,18.85A70.23,70.23,0,0,1,304,146.29a50.06,50.06,0,0,1-22,5.24H230.38V499.89q0,26.54-17.45,41.89t-42.59,15.36q-25.12,0-42.93-15.36t-17.8-41.89Z"/><path class="b" d="M315.55,268.08q0-55.14,20.95-104A268.5,268.5,0,0,1,477.87,21.29Q526.38,0,581.54,0T685.21,21.29A268.59,268.59,0,0,1,826.58,164.06q20.94,48.87,20.94,104t-20.94,104a276.12,276.12,0,0,1-56.9,85.52,267.83,267.83,0,0,1-84.47,57.94q-48.53,21.3-103.67,21.3t-103.67-21.3a267.65,267.65,0,0,1-84.48-57.94A276.1,276.1,0,0,1,336.5,372.1Q315.54,323.24,315.55,268.08Zm120.78,0A142.87,142.87,0,0,0,447.85,325a147.67,147.67,0,0,0,31.41,46.77,150,150,0,0,0,46.08,31.42,137.94,137.94,0,0,0,56.2,11.52,140.53,140.53,0,0,0,56.55-11.52,148.7,148.7,0,0,0,46.42-31.42A142.89,142.89,0,0,0,715.58,325a150.51,150.51,0,0,0,0-113.8,143,143,0,0,0-31.07-46.77,153.89,153.89,0,0,0-46.42-31.77,137.18,137.18,0,0,0-56.55-11.86,134.66,134.66,0,0,0-56.2,11.86,155.35,155.35,0,0,0-46.08,31.77,147.78,147.78,0,0,0-31.41,46.77A142.94,142.94,0,0,0,436.33,268.08Z"/><path class="a" d="M896.39,62.13q0-25.12,17.8-42.23T957.12,2.79q25.14,0,42.59,17.11t17.45,42.23V192.68l98.44-162Q1133,2.81,1165.16,2.79q16.75,0,32.82,9.08a66.22,66.22,0,0,1,21.64,22.34,55,55,0,0,1,7.68,27.92q0,18.16-10.48,31.42L1110,268.08l107.51,171a76.69,76.69,0,0,1,7,15.36,50.79,50.79,0,0,1,2.8,16.06,58.16,58.16,0,0,1-7.68,29A65.17,65.17,0,0,1,1198,522.2a63.16,63.16,0,0,1-16.06,6.63,65.25,65.25,0,0,1-16.76,2.44,63,63,0,0,1-28.62-6.63Q1123.27,518,1114.9,504l-97.74-160.56V472.63q0,25.13-17.45,42.24T957.12,532q-25.12,0-42.93-17.1t-17.8-42.24Z"/><path class="b" d="M1403.92,326V408.4H1522.6q25.82,0,42.93,17.8t17.11,42.94q0,25.13-17.11,42.58t-42.93,17.46H1343.18q-25.12,0-42.58-17.8t-17.46-42.94V66.32q0-25.81,17.46-43.28t42.58-17.46H1522.6q25.82,0,42.93,17.46t17.11,42.58q0,25.14-17.11,42.94t-42.93,17.8H1403.92v78.89H1522.6q25.82,0,42.93,17.45t17.11,42.59q0,25.83-17.11,43.28T1522.6,326Z"/><path class="c" d="M1977.77,2.79q27.23,0,40.84,12.92t13.62,33.16v215L2175.34,57.25a171,171,0,0,1,35.26-38q20.58-16.39,45.72-16.41,26.52,0,41.54,11.87t15,34.21A66.64,66.64,0,0,1,2309,70.51a71.36,71.36,0,0,1-9.42,18.85l-266.69,393Q2018.27,504,2002.56,518t-40.85,14q-14,0-23.38-5.59a53.1,53.1,0,0,1-15.71-14,58.47,58.47,0,0,1-11.87-34.21V257.61L1759.26,488.69c-2.79,4.19-6.18,8.84-10.12,14a70.14,70.14,0,0,1-14.66,14,85.41,85.41,0,0,1-21.65,10.82q-12.91,4.53-31.06,4.54-25.85,0-39.8-13.26t-14-31.42a63.49,63.49,0,0,1,3.49-19.2A86.29,86.29,0,0,1,1642,446.8L1898.19,53.06q16.05-24.43,33.85-37.35T1977.77,2.79Z"/><path class="a" d="M2333.11,67q0-26.52,16.76-44t44-17.46h104.72q34.2,0,63.18,12.57a151.18,151.18,0,0,1,49.91,34.56A156.45,156.45,0,0,1,2644.13,104q11.52,29.33,11.52,63.53a177.71,177.71,0,0,1-11.52,64.23,162.77,162.77,0,0,1-32.47,52.71,150.45,150.45,0,0,1-49.91,35.6q-29,12.93-63.18,12.91h-44.68V469.14a61.09,61.09,0,0,1-18.15,44.33q-18.16,18.51-44,18.5a53,53,0,0,1-23.39-5.24,61.71,61.71,0,0,1-18.85-14,59.43,59.43,0,0,1-12.22-20.24,68,68,0,0,1-4.19-23.39Zm120.78,59.34v85.87h44.68q10.47,0,17.45-4.89a40.18,40.18,0,0,0,11.17-11.52,45.23,45.23,0,0,0,5.93-14.31,63.65,63.65,0,0,0,1.75-14,52.65,52.65,0,0,0-1.75-12.57,42.38,42.38,0,0,0-5.93-13.26A38.27,38.27,0,0,0,2516,130.9q-7-4.53-17.45-4.54Z"/><path class="c" d="M2683.57,268.08q0-55.14,20.94-104A268.59,268.59,0,0,1,2845.88,21.29Q2894.39,0,2949.55,0t103.67,21.29a268.5,268.5,0,0,1,141.37,142.77q20.94,48.87,20.95,104t-20.95,104a276.27,276.27,0,0,1-56.89,85.52,268,268,0,0,1-84.48,57.94q-48.53,21.3-103.67,21.3t-103.67-21.3a267.61,267.61,0,0,1-84.47-57.94,276,276,0,0,1-56.9-85.52Q2683.57,323.24,2683.57,268.08Zm120.77,0a142.87,142.87,0,0,0,11.52,56.9,147.53,147.53,0,0,0,31.42,46.77,149.83,149.83,0,0,0,46.07,31.42,137.94,137.94,0,0,0,56.2,11.52,140.46,140.46,0,0,0,56.55-11.52,148.7,148.7,0,0,0,46.42-31.42A142.89,142.89,0,0,0,3083.59,325a150.51,150.51,0,0,0,0-113.8,143,143,0,0,0-31.07-46.77,153.89,153.89,0,0,0-46.42-31.77,137.11,137.11,0,0,0-56.55-11.86,134.66,134.66,0,0,0-56.2,11.86,155.17,155.17,0,0,0-46.07,31.77,147.64,147.64,0,0,0-31.42,46.77A142.94,142.94,0,0,0,2804.34,268.08Z"/></svg>