<svg xmlns="http://www.w3.org/2000/svg" viewBox="0 0 651.53 657.52"><defs><style>.cls-1{fill:#fff;}</style></defs><title>logo_o2</title><g id="Layer_2" data-name="Layer 2"><g id="Layer_57" data-name="Layer 57"><path class="cls-1" d="M0,328.33q0-67.53,25.65-127.4T95.34,96.62q44-44.45,103.45-70.54T325.77,0q67.53,0,127,26.08T556.2,96.62q44,44.46,69.68,104.31t25.65,127.4q0,67.56-25.65,127.4T556.2,560.47a328.06,328.06,0,0,1-103.46,71q-59.44,26.07-127,26.08t-127-26.08q-59.43-26.07-103.45-71T25.65,455.73Q0,395.9,0,328.33Zm147.92,0A174.93,174.93,0,0,0,162,398,180.73,180.73,0,0,0,200.5,455.3a183.7,183.7,0,0,0,56.44,38.48,169,169,0,0,0,68.83,14.11A172.13,172.13,0,0,0,395,493.78a182.18,182.18,0,0,0,56.86-38.48A174.94,174.94,0,0,0,489.93,398a184.33,184.33,0,0,0,0-139.37,175.08,175.08,0,0,0-38.05-57.29A188.26,188.26,0,0,0,395,162.46a167.7,167.7,0,0,0-69.25-14.54,164.7,164.7,0,0,0-68.83,14.54,190,190,0,0,0-56.44,38.9A180.88,180.88,0,0,0,162,258.65,175,175,0,0,0,147.92,328.33Z"/></g></g></svg>