<svg xmlns="http://www.w3.org/2000/svg" viewBox="0 0 641.58 647.47">
    <defs>
        <style>
            .cls-1 {
                fill: #fff;
            }
        </style>
    </defs>
    <title>Otm</title>
    <g id="Layer_2" data-name="Layer 2">
        <g id="Layer_57" data-name="Layer 57">
            <path class="cls-1"
                d="M0,323.31q0-66.49,25.26-125.45T93.88,95.14q43.35-43.77,101.88-69.46T320.79,0q66.49,0,125,25.68T547.7,95.14q43.35,43.79,68.62,102.72t25.26,125.45q0,66.53-25.26,125.46T547.7,551.91a323.1,323.1,0,0,1-101.88,69.88q-58.53,25.68-125,25.68t-125-25.68q-58.53-25.68-101.88-69.88T25.26,448.77Q0,389.84,0,323.31Zm145.66,0a172.34,172.34,0,0,0,13.89,68.62,178,178,0,0,0,37.89,56.42A180.94,180.94,0,0,0,253,486.23a166.28,166.28,0,0,0,67.78,13.9,169.3,169.3,0,0,0,68.2-13.9,179.65,179.65,0,0,0,56-37.88,172.51,172.51,0,0,0,37.46-56.42,181.4,181.4,0,0,0,0-137.24A172.68,172.68,0,0,0,445,198.28,185.78,185.78,0,0,0,389,160a165.35,165.35,0,0,0-68.2-14.31A162.41,162.41,0,0,0,253,160a187.25,187.25,0,0,0-55.57,38.31,178.19,178.19,0,0,0-37.89,56.41A172.48,172.48,0,0,0,145.66,323.31Z" />
        </g>
    </g>
</svg>