<svg xmlns="http://www.w3.org/2000/svg" viewBox="0 0 787.25 651.21"><defs><style>.a{fill:none;}.b{fill:#fff8c8;}.c{fill:#1d1d1d;}.d{fill:#603813;}.e{fill:#724e2e;}.f{fill:#c69c6d;}</style></defs><title>Asset 17</title><path class="a" d="M514.93,332.93Z"/><path class="a" d="M514.93,332.93Z"/><path class="a" d="M660.91,381c1-1.39,2-2.76,3-4.12-.88.64-1.76,1.29-2.6,2a54.47,54.47,0,0,0-5.41,4.93c-.88.91-1.89,2-3.17,3.16a26.14,26.14,0,0,1-4.32,3.13c-.74.4-1.5.82-2.23,1.15l-1.09.5-.94.41c-1.18.52-2.34,1.05-3.54,1.61s-2.44,1.17-4,1.79a31.79,31.79,0,0,1-4.74,1.52c-1.53.37-3,.64-4.38.88l-4,.66L615.68,400q-15.85,3-31.76,6.12l-31.76,6.26-2,.4s-.09,0-.08,0h.1l5.11.45c2.7.24,5.4.47,8.17.76l2.13.24c.69.08,1.65.23,2.13.29,1.17.18,2.34.29,3.71.41a35,35,0,0,1,4.83.71,25.4,25.4,0,0,1,5,1.77,39.2,39.2,0,0,1,4.19,2.31L587.3,421c.51.34,1,.67,1.54,1a26,26,0,0,0,5,2.48l.35.11h0l2.93-.66h0l1.2-.79,2.93-1.93,5.88-3.81q5.91-3.79,11.9-7.48c4-2.46,8-4.88,12.25-7.2,2.1-1.17,4.26-2.31,6.59-3.4.59-.28,1.28-.55,1.92-.82l1-.39.85-.3c1.14-.41,2.3-.8,3.47-1.18s2.36-.73,3.58-1.08l1.88-.49,1-.22.41-.09h0L653,393C655.53,388.9,658.15,384.93,660.91,381Z"/><path class="a" d="M324.67,187.93Z"/><path class="b" d="M640.53,208.41s0,0,0,0h0Z"/><path class="b" d="M640,522.52c-1,0-2-.12-3-.21s-1.88-.2-2.81-.28a28.88,28.88,0,0,0-10.48.53,11.4,11.4,0,0,0-4.45,2.38,12.39,12.39,0,0,0-1.9,2.1l.5,0,2.29-.07,3.47-.11,6.93-.23,1.74-.06.84,0,.67,0a24.51,24.51,0,0,0,2.77-.32,31.21,31.21,0,0,0,11.49-4.4c-.63.16-1.27.29-1.9.4A32.49,32.49,0,0,1,640,522.52Z"/><path class="b" d="M641.09,209.94c-.12-.38-.26-.74-.4-1.11l.62,1.85Z"/><path class="b" d="M658.21,519.44c-.75-1.44.2-7.14.2-13.59-.08.18,0-.27-.1-1.13,0-.43,0-1,0-1.6s-.1-1.32-.2-2.06a17.43,17.43,0,0,0-1.19-4.53,21.46,21.46,0,0,0-3.06-4.25,31.07,31.07,0,0,0-3.69-3.43l-.06-.05-.53-.42-1-.79-1.11-.84a13.36,13.36,0,0,0-1.14-.8,38.27,38.27,0,0,0-3.47-2.12L641,482.9l-1.7-.86-6-3-2.57-1.36-.63-.34-.31-.16-.07,0,.07,0L630,477l1-.41,3.29-1.32c-4.4-1-8.81-1.94-13.23-2.61a126.42,126.42,0,0,0-22.28-1.53,90.46,90.46,0,0,0-21.92,3.17,85.07,85.07,0,0,0-20.74,8.79,46.25,46.25,0,0,1,4.72-4.23c-3.51.1-6.89-.05-10.23-.18l-10.47-.51-10.47-.53c-3.52-.21-7.06-.4-10.74-.88a31.43,31.43,0,0,1,3.59-1.41,116.21,116.21,0,0,0-17-7.62c-6.15-2.32-12.36-4.49-18.59-6.62-3.11-1.07-6.24-2.12-9.35-3.15l-.58-.19-.51-.14a8.6,8.6,0,0,0-1-.25l-1.08-.19c-.36-.06-.74-.07-1.11-.11a27.55,27.55,0,0,0-4.63,0,62.81,62.81,0,0,0-9.56,1.5c-3.23.67-6.42,1.56-9.68,2.37a62.24,62.24,0,0,1,8.93-4.7,48.66,48.66,0,0,1,9.81-3.06c.85-.18,1.73-.26,2.61-.39s1.77-.16,2.69-.13c.46,0,.91,0,1.37,0l1.4.14c.46,0,.93.18,1.4.26l.7.15.62.17c3.25.88,6.44,1.88,9.61,2.95a140.73,140.73,0,0,1,18.58,7.76c1.5.74,3,1.59,4.44,2.42s2.88,1.76,4.29,2.69a42.55,42.55,0,0,1,7.05,6,45.53,45.53,0,0,1,6.61-1.52,54.58,54.58,0,0,1,10.91-.54,53.36,53.36,0,0,1,10.81,1.61,39.7,39.7,0,0,1,9.88,3.89,57.8,57.8,0,0,1,14.56-8.1,69.36,69.36,0,0,1,23-4.45,86.12,86.12,0,0,1,38.26,8.08l7-2.81L645,471l1.94-.8,6.61-2.8c2.55-1.11,5.09-2.23,7.58-3.39s5-2.34,7.29-3.57a46.71,46.71,0,0,0,6.36-4c4-3,8.14-7,12.54-10.7,2.2-1.87,4.42-3.72,6.68-5.52s4.25-3.43,6.31-5.24A146.21,146.21,0,0,0,712,423.71c.91-1,1.79-2,2.65-3l1.25-1.5.58-.73.13-.17.07-.09c.58.4-1.21-1,1.32.88-.3-.25-.61-.49-.92-.72s-.33-.23-.34-.25,0,0,0,0c.34-.55,1-1.84,1.51-3l1.81-3.92c.33-.71.68-1.42,1.14-2.25.26-.44.48-.85.92-1.47.24-.35.3-.41.41-.56l.33-.42,2.58-3.35,5.16-6.7L740.89,383l2.59-3.35,1.29-1.68.32-.42.15-.2,0-.05a1.27,1.27,0,0,0,.14-.24A6.92,6.92,0,0,0,746,375a23.24,23.24,0,0,0,.25-3.34c0-1.26,0-2.6,0-4.13v-1.21l0-.66v-.08h0s0,0,0-.1a8.71,8.71,0,0,0-1.22-2,27.88,27.88,0,0,0-2.24-2.56,55.58,55.58,0,0,0-5.72-4.95,17.12,17.12,0,0,0-5.52-2.25,47,47,0,0,0-14.68-1.27,20.7,20.7,0,0,0-3.24.49l-.69.17-.54.2a2.9,2.9,0,0,0-.28.09l-.38.18-.75.35c-2.16,1.09-4.5,2.5-6.77,3.93-4.55,2.88-9,6.07-13.29,9.4a102.24,102.24,0,0,0-11.84,10.61c-.76.76-1.36,1.55-2,2.31s-1.37,1.74-2.05,2.6c-1.35,1.78-2.69,3.59-4,5.43-2.6,3.67-5.1,7.45-7.49,11.28l-.88,1.44-.78,1.29-.45.75c-.17.23-.23.56-.54.65l-2.67,1.44-1.33.72c-.46.19-.94.67-1.43.87l-.78.14-.36.07-.18,0-.71.16-1.09.28c0,.54,0,1.08,0,1.62.07,2.71.2,5.36.4,8s.48,5.29.83,8,.76,5.42,1.07,8.4a21.35,21.35,0,0,1-4.87-7.37,28.42,28.42,0,0,1-2-8.63,28.13,28.13,0,0,1,.69-8.82v0c-.91.3-1.83.61-2.76.94l-.78.28-.64.27c-.43.18-.82.32-1.29.54-1.86.88-3.81,1.9-5.77,3-7.85,4.37-15.68,9.32-23.43,14.27l-5.8,3.76-2.89,1.89-1.71,1.13a15.12,15.12,0,0,1-1.47.93l-1.69.38-3.87.87a8.68,8.68,0,0,1-3.44.18,16.45,16.45,0,0,1-1.7-.33c-.58-.15-.94-.26-1.33-.39a34.63,34.63,0,0,1-5.94-2.72c-.42,1.08-.81,2.17-1.14,3.26a59.94,59.94,0,0,0-1.78,7.55c-.45,2.56-.78,5.15-1,7.81s-.47,5.39-.87,8.34a21.26,21.26,0,0,1-3.06-8.19,26.18,26.18,0,0,1,0-8.83,23.31,23.31,0,0,1,3.16-8.35,17.89,17.89,0,0,1,2.38-3l-1.16-.73-1.59-1a28.52,28.52,0,0,0-2.89-1.6,14.45,14.45,0,0,0-5.75-1.35c-1.31-.12-2.83-.27-4.33-.49l-1.88-.26-1.9-.21c-2.6-.27-5.28-.51-8-.74l-11.09-1c-5.34-.49-10.75-1-15.65-1.7a43.5,43.5,0,0,1-6.39-1.28,8.5,8.5,0,0,1-3.29-1.79c-.52-.65-1-1.21-1.38-1.77a7.1,7.1,0,0,1-.69-1.78,6.63,6.63,0,0,1-.15-.79,8,8,0,0,1-.06-1.18,7.43,7.43,0,0,1,.23-1.56,4,4,0,0,1,.15-.49,12.94,12.94,0,0,1-4.3-4,12.44,12.44,0,0,1-2-4.86,12,12,0,0,1,.33-5.46,13.63,13.63,0,0,1,6.67-7.86,13.92,13.92,0,0,1,9.44-1.49,30.42,30.42,0,0,0-7.21,4.73,14.22,14.22,0,0,0-4.12,6.07,11.06,11.06,0,0,0,.34,7,18.2,18.2,0,0,0,1.9,3.76c.84-1.16,2.06-2.41,5.19-3.62l2.56-1,3.61-.9c2.42-.59,4.74-1.21,7.48-1.72l14-2.8,31.8-6.27q15.91-3.11,31.86-6.13l8.07-1.47,4-.66c1.26-.21,2.46-.45,3.55-.71a19,19,0,0,0,3-.94c1-.4,2.16-1,3.41-1.55s2.54-1.18,3.84-1.74l1.66-.75c.51-.22.92-.47,1.36-.7a12.44,12.44,0,0,0,2.22-1.61c.73-.64,1.56-1.53,2.56-2.56a66.8,66.8,0,0,1,6.56-6,113.13,113.13,0,0,1,14.25-9.5c9.69-5.53,19.5-10.15,28.84-15.16,2.34-1.24,4.62-2.52,6.88-3.82,1.11-.65,2.25-1.33,3.3-2s1.9-1.28,2.89-2l3-2.34c1-.81,2-1.68,3-2.51,2-1.65,4-3.47,6-5.19,8-7.09,15.73-14.5,23.43-22s15.34-15.09,22.72-22.77c.9-.95,1.85-1.92,2.69-2.85l.65-.7c.21-.24.47-.51.52-.59s.21-.24.32-.35a2.9,2.9,0,0,0,.27-.41,19.14,19.14,0,0,0,1.7-5.77c.14-.68.29-1.4.46-2.18l.15-.6.07-.28v-.07a2.28,2.28,0,0,0,.06-.35,8.64,8.64,0,0,0-.11-2.3,23.53,23.53,0,0,0-2-6c-.26-.55-.46-.93-.69-1.33a11.37,11.37,0,0,0-.73-1.12,11.53,11.53,0,0,0-1.79-1.91,20.32,20.32,0,0,0-5.33-3.08c-.53-.22-1.08-.43-1.64-.64a11.56,11.56,0,0,0-1.25-.37,16.28,16.28,0,0,0-2.91-.42,36.33,36.33,0,0,0-6.87.36c-2.41.32-4.84.82-7.43,1.4a42.81,42.81,0,0,0-6.6,2.29c-4.67,2-9.41,4.35-14.11,6.8s-9.43,5.05-14,7.66a74,74,0,0,0-12.16,8.68,69.86,69.86,0,0,0-10.08,10.86c-.72,1-1.42,2-2.05,3l-.42.67-.51.87-1,1.81-.48.9a2.58,2.58,0,0,1-.26.43l-.5.08-2,.35-.44.09.21.45c.9,2,1.75,4,2.6,6s1.67,4,2.5,6a64.88,64.88,0,0,1,2.32,6.56,17.2,17.2,0,0,1-5.67-4.51,23.53,23.53,0,0,1-3.75-6.13,24.23,24.23,0,0,1-1.8-6.95c0-.21,0-.42,0-.63l-1,.25c-1.19.32-2.36.69-3.53,1.08-.26.08-.52.17-.77.27l-.77.27a52.86,52.86,0,0,0-8.79,4.13c-.7.39-1.31.85-2,1.27l-2.43,1.6c-1.64,1-3.25,2-4.86,3-6.43,3.77-12.85,7.24-19.3,10.69S619.51,327,613,330.31l-2.43,1.25-2.14,1.09a3.11,3.11,0,0,1-.62.28l-.35,0c.29,1.32.62,2.6,1,3.87.77,2.61,1.71,5.15,2.72,7.7l3.17,7.77a56.19,56.19,0,0,1,2.73,8.4,32.94,32.94,0,0,1-6.17-6.49,35.49,35.49,0,0,1-4.37-7.84,26.44,26.44,0,0,1-1.95-9,19,19,0,0,1,.34-4.33l-5,.21c-1.84.07-3.69.12-5.57.15s-3.73.05-5.86,0h-.92c-.32,0-.6,0-1,.06-.69.06-1.45.17-2.22.29-1.56.25-3.21.63-4.85,1-3.31.83-6.67,1.84-10,2.94s-6.68,2.31-10,3.58-6.76,2.61-10.26,3.9a53.52,53.52,0,0,1-5.93,1.91c-1.24.29-2.4.43-3.26.55-.45.06-.87.11-1.29.18a15,15,0,0,1,1.78,2.05,16.56,16.56,0,0,1,2.32,4.83,16.33,16.33,0,0,1,.68,5.3,12.06,12.06,0,0,1-1.4,5.36,26.18,26.18,0,0,1-2.48-4.7,48.55,48.55,0,0,1-2.72-9.23,31.81,31.81,0,0,1-.42-3.26l-9.77,1.58-5.62.91-1,.15a27,27,0,0,1,2.21,6.43,27.34,27.34,0,0,1,.5,8.07,20.19,20.19,0,0,1-2.23,7.81c-.74-2.68-1.2-5.17-1.7-7.62l-1.46-7.24-1.47-6.8-.27.05-.34.05c-.11,0-.23.06-.3-.06l-.48-.49-1-1-1.9-2-2.51-2.64-1.94-2.13c-.65-.74-1.29-1.46-2-2.37-.18-.22-.38-.5-.58-.76s-.49-.74-.71-1.11-.43-.8-.61-1.22-.33-.82-.43-1.14a21.74,21.74,0,0,1-.87-3.84,26.51,26.51,0,0,1-.27-3.66,24.38,24.38,0,0,1,1.07-7.43,17.88,17.88,0,0,1,.66-1.86,17.54,17.54,0,0,1,.85-1.82,15.5,15.5,0,0,1,1-1.75l.61-.89c.25-.32.58-.73.88-1.05l.43-.43.34-.33c.24-.23.45-.42.67-.61.43-.38.83-.72,1.23-1.05.81-.67,1.58-1.28,2.36-1.89,6.2-4.75,12.36-9.05,18.56-13.4,12.39-8.66,24.86-17.12,37.21-25.67,4.14-2.87,8.28-5.74,12.29-8.64,1-.73,2-1.46,2.92-2.17.46-.35.91-.7,1.28-1,.09-.14.18-.29.28-.42l.24-.33.12-.16.07-.08.58-.65c.33-.34.64-.65.92-.92.57-.53,1.1-1,1.62-1.45,1-.9,2-1.72,3.06-2.55l11.9-9.48c3.9-3.12,7.76-6.28,11.34-9.49a55.9,55.9,0,0,0,4.75-4.75c.16-.19.27-.31.47-.57l.56-.72,1.12-1.47,2.27-3c1.54-2,3.13-4.15,5-6.3a32.17,32.17,0,0,1,7.05-6.18,23.4,23.4,0,0,1,4.68-2.23l.08,0,0,0c.12.37.06.17,0,0h0c-.06-.17-.1-.32,0,0l.4-.23c.38-.24.76-.46,1.21-.79,1.75-1.23,3.64-2.77,5.48-4.33,3.7-3.15,7.37-6.53,11-10,6.75-6.42,13.38-13.06,19.75-19.82,1.59-1.7,3.16-3.4,4.68-5.1s3-3.46,4.26-5.05a21.67,21.67,0,0,0,4.47-9.84,9.54,9.54,0,0,0,.07-2.16s0-.08,0-.09v-.44l0-.87a8.77,8.77,0,0,1,0-1.71c.06-.43.09-.9.12-1.36a18.61,18.61,0,0,0-.36-5.27,10.39,10.39,0,0,0-.67-2,5.28,5.28,0,0,0-.91-1.3l-.24-.26-.67-.59-1.24-1.08a10.35,10.35,0,0,0-1.82-1.31c-.24-.17-.48-.19-.71-.33s-.5-.16-.84-.2a12.57,12.57,0,0,0-2.28-.16,37.94,37.94,0,0,0-6,.71c-4.27.82-8.71,2-13.15,3.31l-1.34.39-1.27.41-2.63.86c-12.39,4.36-24.24,11.24-35.31,19-2.76,2-5.49,4-8.12,6.08l-1.93,1.57-.88.75c-.14.11-.07.07-.08.08s0,0-.08.09a15.76,15.76,0,0,0-1,1.49c-.38.61-.76,1.31-1.14,2s-.76,1.43-1.12,2.17l-.55,1.11-.79,1.65-.55,1.19-.27.6a2.75,2.75,0,0,1-.14.3l-.23.14a11.68,11.68,0,0,1,1.5,1.4,11.32,11.32,0,0,1,2.15,3.5,8.62,8.62,0,0,1,.55,4.38,14.6,14.6,0,0,1-3.72-2.05,18.94,18.94,0,0,1-2.7-2.49,19.79,19.79,0,0,1-1.65-2.18l-.75.5q-4.32,2.88-8.58,5.86c-5.68,3.95-11.3,8-16.8,12.16s-10.74,8.46-15.77,13q-1.89,1.7-3.71,3.44l-1.87,1.83-.64.66a9.18,9.18,0,0,1,.67,1.28,10.85,10.85,0,0,1,.82,2.78,11.49,11.49,0,0,1,0,3.58,6.55,6.55,0,0,1-3.41-1.6,7.8,7.8,0,0,1-2-2.75,7.6,7.6,0,0,1-.36-1c-2.88,1.12-5.8,2.37-8.68,3.68q-9.3,4.24-18.3,9.25l-2.05,1.14c-11.06,6.28-21.78,13.08-31.3,21-2.37,2-4.66,4-6.76,6.15-.27.26-.51.53-.76.79l-.38.4-.43.47a28.87,28.87,0,0,1,10.86,4.25,37,37,0,0,1,15.11,19.4,28.61,28.61,0,0,1,1.39,12.22,105.18,105.18,0,0,0-5-10.67,72.32,72.32,0,0,0-6.23-9.47,70.39,70.39,0,0,0-7.66-8.37,95.75,95.75,0,0,0-8.67-7.13c-.51.56-1,1.15-1.49,1.73l-.79.92a6.06,6.06,0,0,1-1.17.24l-6.49,1-9.61,1.51-1.08.17-.54.15-2.34.67-4.68,1.34-.9.26-.91.26-23.78,6.71-12,3.28-6,1.57-2.84.74,2.65,1.15a100.15,100.15,0,0,0,9.72,3.66,65.42,65.42,0,0,0,10.42,2.28,22.38,22.38,0,0,1-11.18,1.58,37,37,0,0,1-10.92-2.92,54.23,54.23,0,0,1-7.21-3.78l-.5.17-.44.15-.73.27c-.48.19-1,.36-1.44.57a1.3,1.3,0,0,1-.36.13l-.37,0-.72-.09L393.6,287l-2.3-.29-1.28-.16-.72-.09c-.11,0-.25,0-.35-.08l-.28-.26c-.74-.69-1.48-1.41-2.2-2.13l-1.48-1.5-1.11-1.15L381.7,279l-4.16-4.64a210.54,210.54,0,0,0-16.94-17c-3-2.64-6.1-5.33-9.17-7.9-1.53-1.28-3-2.49-4.48-3.53s-3.11-2.08-4.88-3.2l-2.63-1.68-1.31-.85-1.53-1.07a33.19,33.19,0,0,1-5.58-5.08,40.34,40.34,0,0,1-4.25-6c-.51-.86-1-1.72-1.41-2.58-2-.61-3.78-1.32-5.57-2-2.28-.92-4.49-1.88-6.68-2.87s-4.38-2-6.58-3.1a60.78,60.78,0,0,1-6.66-3.73,22.08,22.08,0,0,1,7.86,0,31.15,31.15,0,0,1,7.43,2.27,30.21,30.21,0,0,1,6.63,4.05c.6.48,1.17,1,1.72,1.53-1.71-3.85-3.12-7.39-4.75-10.91a85.72,85.72,0,0,1-4.47-12.54c-.58-2.11-1.08-4.24-1.52-6.4l-.34-1.74c-.17-.95-.34-1.91-.48-2.94a7.83,7.83,0,0,1,.51-1.38l.51-1.21a18.26,18.26,0,0,0,1-2.63l.11-.37c0-.07.16-.33.24-.43l.13-.21c.09-.14.18-.27.27-.44s.37-.65.55-1,.35-.73.53-1.13.34-.78.5-1.2a52.34,52.34,0,0,0,1.74-5.22,106.19,106.19,0,0,0,2.42-11.36c.68-4.14,1.45-8.35,2.41-12.51a126.11,126.11,0,0,1,3.5-12.5c.36-1,.74-2.09,1.15-3.15.2-.52.42-1.05.64-1.59l.44-1,0-1.16c0-.94,0-1.89,0-2.68v-.4a1.62,1.62,0,0,0-.09-.44l-.23-.78c0-.25,0-.51-.07-.77a7.47,7.47,0,0,1,.08-1.33,7.28,7.28,0,0,1,.4-1.38,9.71,9.71,0,0,1,1.57-2.54l.92-1.17.38-.51a27.3,27.3,0,0,0,2.59-4.32,34.65,34.65,0,0,0,1.91-4.87,48.19,48.19,0,0,0,1.29-5.32,178.83,178.83,0,0,0,2.39-23.64c.2-4,.33-8.11.44-12.19s.19-8.07.09-12a64.53,64.53,0,0,0-1.14-11.18,99.35,99.35,0,0,0-3.24-11.15l-1-3c-.32-.86-.58-1.71-.91-2.52A30.79,30.79,0,0,0,331.79,22a20.84,20.84,0,0,0-2.9-3.56,18.76,18.76,0,0,0-3.7-2.64,26.74,26.74,0,0,0-4.55-1.88,45.14,45.14,0,0,0-5.24-1.22c-.22,0-.49-.1-.65-.11l-.5,0c-.33,0-.66-.06-1-.1l-1,.05h-.49l-.48.1-1,.17-1,.31a4.57,4.57,0,0,0-1,.38,9.27,9.27,0,0,0-1,.45,19.67,19.67,0,0,0-3.7,2.68,27.35,27.35,0,0,0-3.28,3.72c-.5.67-1,1.38-1.38,2.08-.2.34-.42.7-.57,1l-.25.49-.18.4a52.15,52.15,0,0,0-1.61,5.16c-1,3.83-2,7.85-3.06,11.87l-.8,3-.41,1.52-.21.76-.25.86a48.67,48.67,0,0,1-2.53,6.59c-1.94,4.15-4.16,7.82-6.24,11.35s-4.11,7-5.93,10.44c-.46.87-.89,1.75-1.33,2.62l-1.33,2.72c-.87,1.81-1.72,3.62-2.53,5.44-1.64,3.63-3.14,7.28-4.46,11a106.89,106.89,0,0,0-4.44,16,28.11,28.11,0,0,1,2.29,2.23,24.65,24.65,0,0,1,2.52,3.23,7.11,7.11,0,0,1-4.45.2,10.53,10.53,0,0,1-1.23-.43c-.07.46-.14.92-.2,1.38-.1,1-.23,1.92-.32,2.88l-.22,2.88c-.17,2.06-.29,4.29-.53,6.39-.42,4.26-1,8.45-1.73,12.62a241.15,241.15,0,0,1-5.47,24.73,105.48,105.48,0,0,1-4.23,12.47l-.78,1.67c-.14.29-.23.53-.42.86l-.55.95-.57.94-.26.42c-.17.28-.34.58-.52.94a47.77,47.77,0,0,0-2.1,5c-1.35,3.65-2.59,7.57-4,11.56-.71,2-1.45,4-2.33,6.13a31,31,0,0,1-3.74,6.81,9.92,9.92,0,0,1-.85,1l-.19.2a37.77,37.77,0,0,1,11.11-.62,122.71,122.71,0,0,1,13.83,2.33,96.19,96.19,0,0,0,13.64,2.06c-4.45,1.77-9.41,2-14.11,1.83s-9.32-.86-13.78-1.24a51.74,51.74,0,0,0-13.11.39l-.94.18c-.34.82-.67,1.7-1,2.57-1.33,3.67-2.63,7.68-4.14,11.68-1.11,2.94-2.34,5.9-3.7,8.81a20.4,20.4,0,0,1,5.12-.4,14.15,14.15,0,0,1,5.64,1.42,24.71,24.71,0,0,1-5.08,2.48,42.6,42.6,0,0,1-5,1.46c-1.15.27-2.31.46-3.5.63l-.23.44-1.57,2.78c-1.07,1.84-2.17,3.67-3.3,5.47a200.8,200.8,0,0,1-14.91,20.59l-4,4.82-2,2.38-1,1.18c-.32.38-.7.82-.93,1.13a56.83,56.83,0,0,0-5.91,9.31,132.06,132.06,0,0,0-8.73,21.8c-1.15,3.77-2.12,7.58-3,11.41a115,115,0,0,0-1.79,11.5A73.39,73.39,0,0,1,168,358.31c-1.29,4.21-2.85,8.25-4.51,12.21h0a185.83,185.83,0,0,1-10.35,20.28l-1.47,2.45-.69,1.11,0,.06h0l-.12.21-.24.39-.44.7c-1.17,1.78-2.35,3.35-3.56,4.9-2.43,3.06-4.95,5.93-7.55,8.7s-5.25,5.45-8,8q-2,2-4.11,3.88a167.93,167.93,0,0,1-1.24,17.21l.77-.64a99,99,0,0,1,8.35-6.29,41.56,41.56,0,0,1-5.55,9,57.9,57.9,0,0,1-4.63,5.14,161,161,0,0,1-13.22,42.25l49.19-1.82-32.77,40.52,63.79,8.23L158,564.76a115.54,115.54,0,0,1,39.39.48c1-.91,2.13-1.83,3.31-2.74-.65.25,5-3.9,11.61-8,7.88-5,17-10.21,17-10.21l4.63-2.29-3.81-.45-4-.58q-4-.62-8-1.36c-5.36-1-10.66-2.2-16-3.54a61.9,61.9,0,0,1,8.26-.52c2.74,0,5.47.05,8.2.17s5.44.32,8.16.55l8.06.79c2.68.26,5.35.49,8,.68l1.5-.72,2.37-1.11,1.6-.74,1.76.18,1.61.15.84.06,1.69.13c1.13.07,2.27.13,3.4.18,2.27.11,4.55.17,6.82.18a128.08,128.08,0,0,0,13.47-.57c4.51-.45,9.21-1,13.84-1.63l14-1.82,28-3.8,14-1.92,7-1,3.61-.48c.55-.08,1.46-.13,2.3-.17l1.94,0c4.9,0,9.58.17,14.32.3l14.17.49,14.15.57,3.55.16.92,0,.47,0c.07-.8,0,1.12,0,.77l0-.33a3.9,3.9,0,0,1,0-.45h0l.33,0c.12,0,.36-.05.55-.07a60.73,60.73,0,0,0,6.17-1.42l3.39-.89a39.75,39.75,0,0,1,4-.87c.56-.05,1.12-.09,1.68-.1l1.12,0,.55,0,.48,0,1,.07c1.26.11,2.46.22,3.64.36,7.12.83,14,1.88,20.9,2.92l20.66,3.23,4.43.7,4.42-.37,2.6-.22,2.16-.18,1.3-.11.32,0c.11,0,.22,0,.31,0l.58.31,1.16.61.59.29.5.25,1.07.49c.72.32,1.45.64,2.19.94a66.51,66.51,0,0,0,9.05,3,43.6,43.6,0,0,0,9,1.39,96.8,96.8,0,0,0,11.42-.39c3.91-.33,7.87-.79,11.84-1.32l6-.83,1.55-.21.83-.11a10.44,10.44,0,0,1,1.09-.11c.49,0,1-.07,1.49,0l.94.07,1.52.12q6.06.47,12.08.83c4,.24,8,.44,12,.55s8,.17,11.64-.06a106.85,106.85,0,0,0,11.46-1.37c1.9-.33,3.8-.7,5.67-1.13.93-.2,1.86-.43,2.76-.67.43-.11.9-.23,1.29-.35s.8-.26.69-.22l.33-.17.63-.35,1.38-.81,1.42-.85,2.29-1.43.73-.46c.13-.07.24-.16.37-.22H616a11.64,11.64,0,0,1,1.31-3.67,11.79,11.79,0,0,1,4.82-4.46,18.3,18.3,0,0,1,6.22-1.84,30.23,30.23,0,0,1,6.23-.06c1,.1,2,.24,3,.36s1.85.27,2.77.38c1.84.23,3.67.39,5.5.45a28.29,28.29,0,0,0,11.07-1.61,12.69,12.69,0,0,1-2.25,2.14,9.64,9.64,0,0,1,2.76.52,5.43,5.43,0,0,1,1.32.7l.24-.21A.57.57,0,0,1,658.21,519.44ZM634.33,361.1a6.44,6.44,0,0,1,5-1.17,6.88,6.88,0,0,1,2.95,1.34,6.75,6.75,0,0,1-2.07,2.5,6.47,6.47,0,0,1-5,1.14,6.68,6.68,0,0,1-3-1.33A6.75,6.75,0,0,1,634.33,361.1Zm-18.9-19.78a4.26,4.26,0,0,1-.25-2.84,3.47,3.47,0,0,1,2-2.36l1.87,1.88a3.88,3.88,0,0,1,1.26,2.75l.19,2.65a3.48,3.48,0,0,1-3.12,0A4.24,4.24,0,0,1,615.43,341.32Zm-.69,29.95a1.44,1.44,0,0,1,1.14-.3,5.34,5.34,0,0,1,2.09.77,5.45,5.45,0,0,1,.52,2.16,1.47,1.47,0,0,1-.43,1.1,1.41,1.41,0,0,1-1.13.3,5.24,5.24,0,0,1-2.09-.78,5.3,5.3,0,0,1-.53-2.16A1.43,1.43,0,0,1,614.74,371.27Zm-38.53,2.19a8.28,8.28,0,0,1,2.55-.41,8.37,8.37,0,0,1,2.55.41,10,10,0,0,1,2.92,1.52,5.87,5.87,0,0,1-2.52,2.38,6.68,6.68,0,0,1-3,.69,6.47,6.47,0,0,1-3-.68,5.84,5.84,0,0,1-2.52-2.37A9.66,9.66,0,0,1,576.21,373.46ZM509.57,426.2a6.4,6.4,0,0,1,1.9-3,5,5,0,0,1,3.51-1.31,25.37,25.37,0,0,1-.15,3.32,13,13,0,0,1-.48,2.41,12.8,12.8,0,0,1-.93,2.27,25.28,25.28,0,0,1-1.74,2.84,5,5,0,0,1-2.19-3A6.41,6.41,0,0,1,509.57,426.2ZM616.94,198.8A7.06,7.06,0,0,1,620,200a7,7,0,0,1,1.87,2,6.76,6.76,0,0,1,1,2.55,6.9,6.9,0,0,1-.25,3.3,6.89,6.89,0,0,1-5.9-5.75A7,7,0,0,1,616.94,198.8ZM566.51,237a42.36,42.36,0,0,1,4.82,4.84,41.37,41.37,0,0,1,4,5.52,26.76,26.76,0,0,1,2.92,6.46,26.72,26.72,0,0,1-5.91-3.91,42.28,42.28,0,0,1-4.82-4.83,43,43,0,0,1-4-5.53,26.78,26.78,0,0,1-2.93-6.46A27.44,27.44,0,0,1,566.51,237ZM496.89,416.82a6.46,6.46,0,0,1,3-2.36,4.75,4.75,0,0,1,3.9.13l-1.52,3a18.28,18.28,0,0,1-2.74,4L497.25,424a4.78,4.78,0,0,1-1.52-3.6A6.46,6.46,0,0,1,496.89,416.82Zm-9.89,27a17.06,17.06,0,0,1,1.27-3.7,12.91,12.91,0,0,1,2.51-3.61,10.12,10.12,0,0,1,1.35,4.26,13.31,13.31,0,0,1-1.73,8,9.86,9.86,0,0,1-3,3.3,12.58,12.58,0,0,1-.77-4.32A16.57,16.57,0,0,1,487,443.84ZM211.65,376.6a108.5,108.5,0,0,0-16.29.82c-5.55.52-11.1,1-16.68,1.34s-11.18.64-16.88.55a113.53,113.53,0,0,1,16.37-4.43,165.43,165.43,0,0,1,16.72-2.43c5.58-.54,11.45-.84,17.25.25a27.2,27.2,0,0,1,8.35,2.95,16.79,16.79,0,0,1,6.25,6C222.25,378.08,217,376.9,211.65,376.6ZM366.33,266.35c1.75,1.95,3.39,3.94,5,6s3,4.16,4.46,6.36a47.1,47.1,0,0,1,3.84,7.11,27.91,27.91,0,0,1-6.82-4.55,40.57,40.57,0,0,1-5.46-5.89,41.44,41.44,0,0,1-4.23-6.84,27.84,27.84,0,0,1-2.57-7.77A47.64,47.64,0,0,1,366.33,266.35Zm-65.93-10a11.85,11.85,0,0,1,1.58,3.59,13.85,13.85,0,0,1,0,6.65,11.86,11.86,0,0,1-1.54,3.61,7.78,7.78,0,0,1-2.38-3.29,9.86,9.86,0,0,1-.7-3.61,10.13,10.13,0,0,1,.66-3.63A7.94,7.94,0,0,1,300.4,256.34Zm3.79,50.51a72.38,72.38,0,0,1-8.87,32.57,57.24,57.24,0,0,1-10.15,13.51c2.36-5.12,4.63-10.1,6.59-15.18a156.82,156.82,0,0,0,5.1-15.4,153.71,153.71,0,0,0,3.43-15.86c.89-5.37,1.46-10.81,2-16.42A57.42,57.42,0,0,1,304.19,306.85ZM291.82,113.64a39.91,39.91,0,0,1,10.58-.52,39,39,0,0,1,10.35,2.28,29.6,29.6,0,0,1,9.17,5.24c-3.53-.43-6.84-1-10.14-1.43s-6.53-.83-9.8-1.11-6.52-.45-9.84-.55-6.68-.11-10.23-.27A29.9,29.9,0,0,1,291.82,113.64Zm10,14.47a9.56,9.56,0,0,1-3.94.9,11.48,11.48,0,0,1-3.54-.48,11.78,11.78,0,0,1-3.24-1.51,9.62,9.62,0,0,1-2.85-2.87,9.78,9.78,0,0,1,4-.89,11.87,11.87,0,0,1,3.54.47,11.62,11.62,0,0,1,3.24,1.51A9.59,9.59,0,0,1,301.84,128.11ZM288.62,187l6.73.49,6.73.44c2.29.17,4.61.3,7.16.69a17.32,17.32,0,0,1-6.78,3.22,24.38,24.38,0,0,1-14.75-1,17.67,17.67,0,0,1-6.28-4.12C284,186.65,286.33,186.84,288.62,187Zm-29,190.57c.62-.6,3.45-1,6.82-1.59-.36-.06,3.69-.55,7.74-1.5s8.13-2.16,8.13-2.16c.94-.24,1.88-.45,2.82-.71l1.41-.38,2.95-.84c4.85-1.43,9.67-3.12,14.43-4.88a242.89,242.89,0,0,0,77.7-47.35l3.74-3.45,3.65-3.55a.53.53,0,0,1,.39-.17c1.58-.31,4.62-.13,4.16,4.07a1.66,1.66,0,0,1-.18.53l-3.74,3.64-3.85,3.54a249.47,249.47,0,0,1-81.19,49.12L297,374.5c-2.52.83-5.07,1.62-7.64,2.35l-2,.55-1.5.39c-1,.25-2,.52-3,.74,0,0-2.39.42-5.67.72a63.11,63.11,0,0,1-10.84.16,23.88,23.88,0,0,1-5.79-.89C259.54,378.18,259.28,377.85,259.58,377.56Zm96.16,49.78a1.6,1.6,0,0,1-.55,0q-4.65-2.13-9.36-4.17-14.34-6.18-29.07-11.44-7.35-2.61-14.79-5c-5-1.59-9.91-3-14.9-4.2-1.82-.42-3.65-.81-5.48-1.15l-1.5-.37c-.93-.26-2.25-.54-3.77-.9-3-.67-6.92-1.34-10.17-1.78-2.75-.31-4.58-.48-5.65-.71s-1.38-.52-1.12-.85c.52-.64,3.38-1.51,7-1.87a46.94,46.94,0,0,1,8.32-.23c2.2.09,4.42.26,6.08.44l2,.23.76.1c1,.21,2,.38,3,.61s1.81.39,3.45.8c2.91.71,5.77,1.5,8.61,2.35,5.68,1.68,11.24,3.55,16.81,5.46q16.68,5.81,32.89,12.8,4.77,2,9.49,4.21a.54.54,0,0,1,.31.31C359,423.4,359.81,426.26,355.74,427.34ZM351,399.11a53.77,53.77,0,0,1-31.71-3.34,65.12,65.12,0,0,0,30.86-.45,62.67,62.67,0,0,0,14.13-5.69,59.72,59.72,0,0,0,12.18-9.05A138.05,138.05,0,0,0,387,369.22c3.39-4,6.83-8.05,10.14-12.07a106.57,106.57,0,0,0,9.06-12.69,59,59,0,0,0,3.55-6.95,55,55,0,0,0,2.5-7.47,39.7,39.7,0,0,1-1.19,7.92,52.21,52.21,0,0,1-2.68,7.62,84.35,84.35,0,0,1-8.12,13.92c-1.52,2.2-3.11,4.34-4.72,6.45s-3.23,4.2-4.88,6.29a115.17,115.17,0,0,1-10.83,12,67.92,67.92,0,0,1-6.32,5.25c-1.13.78-2.29,1.55-3.44,2.29s-2.37,1.43-3.61,2A57,57,0,0,1,351,399.11Zm23.1,82.95c-.57,4.49-1.22,8.94-1.93,13.39s-1.47,8.88-2.33,13.32c-.45,2.22-.89,4.44-1.4,6.67a16.42,16.42,0,0,0-.57,3.18,3.1,3.1,0,0,0,1.11,2.82,2.71,2.71,0,0,1-1.58-.91,5.3,5.3,0,0,1-.9-1.69,13.32,13.32,0,0,1-.51-3.61q-.17-3.45-.06-6.89a106.1,106.1,0,0,1,1.31-13.68,107.87,107.87,0,0,1,3-13.41,72.94,72.94,0,0,1,5-12.86C375.1,473.05,374.6,477.56,374.05,482.06Zm14.63,13.36c-.81,2.6-1.58,5.17-2.31,7.74s-1.4,5.16-2.07,7.8-1.3,5.34-2.18,8.2a22.78,22.78,0,0,1-1.71-8.63,31.07,31.07,0,0,1,1.15-8.73,30.31,30.31,0,0,1,3.56-8,22.45,22.45,0,0,1,6-6.47C390.35,490.19,389.48,492.81,388.68,495.42Zm37.57-9.33c-2.85,3.88-5.71,7.7-8.42,11.58s-5.3,7.81-7.64,11.92a126,126,0,0,0-6.38,12.91,39.21,39.21,0,0,1,2.83-14.59,60.83,60.83,0,0,1,7.1-13.11,84.47,84.47,0,0,1,9.54-11.27A87.43,87.43,0,0,1,434.5,474C432,478.28,429.09,482.2,426.25,486.09ZM442,355.77c-3.33,4.27-6.38,8.79-9.45,13.36s-6.28,9.17-9.66,13.59-6.93,8.72-10.63,12.88-7.51,8.23-11.64,12A84.34,84.34,0,0,1,387.33,418a50.35,50.35,0,0,1-15.42,6.44c10.23-4.39,18.51-11.64,26-19.54s14.39-16.5,21.05-25.17c3.34-4.34,6.52-8.76,9.75-13.26A147.85,147.85,0,0,1,439,353.26a69.25,69.25,0,0,1,6-6,57.07,57.07,0,0,1,6.83-5.05,36.58,36.58,0,0,1,15.77-5.56,42.07,42.07,0,0,0-14.37,7.57A67.27,67.27,0,0,0,442,355.77Zm44.22,164.89a15,15,0,0,1-2.49-6,15.29,15.29,0,0,1,.19-6.46,11,11,0,0,1,3.19-5.57l.71,5.87c.24,1.81.51,3.53.83,5.25s.69,3.42,1.12,5.19.93,3.59,1.43,5.74A11,11,0,0,1,486.22,520.66Zm18-36.31c-1.11.88-2.16,1.69-3.22,2.49s-2.13,1.58-3.28,2.4-2.37,1.67-3.95,2.61a8.34,8.34,0,0,1,.91-5.11,11.45,11.45,0,0,1,3.32-3.9,11.58,11.58,0,0,1,4.68-2.09,8.39,8.39,0,0,1,5.16.54C506.47,482.55,505.31,483.46,504.2,484.35Zm43.54,13.06c-.33,2.18-.73,4.31-1.18,6.42s-.95,4.21-1.54,6.34a44.79,44.79,0,0,1-2.29,6.53,18.55,18.55,0,0,1-1.62-6.94,25.88,25.88,0,0,1,.57-7,26.61,26.61,0,0,1,2.34-6.6,18.8,18.8,0,0,1,4.31-5.67A45.23,45.23,0,0,1,547.74,497.41Z"/><path class="b" d="M584.74,258.9s0,0,0,0Z"/><polygon class="c" points="514.93 332.93 514.93 332.93 514.93 332.93 514.93 332.93"/><path class="c" d="M783.9,254.13c-.32-.67-.74-1.49-1.18-2.25a25.31,25.31,0,0,0-1.49-2.27,23.78,23.78,0,0,0-3.72-4,32.16,32.16,0,0,0-8.58-5.08c-.72-.3-1.43-.57-2.13-.83a22.68,22.68,0,0,0-2.62-.79,28.6,28.6,0,0,0-5.09-.75,49.24,49.24,0,0,0-9.28.45c-2.94.39-5.8,1-8.47,1.59a53.64,53.64,0,0,0-8.7,3c-5.27,2.23-10.18,4.71-15.07,7.25s-9.6,5.15-14.41,7.9A86.79,86.79,0,0,0,689,268.43a81.94,81.94,0,0,0-11.89,12.84c-.88,1.19-1.73,2.41-2.54,3.69l-.12.19h0c-.4.1-1.93.46-2.87.73-1.42.39-2.82.83-4.21,1.29-.31.1-.62.2-.92.32l-.92.33A63.62,63.62,0,0,0,654.61,293c-.89.49-1.74,1.11-2.61,1.66l-2.12,1.4c-1.44.9-2.92,1.82-4.46,2.71-6.11,3.59-12.48,7-18.85,10.45s-12.79,6.76-19.23,10.08l-2.41,1.24-.3.15h0l-5.08.21c-1.79.07-3.57.12-5.33.15s-3.54,0-5,0l-.81,0c-.33,0-.68,0-1,0-.58,0-1.22,0-1.76.1-1.12.1-2.16.25-3.18.41-2,.33-3.92.77-5.81,1.23-3.74.94-7.35,2-10.91,3.2s-7.06,2.44-10.53,3.77-6.8,2.62-10.13,3.85a43.23,43.23,0,0,1-4.43,1.46,20.42,20.42,0,0,1-2.13.34c-.91.12-1.92.27-2.86.42l-10.76,1.75-5.14.83h0L518.46,337l-1.74-1.9c-.54-.62-1.11-1.27-1.51-1.79L515,333l0,0h0a.75.75,0,0,0,0-.14,9,9,0,0,1-.36-1.67,14.16,14.16,0,0,1-.15-2,12.19,12.19,0,0,1,.52-3.71,5.44,5.44,0,0,1,.29-.8,5.56,5.56,0,0,1,.34-.74,5,5,0,0,1,.41-.67l.18-.28c0-.05,0,0,0,0l.07-.07.17-.16.38-.34.91-.78c.64-.54,1.35-1.09,2.05-1.64,5.76-4.41,11.94-8.74,18.06-13,12.3-8.59,24.75-17,37.17-25.63,4.17-2.89,8.33-5.78,12.51-8.8,1-.76,2.1-1.53,3.18-2.35.54-.42,1.08-.84,1.69-1.34.3-.26.61-.51,1-.93l.36-.37a3.58,3.58,0,0,0,.32-.36l.36-.45.08-.11a2.26,2.26,0,0,0,.15-.22l.21-.38.25-.24c.36-.34.78-.71,1.21-1.08.87-.76,1.82-1.54,2.77-2.31l11.83-9.42c4-3.2,8-6.44,11.91-10a66.08,66.08,0,0,0,5.94-6c.24-.29.54-.65.73-.9l.6-.77,1.19-1.55,2.29-3c1.51-2,3-3.92,4.42-5.58a20.34,20.34,0,0,1,4.28-3.83,10.58,10.58,0,0,1,2.15-1l.75-.3.88-.39,1.23-.68c.69-.43,1.39-.86,2-1.28,2.39-1.68,4.41-3.35,6.42-5,4-3.4,7.77-6.88,11.5-10.41,7-6.6,13.68-13.34,20.26-20.33,1.65-1.75,3.28-3.52,4.9-5.34s3.22-3.63,4.87-5.79a33.78,33.78,0,0,0,6.9-15.76,21.42,21.42,0,0,0,.13-4.91l0-.35v0c.1-.74.15-1.45.2-2.16a30.78,30.78,0,0,0-.66-8.82,22.79,22.79,0,0,0-1.6-4.66,17.71,17.71,0,0,0-3.13-4.48c-.33-.34-.68-.69-1-1l-.66-.57-1.43-1.25a22.86,22.86,0,0,0-4-2.76,19,19,0,0,0-2.52-1.11,23,23,0,0,0-2.59-.68,25.18,25.18,0,0,0-4.76-.37,50.83,50.83,0,0,0-8.09.92c-5,1-9.7,2.24-14.33,3.59l-1.41.41-1.45.47-3,1c-14,5-26.61,12.35-38.4,20.63-2.94,2.09-5.83,4.23-8.68,6.5L604.58,157c-.35.29-.72.6-1.12.95-.2.16-.57.53-.86.82a11.3,11.3,0,0,0-.79.9,25.06,25.06,0,0,0-1.94,2.85c-.53.88-1,1.71-1.45,2.55s-.88,1.67-1.29,2.49l-1,2h0l-2,1.33q-4.41,3-8.75,6c-5.81,4-11.54,8.17-17.21,12.45S557,198.12,551.61,203q-2,1.81-4,3.7l-1.89,1.84h0l-.07,0c-3.46,1.33-6.75,2.74-10,4.23q-9.81,4.49-19.17,9.69l-2.14,1.19c-11.48,6.52-22.77,13.64-33.18,22.32-2.6,2.18-5.14,4.45-7.62,6.94-.31.31-.61.64-.92,1l-.75.8h0l-3.12.5-9.61,1.5-1.32.21a5.5,5.5,0,0,0-1.13.26l-.67.19-2.34.67L449,259.32l-.89.25-.9.26-23.71,6.69-11.83,3.25-5.9,1.53c-2.06.52-4.11,1.08-6.18,1.69-1,.3-2.07.62-3.11,1l-1.86.63h0l-1.72-1.77-2-2.17-4.08-4.54a224.18,224.18,0,0,0-17.88-17.94c-3.18-2.84-6.28-5.49-9.52-8.2-1.62-1.35-3.32-2.74-5.2-4.09s-3.74-2.49-5.44-3.57l-2.56-1.64-1.28-.83-1-.7a20.63,20.63,0,0,1-3.52-3.21,26.6,26.6,0,0,1-2.88-4.07,52.68,52.68,0,0,1-2.5-4.93c-1.57-3.49-3.16-7.48-4.92-11.31a72.24,72.24,0,0,1-3.8-10.68c-.51-1.85-.95-3.72-1.34-5.6l-.27-1.38h0l.23-.35c.19-.29.37-.59.53-.87.33-.57.65-1.14.91-1.7s.55-1.11.79-1.66.48-1.1.69-1.64a64.58,64.58,0,0,0,2.16-6.47,118.53,118.53,0,0,0,2.73-12.75c.65-4,1.37-7.86,2.25-11.71a111.39,111.39,0,0,1,3.15-11.25c.3-.9.63-1.79,1-2.65.17-.44.34-.85.52-1.27l.26-.6.23-.51a2.94,2.94,0,0,0,.26-.72l.4-1.44c.06-.24.15-.48.2-.73l0-.77.07-1.92c0-1.12,0-2.23,0-3.49l0-.7h0l.58-.77a40,40,0,0,0,3.75-6.25,51.7,51.7,0,0,0,4.22-13.24,189.25,189.25,0,0,0,2.6-25.41q.3-6.25.46-12.46c.11-4.11.19-8.37.08-12.67A75.65,75.65,0,0,0,351.3,40.6a108.65,108.65,0,0,0-3.6-12.53l-.95-2.91c-.38-1.07-.73-2.19-1.19-3.28a42.3,42.3,0,0,0-3.26-6.53,33.21,33.21,0,0,0-4.88-6,31,31,0,0,0-6.3-4.52A38.17,38.17,0,0,0,324.3,2,55,55,0,0,0,317.54.44c-.29,0-.52-.11-.87-.15l-1-.11L313.56,0l-2.1.08-1,.06-1,.17c-.69.12-1.38.24-2.06.39l-2,.62a13.3,13.3,0,0,0-1.91.75c-.6.29-1.26.54-1.82.88a31.42,31.42,0,0,0-6.27,4.51A39,39,0,0,0,290.45,13c-.72,1-1.39,2-2,3-.32.55-.63,1.07-.93,1.67-.15.29-.3.57-.45.89l-.45,1a62.49,62.49,0,0,0-2.09,6.59c-1.11,4.11-2.07,8.08-3.1,12l-.77,2.93-.4,1.46-.2.73-.19.62A33.6,33.6,0,0,1,278,48.85a116.24,116.24,0,0,1-5.66,10.24c-2.1,3.53-4.25,7.22-6.24,11-.51,1-1,1.92-1.47,2.88l-1.38,2.83q-1.36,2.84-2.67,5.73c-1.74,3.87-3.37,7.83-4.82,11.88a116.85,116.85,0,0,0-6.14,25.25c-.12,1.08-.27,2.16-.37,3.25L249,125.2c-.17,2-.26,3.91-.49,5.9-.39,3.92-1,7.88-1.62,11.82a225.12,225.12,0,0,1-5.18,23.42,93.4,93.4,0,0,1-3.66,10.9l-.53,1.11a4.46,4.46,0,0,1-.25.53l-.23.38-.22.39-.56.88c-.36.61-.69,1.2-1,1.76a56.64,56.64,0,0,0-2.7,6.36c-1.5,4.06-2.73,8-4.06,11.76-.65,1.87-1.33,3.7-2,5.4a20.7,20.7,0,0,1-2.11,4l-.11.15c-.33-.33.17.54-.19.18l-.54.49c-.36.32-.73.67-1.05,1-.51.63-1.07,1.31-1.48,1.94s-.78,1.23-1.09,1.82a49.42,49.42,0,0,0-2.79,6.48c-1.47,4.06-2.7,7.88-4.11,11.57a104.26,104.26,0,0,1-4.65,10.66L207,246.66l-1.46,2.59q-1.5,2.56-3.07,5.09a189.63,189.63,0,0,1-14,19.34l-3.87,4.69-2,2.34-1,1.18c-.34.4-.64.74-1,1.24a69.42,69.42,0,0,0-7.33,11.46,145.52,145.52,0,0,0-9.61,23.93q-1.86,6.15-3.23,12.47a128.75,128.75,0,0,0-2,12.86,62.42,62.42,0,0,1-2.32,10.84,116.41,116.41,0,0,1-4,10.93h0a175.26,175.26,0,0,1-9.63,18.86l-1.35,2.26-.67,1.06-.41.68-.29.46c-.84,1.28-1.86,2.65-2.91,4-2.12,2.68-4.44,5.32-6.85,7.89-1.15,1.23-2.33,2.45-3.52,3.66a167.27,167.27,0,0,1,.52,16.76q2.07-1.9,4.11-3.88,4.08-3.89,8-8c2.6-2.77,5.12-5.64,7.55-8.7,1.21-1.55,2.39-3.12,3.56-4.9l.44-.7.24-.39.12-.21,0-.06.69-1.11,1.47-2.45a185.83,185.83,0,0,0,10.35-20.28h0c1.66-4,3.22-8,4.51-12.21a73.39,73.39,0,0,0,2.79-13.25,115,115,0,0,1,1.79-11.5c.84-3.83,1.81-7.64,3-11.41a132.06,132.06,0,0,1,8.73-21.8,56.83,56.83,0,0,1,5.91-9.31c.23-.31.61-.75.93-1.13l1-1.18,2-2.38,4-4.82A200.8,200.8,0,0,0,213,260.94c1.13-1.8,2.23-3.63,3.3-5.47l1.57-2.78.23-.44c-.55.08-1.09.17-1.65.23a25.41,25.41,0,0,1-5.65,0,14.19,14.19,0,0,1,4.46-3.73,20.23,20.23,0,0,1,5.23-2l.45-.09c1.36-2.91,2.59-5.87,3.7-8.81,1.51-4,2.81-8,4.14-11.68.33-.87.66-1.75,1-2.57a24.19,24.19,0,0,0-11.12,5.18,15.13,15.13,0,0,1,4.52-5.66,22.22,22.22,0,0,1,6.54-3.51,30.87,30.87,0,0,1,3.42-.94l.19-.2a9.92,9.92,0,0,0,.85-1,31,31,0,0,0,3.74-6.81c.88-2.09,1.62-4.13,2.33-6.13,1.39-4,2.63-7.91,4-11.56a47.77,47.77,0,0,1,2.1-5c.18-.36.35-.66.52-.94l.26-.42.57-.94.55-.95c.19-.33.28-.57.42-.86l.78-1.67a105.48,105.48,0,0,0,4.23-12.47A241.15,241.15,0,0,0,259.11,145c.7-4.17,1.31-8.36,1.73-12.62.24-2.1.36-4.33.53-6.39l.22-2.88c.09-1,.22-1.92.32-2.88.06-.46.13-.92.2-1.38a9.76,9.76,0,0,1-2.54-1.58A9.4,9.4,0,0,1,257,113.8a7.08,7.08,0,0,1-.47-4.42,23.85,23.85,0,0,1,3.56,2,28.17,28.17,0,0,1,2.7,2.07l.15.13a106.89,106.89,0,0,1,4.44-16c1.32-3.69,2.82-7.34,4.46-11,.81-1.82,1.66-3.63,2.53-5.44l1.33-2.72c.44-.87.87-1.75,1.33-2.62,1.82-3.48,3.82-6.9,5.93-10.44s4.3-7.2,6.24-11.35a48.67,48.67,0,0,0,2.53-6.59l.25-.86.21-.76.41-1.52.8-3c1.05-4,2-8,3.06-11.87a52.15,52.15,0,0,1,1.61-5.16l.18-.4.25-.49c.15-.32.37-.68.57-1,.42-.7.88-1.41,1.38-2.08a27.35,27.35,0,0,1,3.28-3.72,19.67,19.67,0,0,1,3.7-2.68,9.27,9.27,0,0,1,1-.45,4.57,4.57,0,0,1,1-.38l1-.31,1-.17.48-.1h.49l1-.05c.33,0,.66.08,1,.1l.5,0c.16,0,.43.08.65.11a45.14,45.14,0,0,1,5.24,1.22,26.74,26.74,0,0,1,4.55,1.88,18.76,18.76,0,0,1,3.7,2.64,20.84,20.84,0,0,1,2.9,3.56A30.79,30.79,0,0,1,334,26.47c.33.81.59,1.66.91,2.52l1,3a99.35,99.35,0,0,1,3.24,11.15,64.53,64.53,0,0,1,1.14,11.18c.1,3.93,0,7.89-.09,12s-.24,8.14-.44,12.19a178.83,178.83,0,0,1-2.39,23.64,48.19,48.19,0,0,1-1.29,5.32,34.65,34.65,0,0,1-1.91,4.87,27.3,27.3,0,0,1-2.59,4.32l-.38.51-.92,1.17a9.71,9.71,0,0,0-1.57,2.54,7.28,7.28,0,0,0-.4,1.38,7.47,7.47,0,0,0-.08,1.33c0,.26,0,.52.07.77l.23.78a1.62,1.62,0,0,1,.09.44v.4c0,.79,0,1.74,0,2.68l0,1.16-.44,1c-.22.54-.44,1.07-.64,1.59-.41,1.06-.79,2.1-1.15,3.15a126.11,126.11,0,0,0-3.5,12.5c-1,4.16-1.73,8.37-2.41,12.51A106.19,106.19,0,0,1,318,171.88a52.34,52.34,0,0,1-1.74,5.22c-.16.42-.33.82-.5,1.2s-.35.78-.53,1.13-.37.7-.55,1-.18.3-.27.44l-.13.21c-.08.1-.26.36-.24.43l-.11.37a18.26,18.26,0,0,1-1,2.63l-.51,1.21a7.83,7.83,0,0,0-.51,1.38c.14,1,.31,2,.48,2.94l.34,1.74c.44,2.16.94,4.29,1.52,6.4a85.72,85.72,0,0,0,4.47,12.54c1.63,3.52,3,7.06,4.75,10.91A20.07,20.07,0,0,1,327,226c-.57-.15-1.11-.31-1.65-.47.44.86.9,1.72,1.41,2.58a40.34,40.34,0,0,0,4.25,6,33.19,33.19,0,0,0,5.58,5.08l1.53,1.07,1.31.85,2.63,1.68c1.77,1.12,3.43,2.16,4.88,3.2s2.95,2.25,4.48,3.53c3.07,2.57,6.22,5.26,9.17,7.9a210.54,210.54,0,0,1,16.94,17L381.7,279l2.18,2.34,1.11,1.15,1.48,1.5c.72.72,1.46,1.44,2.2,2.13l.28.26c.1.09.24,0,.35.08l.72.09,1.28.16,2.3.29,1.31.17.72.09.37,0a1.3,1.3,0,0,0,.36-.13c.48-.21,1-.38,1.44-.57l.73-.27.44-.15.5-.17c-.84-.52-1.66-1.06-2.47-1.61a60.45,60.45,0,0,1-8.54-7A66.49,66.49,0,0,1,398.87,281l7.12,3.08,2.84-.74,6-1.57,12-3.28,23.78-6.71.91-.26.9-.26,4.68-1.34,2.34-.67.54-.15,1.08-.17,9.61-1.51,6.49-1a6.06,6.06,0,0,0,1.17-.24l.79-.92c.49-.58,1-1.17,1.49-1.73-.16-.11-.3-.22-.45-.34l.65.11.43-.47.38-.4c.25-.26.49-.53.76-.79,2.1-2.11,4.39-4.16,6.76-6.15,9.52-7.94,20.24-14.74,31.3-21l2.05-1.14q9-5,18.3-9.25c2.88-1.31,5.8-2.56,8.68-3.68a7.79,7.79,0,0,1-.32-2.32,6.59,6.59,0,0,1,1.11-3.6,11.68,11.68,0,0,1,2.63,2.43,11.45,11.45,0,0,1,.84,1.21l.64-.66,1.87-1.83q1.82-1.74,3.71-3.44c5-4.55,10.33-8.88,15.77-13S586.83,191,592.51,187q4.26-3,8.58-5.86l.75-.5c-.18-.27-.36-.52-.53-.8a14.94,14.94,0,0,1-1.64-3.91,8.7,8.7,0,0,1,4.29,1,10.86,10.86,0,0,1,1.75,1.12l.23-.14a2.75,2.75,0,0,0,.14-.3l.27-.6.55-1.19.79-1.65.55-1.11c.36-.74.74-1.46,1.12-2.17s.76-1.4,1.14-2a15.76,15.76,0,0,1,1-1.49c.06-.07.08-.11.08-.09s-.06,0,.08-.08l.88-.75,1.93-1.57c2.63-2.09,5.36-4.12,8.12-6.08,11.07-7.79,22.92-14.67,35.31-19l2.63-.86,1.27-.41,1.34-.39c4.44-1.31,8.88-2.49,13.15-3.31a37.94,37.94,0,0,1,6-.71,12.57,12.57,0,0,1,2.28.16c.34,0,.55.15.84.2s.47.16.71.33a10.35,10.35,0,0,1,1.82,1.31l1.24,1.08.67.59.24.26a5.28,5.28,0,0,1,.91,1.3,10.39,10.39,0,0,1,.67,2,18.61,18.61,0,0,1,.36,5.27c0,.46-.06.93-.12,1.36a8.77,8.77,0,0,0,0,1.71l0,.87V151s0,.06,0,.09a9.54,9.54,0,0,1-.07,2.16,21.67,21.67,0,0,1-4.47,9.84c-1.22,1.59-2.75,3.35-4.26,5.05s-3.09,3.4-4.68,5.1c-6.37,6.76-13,13.4-19.75,19.82-3.62,3.42-7.29,6.8-11,10-1.84,1.56-3.73,3.1-5.48,4.33-.45.33-.83.55-1.21.79l-.4.23c-.11-.32-.07-.17,0,0h0s0,0,0,0h0c.05.18.11.38,0,0l0,0-.08,0a23.4,23.4,0,0,0-4.68,2.23,32.17,32.17,0,0,0-7.05,6.18c-1.88,2.15-3.47,4.27-5,6.3l-2.27,3-1.12,1.47-.56.72c-.2.26-.31.38-.47.57a55.9,55.9,0,0,1-4.75,4.75c-3.58,3.21-7.44,6.37-11.34,9.49l-11.9,9.48c-1,.83-2,1.65-3.06,2.55-.52.45-1.05.92-1.62,1.45-.28.27-.59.58-.92.92l-.58.65-.07.08-.12.16-.24.33c-.1.13-.19.28-.28.42-.37.3-.82.65-1.28,1-.93.71-1.92,1.44-2.92,2.17-4,2.9-8.15,5.77-12.29,8.64-12.35,8.55-24.82,17-37.21,25.67-6.2,4.35-12.36,8.65-18.56,13.4-.78.61-1.55,1.22-2.36,1.89-.4.33-.8.67-1.23,1.05-.22.19-.43.38-.67.61l-.34.33-.43.43c-.3.32-.63.73-.88,1.05l-.61.89a15.5,15.5,0,0,0-1,1.75,17.54,17.54,0,0,0-.85,1.82,17.88,17.88,0,0,0-.66,1.86,24.38,24.38,0,0,0-1.07,7.43,26.51,26.51,0,0,0,.27,3.66,21.74,21.74,0,0,0,.87,3.84c.1.32.26.71.43,1.14s.4.82.61,1.22.5.82.71,1.11.4.54.58.76c.71.91,1.35,1.63,2,2.37l1.94,2.13,2.51,2.64,1.9,2,1,1,.48.49c.07.12.19.07.3.06l.34-.05.27-.05L516,351c-.53-2.45-1.11-4.91-1.51-7.66a20.2,20.2,0,0,1,5.17,6.26c.21.38.39.78.58,1.17l1-.15,5.62-.91,9.77-1.58c-.05-.65-.08-1.31-.07-2a10.46,10.46,0,0,1,2.31,1.68c.42-.07.84-.12,1.29-.18.86-.12,2-.26,3.26-.55a53.52,53.52,0,0,0,5.93-1.91c3.5-1.29,6.9-2.63,10.26-3.9s6.66-2.48,10-3.58,6.7-2.11,10-2.94c1.64-.4,3.29-.78,4.85-1,.77-.12,1.53-.23,2.22-.29.36,0,.64,0,1-.06h.92c2.13.09,4,.07,5.86,0s3.73-.08,5.57-.15l5-.21a14.44,14.44,0,0,1,1.67-4.6c.26,1.57.54,3,.86,4.48l.35,0a3.11,3.11,0,0,0,.62-.28l2.14-1.09,2.43-1.25q9.74-5,19.4-10.18c6.45-3.45,12.87-6.92,19.3-10.69,1.61-.93,3.22-1.93,4.86-3l2.43-1.6c.67-.42,1.28-.88,2-1.27a52.86,52.86,0,0,1,8.79-4.13l.77-.27c.25-.1.51-.19.77-.27,1.17-.39,2.34-.76,3.53-1.08l1-.25a16.83,16.83,0,0,1,.73-6.58,58.89,58.89,0,0,1,2.9,5.78l.44-.09,2-.35.5-.08a2.58,2.58,0,0,0,.26-.43l.48-.9,1-1.81.51-.87.42-.67c.63-1,1.33-2,2.05-3a69.86,69.86,0,0,1,10.08-10.86,74,74,0,0,1,12.16-8.68c4.56-2.61,9.31-5.2,14-7.66s9.44-4.83,14.11-6.8a42.81,42.81,0,0,1,6.6-2.29c2.59-.58,5-1.08,7.43-1.4a36.33,36.33,0,0,1,6.87-.36,16.28,16.28,0,0,1,2.91.42,11.56,11.56,0,0,1,1.25.37c.56.21,1.11.42,1.64.64a20.32,20.32,0,0,1,5.33,3.08,11.53,11.53,0,0,1,1.79,1.91,11.37,11.37,0,0,1,.73,1.12c.23.4.43.78.69,1.33a23.53,23.53,0,0,1,2,6,8.64,8.64,0,0,1,.11,2.3,2.28,2.28,0,0,1-.06.35v.07l-.07.28-.15.6c-.17.78-.32,1.5-.46,2.18a19.14,19.14,0,0,1-1.7,5.77,2.9,2.9,0,0,1-.27.41c-.11.11-.22.23-.32.35s-.31.35-.52.59l-.65.7c-.84.93-1.79,1.9-2.69,2.85-7.38,7.68-15,15.28-22.72,22.77s-15.48,14.88-23.43,22c-2,1.72-4,3.54-6,5.19-1,.83-2,1.7-3,2.51l-3,2.34c-1,.75-1.93,1.34-2.89,2s-2.19,1.34-3.3,2c-2.26,1.3-4.54,2.58-6.88,3.82-9.34,5-19.15,9.63-28.84,15.16a113.13,113.13,0,0,0-14.25,9.5,66.8,66.8,0,0,0-6.56,6c-1,1-1.83,1.92-2.56,2.56a12.44,12.44,0,0,1-2.22,1.61c-.44.23-.85.48-1.36.7l-1.66.75c-1.3.56-2.59,1.15-3.84,1.74s-2.43,1.15-3.41,1.55a19,19,0,0,1-3,.94c-1.09.26-2.29.5-3.55.71l-4,.66-8.07,1.47q-16,3-31.86,6.13l-31.8,6.27-14,2.8c-2.74.51-5.06,1.13-7.48,1.72l-3.61.9-2.56,1c-3.13,1.21-4.35,2.46-5.19,3.62a27.52,27.52,0,0,0,2.65,3.4,11.43,11.43,0,0,1-3.71-1.35,4,4,0,0,0-.15.49,7.43,7.43,0,0,0-.23,1.56,8,8,0,0,0,.06,1.18,6.63,6.63,0,0,0,.15.79,7.1,7.1,0,0,0,.69,1.78c.36.56.86,1.12,1.38,1.77a8.5,8.5,0,0,0,3.29,1.79,43.5,43.5,0,0,0,6.39,1.28c4.9.69,10.31,1.21,15.65,1.7l11.09,1c2.68.23,5.36.47,8,.74l1.9.21,1.88.26c1.5.22,3,.37,4.33.49a14.45,14.45,0,0,1,5.75,1.35,28.52,28.52,0,0,1,2.89,1.6l1.59,1,1.16.73A12.28,12.28,0,0,1,586,429.2a40.1,40.1,0,0,0-2,4.28,34.63,34.63,0,0,0,5.94,2.72c.39.13.75.24,1.33.39a16.45,16.45,0,0,0,1.7.33,8.68,8.68,0,0,0,3.44-.18l3.87-.87,1.69-.38a15.12,15.12,0,0,0,1.47-.93l1.71-1.13,2.89-1.89,5.8-3.76c7.75-4.95,15.58-9.9,23.43-14.27,2-1.08,3.91-2.1,5.77-3,.47-.22.86-.36,1.29-.54l.64-.27.78-.28c.93-.33,1.85-.64,2.76-.94a21.38,21.38,0,0,1,3.68-8c.12,2.4.13,4.65.17,6.84l1.09-.28.71-.16.18,0,.36-.07.78-.14c.49-.2,1-.68,1.43-.87l1.33-.72,2.67-1.44c.31-.09.37-.42.54-.65l.45-.75.78-1.29.88-1.44c2.39-3.83,4.89-7.61,7.49-11.28,1.3-1.84,2.64-3.65,4-5.43.68-.86,1.39-1.79,2.05-2.6s1.27-1.55,2-2.31a102.24,102.24,0,0,1,11.84-10.61c4.27-3.33,8.74-6.52,13.29-9.4,2.27-1.43,4.61-2.84,6.77-3.93l.75-.35.38-.18a2.9,2.9,0,0,1,.28-.09l.54-.2.69-.17a20.7,20.7,0,0,1,3.24-.49,47,47,0,0,1,14.68,1.27,17.12,17.12,0,0,1,5.52,2.25,55.58,55.58,0,0,1,5.72,4.95,27.88,27.88,0,0,1,2.24,2.56,8.71,8.71,0,0,1,1.22,2c0,.09,0,.1,0,.1h0v.08l0,.66v1.21c0,1.53,0,2.87,0,4.13A23.24,23.24,0,0,1,746,375a6.92,6.92,0,0,1-.6,2.09,1.27,1.27,0,0,1-.14.24l0,.05-.15.2-.32.42-1.29,1.68L740.89,383l-10.32,13.39-5.16,6.7-2.58,3.35-.33.42c-.11.15-.17.21-.41.56-.44.62-.66,1-.92,1.47-.46.83-.81,1.54-1.14,2.25l-1.81,3.92c-.54,1.2-1.17,2.49-1.51,3,0,0,0,0,0,0s-.11-.07.34.25.62.47.92.72c-2.53-1.89-.74-.48-1.32-.88l-.07.09-.13.17-.58.73-1.25,1.5c-.86,1-1.74,2-2.65,3A146.21,146.21,0,0,1,700.28,435c-2.06,1.81-4.12,3.48-6.31,5.24s-4.48,3.65-6.68,5.52c-4.4,3.72-8.56,7.72-12.54,10.7a46.71,46.71,0,0,1-6.36,4c-2.32,1.23-4.79,2.42-7.29,3.57s-5,2.28-7.58,3.39l-6.61,2.8L645,471l-1.07.45-7,2.81a70.68,70.68,0,0,1,6.32,3.36q-4.49-1.23-9-2.3L631,476.61l-1,.41-.14.06-.07,0,.07,0,.31.16.63.34,2.57,1.36,6,3,1.7.86,1.74.93a38.27,38.27,0,0,1,3.47,2.12,13.36,13.36,0,0,1,1.14.8l1.11.84,1,.79.53.42.06.05a31.07,31.07,0,0,1,3.69,3.43,21.46,21.46,0,0,1,3.06,4.25,17.43,17.43,0,0,1,1.19,4.53c.1.74.13,1.45.2,2.06s0,1.17,0,1.6c.05.86,0,1.31.1,1.13,0,6.45-.95,12.15-.2,13.59a.57.57,0,0,0,.8.34,4.52,4.52,0,0,0,1.66-1.66,33.56,33.56,0,0,0,4.52-11.05,30.8,30.8,0,0,0,1-10.59,26.66,26.66,0,0,0-.53-3,30.4,30.4,0,0,0-1-3,33,33,0,0,0-2.56-4.65,39.5,39.5,0,0,0-4.21-5.34l-.06-.07c-.25-.26-.49-.5-.7-.73a.76.76,0,0,1,0-.11c0-.06,0-.14,0-.16s.16-.15.2-.17h0s0,0,0,0h0l2.37-1,4.28-1.9c2.86-1.29,5.7-2.62,8.57-4.07a65.54,65.54,0,0,0,8.7-5.18,97.8,97.8,0,0,0,7.62-6.21c2.33-2.05,4.57-4.05,6.86-6s4.58-3.82,7-5.72,4.9-4,7.29-6.14a152.46,152.46,0,0,0,13.56-13.58c.54-.61,1.07-1.24,1.6-1.88l.79-1,.4-.51.21-.27.25-.33c.47-.67.74-1.15,1-1.61s.47-.87.66-1.26c.4-.8.75-1.55,1.08-2.27.66-1.44,1.28-2.84,1.87-4.07.29-.6.6-1.21.79-1.51l0-.09h0l-.21-.16c-.35-.25-.68-.51-1-.77,2.45,1.82.73.43,1.3.81l.17-.23.71-.91,11.24-14.58,5.62-7.29,2.81-3.65,1.4-1.82a26.83,26.83,0,0,0,1.7-2.36,18.08,18.08,0,0,0,2.31-6.52,37.12,37.12,0,0,0,.44-5.52v-4.6l0-1a17.33,17.33,0,0,0-.13-2.28,11.68,11.68,0,0,0-.53-2.17,13.14,13.14,0,0,0-.72-1.76,24.11,24.11,0,0,0-3.4-5.11,45.3,45.3,0,0,0-3.67-3.86c-1.25-1.18-2.53-2.27-3.83-3.33-.65-.53-1.31-1-2-1.54a20.56,20.56,0,0,0-2.86-1.75c-.46-.23-.94-.49-1.39-.67l-1.33-.54c-.91-.38-1.75-.6-2.63-.89s-1.71-.46-2.57-.69l-2.55-.53c-2-.36-4-.61-6-.78,1.64-1.4,3.22-2.83,4.84-4.23,8.18-7.3,16-14.78,23.83-22.34s15.46-15.2,23-23.09c1-1,1.89-2,2.86-3l.73-.79c.24-.26.45-.48.82-.93l1-1.2a13.32,13.32,0,0,0,.83-1.28,29.8,29.8,0,0,0,3.14-9.58l.38-1.79.24-1a14.68,14.68,0,0,0,.29-1.65,21.19,21.19,0,0,0-.19-5.75A35.78,35.78,0,0,0,783.9,254.13Zm-459.23-66.2Zm316.42,22,.22.74-.62-1.85C640.83,209.2,641,209.56,641.09,209.94Zm-56.35,49h0S584.74,258.91,584.74,258.9Zm67.2,135.78h0l-.41.09-1,.22-1.88.49c-1.22.35-2.42.7-3.58,1.08s-2.33.77-3.47,1.18l-.85.3-1,.39c-.64.27-1.33.54-1.92.82-2.33,1.09-4.49,2.23-6.59,3.4-4.21,2.32-8.25,4.74-12.25,7.2s-8,4.95-11.9,7.48l-5.88,3.81-2.93,1.93-1.2.79h0l-2.93.66h0l-.35-.11a26,26,0,0,1-5-2.48c-.51-.3-1-.63-1.54-1l-1.81-1.16a39.2,39.2,0,0,0-4.19-2.31,25.4,25.4,0,0,0-5-1.77,35,35,0,0,0-4.83-.71c-1.37-.12-2.54-.23-3.71-.41-.48-.06-1.44-.21-2.13-.29l-2.13-.24c-2.77-.29-5.47-.52-8.17-.76l-5.11-.45h-.1s0,0,.08,0l2-.4,31.76-6.26q15.89-3.11,31.76-6.12l7.87-1.43,4-.66c1.4-.24,2.85-.51,4.38-.88a31.79,31.79,0,0,0,4.74-1.52c1.52-.62,2.77-1.24,4-1.79s2.36-1.09,3.54-1.61l.94-.41,1.09-.5c.73-.33,1.49-.75,2.23-1.15a26.14,26.14,0,0,0,4.32-3.13c1.28-1.16,2.29-2.25,3.17-3.16a54.47,54.47,0,0,1,5.41-4.93c.84-.67,1.72-1.32,2.6-2-1,1.36-2,2.73-3,4.12-2.76,3.9-5.38,7.87-7.91,11.92Z"/><path class="c" d="M640.52,208.4h0Z"/><path class="c" d="M150.93,394.42h0Z"/><path class="c" d="M654.69,518.77a16.68,16.68,0,0,1-2.6,1.58,20.62,20.62,0,0,1-4,1.42,31.21,31.21,0,0,1-11.49,4.4,24.51,24.51,0,0,1-2.77.32l-.67,0-.84,0-1.74.06-6.93.23-3.47.11-2.29.07-.5,0c-.53.73-1,1.52-1.54,2.35a11.31,11.31,0,0,1,.23-2.31h-.33c-.13.06-.24.15-.37.22l-.73.46-2.29,1.43-1.42.85-1.38.81-.63.35-.33.17c.11,0-.27.1-.69.22s-.86.24-1.29.35c-.9.24-1.83.47-2.76.67-1.87.43-3.77.8-5.67,1.13a106.85,106.85,0,0,1-11.46,1.37c-3.69.23-7.67.17-11.64.06s-8-.31-12-.55-8-.52-12.08-.83l-1.52-.12-.94-.07c-.45,0-1,0-1.49,0a10.44,10.44,0,0,0-1.09.11l-.83.11-1.55.21-6,.83c-4,.53-7.93,1-11.84,1.32a96.8,96.8,0,0,1-11.42.39,43.6,43.6,0,0,1-9-1.39,66.51,66.51,0,0,1-9.05-3c-.74-.3-1.47-.62-2.19-.94l-1.07-.49-.5-.25-.59-.29-1.16-.61-.58-.31c-.09-.07-.2,0-.31,0l-.32,0-1.3.11-2.16.18-2.6.22-4.42.37-4.43-.7-20.66-3.23c-6.91-1-13.78-2.09-20.9-2.92-1.18-.14-2.38-.25-3.64-.36l-1-.07-.48,0-.55,0-1.12,0c-.56,0-1.12,0-1.68.1a39.75,39.75,0,0,0-4,.87l-3.39.89a60.73,60.73,0,0,1-6.17,1.42c-.19,0-.43.07-.55.07l-.33,0h0a3.9,3.9,0,0,0,0,.45l0,.33c0,.35.08-1.57,0-.77l-.47,0-.92,0-3.55-.16-14.15-.57L376.75,525c-4.74-.13-9.42-.28-14.32-.3l-1.94,0c-.84,0-1.75.09-2.3.17l-3.61.48-7,1-14,1.92-28,3.8-14,1.82c-4.63.59-9.33,1.18-13.84,1.63a128.08,128.08,0,0,1-13.47.57c-2.27,0-4.55-.07-6.82-.18-1.13-.05-2.27-.11-3.4-.18l-1.69-.13-.84-.06-1.61-.15-1.76-.18-1.6.74L244.22,537l-1.5.72q4,.28,8,.46t8.06.25c2.71.07,5.42,0,8.18,0a41.39,41.39,0,0,1-7.93,2.46,69.08,69.08,0,0,1-8.22,1.24,88.3,88.3,0,0,1-16.58-.09l-.3,0-4.63,2.29s-9.1,5.21-17,10.21c-6.57,4.12-12.26,8.27-11.61,8-1.18.91-2.29,1.83-3.31,2.74,3.13.58,6.24,1.29,9.31,2.13,3.33-1.46,6.9-3,10.25-4.4l16.44-6.89,5.52-2.74,8.65-4.19,2.8-1.33h0l.87.07c2.53.2,5,.34,7.56.43,5,.18,10.08.17,15.17-.12,2.56-.13,5.12-.39,7.6-.66l7.33-.86,14.54-1.87,29-3.92,14.48-2,7.22-1,3.6-.49,1.74-.23.8-.09.52,0h3.35l3.58.06,7.25.19,14.55.49,14.56.58,3.62.16,1.85.09c.56,0,1.19,0,1.6,0s.91-.08,1.29-.13a67.32,67.32,0,0,0,7.9-1.76l3.28-.86c1-.26,2.11-.51,2.69-.6-.87-6.22-.23-1.7-.43-3.08v.12l0,.15.06.31.1.63.17,1.24.07.63v0h0l.6,0h.31l.38,0,.76,0c1,.09,2.12.19,3.22.32,6.7.78,13.59,1.83,20.42,2.86l20.58,3.22,5.87.93,6-.49,2.6-.22.44,0h0l1.38.64c.87.39,1.73.76,2.6,1.12a79.08,79.08,0,0,0,10.75,3.54A56,56,0,0,0,513.76,549a108.16,108.16,0,0,0,13-.42c4.2-.35,8.34-.84,12.44-1.38l6.1-.84,1.48-.21,1.12-.14,2.13.16q6.13.48,12.29.85c4.11.24,8.23.45,12.39.57s8.34.19,12.78-.08A120.35,120.35,0,0,0,600.26,546c2.11-.36,4.2-.77,6.31-1.25,1-.23,2.1-.49,3.17-.77.55-.15,1.07-.28,1.65-.46a19,19,0,0,0,2.2-.76c.57-.27.88-.44,1.2-.61l.88-.48,1.6-.94,2.17-1.32,4.6-.15,6.85-.22,1.71,0,.88,0,1-.06a36.1,36.1,0,0,0,4.08-.47A44,44,0,0,0,650,534.87a36,36,0,0,0,10.22-7,3.65,3.65,0,0,0,.49-1.22,7.69,7.69,0,0,0-.7-5.25,4.78,4.78,0,0,0-1.28-1.39,5.43,5.43,0,0,0-1.32-.7A9.64,9.64,0,0,0,654.69,518.77Z"/><path class="d" d="M250.79,542.11a69.08,69.08,0,0,0,8.22-1.24,41.39,41.39,0,0,0,7.93-2.46c-2.76.06-5.47.09-8.18,0s-5.39-.12-8.06-.25-5.33-.27-8-.46-5.35-.42-8-.68l-8.06-.79c-2.72-.23-5.43-.43-8.16-.55s-5.46-.2-8.2-.17a61.9,61.9,0,0,0-8.26.52c5.35,1.34,10.65,2.56,16,3.54q4,.75,8,1.36l4,.58,3.81.45.3,0A88.3,88.3,0,0,0,250.79,542.11Z"/><path class="d" d="M496.93,279a72.32,72.32,0,0,1,6.23,9.47,105.18,105.18,0,0,1,5,10.67,28.61,28.61,0,0,0-1.39-12.22,37,37,0,0,0-15.11-19.4,28.87,28.87,0,0,0-10.86-4.25l-.65-.11c.15.12.29.23.45.34a95.75,95.75,0,0,1,8.67,7.13A70.39,70.39,0,0,1,496.93,279Z"/><path class="d" d="M551.81,224.14a6.55,6.55,0,0,0,3.41,1.6,11.49,11.49,0,0,0,0-3.58,10.85,10.85,0,0,0-.82-2.78,9.18,9.18,0,0,0-.67-1.28,11.45,11.45,0,0,0-.84-1.21,11.68,11.68,0,0,0-2.63-2.43,6.59,6.59,0,0,0-1.11,3.6,7.79,7.79,0,0,0,.32,2.32,7.6,7.6,0,0,0,.36,1A7.8,7.8,0,0,0,551.81,224.14Z"/><path class="d" d="M567.53,245.09a42.28,42.28,0,0,0,4.82,4.83,26.72,26.72,0,0,0,5.91,3.91,26.76,26.76,0,0,0-2.92-6.46,41.37,41.37,0,0,0-4-5.52,42.36,42.36,0,0,0-4.82-4.84,27.44,27.44,0,0,0-5.91-3.91,26.78,26.78,0,0,0,2.93,6.46A43,43,0,0,0,567.53,245.09Z"/><path class="d" d="M606.19,185.31a14.6,14.6,0,0,0,3.72,2.05,8.62,8.62,0,0,0-.55-4.38,11.32,11.32,0,0,0-2.15-3.5,11.68,11.68,0,0,0-1.5-1.4A10.86,10.86,0,0,0,604,177a8.7,8.7,0,0,0-4.29-1,14.94,14.94,0,0,0,1.64,3.91c.17.28.35.53.53.8a19.79,19.79,0,0,0,1.65,2.18A18.94,18.94,0,0,0,606.19,185.31Z"/><path class="d" d="M617.64,204.65a7,7,0,0,0,5,3.2,6.9,6.9,0,0,0,.25-3.3,6.76,6.76,0,0,0-1-2.55,7,7,0,0,0-1.87-2,7.06,7.06,0,0,0-3.07-1.23,7,7,0,0,0-.25,3.3A6.91,6.91,0,0,0,617.64,204.65Z"/><path class="d" d="M677.65,305.19a23.53,23.53,0,0,0,3.75,6.13,17.2,17.2,0,0,0,5.67,4.51,64.88,64.88,0,0,0-2.32-6.56c-.83-2.06-1.65-4-2.5-6s-1.7-4-2.6-6l-.21-.45a58.89,58.89,0,0,0-2.9-5.78,16.83,16.83,0,0,0-.73,6.58c0,.21,0,.42,0,.63A24.23,24.23,0,0,0,677.65,305.19Z"/><path class="d" d="M604.61,337.4a26.44,26.44,0,0,0,1.95,9,35.49,35.49,0,0,0,4.37,7.84,32.94,32.94,0,0,0,6.17,6.49,56.19,56.19,0,0,0-2.73-8.4l-3.17-7.77c-1-2.55-2-5.09-2.72-7.7-.38-1.27-.71-2.55-1-3.87s-.6-2.91-.86-4.48a14.44,14.44,0,0,0-1.67,4.6A19,19,0,0,0,604.61,337.4Z"/><path class="d" d="M616.93,375.3a1.41,1.41,0,0,0,1.13-.3,1.47,1.47,0,0,0,.43-1.1,5.45,5.45,0,0,0-.52-2.16,5.34,5.34,0,0,0-2.09-.77,1.3,1.3,0,0,0-1.57,1.39,5.3,5.3,0,0,0,.53,2.16A5.24,5.24,0,0,0,616.93,375.3Z"/><path class="d" d="M575.81,377.37a6.47,6.47,0,0,0,3,.68,6.68,6.68,0,0,0,3-.69,5.87,5.87,0,0,0,2.52-2.38,10,10,0,0,0-2.92-1.52,8.37,8.37,0,0,0-2.55-.41,8.28,8.28,0,0,0-2.55.41,9.66,9.66,0,0,0-2.92,1.54A5.84,5.84,0,0,0,575.81,377.37Z"/><path class="d" d="M620.52,343.4l-.19-2.65a3.88,3.88,0,0,0-1.26-2.75l-1.87-1.88a3.47,3.47,0,0,0-2,2.36,4.3,4.3,0,0,0,2.22,4.9A3.48,3.48,0,0,0,620.52,343.4Z"/><path class="d" d="M637.84,364.86a6.22,6.22,0,0,0,2.39-1.09,6.75,6.75,0,0,0,2.07-2.5,6.88,6.88,0,0,0-2.95-1.34,6.44,6.44,0,0,0-5,1.17,6.75,6.75,0,0,0-2.07,2.48,6.68,6.68,0,0,0,3,1.33A6.28,6.28,0,0,0,637.84,364.86Z"/><path class="d" d="M538.16,356.1a45.6,45.6,0,0,0,1.59,4.55,26.18,26.18,0,0,0,2.48,4.7,12.06,12.06,0,0,0,1.4-5.36,16.33,16.33,0,0,0-.68-5.3,16.56,16.56,0,0,0-2.32-4.83,15,15,0,0,0-1.78-2.05,10.46,10.46,0,0,0-2.31-1.68c0,.72,0,1.38.07,2a31.81,31.81,0,0,0,.42,3.26A45.67,45.67,0,0,0,538.16,356.1Z"/><path class="d" d="M519.05,365.49c.5,2.45,1,4.94,1.7,7.62A20.19,20.19,0,0,0,523,365.3a27.34,27.34,0,0,0-.5-8.07,27,27,0,0,0-2.21-6.43c-.19-.39-.37-.79-.58-1.17a20.2,20.2,0,0,0-5.17-6.26c.4,2.75,1,5.21,1.51,7.66l.09.42,1.47,6.8Z"/><path class="d" d="M514.71,399.51a14.22,14.22,0,0,1,4.12-6.07,30.42,30.42,0,0,1,7.21-4.73,13.92,13.92,0,0,0-9.44,1.49,13.63,13.63,0,0,0-6.67,7.86,12,12,0,0,0-.33,5.46,12.44,12.44,0,0,0,2,4.86,12.94,12.94,0,0,0,4.3,4,11.43,11.43,0,0,0,3.71,1.35,27.52,27.52,0,0,1-2.65-3.4,18.2,18.2,0,0,1-1.9-3.76A11.06,11.06,0,0,1,514.71,399.51Z"/><path class="d" d="M499.5,421.56a18.28,18.28,0,0,0,2.74-4l1.52-3a4.75,4.75,0,0,0-3.9-.13,6.54,6.54,0,0,0-4.13,6,4.78,4.78,0,0,0,1.52,3.6Z"/><path class="d" d="M490.4,448.75a13.31,13.31,0,0,0,1.73-8,10.12,10.12,0,0,0-1.35-4.26,12.91,12.91,0,0,0-2.51,3.61,17.06,17.06,0,0,0-1.27,3.7,16.57,16.57,0,0,0-.39,3.89,12.58,12.58,0,0,0,.77,4.32A9.86,9.86,0,0,0,490.4,448.75Z"/><path class="d" d="M598.64,466.15a69.36,69.36,0,0,0-23,4.45,57.8,57.8,0,0,0-14.56,8.1l.31.17h-.54a46.25,46.25,0,0,0-4.72,4.23,85.07,85.07,0,0,1,20.74-8.79,90.46,90.46,0,0,1,21.92-3.17A126.42,126.42,0,0,1,621,472.68c4.42.67,8.83,1.57,13.23,2.61q4.47,1.06,9,2.3a70.68,70.68,0,0,0-6.32-3.36,86.12,86.12,0,0,0-38.26-8.08Z"/><path class="d" d="M544,496.19a26.61,26.61,0,0,0-2.34,6.6,25.88,25.88,0,0,0-.57,7,18.55,18.55,0,0,0,1.62,6.94,44.79,44.79,0,0,0,2.29-6.53c.59-2.13,1.1-4.23,1.54-6.34s.85-4.24,1.18-6.42a45.23,45.23,0,0,0,.59-6.89A18.8,18.8,0,0,0,544,496.19Z"/><path class="d" d="M561.05,478.7a39.7,39.7,0,0,0-9.88-3.89,53.36,53.36,0,0,0-10.81-1.61,54.58,54.58,0,0,0-10.91.54,45.53,45.53,0,0,0-6.61,1.52c.19.22.41.43.6.65l-.94-.54a31.43,31.43,0,0,0-3.59,1.41c3.68.48,7.22.67,10.74.88l10.47.53,10.47.51c3.34.13,6.72.28,10.23.18h.54Z"/><path class="d" d="M502.66,480.75a11.58,11.58,0,0,0-4.68,2.09,11.45,11.45,0,0,0-3.32,3.9,8.34,8.34,0,0,0-.91,5.11c1.58-.94,2.78-1.79,3.95-2.61s2.22-1.6,3.28-2.4,2.11-1.61,3.22-2.49,2.27-1.8,3.62-3.06A8.39,8.39,0,0,0,502.66,480.75Z"/><path class="d" d="M488.65,513.79c-.32-1.72-.59-3.44-.83-5.25l-.71-5.87a11,11,0,0,0-3.19,5.57,15.29,15.29,0,0,0-.19,6.46,15,15,0,0,0,2.49,6,11,11,0,0,0,5,4.06c-.5-2.15-1-4-1.43-5.74S489,515.5,488.65,513.79Z"/><path class="d" d="M617.35,527a12.39,12.39,0,0,1,1.9-2.1,11.4,11.4,0,0,1,4.45-2.38,28.88,28.88,0,0,1,10.48-.53c.93.08,1.82.18,2.81.28s2,.19,3,.21a32.49,32.49,0,0,0,6.13-.35c.63-.11,1.27-.24,1.9-.4a20.62,20.62,0,0,0,4-1.42,16.68,16.68,0,0,0,2.6-1.58,12.69,12.69,0,0,0,2.25-2.14,28.29,28.29,0,0,1-11.07,1.61c-1.83-.06-3.66-.22-5.5-.45-.92-.11-1.85-.23-2.77-.38s-2-.26-3-.36a30.23,30.23,0,0,0-6.23.06,18.3,18.3,0,0,0-6.22,1.84,11.79,11.79,0,0,0-4.82,4.46,11.64,11.64,0,0,0-1.31,3.67,11.31,11.31,0,0,0-.23,2.31C616.31,528.56,616.82,527.77,617.35,527Z"/><path class="d" d="M647.8,417.35a28.42,28.42,0,0,0,2,8.63,21.35,21.35,0,0,0,4.87,7.37c-.31-3-.74-5.7-1.07-8.4s-.62-5.33-.83-8-.33-5.3-.4-8c0-.54,0-1.08,0-1.62,0-2.19-.05-4.44-.17-6.84a21.38,21.38,0,0,0-3.68,8v0A28.13,28.13,0,0,0,647.8,417.35Z"/><path class="d" d="M579.29,435.07a23.31,23.31,0,0,0-3.16,8.35,26.18,26.18,0,0,0,0,8.83,21.26,21.26,0,0,0,3.06,8.19c.4-2.95.58-5.67.87-8.34s.59-5.25,1-7.81a59.94,59.94,0,0,1,1.78-7.55c.33-1.09.72-2.18,1.14-3.26a40.1,40.1,0,0,1,2-4.28,12.28,12.28,0,0,0-4.28,2.89A17.89,17.89,0,0,0,579.29,435.07Z"/><path class="d" d="M511.68,432.76a25.28,25.28,0,0,0,1.74-2.84,12.8,12.8,0,0,0,.93-2.27,13,13,0,0,0,.48-2.41,25.37,25.37,0,0,0,.15-3.32,5,5,0,0,0-3.51,1.31,6.54,6.54,0,0,0-2,6.5A5,5,0,0,0,511.68,432.76Z"/><path class="d" d="M413.74,494.8a60.83,60.83,0,0,0-7.1,13.11,39.21,39.21,0,0,0-2.83,14.59,126,126,0,0,1,6.38-12.91c2.34-4.11,4.93-8,7.64-11.92s5.57-7.7,8.42-11.58S432,478.28,434.5,474a87.43,87.43,0,0,0-11.22,9.51A84.47,84.47,0,0,0,413.74,494.8Z"/><path class="d" d="M367.19,494.66a106.1,106.1,0,0,0-1.31,13.68q-.11,3.44.06,6.89a13.32,13.32,0,0,0,.51,3.61,5.3,5.3,0,0,0,.9,1.69,2.71,2.71,0,0,0,1.58.91,3.1,3.1,0,0,1-1.11-2.82,16.42,16.42,0,0,1,.57-3.18c.51-2.23.95-4.45,1.4-6.67q1.29-6.66,2.33-13.32c.71-4.45,1.36-8.9,1.93-13.39s1.05-9,1.2-13.67a72.94,72.94,0,0,0-5,12.86A107.87,107.87,0,0,0,367.19,494.66Z"/><path class="d" d="M385.12,493.76a30.31,30.31,0,0,0-3.56,8,31.07,31.07,0,0,0-1.15,8.73,22.78,22.78,0,0,0,1.71,8.63c.88-2.86,1.5-5.55,2.18-8.2s1.35-5.23,2.07-7.8,1.5-5.14,2.31-7.74,1.67-5.23,2.41-8.13A22.45,22.45,0,0,0,385.12,493.76Z"/><path class="d" d="M522.84,475.26a42.55,42.55,0,0,0-7.05-6c-1.41-.93-2.84-1.82-4.29-2.69s-2.94-1.68-4.44-2.42a140.73,140.73,0,0,0-18.58-7.76c-3.17-1.07-6.36-2.07-9.61-2.95l-.62-.17-.7-.15c-.47-.08-.94-.22-1.4-.26l-1.4-.14c-.46,0-.91,0-1.37,0-.92,0-1.8.08-2.69.13s-1.76.21-2.61.39a48.66,48.66,0,0,0-9.81,3.06,62.24,62.24,0,0,0-8.93,4.7c3.26-.81,6.45-1.7,9.68-2.37a62.81,62.81,0,0,1,9.56-1.5,27.55,27.55,0,0,1,4.63,0c.37,0,.75,0,1.11.11l1.08.19a8.6,8.6,0,0,1,1,.25l.51.14.58.19c3.11,1,6.24,2.08,9.35,3.15,6.23,2.13,12.44,4.3,18.59,6.62a116.21,116.21,0,0,1,17,7.62l.94.54C523.25,475.69,523,475.48,522.84,475.26Z"/><path class="d" d="M467.67,336.69a36.58,36.58,0,0,0-15.77,5.56,57.07,57.07,0,0,0-6.83,5.05,69.25,69.25,0,0,0-6,6,147.85,147.85,0,0,0-10.37,13.16c-3.23,4.5-6.41,8.92-9.75,13.26-6.66,8.67-13.66,17.17-21.05,25.17s-15.73,15.15-26,19.54A50.35,50.35,0,0,0,387.33,418a84.34,84.34,0,0,0,13.29-10.33c4.13-3.79,7.93-7.87,11.64-12s7.24-8.46,10.63-12.88,6.59-9,9.66-13.59,6.12-9.09,9.45-13.36a67.27,67.27,0,0,1,11.3-11.51A42.07,42.07,0,0,1,467.67,336.69Z"/><path class="e" d="M357.78,421.71q-4.72-2.16-9.49-4.21-16.2-7-32.89-12.8c-5.57-1.91-11.13-3.78-16.81-5.46-2.84-.85-5.7-1.64-8.61-2.35-1.64-.41-2.42-.56-3.45-.8s-2-.4-3-.61l-.76-.1-2-.23c-1.66-.18-3.88-.35-6.08-.44a46.94,46.94,0,0,0-8.32.23c-3.6.36-6.46,1.23-7,1.87-.26.33.05.61,1.12.85s2.9.4,5.65.71c3.25.44,7.13,1.11,10.17,1.78,1.52.36,2.84.64,3.77.9l1.5.37c1.83.34,3.66.73,5.48,1.15,5,1.18,9.95,2.61,14.9,4.2s9.89,3.25,14.79,5q14.73,5.24,29.07,11.44,4.71,2,9.36,4.17a1.6,1.6,0,0,0,.55,0c4.07-1.08,3.24-3.94,2.35-5.32A.54.54,0,0,0,357.78,421.71Z"/><path class="e" d="M260.59,378.52a23.88,23.88,0,0,0,5.79.89,63.11,63.11,0,0,0,10.84-.16c3.28-.3,5.67-.72,5.67-.72,1-.22,2-.49,3-.74l1.5-.39,2-.55c2.57-.73,5.12-1.52,7.64-2.35l7.52-2.62a249.47,249.47,0,0,0,81.19-49.12l3.85-3.54,3.74-3.64a1.66,1.66,0,0,0,.18-.53c.46-4.2-2.58-4.38-4.16-4.07a.53.53,0,0,0-.39.17l-3.65,3.55-3.74,3.45a242.89,242.89,0,0,1-77.7,47.35c-4.76,1.76-9.58,3.45-14.43,4.88l-2.95.84-1.41.38c-.94.26-1.88.47-2.82.71,0,0-4.07,1.27-8.13,2.16s-8.1,1.44-7.74,1.5c-3.37.59-6.2,1-6.82,1.59C259.28,377.85,259.54,378.18,260.59,378.52Z"/><path class="d" d="M220.49,375.65a27.2,27.2,0,0,0-8.35-2.95c-5.8-1.09-11.67-.79-17.25-.25a165.43,165.43,0,0,0-16.72,2.43,113.53,113.53,0,0,0-16.37,4.43c5.7.09,11.3-.2,16.88-.55s11.13-.82,16.68-1.34a108.5,108.5,0,0,1,16.29-.82c5.31.3,10.6,1.48,15.09,5.06A16.79,16.79,0,0,0,220.49,375.65Z"/><path class="d" d="M370.07,391.77c1.15-.74,2.31-1.51,3.44-2.29a67.92,67.92,0,0,0,6.32-5.25,115.17,115.17,0,0,0,10.83-12c1.65-2.09,3.28-4.17,4.88-6.29s3.2-4.25,4.72-6.45a84.35,84.35,0,0,0,8.12-13.92,52.21,52.21,0,0,0,2.68-7.62,39.7,39.7,0,0,0,1.19-7.92,55,55,0,0,1-2.5,7.47,59,59,0,0,1-3.55,6.95,106.57,106.57,0,0,1-9.06,12.69c-3.31,4-6.75,8.07-10.14,12.07a138.05,138.05,0,0,1-10.59,11.36,59.72,59.72,0,0,1-12.18,9.05,62.67,62.67,0,0,1-14.13,5.69,65.12,65.12,0,0,1-30.86.45A53.77,53.77,0,0,0,351,399.11a57,57,0,0,0,15.51-5.31C367.7,393.2,368.86,392.45,370.07,391.77Z"/><path class="d" d="M417.6,292.75a22.38,22.38,0,0,0,11.18-1.58,65.42,65.42,0,0,1-10.42-2.28,100.15,100.15,0,0,1-9.72-3.66L406,284.08,398.87,281a66.49,66.49,0,0,0-10.41-3.58,60.45,60.45,0,0,0,8.54,7c.81.55,1.63,1.09,2.47,1.61a54.23,54.23,0,0,0,7.21,3.78A37,37,0,0,0,417.6,292.75Z"/><path class="d" d="M367.31,275.38a40.57,40.57,0,0,0,5.46,5.89,27.91,27.91,0,0,0,6.82,4.55,47.1,47.1,0,0,0-3.84-7.11c-1.41-2.2-2.9-4.31-4.46-6.36s-3.21-4.05-5-6a47.64,47.64,0,0,0-5.82-5.58,27.84,27.84,0,0,0,2.57,7.77A41.44,41.44,0,0,0,367.31,275.38Z"/><path class="d" d="M243.81,223c4.46.38,9.05,1,13.78,1.24s9.66-.06,14.11-1.83a96.19,96.19,0,0,1-13.64-2.06,122.71,122.71,0,0,0-13.83-2.33,37.77,37.77,0,0,0-11.11.62,30.87,30.87,0,0,0-3.42.94,22.22,22.22,0,0,0-6.54,3.51,15.13,15.13,0,0,0-4.52,5.66,24.19,24.19,0,0,1,11.12-5.18l.94-.18A51.74,51.74,0,0,1,243.81,223Z"/><path class="d" d="M226.6,250.16a24.71,24.71,0,0,0,5.08-2.48,14.15,14.15,0,0,0-5.64-1.42,20.4,20.4,0,0,0-5.12.4l-.45.09a20.23,20.23,0,0,0-5.23,2,14.19,14.19,0,0,0-4.46,3.73,25.41,25.41,0,0,0,5.65,0c.56-.06,1.1-.15,1.65-.23,1.19-.17,2.35-.36,3.5-.63A42.6,42.6,0,0,0,226.6,250.16Z"/><path class="d" d="M295,192.46a23.71,23.71,0,0,0,7.46-.63,17.32,17.32,0,0,0,6.78-3.22c-2.55-.39-4.87-.52-7.16-.69l-6.73-.44-6.73-.49c-2.29-.15-4.61-.34-7.19-.31a17.67,17.67,0,0,0,6.28,4.12A23.84,23.84,0,0,0,295,192.46Z"/><path class="d" d="M302,118.1c3.27.28,6.52.65,9.8,1.11s6.61,1,10.14,1.43a29.6,29.6,0,0,0-9.17-5.24,39,39,0,0,0-10.35-2.28,39.91,39.91,0,0,0-10.58.52,29.9,29.9,0,0,0-9.91,3.64c3.55.16,6.9.15,10.23.27S298.72,117.83,302,118.1Z"/><path class="d" d="M295.76,123.73a11.87,11.87,0,0,0-3.54-.47,9.78,9.78,0,0,0-4,.89,9.62,9.62,0,0,0,2.85,2.87,11.78,11.78,0,0,0,3.24,1.51,11.48,11.48,0,0,0,3.54.48,9.56,9.56,0,0,0,3.94-.9,9.59,9.59,0,0,0-2.84-2.87A11.62,11.62,0,0,0,295.76,123.73Z"/><path class="d" d="M267.79,119.06a24.65,24.65,0,0,0-2.52-3.23A28.11,28.11,0,0,0,263,113.6l-.15-.13a28.17,28.17,0,0,0-2.7-2.07,23.85,23.85,0,0,0-3.56-2,7.08,7.08,0,0,0,.47,4.42,9.4,9.4,0,0,0,2.53,3.45,9.76,9.76,0,0,0,2.54,1.58,10.53,10.53,0,0,0,1.23.43A7.11,7.11,0,0,0,267.79,119.06Z"/><path class="d" d="M298.07,259.66a10.13,10.13,0,0,0-.66,3.63,9.86,9.86,0,0,0,.7,3.61,7.78,7.78,0,0,0,2.38,3.29,11.86,11.86,0,0,0,1.54-3.61,13.85,13.85,0,0,0,0-6.65,11.85,11.85,0,0,0-1.58-3.59A7.94,7.94,0,0,0,298.07,259.66Z"/><path class="d" d="M300.29,306.49a153.71,153.71,0,0,1-3.43,15.86,156.82,156.82,0,0,1-5.1,15.4c-2,5.08-4.23,10.06-6.59,15.18a57.24,57.24,0,0,0,10.15-13.51,72.38,72.38,0,0,0,8.87-32.57,57.42,57.42,0,0,0-1.88-16.78C301.75,295.68,301.18,301.12,300.29,306.49Z"/><path class="d" d="M129.26,440.55a41.56,41.56,0,0,0,5.55-9,99,99,0,0,0-8.35,6.29l-.77.64c-.3,2.42-.65,4.84-1.06,7.24A57.9,57.9,0,0,0,129.26,440.55Z"/><path class="d" d="M321.79,220.12a30.21,30.21,0,0,0-6.63-4.05,31.15,31.15,0,0,0-7.43-2.27,22.08,22.08,0,0,0-7.86,0,60.78,60.78,0,0,0,6.66,3.73c2.2,1.09,4.38,2.11,6.58,3.1s4.4,2,6.68,2.87c1.79.71,3.61,1.42,5.57,2,.54.16,1.08.32,1.65.47a20.07,20.07,0,0,0-3.5-4.35C323,221.12,322.39,220.6,321.79,220.12Z"/><path class="f" d="M220,585.24l3.05-1c-25.23-12.66-55.83-14.56-82.3-4.64L115.62,589,168.57,542l-59.77-7.71L139,496.93l-44.53,1.64,4.23-7.72c15.86-29,21.59-63.76,16.45-96.52C108,418.11,94.5,442.85,77.32,462.65l-.39.45-.49.35c-7.43,5.28-19,12.26-31.95,15.5-12.71,3.18-28,4.88-44.49,4.82V651.21H40.82c20.53-2.5,40.27-7.16,64.85-14.88C149,608.21,180.38,598.06,220,585.24Z"/><path d="M197.38,565.24a115.54,115.54,0,0,0-39.39-.48l33.63-29.89-63.79-8.23,32.77-40.52-49.19,1.82a161,161,0,0,0,13.22-42.25c.41-2.4.76-4.82,1.06-7.24a167.93,167.93,0,0,0,1.24-17.21,167.27,167.27,0,0,0-.52-16.76,156.75,156.75,0,0,0-6.72-34.42l-6.94-21.92L110,371c-3.38,27.69-18.61,60.08-39.8,84.68-6.74,4.74-16.93,10.82-28.1,13.61-12,3-26.51,4.62-42.06,4.57v9.95c16.45.06,31.78-1.64,44.49-4.82,12.95-3.24,24.52-10.22,31.95-15.5l.49-.35.39-.45c17.18-19.8,30.72-44.54,37.83-68.32,5.14,32.76-.59,67.56-16.45,96.52l-4.23,7.72L139,496.93l-30.2,37.34L168.57,542,115.62,589l25.16-9.43c26.47-9.92,57.07-8,82.3,4.64l-3.05,1c-39.65,12.82-71,23-114.36,51.09-24.58,7.72-44.32,12.38-64.85,14.88H90.65c6-1.66,12.18-3.5,18.68-5.55l.65-.21.57-.37c42.54-27.68,71.91-37.18,112.56-50.33q6.67-2.16,13.76-4.47l9.91-3.24-8.73-5.7a110.38,110.38,0,0,0-31.36-14C203.62,566.53,200.51,565.82,197.38,565.24Z"/></svg>