<svg xmlns="http://www.w3.org/2000/svg" viewBox="0 0 316.23 135.2">
    <defs>
        <style>
            .cls-1,
            .cls-2 {
                fill: #fff;
                stroke: #000;
                stroke-linecap: round;
                stroke-linejoin: round;
            }

            .cls-1 {
                stroke-width: 5px;
            }

            .cls-2 {
                stroke-width: 3px;
            }
        </style>
    </defs>
    <title>rockArsmsRight</title>
    <g id="rockArsmsRight" data-name="Layer 2">
            <path class="cls-1"
                d="M143.17,37.76h35.21a30.38,30.38,0,0,0-4.63-2.58c.71-1.69,2.49-2.67,5.94-2.67H281.28c17.92,0,32.45,15.71,32.45,35.09s-14.53,35.1-32.45,35.1H179.69c-3.43,0-5.21-1-5.92-2.68a31.5,31.5,0,0,0,4.61-2.57H143.17C129.27,97.45,118,84.08,118,67.6h0C118,51.12,129.27,37.76,143.17,37.76Z" />
            <path class="cls-1"
                d="M189.91,108.84H172.09c-4,0-7.25-3.85-7.25-8.6l.5-2.45a150.19,150.19,0,0,0,.15-59.59L164.84,35c0-4.75,3.24-8.6,7.25-8.6h17.82c5.41,0,8.18,12.68,8.92,17.31a153.73,153.73,0,0,1,0,47.73C198.14,96.08,195.52,108.84,189.91,108.84Z" />
            <path class="cls-2" d="M170.89,108.72l2.84-10.9a150.14,150.14,0,0,0,.15-59.58l-3-11.76" />
            <path id="path32294" class="cls-1"
                d="M80,2.52c22.75.78,56.34,25.19,62.47,51.13,3,13.38,1.73,42.77-6.83,52.43-14.55,16.55-32.21,24-53.34,26.21a94.43,94.43,0,0,1-22.76-.64c-28.16-4-48.41-14.78-43.41-33.79C-6.56,89.91,2.17,54.61,19.9,56,1,35.93,22.49,11.06,46.06,24.15,49.61,20.39,56.35,1.73,80,2.52Z" />
            <path id="path32296"
                d="M19.59,58.74C37,66,44.64,64.38,49.56,65c-11.07-4.28-14-5.07-25.41-10.49-1.94-.92-4.35-1.58-6.4-4l-1.48,7.61c-.43,0,2,.27,3.32.59Z" />
            <path id="path32298" d="M12.82,98.93c10.65,3,24,5.85,33,5.12-5.87-1.61-20.83-6.57-29.72-8.86l-3.27,3.74Z" />
            <path id="path32306"
                d="M44.55,20.8c23.7,7.76,33.86,1.26,46.55-2.53-13.34,6.29-18.58,15.29-46.43,8l-.12-5.5Z" />

    </g>
</svg>