<svg xmlns="http://www.w3.org/2000/svg" viewBox="0 0 341.31 137.7"><defs><style>.cls-1,.cls-2,.cls-3,.cls-7,.cls-8{fill:none;}.cls-1,.cls-2,.cls-3,.cls-4{stroke:#ff0;stroke-linejoin:round;}.cls-1,.cls-2,.cls-3,.cls-4,.cls-8{stroke-linecap:round;}.cls-1{stroke-width:70px;}.cls-2{stroke-width:41px;}.cls-3{stroke-width:39px;}.cls-4,.cls-5,.cls-6{fill:#ff0;}.cls-4{stroke-width:44px;}.cls-5,.cls-7,.cls-8{stroke:#000;stroke-miterlimit:10;stroke-width:5px;}</style></defs><title>ROCKHAND</title><g id="Layer_2" data-name="Layer 2"><g id="RBRACO"><line class="cls-1" x1="43.78" y1="77.99" x2="216.44" y2="74.72"/><path class="cls-2" d="M245.8,38c14,7.28,22.9,11,34.5,10,8-.71,14.44-1.86,28.66-7.92"/><path class="cls-2" d="M270.36,113.75a104.92,104.92,0,0,0,36.15-10"/><path class="cls-2" d="M318.31,74.77c-10.38,13-23.74,9.65-38.6,7.09"/><path class="cls-3" d="M220.65,47.37S252.8,8.11,274.12,27"/><path class="cls-4" d="M272,111.91c-8.53,2.48-32-2.31-40.77-8.54-10.38-7.41-13.23-18.46-14.1-24-1-6-1.6-25.28,8.88-34.45,0,0,29-3.64,39.59,8.58C278,67.81,288,107.27,272,111.91Z"/><path class="cls-5" d="M37.5,114.41c-19.29,0-34.95-17-35-38.11S18.08,38,37.41,38l179.65-.51h.09c19.29,0,34.95,17,35,38.11s-15.57,38.25-34.91,38.31l-179.65.52Z"/><path class="cls-6" d="M331.08,58.73c-2.4-1.91-4.51-3.84-8.2-3.85,6.06-5.88,8.63-14.21,4.93-22.89a20.5,20.5,0,0,0-26.89-10.82c-2.91,1.24-5.37,2.22-7.52,3a19.41,19.41,0,0,0-6.35-11.79,39,39,0,0,0-29.61-9.89c-11.94.95-24.49,7-37.29,17.88-3.31,2.82-6.19,5.58-8.5,7.94,0,0-.08.05-.11.09-7.35,8.74-13.15,18.62-16,31.64a58.74,58.74,0,0,0-.13,22.82c2.54,16,10.73,29.62,23.05,38.41,10,7.16,31.08,13.24,47.53,13.24a52.87,52.87,0,0,0,7.76-.53h0c14.46-2.14,26.78-4.56,38.81-10.18,12.7-6,16.77-16.08,13-27.65a48.83,48.83,0,0,0,8.75-8.61A20.5,20.5,0,0,0,331.08,58.73Z"/><path class="cls-7" d="M325.73,96.52c10.68,31.53-37.59,38.17-58.33,38.66-33,.77-66.46-17.65-72-52.31-3.08-19.4,3.76-39.44,16.38-54.44C223.27,14.78,241.92,3,260.19,2.51c12.82-.36,31.6,6.8,33.32,21.59"/><path class="cls-8" d="M323.47,55a23.3,23.3,0,0,1,7.61,3.72,20.5,20.5,0,0,1,3.26,28.81c-10.93,13.72-24.09,17.16-36.12,17.16"/><path class="cls-8" d="M255.25,21.13c13.63,5.41,18.06,6.52,23.68,6,5.88-.52,9.89-.83,22-6A20.5,20.5,0,0,1,317,58.89c-15.93,6.79-24.56,8.57-34.89,9.48-1.9.17-3.75.25-5.55.25"/></g></g></svg>