<svg xmlns="http://www.w3.org/2000/svg" viewBox="0 0 731.78 493.46"><defs><style>.a{fill:#d9e021;}.b{fill:#1d1d1d;}</style></defs><title>Asset 15</title><path class="a" d="M660.36,52.61C656.67,36.12,645,25.82,623.59,20.19c-16.62-4.37-36.2-3.89-59.85,1.47a364,364,0,0,1-37.17,6.19c-10.72,1.37-21.75,2.79-35.63,5.85.61.62,1.22,1.25,1.84,1.87q11.58,11.76,22,24.56c6.3-1.88,12.56-3.62,18.86-5.3,7.83-2,15.76-4,23.89-5.26a100.3,100.3,0,0,1,24.87-1.15,58.89,58.89,0,0,1,23.75,7.13,118,118,0,0,0-23.93-1.62,193.16,193.16,0,0,0-23.6,2.55c-7.88,1.24-15.84,2.68-23.93,3.74A154.68,154.68,0,0,1,516,61.65a361.79,361.79,0,0,1,43.26,67.84l2.3,4.72,2.17,4.79c.71,1.6,1.45,3.19,2.15,4.8l2,4.86a1.06,1.06,0,0,1,0,.88.6.6,0,0,1,0,.12c37.91-3.77,55.51-11.56,71.18-22.8C661.07,111.11,668,86.82,660.36,52.61Z"/><path class="a" d="M568.19,162.91c-2.11,2.6-4,5.34-6.05,8s-3.88,5.47-5.67,8.3A244.6,244.6,0,0,0,536,217.44c29.29,6.31,67.4,11.36,94.06,8.05,24.75-3.07,55.83-16.26,68.85-44.07,6.32-13.49,6.48-30.51.46-46.68-5.67-15.22-16.28-28.12-29-35.52-4.11,14.56-12.61,26.52-25.51,35.76-22.86,16.39-46.52,21.82-76.78,24.71a13.63,13.63,0,0,1,.23,2.16A3.22,3.22,0,0,1,568.19,162.91Zm102.58-32a29.15,29.15,0,0,1,5.57,8.88,40.71,40.71,0,0,1,2.68,10,40.13,40.13,0,0,1,.13,10.33,28.63,28.63,0,0,1-2.95,10.06,69.54,69.54,0,0,1-2.55-9.88c-.61-3.22-1.13-6.38-1.56-9.55s-.8-6.36-1.08-9.62A71.14,71.14,0,0,1,670.77,130.93Z"/><path class="a" d="M471.55,344.19c-6.38,6.7-9.94,14.61-10,22.29-.09,8,3.44,16.39,10.78,25.69,5.31,6.72,15.56,15.57,26.33,23.28q-.21-.61-.39-1.23a26.1,26.1,0,0,1-1.27-7.56,21.34,21.34,0,0,1,.17-2.71c.13-.78.27-1.44.41-2,.74-2.18,1.44-2.61,2-2a4.68,4.68,0,0,1,.8,1.64c.1.38.28.81.43,1.27s.28,1,.49,1.51a36.87,36.87,0,0,0,3.44,7.4c0-.16.13.14.54.73l.73,1.13,1.06,1.47a37.12,37.12,0,0,0,7.24,7.12c.73.58,1.53,1.08,2.29,1.59s1.59,1,2.4,1.42c1.57.89,3.12,1.62,4.47,2.22s2.52,1.05,3.34,1.37l1.3.48c1.69.73,3.42,1.43,5.2,2.07.88.34,1.79.64,2.69,1l2.58.86,4.61,1.47,37.72,11.59,37.73,11.59c6.23,1.9,12.41,3.7,18.57,5.05a99.43,99.43,0,0,0,18.36,2.49A54.61,54.61,0,0,0,673,463.19a45.24,45.24,0,0,0,7.9-3.4,48.92,48.92,0,0,0,7.21-4.93c9.12-7.52,16-18.17,21.13-29.51,1.27-2.84,2.45-5.72,3.43-8.64a75.36,75.36,0,0,0,2.51-8.82,60.68,60.68,0,0,0,1.38-8.9c.16-1.48.16-2.95.21-4.43s0-2.93-.2-4.37-.35-2.88-.56-4.3-.57-2.82-1-4.18l-.3-1c-.1-.34-.23-.63-.35-.95-.25-.62-.46-1.26-.73-1.88a31.07,31.07,0,0,0-1.94-3.58,13.85,13.85,0,0,0-1.14-1.72c-.42-.55-.81-1.12-1.24-1.66a37.65,37.65,0,0,0-2.86-3.07c-1-1-2.12-1.87-3.19-2.79s-2.28-1.7-3.53-2.4a43.64,43.64,0,0,0-3.92-2.14,44.52,44.52,0,0,0-4.14-1.64,33.78,33.78,0,0,0-8.57-1.81.8.8,0,0,1-.64-.35c-4.16.08-8.23,0-12.21-.14-18.91-.51-37.79-1.77-56.6-3.65s-37.54-4.42-56.18-7.48c-9.32-1.57-18.57-3.16-27.94-5.1-4.67-1-9.36-2.08-14-3.3s-9.32-2.69-13.94-4.33c-2.79-1-5.57-2.15-8.32-3.36l.06.14C483.41,334.25,476.7,338.79,471.55,344.19Zm198.53,86.7A54.32,54.32,0,0,0,685,402.64a72,72,0,0,0,1.17-17,34,34,0,0,1,4.29,17.53,39.87,39.87,0,0,1-16.8,31.9,33.79,33.79,0,0,1-16.9,6.37A73.24,73.24,0,0,0,670.08,430.89ZM504.24,377.76a24.62,24.62,0,0,1,2.45-9.72,21.59,21.59,0,0,1,6.44-8,14.13,14.13,0,0,1,2.23-1.39c.4-.19.77-.4,1.17-.57l1.26-.42a10.35,10.35,0,0,1,5.11-.34A30.53,30.53,0,0,0,517,364a57.44,57.44,0,0,0-4,7.14c-1.19,2.48-2.28,5.05-3.34,7.75s-2.06,5.5-3.4,8.64A19.07,19.07,0,0,1,504.24,377.76Z"/><path class="a" d="M611.37,236.52c-25.47,0-55.33-4.46-79.08-9.67q-1.66,4.44-3.16,9c-1.63,5-3.15,10-4.45,15.11l-1,3.81c-.12.41-.43,1.83-.67,2.93l-.77,3.43-.76,3.44-.39,1.72-.19.86-.1.43,0,.22,0,.1s0,.06-.07,0L512.8,267l-3.87-.45-2.13-.39-4.25-.81-4.18-1.08c-.7-.19-1.4-.35-2.09-.56l-2-.68c-1.36-.46-2.74-.89-4.09-1.38l-4-1.62c-.66-.28-1.34-.52-2-.83l-1.94-.94c-1.29-.63-2.59-1.23-3.86-1.9a107.16,107.16,0,0,1-16.78-11.22,50.55,50.55,0,0,0-1.94,5.27c.11-.14,0,.19-.17.91-.1.35-.22.79-.37,1.31l-.41,1.8a41.35,41.35,0,0,0-.79,10.28,47.89,47.89,0,0,0,1.65,10.46c.17.71.38,1.34.55,1.91s.32,1.06.47,1.46l.45,1.27c.25.85.55,1.7.82,2.55s.6,1.68,1,2.5.68,1.65,1.07,2.45l.29.61.09.19c.1.24.22.47.34.7l.72,1.38a52.39,52.39,0,0,0,3.24,5.27,48.41,48.41,0,0,0,3.82,4.82c.67.77,1.4,1.48,2.11,2.21s1.56,1.41,2.34,2.12l1.17,1.06,1.25,1c.84.65,1.65,1.33,2.5,2,1.76,1.21,3.47,2.47,5.33,3.55s3.72,2.15,5.61,3.2c1,.49,1.94.95,2.92,1.42l1.46.71,1.51.65a126.24,126.24,0,0,0,12.34,4.62q2.72.87,5.49,1.63a21.53,21.53,0,0,1-1.65-1.91,24.55,24.55,0,0,1-2.81-5.22,30.74,30.74,0,0,1-1.55-5.69c-1.32-7.75-.28-15.5,1.66-22.75a95.55,95.55,0,0,1,21.51-38.54c-2.6,6.94-5.46,13.56-8,20.25a203.87,203.87,0,0,0-6.76,20.11c-1.79,6.74-3.13,13.59-2.94,20.33a34.71,34.71,0,0,0,.5,5,25.5,25.5,0,0,0,1.38,4.8,21.94,21.94,0,0,0,2.52,4.42l.27.32,3.28.83q6.57,1.55,13.25,2.85c8.94,1.72,18,3.29,27.05,4.73q27.15,4.35,54.5,7t54.78,3.3c4.57.13,9,.17,13.29-.11a56,56,0,0,0,12.24-2,32,32,0,0,0,5.34-2.14l.63-.31.59-.36,1.18-.72a23.24,23.24,0,0,0,2.16-1.65,24.5,24.5,0,0,0,6.47-8.84,45.59,45.59,0,0,0,3.15-11.68,97.54,97.54,0,0,0,.91-13A150.38,150.38,0,0,0,717.65,277a73.61,73.61,0,0,0-8-24.07c-.54-.89-1-1.79-1.61-2.69l-1.78-2.71-1.88-2.64-2-2.57a90.67,90.67,0,0,0-8.75-9.53,118.92,118.92,0,0,0-15.39-12.15,1,1,0,0,1-.47-.69c-.1-.23-.18-.47-.27-.73a111.59,111.59,0,0,1-46.17,16.22A164.65,164.65,0,0,1,611.37,236.52Zm82.22,30.08a54.69,54.69,0,0,1,1.17,37.6,42.42,42.42,0,0,1-9.61,16.19,117.46,117.46,0,0,0,4.27-17.52,93.83,93.83,0,0,0,1.1-17.36,92.82,92.82,0,0,0-2.16-17.26A117.21,117.21,0,0,0,683,251,42.73,42.73,0,0,1,693.59,266.6Zm-51.85-27.34c2.36-.65,4.76-1.21,7.12-1.89a151.75,151.75,0,0,0,27.41-11.06,108.36,108.36,0,0,1-26.71,13.28,126.87,126.87,0,0,1-29.31,6.24c-1.24.17-2.49.21-3.74.27l-3.76.18c-1.25.09-2.5.07-3.75.06l-3.76-.05a118.92,118.92,0,0,1-15-1.43A91.57,91.57,0,0,1,562,235.58a119.72,119.72,0,0,0,28.66,7l3.67.36c1.21.13,2.43.27,3.66.3l3.67.17c1.23.07,2.45.13,3.68.08H609c1.23,0,2.45,0,3.68-.09l3.67-.21c1.22-.07,2.45-.13,3.66-.29l3.66-.38c1.22-.14,2.44-.23,3.65-.45,2.41-.41,4.85-.73,7.25-1.21S639.36,239.86,641.74,239.26Z"/><path class="a" d="M181.61,424.15l5.36-.56,5.34-.62,10.7-1.25c7.14-.79,14.25-1.74,21.37-2.67l7.62-1c2-.26,4-.52,6-.82,0,0,4.7-.37,11.09-.73,3.19-.18,6.8-.36,10.45-.51,2.48-.13,5-.24,7.37-.32-1.72-2-3.4-4-5.12-5.95a144.37,144.37,0,0,1-9.26-12.21A95.25,95.25,0,0,1,239,369.2a66,66,0,0,1-2.29-16.09,59.49,59.49,0,0,1,2-16.28A53.4,53.4,0,0,1,243,326a45,45,0,0,1,6.88-9.7,1.29,1.29,0,0,1,.85-.48,7.13,7.13,0,0,1,5.9.56c1.74,1.17,2.65,3.63,2.56,7.43a3,3,0,0,1-.19.95,36.25,36.25,0,0,0-8.26,15.37,47.14,47.14,0,0,0-1.6,13.1,53.44,53.44,0,0,0,2,13.23,72.86,72.86,0,0,0,5,12.82,104.05,104.05,0,0,0,7.22,12.12,135.09,135.09,0,0,0,8.82,11.39l4.75,5.53c.78.94,1.62,1.82,2.46,2.7l2.52,2.64,2.51,2.65,1.25,1.32,1.32,1.26,5.28,5c1.72,1.72,3.63,3.23,5.46,4.84s3.64,3.22,5.56,4.72L309,437.9c1,.73,1.9,1.52,2.9,2.21l3,2.08c2,1.38,4,2.8,6,4.16l6.18,3.85,3.09,1.93,3.19,1.76,6.37,3.53c2.17,1.08,4.36,2.12,6.54,3.19l3.27,1.59c1.09.54,2.23.95,3.34,1.44a197.81,197.81,0,0,0,55.9,15.24l7.22.81,7.25.38c4.76.33,9.86.33,14.82.46q15,.3,29.91.45c19.92.17,39.82,0,59.68-.62s39.67-1.88,59.3-4.12l8.43-1,5.92-.86s11.7-.84,23.1-1.9c-4.28-1.18-8.5-2.45-12.65-3.73L573.38,457l-19.19-5.9-9.6-2.95c-3.19-1-6.4-1.95-9.68-3l-2.93-1-1.49-.52c-1-.35-2-.73-3-1.1-2-.77-4-1.59-6-2.5l-.8-.44c-.51-.29-1.26-.7-2.18-1.27a57.92,57.92,0,0,1-7.15-5,49.56,49.56,0,0,1-3.77-3.47c-15.36-9.23-32.87-23.23-40.81-33.27-8.37-10.6-12.4-20.45-12.29-30.11.1-9.45,4.34-19.06,12-27,4.86-5.1,10.85-9.45,19-13.79l-.86-.47c-1.1-.59-2.2-1.19-3.25-1.87l-3.2-2-3.11-2.16c-1.05-.7-2-1.52-3-2.29s-2-1.55-2.93-2.42l-2.83-2.56c-.92-.9-1.88-1.83-2.74-2.8a65.11,65.11,0,0,1-9-12.66l-.89-1.71c-.14-.29-.3-.58-.44-.87l-.21-.44-.35-.76c-.23-.51-.48-1-.69-1.52-.43-1-.88-2.05-1.25-3.1a64.7,64.7,0,0,1-2.05-6.37s-.26-1.29-.59-3.45a57.81,57.81,0,0,1-.52-8.77A48.94,48.94,0,0,1,449.05,258a38.51,38.51,0,0,1,4.48-10.72,30,30,0,0,1,4.07-5.52c-2.2-2-4.32-4.13-6.33-6.36a96.14,96.14,0,0,1-10.46-13.7c-1.47-2.49-3-4.93-4.22-7.56l-1-1.94a19.56,19.56,0,0,1-.91-2l-1.66-4c-.59-1.32-1-2.72-1.45-4.08l-.68-2-.34-1L430.3,198l-1.08-4.18a18.91,18.91,0,0,1-.47-2.11l-.4-2.12c-.61-2.81-.89-5.68-1.24-8.53-.19-1.42-.19-2.86-.3-4.29s-.2-2.87-.15-4.3l0-4.37c0-1.08.13-2.15.19-3.23l.23-3.22c.07-1.08.27-2.14.4-3.21,0,0,.25-1.24.68-3.3.22-1,.6-2.25,1-3.63s.77-2.9,1.39-4.49,1.15-3.3,1.86-5l2.34-5.18c.9-1.7,1.83-3.38,2.74-5s2-3.12,3-4.55a34.83,34.83,0,0,1,2.35-3.25c.75-.95,1.44-1.8,2.07-2.54a29.08,29.08,0,0,1,3.31-3.14c1.73-1.39,2.56-1.43,2.7-.6s-.34,2.57-1.26,4.81c-.5,1.1-.94,2.43-1.5,3.81s-1.22,2.85-1.76,4.45c.23-.27-.46,1.43-1.49,4.15-.45,1.39-1,3-1.59,4.81l-1.51,5.71c-.38,2-.8,4-1.14,5.83s-.49,3.65-.69,5.16c-.22,3-.37,5.07-.37,5.07-.22,1.85-.29,3.71-.44,5.56-.1.92,0,1.85-.07,2.78l0,2.29c-.05,1.23.06,2.47.12,3.7a86.9,86.9,0,0,0,2,14.65c.66,2.37,1.14,4.79,2,7.1.4,1.16.76,2.34,1.19,3.49l1.41,3.39c.24.57.45,1.15.72,1.7l.83,1.64c.55,1.09,1.08,2.2,1.66,3.28l1.87,3.17c.32.53.62,1.07.95,1.58l1.05,1.52,2.1,3,2.3,2.9c.39.48.76,1,1.15,1.44l1.25,1.37,2.49,2.74,2.66,2.58,1.33,1.29,1.41,1.2,2.82,2.41,3,2.22,1.48,1.12,1.55,1,3.11,2,3.22,1.84,1.62.91c.54.29,1.11.54,1.66.82l3.33,1.61c1.14.49,2.29.94,3.43,1.41l1.71.7c.58.23,1.17.39,1.75.6l3.51,1.16c1.18.35,2.38.62,3.57.94l1.79.47c.59.16,1.21.23,1.81.36l3.62.68.39.07H511s0,0,0,0l0-.12.05-.25.22-1,.13-.58.51-2,1-3.95c.68-2.63,1.48-5.22,2.21-7.84s1.64-5.17,2.46-7.76a255.8,255.8,0,0,1,24.39-52.1,34.94,34.94,0,0,0-9.42-6.82,34.52,34.52,0,0,0-12.29-3.41A30.55,30.55,0,0,0,508,169.86a27.72,27.72,0,0,0-10,5.72,50.47,50.47,0,0,0-3.86,11.47,104.47,104.47,0,0,0-1.92,12.32A80.11,80.11,0,0,0,492,212a99.19,99.19,0,0,0,1.71,12.95l-.64.28a39.64,39.64,0,0,1-5.94-12.37,49.63,49.63,0,0,1-1.9-13.79,45.66,45.66,0,0,1,2.21-13.82,66.84,66.84,0,0,1,5.79-12.7l.31-.52.33-.26a33,33,0,0,1,12.87-6.37,34.83,34.83,0,0,1,14.08-.34,37,37,0,0,1,12.86,5,33.88,33.88,0,0,1,8.86,7.91c1.15-1.86,2.32-3.71,3.52-5.53,1.88-3,4-5.83,6-8.74s4.14-5.71,6.36-8.45a1,1,0,0,1,.53-.39,14.94,14.94,0,0,1-1.69-.75,3.73,3.73,0,0,1-.83-.69l-1.93-4.68c-.67-1.54-1.38-3.07-2.07-4.61l-2.08-4.61L548.11,135c-2-4.27-4.28-8.42-6.47-12.61-1.12-2.08-2.32-4.12-3.47-6.18l-1.74-3.09-1.83-3c-4.79-8.16-10.08-16-15.5-23.75s-11.33-15.16-17.35-22.45S489.27,49.62,482.6,42.94c-1.65-1.69-3.38-3.29-5.06-4.94L475,35.54l-2.62-2.38-2.62-2.38c-.86-.76-1.76-1.64-2.6-2.3s-1.68-1.42-2.55-2.1l-2.66-1.95a68,68,0,0,0-24.06-10.52,66.65,66.65,0,0,0-26.21-.37,200.28,200.28,0,0,0-27,7.26,202.32,202.32,0,0,0-49.77,25.31,182.35,182.35,0,0,0-40.3,38.38,171,171,0,0,0-15.22,23.35A176.64,176.64,0,0,0,268,133.26c-.22.54-.39,1.09-.57,1.64l-.4,1.25-.23.7-.45,1.39L265.4,141c-.59,1.86-1,3.76-1.57,5.64l-1,2.89-2.29,7.37c-.46,1.49-.83,3.1-1.3,4.75q-.33,1.24-.69,2.52c-.24.85-.47,1.71-.65,2.58-.77,3.48-1.72,7-2.32,10.21-1.11,5.47-1.66,9.08-2.37,11.17s-1.31,2.67-1.92,2.08-1.14-2.32-1.62-4.82c-.22-1.25-.49-2.7-.63-4.27s-.22-3.29-.29-5.08c-.2.74-.28-7.86.74-16.61.11-1.1.23-2.19.34-3.28s.32-2.14.46-3.17c.33-2.06.63-4,.9-5.65s.61-3,.8-4,.32-1.51.32-1.51c.54-2,1.06-4,1.73-5.93l.21-.63-13.79,2.48c-48,8.52-96.22,15.94-144.4,23.12L23.78,171.59,0,175.17V437.1c32-1.43,63.86-3.15,95.74-5.4C124.41,429.68,153.05,427.24,181.61,424.15Zm307.53,17.4a24.14,24.14,0,0,1,3-5.77,14.15,14.15,0,0,1,4.83-4.32,40.57,40.57,0,0,0-2.51,11.37,83.53,83.53,0,0,0-.27,11.18c.15,3.73.51,7.5,1,11.31s1.13,7.66,1.87,11.85a26.55,26.55,0,0,1-7.16-10.42,37.32,37.32,0,0,1-2.69-12.45A33,33,0,0,1,489.14,441.55ZM461.23,90.21a16.76,16.76,0,0,1,6.63-1.83,17,17,0,0,1,6.82.91,12.49,12.49,0,0,1,5.8,4,43.2,43.2,0,0,1-6.44,1.4c-2,.29-3.83.49-5.7.62s-3.74.19-5.72.18A42.88,42.88,0,0,1,456,95,12.4,12.4,0,0,1,461.23,90.21Zm-11,277.29a99.81,99.81,0,0,1-3.91,47,93.44,93.44,0,0,1-24.73,39.37A119.63,119.63,0,0,0,441,413a107.48,107.48,0,0,0-13.68-85.91,119.19,119.19,0,0,0-31.26-32.81A93.42,93.42,0,0,1,431.84,324,99.9,99.9,0,0,1,450.19,367.5Zm-23.45-80a38.17,38.17,0,0,1,10.19,8.61,28.83,28.83,0,0,1,6,11.75c-3.47-2.78-6.59-5.4-9.85-7.78a108.34,108.34,0,0,0-20.46-12c-3.67-1.67-7.49-3.1-11.62-4.74a28.86,28.86,0,0,1,13.2-.51A38.42,38.42,0,0,1,426.74,287.53Zm-1.51-168.87,13.19,5.62-2.75,6.44-13.18-5.62ZM375.41,93.33l17.06,6.87a43.91,43.91,0,0,1-4-14.38l7-.67a38.37,38.37,0,0,0,19.2,29.23l-3.38,6.13A44.57,44.57,0,0,1,395.66,106l-1.06,2.64-21.8-8.79Zm-91.05,186.9a107.42,107.42,0,0,0,87-1.1,119.15,119.15,0,0,0,37-26.18A93.42,93.42,0,0,1,373.75,284a98.81,98.81,0,0,1-91.67,1.19A93.39,93.39,0,0,1,246.71,255,119.27,119.27,0,0,0,284.36,280.23Zm-39.51-68.78,6.76-1.83a25.2,25.2,0,0,1-4.67,22.08l-5.44-4.41A18.06,18.06,0,0,0,244.85,211.45Zm-6.57,74.93,6.26,3.12a29,29,0,0,0-2.29,18.89l-6.83,1.53A35.54,35.54,0,0,1,238.28,286.38Z"/><path class="b" d="M261.66,133.45a3.86,3.86,0,0,1-.87.67l-6.56,1.18-.21.63c-.67,1.95-1.19,3.94-1.73,5.93,0,0-.11.55-.32,1.51s-.51,2.34-.8,4-.57,3.59-.9,5.65c-.14,1-.35,2.08-.46,3.17s-.23,2.18-.34,3.28c-1,8.75-.94,17.35-.74,16.61.07,1.79.17,3.5.29,5.08s.41,3,.63,4.27c.48,2.5,1,4.24,1.62,4.82s1.23,0,1.92-2.08,1.26-5.7,2.37-11.17c.6-3.22,1.55-6.73,2.32-10.21.18-.87.41-1.73.65-2.58s.47-1.69.69-2.52c.47-1.65.84-3.26,1.3-4.75l2.29-7.37,1-2.89c.53-1.88,1-3.78,1.57-5.64l.91-2.79.45-1.39.23-.7.4-1.25c.18-.55.35-1.1.57-1.64a176.64,176.64,0,0,1,11.43-25.42,171,171,0,0,1,15.22-23.35,182.35,182.35,0,0,1,40.3-38.38A202.32,202.32,0,0,1,384.68,20.8a200.28,200.28,0,0,1,27-7.26,66.65,66.65,0,0,1,26.21.37,68,68,0,0,1,24.06,10.52l2.66,1.95c.87.68,1.7,1.41,2.55,2.1s1.74,1.54,2.6,2.3l2.62,2.38L475,35.54,477.54,38c1.68,1.65,3.41,3.25,5.06,4.94,6.67,6.68,13,13.7,19.15,20.89s11.87,14.73,17.35,22.45,10.71,15.59,15.5,23.75l1.83,3,1.74,3.09c1.15,2.06,2.35,4.1,3.47,6.18,2.19,4.19,4.45,8.34,6.47,12.61l2.21,4.55,2.08,4.61c.69,1.54,1.4,3.07,2.07,4.61l1.93,4.68a3.73,3.73,0,0,0,.83.69,14.94,14.94,0,0,0,1.69.75,2.19,2.19,0,0,1,.23-.07,8.59,8.59,0,0,1,4.62-.4l-.38-4.29c1.55-.13,3.05-.28,4.53-.42a.6.6,0,0,0,0-.12,1.06,1.06,0,0,0,0-.88l-2-4.86c-.7-1.61-1.44-3.2-2.15-4.8l-2.17-4.79-2.3-4.72A361.79,361.79,0,0,0,516,61.65c-1.95,0-3.91,0-5.86-.13l4.61-1.39q-10.42-12.77-22-24.56c-.62-.62-1.23-1.25-1.84-1.87-2.31.51-4.7,1.06-7.18,1.67l-2.38-9.72,1-.23-5.3-4.8c-.85-.81-1.86-1.63-2.85-2.45L472.7,17c-.5-.41-1-.77-1.54-1.16A79,79,0,0,0,413,.73l-3.81.64c-1.24.22-2.39.5-3.6.76-2.38.52-4.77,1-7.12,1.64-4.74,1.16-9.41,2.54-14.06,4a213.32,213.32,0,0,0-52.49,25.37A204.09,204.09,0,0,0,308.77,51c-1.79,1.67-3.6,3.3-5.37,5l-5.18,5.19-5,5.42L292,68l-1.17,1.42-2.35,2.82-2.33,2.83L284,78c-1.44,2-3,3.86-4.33,5.91L275.54,90l-3.84,6.25A199,199,0,0,0,259,121.88a2.57,2.57,0,0,1,.36.15C262.4,123.27,267.12,127,261.66,133.45Z"/><path class="b" d="M482.22,258.25l1.94.94c.65.31,1.33.55,2,.83l4,1.62c1.35.49,2.73.92,4.09,1.38l2,.68c.69.21,1.39.37,2.09.56l4.18,1.08,4.25.81,2.13.39,3.87.45,7.89.91s.08,0,.07,0l0-.1,0-.22.1-.43.19-.86.39-1.72.76-3.44.77-3.43c.24-1.1.55-2.52.67-2.93l1-3.81c1.3-5.09,2.82-10.12,4.45-15.11q1.49-4.5,3.16-9-2.88-.63-5.63-1.27l2.27-9.74c2.3.54,4.68,1.07,7.11,1.6a244.6,244.6,0,0,1,20.43-38.21c1.79-2.83,3.78-5.53,5.67-8.3s3.94-5.42,6.05-8a3.22,3.22,0,0,0,.19-1.06,13.63,13.63,0,0,0-.23-2.16l-3.89.36-.49-5.68a8.59,8.59,0,0,0-4.62.4,2.19,2.19,0,0,0-.23.07,1,1,0,0,0-.53.39c-2.22,2.74-4.25,5.63-6.36,8.45s-4.08,5.75-6,8.74c-1.2,1.82-2.37,3.67-3.52,5.53.35.45.69.9,1,1.37l-.55.43c-.31-.34-.63-.68-1-1a255.8,255.8,0,0,0-24.39,52.1c-.82,2.59-1.67,5.17-2.46,7.76s-1.53,5.21-2.21,7.84l-1,3.95-.51,2-.13.58-.22,1-.05.25,0,.12s0,0,0,0h-.15l-.39-.07-3.62-.68c-.6-.13-1.22-.2-1.81-.36l-1.79-.47c-1.19-.32-2.39-.59-3.57-.94l-3.51-1.16c-.58-.21-1.17-.37-1.75-.6l-1.71-.7c-1.14-.47-2.29-.92-3.43-1.41L486,246.28c-.55-.28-1.12-.53-1.66-.82l-1.62-.91-3.22-1.84-3.11-2-1.55-1-1.48-1.12-3-2.22-2.82-2.41-1.41-1.2-1.33-1.29-2.66-2.58-2.49-2.74-1.25-1.37c-.39-.47-.76-1-1.15-1.44l-2.3-2.9-2.1-3-1.05-1.52c-.33-.51-.63-1.05-.95-1.58L449,211.09c-.58-1.08-1.11-2.19-1.66-3.28l-.83-1.64c-.27-.55-.48-1.13-.72-1.7l-1.41-3.39c-.43-1.15-.79-2.33-1.19-3.49-.86-2.31-1.34-4.73-2-7.1a86.9,86.9,0,0,1-2-14.65c-.06-1.23-.17-2.47-.12-3.7l0-2.29c0-.93,0-1.86.07-2.78.15-1.85.22-3.71.44-5.56,0,0,.15-2,.37-5.07.2-1.51.44-3.28.69-5.16s.76-3.84,1.14-5.83l1.51-5.71c.59-1.78,1.14-3.42,1.59-4.81,1-2.72,1.72-4.42,1.49-4.15.54-1.6,1.2-3.06,1.76-4.45s1-2.71,1.5-3.81c.92-2.24,1.42-4,1.26-4.81s-1-.79-2.7.6a29.08,29.08,0,0,0-3.31,3.14c-.63.74-1.32,1.59-2.07,2.54a34.83,34.83,0,0,0-2.35,3.25c-1,1.43-2,2.93-3,4.55s-1.84,3.31-2.74,5L432.42,142c-.71,1.71-1.28,3.42-1.86,5s-1,3.12-1.39,4.49-.76,2.6-1,3.63c-.43,2.06-.68,3.3-.68,3.3-.13,1.07-.33,2.13-.4,3.21l-.23,3.22c-.06,1.08-.2,2.15-.19,3.23l0,4.37c-.05,1.43.09,2.86.15,4.3s.11,2.87.3,4.29c.35,2.85.63,5.72,1.24,8.53l.4,2.12a18.91,18.91,0,0,0,.47,2.11L430.3,198l.28,1.05.34,1,.68,2c.48,1.36.86,2.76,1.45,4.08l1.66,4a19.56,19.56,0,0,0,.91,2l1,1.94c1.22,2.63,2.75,5.07,4.22,7.56a96.14,96.14,0,0,0,10.46,13.7c2,2.23,4.13,4.35,6.33,6.36l.49-.5a19.49,19.49,0,0,1,3.61-3c2-1.13,2.78-1,2.79-.18s-.75,2.41-1.77,4.5c-.36.77-.75,1.64-1.14,2.55a107.16,107.16,0,0,0,16.78,11.22C479.63,257,480.93,257.62,482.22,258.25Z"/><path d="M543.56,179.32c-.32-.47-.66-.92-1-1.37a33.88,33.88,0,0,0-8.86-7.91,37,37,0,0,0-12.86-5,34.83,34.83,0,0,0-14.08.34,33,33,0,0,0-12.87,6.37l-.33.26-.31.52a66.84,66.84,0,0,0-5.79,12.7A45.66,45.66,0,0,0,485.24,199a49.63,49.63,0,0,0,1.9,13.79,39.64,39.64,0,0,0,5.94,12.37l.64-.28A99.19,99.19,0,0,1,492,212a80.11,80.11,0,0,1,.22-12.6,104.47,104.47,0,0,1,1.92-12.32A50.47,50.47,0,0,1,498,175.58a27.72,27.72,0,0,1,10-5.72,30.55,30.55,0,0,1,12.35-1.35,34.52,34.52,0,0,1,12.29,3.41,34.94,34.94,0,0,1,9.42,6.82c.32.33.64.67,1,1Z"/><path d="M483.76,35.37c2.48-.61,4.87-1.16,7.18-1.67,13.88-3.06,24.91-4.48,35.63-5.85a364,364,0,0,0,37.17-6.19c23.65-5.36,43.23-5.84,59.85-1.47,21.39,5.63,33.08,15.93,36.77,32.42,7.66,34.21.71,58.5-21.26,74.25-15.67,11.24-33.27,19-71.18,22.8-1.48.14-3,.29-4.53.42l.38,4.29.49,5.68,3.89-.36c30.26-2.89,53.92-8.32,76.78-24.71,12.9-9.24,21.4-21.2,25.51-35.76a54.19,54.19,0,0,0-5.13-2.65l4.07-9.13c1.07.47,2.13,1,3.18,1.52q2.33-17.22-2.44-38.54c-4.54-20.26-18.93-33.31-44-39.9-18.21-4.79-39.34-4.34-64.6,1.39a353.81,353.81,0,0,1-36.23,6,363.81,363.81,0,0,0-43,7.49l-1,.23Z"/><path d="M534.68,60.22c8.09-1.06,16.05-2.5,23.93-3.74a193.16,193.16,0,0,1,23.6-2.55,118,118,0,0,1,23.93,1.62,58.89,58.89,0,0,0-23.75-7.13,100.3,100.3,0,0,0-24.87,1.15c-8.13,1.29-16.06,3.21-23.89,5.26-6.3,1.68-12.56,3.42-18.86,5.3l-4.61,1.39c1.95.11,3.91.14,5.86.13A154.68,154.68,0,0,0,534.68,60.22Z"/><path d="M665.31,96.57a54.19,54.19,0,0,1,5.13,2.65c12.69,7.4,23.3,20.3,29,35.52,6,16.17,5.86,33.19-.46,46.68-13,27.81-44.1,41-68.85,44.07-26.66,3.31-64.77-1.74-94.06-8.05-2.43-.53-4.81-1.06-7.11-1.6l-2.27,9.74q2.75.64,5.63,1.27c23.75,5.21,53.61,9.67,79.08,9.67a164.65,164.65,0,0,0,20-1.1A111.59,111.59,0,0,0,677.5,219.2a8,8,0,0,1-.19-4.94c.68-2,2.53-3.71,6.81-4.08a3.33,3.33,0,0,1,1.11.14c.76.51,1.51,1,2.26,1.56A77.59,77.59,0,0,0,708,185.66c7.44-15.91,7.72-35.74.77-54.41s-20.09-34-36.22-42.29c-1-.53-2.11-1-3.18-1.52Z"/><path class="b" d="M720.7,247.26l-2-3.33-2-3.13-2.16-3.06-2.26-3a102.46,102.46,0,0,0-10.1-11,125.6,125.6,0,0,0-14.69-11.86c-.75-.53-1.5-1-2.26-1.56a3.33,3.33,0,0,0-1.11-.14c-4.28.37-6.13,2.12-6.81,4.08a8,8,0,0,0,.19,4.94c.09.26.17.5.27.73a1,1,0,0,0,.47.69,118.92,118.92,0,0,1,15.39,12.15,90.67,90.67,0,0,1,8.75,9.53l2,2.57,1.88,2.64,1.78,2.71c.57.9,1.07,1.8,1.61,2.69a73.61,73.61,0,0,1,8,24.07,150.38,150.38,0,0,1,1.69,26.47,97.54,97.54,0,0,1-.91,13,45.59,45.59,0,0,1-3.15,11.68,24.5,24.5,0,0,1-6.47,8.84,23.24,23.24,0,0,1-2.16,1.65l-1.18.72-.59.36-.63.31a32,32,0,0,1-5.34,2.14,56,56,0,0,1-12.24,2c-4.3.28-8.72.24-13.29.11q-27.42-.65-54.78-3.3t-54.5-7c-9-1.44-18.11-3-27.05-4.73q-6.69-1.31-13.25-2.85l-3.28-.83a25.22,25.22,0,0,0,3.55,3.44,15.76,15.76,0,0,1-7.68-4.56q-2.77-.76-5.49-1.63a126.24,126.24,0,0,1-12.34-4.62l-1.51-.65-1.46-.71c-1-.47-2-.93-2.92-1.42-1.89-1.05-3.82-2-5.61-3.2s-3.57-2.34-5.33-3.55c-.85-.63-1.66-1.31-2.5-2l-1.25-1-1.17-1.06c-.78-.71-1.59-1.41-2.34-2.12s-1.44-1.44-2.11-2.21a48.41,48.41,0,0,1-3.82-4.82,52.39,52.39,0,0,1-3.24-5.27l-.72-1.38c-.12-.23-.24-.46-.34-.7l-.09-.19-.29-.61c-.39-.8-.72-1.63-1.07-2.45s-.63-1.67-1-2.5-.57-1.7-.82-2.55l-.45-1.27c-.15-.4-.29-.89-.47-1.46s-.38-1.2-.55-1.91a47.89,47.89,0,0,1-1.65-10.46,41.35,41.35,0,0,1,.79-10.28l.41-1.8c.15-.52.27-1,.37-1.31.17-.72.28-1.05.17-.91a50.55,50.55,0,0,1,1.94-5.27c.39-.91.78-1.78,1.14-2.55,1-2.09,1.8-3.65,1.77-4.5s-.82-1-2.79.18a19.49,19.49,0,0,0-3.61,3l-.49.5a30,30,0,0,0-4.07,5.52A38.51,38.51,0,0,0,449.05,258a48.94,48.94,0,0,0-1.51,11.41,57.81,57.81,0,0,0,.52,8.77c.33,2.16.59,3.45.59,3.45A64.7,64.7,0,0,0,450.7,288c.37,1.05.82,2.07,1.25,3.1.21.52.46,1,.69,1.52l.35.76.21.44c.14.29.3.58.44.87l.89,1.71a65.11,65.11,0,0,0,9,12.66c.86,1,1.82,1.9,2.74,2.8l2.83,2.56c.92.87,1.95,1.62,2.93,2.42s2,1.59,3,2.29l3.11,2.16,3.2,2c1.05.68,2.15,1.28,3.25,1.87l.86.47c1.51-.8,3.08-1.6,4.74-2.41l3,6.17c2.75,1.21,5.53,2.32,8.32,3.36,4.62,1.64,9.27,3.07,13.94,4.33s9.36,2.34,14,3.3c9.37,1.94,18.62,3.53,27.94,5.1,18.64,3.06,37.37,5.61,56.18,7.48s37.69,3.14,56.6,3.65c4,.12,8,.22,12.21.14l0,0a9.87,9.87,0,0,1-3.15-4.52c-.53-2-.22-4.52,3.67-7.12a4.13,4.13,0,0,1,1.15-.4,46.23,46.23,0,0,1,11.55,2.44,54.47,54.47,0,0,1,5.44,2.16,57.79,57.79,0,0,1,5.13,2.8c.23.13.44.27.66.41a37.68,37.68,0,0,0,8-4.43,40.59,40.59,0,0,0,3.3-2.71c.52-.5,1-1,1.5-1.53l.74-.78.68-.82a36.94,36.94,0,0,0,4.61-7,48.17,48.17,0,0,0,3-7.54,63.81,63.81,0,0,0,1.77-7.61,102.16,102.16,0,0,0,1.29-14.91,167.89,167.89,0,0,0-1.67-29.17A86.63,86.63,0,0,0,720.7,247.26Z"/><path d="M517.73,320.77a25.5,25.5,0,0,1-1.38-4.8,34.71,34.71,0,0,1-.5-5c-.19-6.74,1.15-13.59,2.94-20.33a203.87,203.87,0,0,1,6.76-20.11c2.54-6.69,5.4-13.31,8-20.25A95.55,95.55,0,0,0,512,288.82c-1.94,7.25-3,15-1.66,22.75a30.74,30.74,0,0,0,1.55,5.69,24.55,24.55,0,0,0,2.81,5.22,21.53,21.53,0,0,0,1.65,1.91,15.76,15.76,0,0,0,7.68,4.56,25.22,25.22,0,0,1-3.55-3.44l-.27-.32A21.94,21.94,0,0,1,517.73,320.77Z"/><path class="b" d="M701.08,349.23a54.47,54.47,0,0,0-5.44-2.16,46.23,46.23,0,0,0-11.55-2.44,4.13,4.13,0,0,0-1.15.4c-3.89,2.6-4.2,5.12-3.67,7.12a9.87,9.87,0,0,0,3.15,4.52l0,0a.8.8,0,0,0,.64.35,33.78,33.78,0,0,1,8.57,1.81,44.52,44.52,0,0,1,4.14,1.64,43.64,43.64,0,0,1,3.92,2.14c1.25.7,2.36,1.59,3.53,2.4s2.22,1.77,3.19,2.79a37.65,37.65,0,0,1,2.86,3.07c.43.54.82,1.11,1.24,1.66a13.85,13.85,0,0,1,1.14,1.72,31.07,31.07,0,0,1,1.94,3.58c.27.62.48,1.26.73,1.88.12.32.25.61.35.95l.3,1c.44,1.36.7,2.77,1,4.18s.48,2.84.56,4.3.16,2.91.2,4.37,0,2.95-.21,4.43a60.68,60.68,0,0,1-1.38,8.9,75.36,75.36,0,0,1-2.51,8.82c-1,2.92-2.16,5.8-3.43,8.64-5.13,11.34-12,22-21.13,29.51a48.92,48.92,0,0,1-7.21,4.93,45.24,45.24,0,0,1-7.9,3.4,54.61,54.61,0,0,1-17.45,2.23,99.43,99.43,0,0,1-18.36-2.49c-6.16-1.35-12.34-3.15-18.57-5.05l-37.73-11.59L543.16,434.7l-4.61-1.47-2.58-.86c-.9-.32-1.81-.62-2.69-1-1.78-.64-3.51-1.34-5.2-2.07l-1.3-.48c-.82-.32-2-.77-3.34-1.37s-2.9-1.33-4.47-2.22c-.81-.43-1.59-.93-2.4-1.42s-1.56-1-2.29-1.59a37.12,37.12,0,0,1-7.24-7.12L506,413.67l-.73-1.13c-.41-.59-.57-.89-.54-.73a36.87,36.87,0,0,1-3.44-7.4c-.21-.54-.34-1-.49-1.51s-.33-.89-.43-1.27a4.68,4.68,0,0,0-.8-1.64c-.55-.63-1.25-.2-2,2-.14.54-.28,1.2-.41,2a21.34,21.34,0,0,0-.17,2.71,26.1,26.1,0,0,0,1.27,7.56q.18.61.39,1.23c8.76,6.28,17.87,11.81,25,14.8l-2.73,6.45a111.16,111.16,0,0,1-13.23-6.92,49.56,49.56,0,0,0,3.77,3.47,57.92,57.92,0,0,0,7.15,5c.92.57,1.67,1,2.18,1.27l.8.44c2,.91,4,1.73,6,2.5,1,.37,2,.75,3,1.1l1.49.52,2.93,1c3.28,1.07,6.49,2,9.68,3l9.6,2.95,19.19,5.9,38.38,11.81c4.15,1.28,8.37,2.55,12.65,3.73,3-.28,6-.57,8.7-.87,1.4-.12,2.66-.33,3.81-.47s2.2-.27,3.14-.36a38.24,38.24,0,0,1,4.46-.22c2.21.07,2.93.51,2.54,1.26s-1.9,1.74-4.15,2.9c-.89.45-1.89.92-3,1.41a100.24,100.24,0,0,0,12.37,1.53,79.36,79.36,0,0,0,10.9-.05,62.65,62.65,0,0,0,11-1.89c.9-.25,1.82-.46,2.71-.76l2.66-1,1.32-.48,1.3-.57c.85-.4,1.74-.74,2.57-1.18a60.54,60.54,0,0,0,9.49-5.95,75.86,75.86,0,0,0,15.08-15.74A111,111,0,0,0,720,431.74a106.23,106.23,0,0,0,7.08-20.08,71.63,71.63,0,0,0,2-21.8,54.15,54.15,0,0,0-1.93-11.09c-.29-.92-.47-1.81-.85-2.74l-1.06-2.78c-.39-.9-.85-1.77-1.29-2.66a24.54,24.54,0,0,0-1.44-2.55,45.78,45.78,0,0,0-3.33-4.78,50.75,50.75,0,0,0-3.9-4.25,55,55,0,0,0-4.3-3.77c-1.33-.95-2.64-1.94-4-2.8-.22-.14-.43-.28-.66-.41A57.79,57.79,0,0,0,701.08,349.23Z"/><path d="M509.64,378.84c1.06-2.7,2.15-5.27,3.34-7.75a57.44,57.44,0,0,1,4-7.14,30.53,30.53,0,0,1,5.89-6.6,10.35,10.35,0,0,0-5.11.34l-1.26.42c-.4.17-.77.38-1.17.57a14.13,14.13,0,0,0-2.23,1.39,21.59,21.59,0,0,0-6.44,8,24.62,24.62,0,0,0-2.45,9.72,19.07,19.07,0,0,0,2,9.72C507.58,384.34,508.55,381.54,509.64,378.84Z"/><path d="M466.48,339.36c-7.61,8-11.85,17.59-12,27-.11,9.66,3.92,19.51,12.29,30.11,7.94,10,25.45,24,40.81,33.27a111.16,111.16,0,0,0,13.23,6.92l2.73-6.45c-7.08-3-16.19-8.52-25-14.8-10.77-7.71-21-16.56-26.33-23.28-7.34-9.3-10.87-17.7-10.78-25.69.08-7.68,3.64-15.59,10-22.29,5.15-5.4,11.86-9.94,21.73-14.72l-.06-.14-3-6.17c-1.66.81-3.23,1.61-4.74,2.41C477.33,329.91,471.34,334.26,466.48,339.36Z"/><path class="b" d="M647.06,471.84c.39-.75-.33-1.19-2.54-1.26a38.24,38.24,0,0,0-4.46.22c-.94.09-2,.21-3.14.36s-2.41.35-3.81.47c-2.74.3-5.71.59-8.7.87-11.4,1.06-23.1,1.9-23.1,1.9l-5.92.86-8.43,1c-19.63,2.24-39.45,3.44-59.3,4.12s-39.76.79-59.68.62q-15-.14-29.91-.45c-5-.13-10.06-.13-14.82-.46l-7.25-.38-7.22-.81a197.81,197.81,0,0,1-55.9-15.24c-1.11-.49-2.25-.9-3.34-1.44l-3.27-1.59c-2.18-1.07-4.37-2.11-6.54-3.19l-6.37-3.53-3.19-1.76-3.09-1.93-6.18-3.85c-2-1.36-4-2.78-6-4.16l-3-2.08c-1-.69-1.93-1.48-2.9-2.21l-5.75-4.47c-1.92-1.5-3.71-3.15-5.56-4.72s-3.74-3.12-5.46-4.84l-5.28-5-1.32-1.26-1.25-1.32-2.51-2.65L279.37,411c-.84-.88-1.68-1.76-2.46-2.7l-4.75-5.53a135.09,135.09,0,0,1-8.82-11.39,104.05,104.05,0,0,1-7.22-12.12,72.86,72.86,0,0,1-5-12.82,53.44,53.44,0,0,1-2-13.23,47.14,47.14,0,0,1,1.6-13.1A36.25,36.25,0,0,1,259,324.71a3,3,0,0,0,.19-.95c.09-3.8-.82-6.26-2.56-7.43a7.13,7.13,0,0,0-5.9-.56,1.29,1.29,0,0,0-.85.48A45,45,0,0,0,243,326a53.4,53.4,0,0,0-4.26,10.88,59.49,59.49,0,0,0-2,16.28A66,66,0,0,0,239,369.2a95.25,95.25,0,0,0,13.53,28.33,144.37,144.37,0,0,0,9.26,12.21c1.72,2,3.4,4,5.12,5.95l3.3-.09c21.58-.92,14.94,2.8,2.47,6.36l4.37,4.57,5.47,5.22,2.74,2.61c.94.84,1.91,1.65,2.86,2.48l5.73,4.94a235.57,235.57,0,0,0,51.23,32,220.2,220.2,0,0,0,58.11,16.92l7.54.85,3.78.42c1.26.14,2.53.15,3.79.24l7.58.39c1.28.08,2.51.11,3.74.13l3.68.08q14.76.31,29.54.49c19.7.22,39.43.18,59.18-.38s39.52-1.62,59.28-3.61c2.47-.21,4.94-.55,7.41-.83l3.76-.44,3-.35c2-.21,4-.55,6-.83l5.39-1.12c3.22-.62,7.49-1.7,11.69-2.75,2.1-.54,4.2-1,6.13-1.57l5.19-1.56c3-.91,4.82-1.51,4.45-1.5a47.22,47.22,0,0,0,4.71-1.84l.92-.41c1.08-.49,2.08-1,3-1.41C645.16,473.58,646.67,472.57,647.06,471.84Z"/><path d="M282.08,285.2A98.81,98.81,0,0,0,373.75,284,93.42,93.42,0,0,0,408.34,253a119.15,119.15,0,0,1-37,26.18,107.42,107.42,0,0,1-87,1.1A119.27,119.27,0,0,1,246.71,255,93.39,93.39,0,0,0,282.08,285.2Z"/><path d="M396.1,294.28a119.19,119.19,0,0,1,31.26,32.81A107.48,107.48,0,0,1,441,413a119.63,119.63,0,0,1-19.49,40.91,93.44,93.44,0,0,0,24.73-39.37A98.84,98.84,0,0,0,431.84,324,93.42,93.42,0,0,0,396.1,294.28Z"/><path d="M489.93,466.75a26.55,26.55,0,0,0,7.16,10.42c-.74-4.19-1.39-8-1.87-11.85s-.84-7.58-1-11.31a83.53,83.53,0,0,1,.27-11.18A40.57,40.57,0,0,1,497,431.46a14.15,14.15,0,0,0-4.83,4.32,24.14,24.14,0,0,0-3,5.77,33,33,0,0,0-1.9,12.75A37.32,37.32,0,0,0,489.93,466.75Z"/><path d="M246.94,231.7a25.2,25.2,0,0,0,4.67-22.08l-6.76,1.83a18.06,18.06,0,0,1-3.35,15.84Z"/><path d="M242.25,308.39a29,29,0,0,1,2.29-18.89l-6.26-3.12a35.54,35.54,0,0,0-2.86,23.54Z"/><path class="b" d="M96,160.9c48.18-7.18,96.37-14.6,144.4-23.12l13.79-2.48,6.56-1.18a3.86,3.86,0,0,0,.87-.67c5.46-6.44.74-10.18-2.27-11.42a2.57,2.57,0,0,0-.36-.15,1,1,0,0,0-.49,0l-20.27,3.66c-47.05,8.35-94.31,15.66-141.64,22.73l-71,10.52L0,162.63v12.54l23.78-3.58Z"/><path class="b" d="M270.2,415.6l-3.3.09c-2.4.08-4.89.19-7.37.32-3.65.15-7.26.33-10.45.51-6.39.36-11.09.73-11.09.73-2,.3-4,.56-6,.82l-7.62,1c-7.12.93-14.23,1.88-21.37,2.67L192.31,423l-5.34.62-5.36.56c-28.56,3.09-57.2,5.53-85.87,7.55C63.86,434,32,435.67,0,437.1v12.44c31.24-1.4,62.49-3.07,93.72-5.24q42.48-2.93,84.88-7.37l10.59-1.11,10.59-1.23c7.06-.82,14.12-1.63,21.16-2.58l17.14-2.25,17-3.55,6.11-1.31,5.21-1.23c3-.72,4.85-1.2,4.48-1.21l1.82-.5C285.14,418.4,291.78,414.68,270.2,415.6Z"/><path d="M672.09,150.75c.43,3.17.95,6.33,1.56,9.55a69.54,69.54,0,0,0,2.55,9.88,28.63,28.63,0,0,0,2.95-10.06,40.13,40.13,0,0,0-.13-10.33,40.71,40.71,0,0,0-2.68-10,29.15,29.15,0,0,0-5.57-8.88,71.14,71.14,0,0,0,.24,10.2C671.29,144.39,671.66,147.57,672.09,150.75Z"/><path d="M690.52,285.51a93.83,93.83,0,0,1-1.1,17.36,117.46,117.46,0,0,1-4.27,17.52,42.42,42.42,0,0,0,9.61-16.19,54.69,54.69,0,0,0-1.17-37.6A42.73,42.73,0,0,0,683,251a117.21,117.21,0,0,1,5.34,17.22A92.82,92.82,0,0,1,690.52,285.51Z"/><path d="M623.64,242.47l-3.66.38c-1.21.16-2.44.22-3.66.29l-3.67.21c-1.23.1-2.45.09-3.68.09H605.3c-1.23.05-2.45,0-3.68-.08L598,243.2c-1.23,0-2.45-.17-3.66-.3l-3.67-.36a119.72,119.72,0,0,1-28.66-7,91.57,91.57,0,0,0,28.33,9.28,118.92,118.92,0,0,0,15,1.43l3.76.05c1.25,0,2.5,0,3.75-.06l3.76-.18c1.25-.06,2.5-.1,3.74-.27a126.87,126.87,0,0,0,29.31-6.24,108.36,108.36,0,0,0,26.71-13.28,151.75,151.75,0,0,1-27.41,11.06c-2.36.68-4.76,1.24-7.12,1.89s-4.8,1-7.2,1.55-4.84.8-7.25,1.21C626.08,242.24,624.86,242.33,623.64,242.47Z"/><path d="M685.84,421.15a40.14,40.14,0,0,0,4.59-18,34,34,0,0,0-4.29-17.53,72,72,0,0,1-1.17,17,54.32,54.32,0,0,1-14.89,28.25,73.24,73.24,0,0,1-13.35,10.57,33.79,33.79,0,0,0,16.9-6.37A40,40,0,0,0,685.84,421.15Z"/><path d="M401,283.41c4.13,1.64,8,3.07,11.62,4.74a108.34,108.34,0,0,1,20.46,12c3.26,2.38,6.38,5,9.85,7.78a28.83,28.83,0,0,0-6-11.75,38.63,38.63,0,0,0-22.7-13.24A28.86,28.86,0,0,0,401,283.41Z"/><path d="M468.34,95.36c1.87-.13,3.74-.33,5.7-.62a43.2,43.2,0,0,0,6.44-1.4,12.49,12.49,0,0,0-5.8-4,17,17,0,0,0-6.82-.91,16.76,16.76,0,0,0-6.63,1.83A12.4,12.4,0,0,0,456,95a42.88,42.88,0,0,0,6.58.52C464.6,95.55,466.47,95.5,468.34,95.36Z"/><path d="M395.66,106a44.57,44.57,0,0,0,15.63,14.54l3.38-6.13a38.37,38.37,0,0,1-19.2-29.23l-7,.67a43.91,43.91,0,0,0,4,14.38l4.74,1.92Z"/><rect x="426.95" y="117.53" width="7" height="14.33" transform="matrix(0.39, -0.92, 0.92, 0.39, 146.92, 471.75)"/><polygon points="395.66 105.97 397.21 102.12 392.47 100.2 375.41 93.33 372.8 99.82 394.6 108.61 395.66 105.97"/></svg>