<svg xmlns="http://www.w3.org/2000/svg" viewBox="0 0 770.78 138.7"><defs><style>.cls-1,.cls-2{fill:#fff;stroke:#000;stroke-linecap:round;stroke-linejoin:round;}.cls-1{stroke-width:5px;}.cls-2{stroke-width:3px;}</style></defs><title>rock2Arms</title><g id="Layer_2" data-name="Layer 2"><g id="Layer_43" data-name="Layer 43"><path class="cls-1" d="M597.72,41.25h35.21a32.63,32.63,0,0,0-4.62-2.58C629,37,630.79,36,634.24,36h101.6c17.92,0,32.44,15.71,32.44,35.1s-14.52,35.09-32.44,35.09H634.24c-3.42,0-5.2-1-5.91-2.68a31.4,31.4,0,0,0,4.6-2.57H597.72c-13.9,0-25.16-13.36-25.16-29.84h0C572.56,54.61,583.82,41.25,597.72,41.25Z"/><path class="cls-1" d="M644.47,112.34H626.65c-4,0-7.26-3.85-7.26-8.6l.51-2.46A150,150,0,0,0,620,41.7l-.65-3.24c0-4.76,3.25-8.61,7.26-8.61h17.82c5.4,0,8.18,12.69,8.91,17.32a153.05,153.05,0,0,1,0,47.72C652.7,99.58,650.07,112.34,644.47,112.34Z"/><path class="cls-2" d="M625.45,112.22l2.84-10.91a150,150,0,0,0,.14-59.58l-3-11.76"/><path id="path32294" class="cls-1" d="M534.52,6c22.75.77,56.34,25.19,62.47,51.12,3,13.38,1.73,42.78-6.83,52.43-14.54,16.56-32.21,24-53.33,26.22a95.46,95.46,0,0,1-22.76-.64c-28.16-4-48.41-14.78-43.41-33.8C448,93.4,456.73,58.11,474.45,59.5c-18.92-20.08,2.6-44.95,26.17-31.85C504.16,23.89,510.9,5.23,534.52,6Z"/><path id="path32296" d="M474.15,62.23c17.4,7.26,25,5.65,30,6.27-11.07-4.28-14-5.07-25.41-10.49-1.95-.93-4.36-1.58-6.4-4l-1.48,7.6c-.44,0,2,.27,3.32.59Z"/><path id="path32298" d="M467.38,102.43c10.64,3,24,5.85,33,5.12-5.88-1.62-20.83-6.58-29.72-8.86,0,0-.56.65-3.27,3.74Z"/><path id="path32306" d="M499.1,24.3c23.7,7.76,33.87,1.26,46.56-2.54-13.35,6.29-18.58,15.3-46.44,8l-.12-5.49Z"/><path class="cls-1" d="M173.06,37.76H137.85a30.38,30.38,0,0,1,4.63-2.58c-.71-1.69-2.49-2.67-5.94-2.67H35C17,32.51,2.5,48.22,2.5,67.6S17,102.7,35,102.7H136.54c3.43,0,5.2-1,5.92-2.68a31.5,31.5,0,0,1-4.61-2.57h35.21c13.9,0,25.17-13.37,25.17-29.85h0C198.23,51.12,187,37.76,173.06,37.76Z"/><path class="cls-1" d="M126.32,108.84h17.82c4,0,7.25-3.85,7.25-8.6l-.5-2.45a149.82,149.82,0,0,1-.15-59.59l.65-3.24c0-4.75-3.24-8.6-7.25-8.6H126.32c-5.41,0-8.18,12.68-8.92,17.31a153.42,153.42,0,0,0-.05,47.73C118.09,96.08,120.71,108.84,126.32,108.84Z"/><path class="cls-2" d="M145.34,108.72l-2.84-10.9a150.14,150.14,0,0,1-.15-59.58l3-11.76"/><path id="path32294-2" data-name="path32294" class="cls-1" d="M270.17,24.15C293.74,11.06,315.25,35.93,296.33,56c17.73-1.4,26.46,33.9,3.8,41.85,5,19-15.26,29.81-43.41,33.79a94.44,94.44,0,0,1-22.76.64c-21.13-2.21-38.79-9.66-53.34-26.21-8.56-9.66-9.86-39-6.83-52.43,6.13-25.94,39.72-50.35,62.47-51.13C259.88,1.73,266.62,20.39,270.17,24.15Z"/><path id="path32296-2" data-name="path32296" d="M296.64,58.74c1.3-.32,3.75-.57,3.31-.59l-1.47-7.61c-2.05,2.39-4.46,3.05-6.4,4-11.42,5.42-14.34,6.21-25.41,10.49,4.92-.62,12.57,1,30-6.26Z"/><path id="path32298-2" data-name="path32298" d="M303.41,98.93c-2.72-3.09-3.28-3.75-3.28-3.74-8.88,2.29-23.84,7.25-29.71,8.86,9,.73,22.34-2.07,33-5.12Z"/><path id="path32306-2" data-name="path32306" d="M271.68,20.8l-.12,5.5c-27.85,7.26-33.09-1.74-46.44-8,12.69,3.79,22.86,10.29,46.56,2.53Z"/></g></g></svg>