<svg xmlns="http://www.w3.org/2000/svg" viewBox="0 0 772.06 600.38"><defs><style>.a{fill:#fce9f3;}.b{fill:#1d1d1d;}</style></defs><title>Asset 16</title><path class="a" d="M142.5,485.56c-.28-.37-.55-.74-.81-1.12l-1.76-2.89c-1-1.87-2.48-4.45-3.83-7.59a74,74,0,0,1-3.75-10.47c-.52-1.86-.89-3.78-1.28-5.62s-.56-3.71-.68-5.46c-.11-1.48-.19-2.82-.25-4s.06-2.33.11-3.31a20.36,20.36,0,0,1,.69-4.54c.56-2.15,1.21-2.67,1.82-2.09S134,440.7,134.6,443c.39,1.15.78,2.46,1.16,3.87s1,2.92,1.43,4.5a24.89,24.89,0,0,1,1.55,4.06c.55,1.33,1.2,2.91,1.95,4.6s1.64,3.46,2.68,5.18a80.9,80.9,0,0,0,6.06,9.23c.92,1.21,1.75,2.18,2.3,2.87s.89,1.08.89,1.08l1.72,2.19.86,1.09.92,1.06,1.84,2.1c.15.18.3.35.47.52l.76.79,1.68,1.75a99.33,99.33,0,0,0,15,12.39c10.87,7.4,23,13.1,35.61,17.94,6.3,2.42,12.74,4.63,19.24,6.77l4.88,1.59,2.45.79,2.39.72c1.57.5,3.18.95,4.8,1.38s3.24.86,4.88,1.26c9,2.25,18.32,4.13,27.7,6.48q-6.42-6.21-12.45-12.85a263.12,263.12,0,0,1-26.34-34.56c-2-3.05-3.82-6.15-5.67-9.28a85.44,85.44,0,0,1-5.18-10.21,40.82,40.82,0,0,1-3.1-12,37.69,37.69,0,0,1,.94-12.59l.4-1.53.36-1.16.28-.86c.18-.57.43-1.12.64-1.68.42-1.12,1-2.2,1.47-3.28a40.51,40.51,0,0,1,3.87-6.1,35.87,35.87,0,0,1,2.65-2.71c.44-.39.91-.85,1.46-1.29l1.79-1.39,2.13-1.41,2.35-1.3A49,49,0,0,1,265.74,418c1.2,0,2.29.07,3.33.17-1.17-1.91-2.29-3.86-3.32-5.89a58.3,58.3,0,0,1-4.13-10.42A38.41,38.41,0,0,1,260.11,390a32,32,0,0,1,2.77-12c-3-.44-7.26-1.14-7.26-1.14s-8.1-1.17-9.71-1.48-2.12-1.75-3-4.4c1.62-2.28,2.67-3.48,4.17-3.31s9.71,1.48,9.71,1.48,8.09,1.17,9.7,1.49a2.21,2.21,0,0,1,.86.37,34.1,34.1,0,0,1,2.93-3.07,37.58,37.58,0,0,1,9.93-6.55,48.4,48.4,0,0,1,11-3.45,49.27,49.27,0,0,1,11.37-.81,47.41,47.41,0,0,1,5.7.56l2.77.55a27.76,27.76,0,0,1,2.73.64,79.23,79.23,0,0,1,19.83,8.74c6,3.59,11.58,7.57,17,11.35a168.74,168.74,0,0,0,16.26,10.37c1.36.78,2.75,1.37,4.13,2.07s3,1.36,4.49,2l9.1,4q9.12,3.92,18.34,7.61,18.44,7.38,37.23,13.83c3.22,1.14,6.5,2.09,9.75,3.12l9.77,3.06a1,1,0,0,1,.67.53c2.06,2.49,4.54,8-3.32,11.15A3.33,3.33,0,0,1,456,437L446,433.87c-3.3-1.05-6.62-2-9.89-3.18q-19.41-6.66-38.46-14.3-9.53-3.83-18.94-7.89-4.71-2-9.4-4.13c-1.56-.71-3.08-1.36-4.77-2.21l-2.46-1.2-2.38-1.31a201.55,201.55,0,0,1-17.63-11.4c-5.56-3.89-11-7.69-16.53-10.86-1.38-.85-2.79-1.5-4.18-2.25s-2.82-1.3-4.22-2-2.85-1.13-4.29-1.56a42.7,42.7,0,0,0-4.34-1.14,34.65,34.65,0,0,0-8.69-.9,35.87,35.87,0,0,0-8.64,1.14,33.8,33.8,0,0,0-7.93,3.1,23.07,23.07,0,0,0-6.23,5,18.79,18.79,0,0,0-3.69,6.57,20.32,20.32,0,0,0-.78,7.73c.45,5.41,2.76,11.09,5.88,16.5,1.56,2.71,3.32,5.38,5.21,8s3.92,5.33,5.94,7.95a279.16,279.16,0,0,0,57.24,55c2.66,2,5.44,3.81,8.17,5.71l4.17,2.73,2.09,1.36,2.12,1.31c5.61,3.55,11.42,6.79,17.26,10A297.42,297.42,0,0,0,417,518c6.23,2.34,12.55,4.39,18.92,6.29A170.92,170.92,0,0,0,455,529a66.07,66.07,0,0,0,18.51.92l2.2-.34,1.11-.16,1.07-.26,2.15-.5,2.1-.68c.34-.11.7-.2,1-.34l1-.42c.67-.29,1.35-.55,2-.85l1.95-1,1-.51.93-.6,1.87-1.18c.61-.43,1.19-.91,1.79-1.35,1.2-.86,2.34-1.89,3.49-2.9a50.53,50.53,0,0,0,6-6.68,46.58,46.58,0,0,0,7.59-16.22,67,67,0,0,0,1.73-9.18c.12-.78.18-1.58.26-2.37s.16-1.6.19-2.33a38.7,38.7,0,0,0,.07-4.43,30.63,30.63,0,0,0-1.47-8.31,49.24,49.24,0,0,0-3.78-8.18l-3.29-5.81-1.48-2.71-2.89-5.31-1.32-2.82c-.82-1.76-2-4.21-3.35-7s-3-5.72-4.87-8.57a42.45,42.45,0,0,0-5.94-7.35c-10.76-1.3-21.49-2.72-32.19-4.37-7.62-1.17-4.37-12.73,3.19-11.57,23.24,3.58,46.66,5.81,70.07,8,48,4.46,95.77,11.81,143.92,13.86,12.05.52,24.13.7,36.19.37,7.67-.21,15.53-1,22.64-4.08,17.13-7.51,17.55-27.62,9-42.17-9-15.25-28.32-23.28-44.61-27.8-17.75-4.93-36.16-6.59-54.46-8.06C592,342,545.58,337.35,499,339.47c-5.52.25-11.56,1.28-17.32,1-.7.26-1.4.52-2.13.74a24,24,0,0,1-6.59,1.17,19.66,19.66,0,0,1-6.94-1.06,21.43,21.43,0,0,1-6.05-3.34,28.43,28.43,0,0,1-4.67-4.7A33,33,0,0,1,449.5,322c3.25,2.77,6.14,5.59,9.14,8a32.45,32.45,0,0,0,8.85,5.48c-4.1-3.2-7.32-7.74-7.35-12.46,0-5.29,1.13-11.35,4.66-15.45.19-.22.41-.42.61-.63-2.42.46-4.79.94-7.06,1.59-3.6,1-6.94,2.3-10,5.62a10.74,10.74,0,0,1,2.11-6.54,18.83,18.83,0,0,1,5.2-4.76,35.26,35.26,0,0,1,12.54-4.55,57,57,0,0,1,12.74-.74c1,.06,2.1.14,3.15.25,2.23-.78,4.49-1.51,6.77-2.15,20.57-5.84,42.2-6.78,63.43-7.93q36.09-2,72.08-5.07t71.91-7.4c19.51-2.32,43.79-4.45,56.75-21.4C768.5,236.3,753,217.72,736.55,210c-9.8-4.61-20.63-7-31.18-9.16q-17-3.49-34.34-5.37C577.35,185.29,484,205.78,390.87,213.1c-12.75,1-30.46,3.77-40.25-6.89-5.06-5.5-5.59-13-4.33-20.07,1-5.81,6.89-8.91,11.15-12.5s8.6-7.28,12.89-10.94c15.29-13.06,31.06-25.85,45.91-39.49a15.44,15.44,0,0,1-5,.79,19.31,19.31,0,0,1-13.83-6.12,13.91,13.91,0,0,1-3.59-6.83c2.44,1.08,4.46,2.13,6.46,3.09s3.91,1.86,5.85,2.73,3.9,1.68,6,2.5c1.82.75,3.72,1.46,5.82,2.36,2-1.89,4.05-3.79,6-5.71,14.43-13.93,27.15-31.59,34.47-50.37,3.21-8.23,5.8-16.7,8.2-25.19,1.09-3.89,2.57-7.86,1.88-11.95-.8-4.83-4-8.54-7.94-11.25C442.1,4.51,420,16.41,403.68,26.85A513.14,513.14,0,0,0,350.1,66.5a18.8,18.8,0,0,1,4.29,3.64A26.24,26.24,0,0,1,360,80.32a17.87,17.87,0,0,1,.7,6.23,18,18,0,0,1-4.84-4,26.28,26.28,0,0,1-5.54-10.2,18.7,18.7,0,0,1-.73-5.4,638.69,638.69,0,0,0-47.42,44.55c-7.37,7.64-15,15.09-23.66,21.23s-18.28,10.57-27.86,15-19.18,8.76-27.93,14.66a132.21,132.21,0,0,0-21.73,19.06C187.57,195.59,176,211.39,162.07,225a117.51,117.51,0,0,1-47.82,28.38C96.09,259,77,261.21,58.23,263.5c-16.79,2-33.33,5.36-50.07,7.56-2.71.36-5.44.68-8.16,1v60.74a102,102,0,0,1,16.58-2.39l17.76-1.21,6.72-.42s5.16-.39,7.34-.51l12.17-.78a98.49,98.49,0,0,1,21.36.72v0l.24,0v3.51a99,99,0,0,1-21.07,3.55l-12.17.83c-2.18.17-7.35.47-7.35.47l-6.71.47L17.1,338.19A102,102,0,0,1,0,338V428.2c1.42-.25,2.92-.48,4.52-.7,3-.39,8.62-1.14,17.81-2.05l5.6-.52,6-.46,6.7-.44,2.29-.15,5.48-.3c4.26-.2,9.27-.4,12.24-.44,3.46-.09,6-.12,8-.13s3.3,0,4.32,0c12.07.09,18.92,1.65,28.79,4.63-10.12,2-16.88,3.14-28.78,3.18l-4.25,0c-1.92,0-4.45.05-7.85.15-2.93.06-7.87.24-12.07.43l-5.4.26-2.26.14-6.6.46-5.89.48-5.51.51c-9.06.89-14.64,1.61-17.56,2-2,.24-3.8.44-5.53.61v51.82q8.31-.35,16.62-.67C58.45,485.41,100.61,483.82,142.5,485.56ZM298.36,377.8a28,28,0,0,0-11.71,2.5,13,13,0,0,0-4.41,3.36,9.79,9.79,0,0,0-.69,1.08c-.2.38-.38.88-.58,1.3a20.86,20.86,0,0,0-.88,2.78,23.08,23.08,0,0,0-.74,5.81,33.7,33.7,0,0,0,.57,5.91,32.29,32.29,0,0,0,1.68,5.77,36.62,36.62,0,0,0,2.56,5.51c4,7.19,9.85,13.37,15.3,19.95a102.76,102.76,0,0,1-9.88-8.2,54.52,54.52,0,0,1-8.4-10,42.27,42.27,0,0,1-3.14-5.87,38.21,38.21,0,0,1-2-6.42,28.36,28.36,0,0,1,.35-13.51,23.29,23.29,0,0,1,1.22-3.23c.27-.52.48-1,.8-1.56a11.77,11.77,0,0,1,1.08-1.57,15.67,15.67,0,0,1,5.77-4.13,26.24,26.24,0,0,1,6.52-1.79,33.38,33.38,0,0,1,6.62-.29,44.39,44.39,0,0,1,23.93,9A49.14,49.14,0,0,0,298.36,377.8Zm37,19.24a13.23,13.23,0,0,0-7.7-7,9.51,9.51,0,0,1,6.05.8,13.63,13.63,0,0,1,4.94,4.05,16.45,16.45,0,0,1,3.25,12.43,20.77,20.77,0,0,1-5.73,11.14,24.88,24.88,0,0,1-10.09,6.35,75.6,75.6,0,0,0,7-8.82,24.28,24.28,0,0,0,3.85-9.45A16.2,16.2,0,0,0,335.33,397Zm13.89,38.82A24.1,24.1,0,0,1,335.82,451a17.33,17.33,0,0,1-10.13,1.31c2.7-2.17,5.06-4,7.23-6a76.51,76.51,0,0,0,6-6.07,72.59,72.59,0,0,0,5.3-6.72c1.71-2.4,3.25-5,5.06-7.91A17.42,17.42,0,0,1,349.22,435.86Zm95.52,41.94a26.91,26.91,0,0,1-10.26,17.78,19.58,19.58,0,0,1-9.54,4.06c2-2.9,3.91-5.36,5.62-7.89s3.28-5,4.75-7.54,2.83-5.15,4.13-7.89,2.52-5.61,4-8.82A19.54,19.54,0,0,1,444.74,477.8Zm219-104.65A46.11,46.11,0,0,1,665.54,385a50.32,50.32,0,0,1-1.17,11.88A41.57,41.57,0,0,1,660.26,408c.33-4,.76-7.77,1-11.59s.37-7.58.29-11.35a101.72,101.72,0,0,0-.84-11.28c-.48-3.76-1.24-7.5-2.1-11.37A33.77,33.77,0,0,1,663.76,373.15Zm-91.84-7.26c1.41-5,3.7-9.84,7.33-13.45A48.37,48.37,0,0,0,575,366.56a82.59,82.59,0,0,0-.86,14.58,112.76,112.76,0,0,0,1.38,14.63A93,93,0,0,0,579,410.26a42,42,0,0,1-6.54-13.81,61.52,61.52,0,0,1-2.3-15.21A52.75,52.75,0,0,1,571.92,365.89Zm-118.23-7.67a21.65,21.65,0,0,1,4.4-7.49,11.66,11.66,0,0,1,7.53-3.82c-4.2,3.58-5.26,8.14-5.85,12.82a75.5,75.5,0,0,0,0,14.42c.41,4.87,1,9.78,1.9,14.7a113.2,113.2,0,0,0,3.52,15,23.83,23.83,0,0,1-5.63-6,41.5,41.5,0,0,1-3.92-7.2,51.87,51.87,0,0,1-3.85-15.88A40.34,40.34,0,0,1,453.69,358.22ZM628.48,221c1.41-5,3.7-9.84,7.33-13.45a48.37,48.37,0,0,0-4.27,14.12,81.64,81.64,0,0,0-.85,14.58,110.85,110.85,0,0,0,1.37,14.63,93,93,0,0,0,3.47,14.49A42,42,0,0,1,629,251.54a61.52,61.52,0,0,1-2.3-15.21A52.75,52.75,0,0,1,628.48,221Zm-91.91,2.25c1.4-4.95,3.69-9.83,7.33-13.45a48.07,48.07,0,0,0-4.27,14.12,82.7,82.7,0,0,0-.86,14.59,110.72,110.72,0,0,0,1.38,14.62,92,92,0,0,0,3.47,14.5,42.2,42.2,0,0,1-6.54-13.81,61.6,61.6,0,0,1-2.3-15.22A52.42,52.42,0,0,1,536.57,223.23Zm-106,20.4a33.27,33.27,0,0,1,8.27-15.14,78.46,78.46,0,0,0-2.85,16,44.11,44.11,0,0,0,1.69,15.06,52.15,52.15,0,0,0,6.49,13.83,120.88,120.88,0,0,0,10.07,12.89,37.94,37.94,0,0,1-14.37-9.45,37.17,37.17,0,0,1-8.92-15.34A34.26,34.26,0,0,1,430.55,243.63Zm-55.21,91.54a58.29,58.29,0,0,1,23.24-43.61,51.45,51.45,0,0,1,22.72-9.9,89.11,89.11,0,0,0-19.16,14.08,73.14,73.14,0,0,0-21.33,40.05,89.72,89.72,0,0,0-1,23.76A51.36,51.36,0,0,1,375.34,335.17ZM374,95.48a7.27,7.27,0,0,1,2.68,1.43,7,7,0,0,1,1.84,2.42,7.83,7.83,0,0,1,.72,3.72,7.76,7.76,0,0,1-3.78-.14,7,7,0,0,1-2.68-1.44A7.24,7.24,0,0,1,371,99.05a7.9,7.9,0,0,1-.73-3.71A7.88,7.88,0,0,1,374,95.48Zm-53.2,38.26a32.65,32.65,0,0,1,9.35,10.31,21.78,21.78,0,0,1,2.64,7,22,22,0,0,1-6.72-3.31,32.84,32.84,0,0,1-9.34-10.33,22.29,22.29,0,0,1-2.64-7A22.27,22.27,0,0,1,320.8,133.74Zm-16.87,13a40.84,40.84,0,0,1,22.64,17.87A30.84,30.84,0,0,1,331,178.35c-3-3.8-5.81-7.27-8.86-10.47a89.61,89.61,0,0,0-20.41-16.09c-3.82-2.22-7.85-4.16-12.24-6.19A30.69,30.69,0,0,1,303.93,146.73ZM261.69,340.52c1-.58,2.07-1,3-1.65s1.9-1.14,2.84-1.68l1.41-.79c.46-.28.92-.58,1.38-.87,1.84-1.17,3.78-2.18,5.78-3.5l3.2-1.91c1.08-.71,2.23-1.44,3.46-2.19a109.23,109.23,0,0,0,13.71-10.32c.45-.39.91-.79,1.4-1.2l1.44-1.36,3.1-2.92c2-2.09,4.19-4.19,6-6.23.92-1,1.81-1.94,2.58-2.82l2-2.34,1.84-2.14L317,296c1.31-1.57,3-3.82,4.95-6.28,3.76-5,8.09-10.92,10.51-14.46a113,113,0,0,0,6.2-10,126.23,126.23,0,0,0,6.14-12.84A44.17,44.17,0,0,0,348,239.48a29.12,29.12,0,0,1,2.32,14.2,40,40,0,0,1-4.85,15.26,113.28,113.28,0,0,1-6.59,10.75c-2.52,3.73-6.89,9.73-10.77,14.81-2,2.51-3.75,4.82-5.11,6.44s-2.18,2.67-2.18,2.67l-1.9,2.22-2.09,2.43c-.79.92-1.72,1.89-2.67,2.95-1.88,2.12-4.13,4.34-6.27,6.53l-3.26,3.08-1.53,1.43-1.48,1.27a112.43,112.43,0,0,1-14.73,11q-2,1.2-3.85,2.22c-1.25.65-2.49,1.18-3.67,1.71a42.08,42.08,0,0,1-6.9,2.36c-.56.15-1.11.31-1.68.42l-1.7.29c-1.14.18-2.28.34-3.43.48a31.58,31.58,0,0,1-3.56.2l-3.73,0Zm-78.81,29.79q8.18-2.6,16.51-4.52t16.8-3.27a128.45,128.45,0,0,1,17.19-1.61,130.12,130.12,0,0,1-16.12,6.19q-8.17,2.58-16.51,4.53T184,374.91a126.82,126.82,0,0,1-17.19,1.6A127.08,127.08,0,0,1,182.88,370.31Zm-44.71,26.18a4.21,4.21,0,0,1-.33,2.76,40.42,40.42,0,0,0-2.54,6.9,21,21,0,0,0-.47,2.12c-.12.67-.27,1.28-.32,1.81-.13,1.06-.21,1.74-.21,1.74s0,.68-.09,1.75c-.05.53,0,1.15,0,1.83a18.06,18.06,0,0,0,.1,2.17,39,39,0,0,0,1.29,7.24,4.26,4.26,0,0,1-.16,2.77,22.48,22.48,0,0,1-1.67,3.39,12,12,0,0,1-3.67-1.32,4.85,4.85,0,0,1-2-2.6,40.24,40.24,0,0,1-1.65-8.9c-.07-.92-.12-1.81-.11-2.65s0-1.59,0-2.24c.08-1.29.13-2.13.13-2.13s.1-.83.25-2.12c0-.64.22-1.39.36-2.21s.34-1.7.57-2.59a40.51,40.51,0,0,1,3.18-8.47,4.86,4.86,0,0,1,2.39-2.21,11.94,11.94,0,0,1,3.85-.66A22.21,22.21,0,0,1,138.17,396.49ZM103.27,312a128.11,128.11,0,0,1,9.92-32.5,209.17,209.17,0,0,1,9.75-18.9,1.08,1.08,0,0,1,.67-.56,8,8,0,0,1,5.69-.84c2,.59,3.77,2.44,4.46,6.55a3.68,3.68,0,0,1,0,1.08,191.15,191.15,0,0,0-9.17,17.75,115.32,115.32,0,0,0-9,29.29,86.46,86.46,0,0,0-.92,10.65s-.09,1.1-.25,2.94c0,.92-.09,2-.15,3.29s-.08,2.65,0,4.14A82.2,82.2,0,0,0,117,354.6c1.57,5.16,2.93,8.53,3.58,10.58s.46,2.92-.38,2.8a4.62,4.62,0,0,1-1.69-.92,15.77,15.77,0,0,1-2.42-2.24,30.59,30.59,0,0,1-2.78-3.45,47.79,47.79,0,0,1-2.81-4.46c.09.39-.88-1.4-2.19-4.39a71.81,71.81,0,0,1-3.81-11.72,81.65,81.65,0,0,1-2-12.49c-.27-3.46-.28-5.81-.28-5.81A97.55,97.55,0,0,1,103.27,312Z"/><path class="a" d="M265.18,425.13c-.72.19-1.82.46-3.17.88a50.14,50.14,0,0,0-9.64,4.08,35.64,35.64,0,0,0-4.53,3c-.67.52-1.21,1.05-1.76,1.55s-1,1-1.43,1.56a16.87,16.87,0,0,0-1.11,1.4,13.47,13.47,0,0,0-.79,1.13l-.65,1a27,27,0,0,0-2.37,4.2c-.34.73-.62,1.49-.9,2.25l-.19.57-.22.68c-.1.34-.17.68-.27,1a27,27,0,0,0-.71,4.16,25.19,25.19,0,0,0,.68,8.29,41.19,41.19,0,0,0,3.3,8.42c1.44,2.83,3.16,5.76,4.93,8.67.88,1.45,1.76,2.9,2.68,4.33s1.81,2.87,2.77,4.27a247.34,247.34,0,0,0,25.18,32q6.94,7.46,14.45,14.36c5,4.58,10.22,9.06,15.53,13.14a209.79,209.79,0,0,0,34.44,21.28,286.52,286.52,0,0,0,37.85,15.34c3.27,1.06,6.45,2.1,9.63,2.91a78.69,78.69,0,0,0,9.43,2,42.3,42.3,0,0,0,8.89.18,21.59,21.59,0,0,0,7.58-2.39c4.55-2.47,8.05-7.26,10.72-12.86l2.31-4.79,2.31-4.67c1.5-3.06,2.89-6,4-9,2.25-5.82,3.33-11.63,1.83-16-.05-.2-.09-.26.1-.62a1.54,1.54,0,0,1,.08-.19l-.92-.26c-1.64-.47-3.28-.92-4.91-1.42l-4.87-1.53c-1.63-.49-3.24-1.06-4.85-1.61s-3.23-1.08-4.83-1.66c-3.19-1.2-6.4-2.32-9.55-3.62a306.42,306.42,0,0,1-71.14-39.75,290.91,290.91,0,0,1-57.82-57.51c-1.52-2-3.06-4.08-4.56-6.23a54.58,54.58,0,0,0-6.62,1.16C266.25,424.85,265.91,424.93,265.18,425.13Zm112.5,125.73a29.6,29.6,0,0,1,7-9.47A20.53,20.53,0,0,1,395,536.11a104.74,104.74,0,0,0-6.2,8.86,88.93,88.93,0,0,0-4.82,8.86,62,62,0,0,0-3.56,9.27,30.32,30.32,0,0,0-1.29,10.37,12,12,0,0,1-3.17-5l-.46-1.46c-.13-.5-.18-1-.27-1.49s-.17-1-.21-1.52,0-1,0-1.51A27.08,27.08,0,0,1,377.68,550.86ZM300.8,481.81a20.49,20.49,0,0,1,10.37-5.28,104.74,104.74,0,0,0-6.2,8.86,88.93,88.93,0,0,0-4.82,8.86,62,62,0,0,0-3.56,9.27,30.07,30.07,0,0,0-1.29,10.37,12.13,12.13,0,0,1-3.18-5l-.45-1.46c-.13-.5-.18-1-.27-1.49s-.17-1-.21-1.52-.05-1,0-1.51a27.08,27.08,0,0,1,2.66-11.59A29.6,29.6,0,0,1,300.8,481.81ZM291.63,457a20.81,20.81,0,0,1-2.29,10.92A27.6,27.6,0,0,1,272.11,482a20.74,20.74,0,0,1-11.16.1,54.07,54.07,0,0,0,9.77-3.78A46.45,46.45,0,0,0,286,465.8,54.55,54.55,0,0,0,291.63,457ZM275.18,436a25.76,25.76,0,0,1,4.42,4,30.19,30.19,0,0,1,3.45,4.78,34.81,34.81,0,0,1,2.52,5.22,44,44,0,0,0-7.54-8.4,26.57,26.57,0,0,0-9.4-5.19,20.66,20.66,0,0,0-10.25-.47,17,17,0,0,0-8.68,4.65,14.27,14.27,0,0,0-2.74,4,25.87,25.87,0,0,0-1.75,4.89,29,29,0,0,0-.68,10.46,23.61,23.61,0,0,0,3.38,10,18.29,18.29,0,0,0,8.32,7,16.23,16.23,0,0,1-10.42-5.38,23.29,23.29,0,0,1-5.42-10.92,29.22,29.22,0,0,1,.05-12.28,27.74,27.74,0,0,1,2-5.9,18.92,18.92,0,0,1,3.75-5.36,20.66,20.66,0,0,1,11.37-5.65A23.19,23.19,0,0,1,269.87,433,24.15,24.15,0,0,1,275.18,436Z"/><path d="M572.43,396.45A42,42,0,0,0,579,410.26a93,93,0,0,1-3.47-14.49,112.76,112.76,0,0,1-1.38-14.63,82.59,82.59,0,0,1,.86-14.58,48.37,48.37,0,0,1,4.27-14.12c-3.63,3.61-5.92,8.49-7.33,13.45a52.75,52.75,0,0,0-1.79,15.35A61.52,61.52,0,0,0,572.43,396.45Z"/><path d="M537.08,253.8a42.2,42.2,0,0,0,6.54,13.81,92,92,0,0,1-3.47-14.5,110.72,110.72,0,0,1-1.38-14.62,82.7,82.7,0,0,1,.86-14.59,48.07,48.07,0,0,1,4.27-14.12c-3.64,3.62-5.93,8.5-7.33,13.45a52.42,52.42,0,0,0-1.79,15.35A61.6,61.6,0,0,0,537.08,253.8Z"/><path d="M629,251.54a42,42,0,0,0,6.54,13.81,93,93,0,0,1-3.47-14.49,110.85,110.85,0,0,1-1.37-14.63,81.64,81.64,0,0,1,.85-14.58,48.37,48.37,0,0,1,4.27-14.12c-3.63,3.61-5.92,8.49-7.33,13.45a52.75,52.75,0,0,0-1.79,15.35A61.52,61.52,0,0,0,629,251.54Z"/><path d="M661.54,385.08c.08,3.77,0,7.55-.29,11.35s-.66,7.63-1,11.59a41.57,41.57,0,0,0,4.11-11.14A50.32,50.32,0,0,0,665.54,385a46.11,46.11,0,0,0-1.78-11.85,33.77,33.77,0,0,0-5.16-10.72c.86,3.87,1.62,7.61,2.1,11.37A101.72,101.72,0,0,1,661.54,385.08Z"/><path d="M455.64,390.66a41.5,41.5,0,0,0,3.92,7.2,23.83,23.83,0,0,0,5.63,6,113.2,113.2,0,0,1-3.52-15c-.87-4.92-1.49-9.83-1.9-14.7a75.5,75.5,0,0,1,0-14.42c.59-4.68,1.65-9.24,5.85-12.82a11.66,11.66,0,0,0-7.53,3.82,21.65,21.65,0,0,0-4.4,7.49,40.34,40.34,0,0,0-1.9,16.56A51.87,51.87,0,0,0,455.64,390.66Z"/><path d="M449.5,322a33,33,0,0,0,5.75,11.33,28.43,28.43,0,0,0,4.67,4.7,21.43,21.43,0,0,0,6.05,3.34,19.66,19.66,0,0,0,6.94,1.06,24,24,0,0,0,6.59-1.17c.73-.22,1.43-.48,2.13-.74a28,28,0,0,1-6.35-.93,23.06,23.06,0,0,1-7.79-4.06,32.45,32.45,0,0,1-8.85-5.48C455.64,327.57,452.75,324.75,449.5,322Z"/><path d="M468.23,298.33a35.26,35.26,0,0,0-12.54,4.55,18.83,18.83,0,0,0-5.2,4.76,10.74,10.74,0,0,0-2.11,6.54c3-3.32,6.37-4.58,10-5.62,2.27-.65,4.64-1.13,7.06-1.59,2.91-2.94,7.08-4.48,10.81-6.08,2.6-1.11,5.23-2.12,7.9-3.05-1.05-.11-2.1-.19-3.15-.25A57,57,0,0,0,468.23,298.33Z"/><path d="M757.9,209.71c-16.2-14.73-39.8-19-60.65-22.6a454.6,454.6,0,0,0-70.18-6.29c-47.41-.73-94.65,4.57-141.66,10.15-24,2.85-48.07,5.8-72.16,8.15-11.33,1.1-22.69,2.21-34.06,2.82-5.59.31-12.42.69-17.5-2.14a7.11,7.11,0,0,1-3.65-4.25,12,12,0,0,1-.38-4.47c.2-2.87,1.46-3.24,3.7-5.11q14.1-11.82,28-23.84c17.54-15.08,36.65-29.48,51.93-46.93a160.87,160.87,0,0,0,30.7-52c5.76-16.35,14.9-37.1.5-51.53-15-15-37.3-13.92-55.43-6-20,8.74-38.31,23-55.54,36.16a558.9,558.9,0,0,0-51.31,44.3c-15.91,15.55-29.91,32.89-49.83,43.52-18.62,9.94-38.22,16.78-54.59,30.55-15.09,12.71-27,28.58-40,43.29s-27.32,27.92-46,35.22c-18.11,7.07-37.57,9.8-56.75,12.16-21.12,2.6-42,6.21-63,8.79v12.35c2.72-.31,5.45-.63,8.16-1,16.74-2.2,33.28-5.52,50.07-7.56,18.81-2.29,37.86-4.47,56-10.14A117.51,117.51,0,0,0,162.07,225c14-13.59,25.5-29.39,38.87-43.52a132.21,132.21,0,0,1,21.73-19.06c8.75-5.9,18.37-10.27,27.93-14.66s19.21-8.88,27.86-15,16.29-13.59,23.66-21.23A638.69,638.69,0,0,1,349.54,67c0-.27,0-.54,0-.82l.54.34a513.14,513.14,0,0,1,53.58-39.65C420,16.41,442.1,4.51,460.51,17.26c3.92,2.71,7.14,6.42,7.94,11.25.69,4.09-.79,8.06-1.88,12-2.4,8.49-5,17-8.2,25.19-7.32,18.78-20,36.44-34.47,50.37-2,1.92-4,3.82-6,5.71l.81.35a11.62,11.62,0,0,1-2.43,1.13c-14.85,13.64-30.62,26.43-45.91,39.49q-6.43,5.49-12.89,10.94c-4.26,3.59-10.11,6.69-11.15,12.5-1.26,7-.73,14.57,4.33,20.07,9.79,10.66,27.5,7.89,40.25,6.89C484,205.78,577.35,185.29,671,195.45q17.28,1.88,34.34,5.37c10.55,2.17,21.38,4.55,31.18,9.16,16.42,7.74,32,26.32,18.51,43.91-13,16.95-37.24,19.08-56.75,21.4q-35.89,4.29-71.91,7.4t-72.08,5.07c-21.23,1.15-42.86,2.09-63.43,7.93-2.28.64-4.54,1.37-6.77,2.15-2.67.93-5.3,1.94-7.9,3.05-3.73,1.6-7.9,3.14-10.81,6.08-.2.21-.42.41-.61.63-3.53,4.1-4.68,10.16-4.66,15.45,0,4.72,3.25,9.26,7.35,12.46a23.06,23.06,0,0,0,7.79,4.06,28,28,0,0,0,6.35.93c5.76.25,11.8-.78,17.32-1,46.63-2.12,93.05,2.54,139.46,6.27,18.3,1.47,36.71,3.13,54.46,8.06,16.29,4.52,35.62,12.55,44.61,27.8,8.58,14.55,8.16,34.66-9,42.17-7.11,3.12-15,3.87-22.64,4.08-12.06.33-24.14.15-36.19-.37-48.15-2.05-96-9.4-143.92-13.86-23.41-2.17-46.83-4.4-70.07-8-7.56-1.16-10.81,10.4-3.19,11.57,10.7,1.65,21.43,3.07,32.19,4.37l-.19-.19a37.46,37.46,0,0,0-8.86-5.91c-1.88-1-2.41-1.7-1.74-2.23a4.59,4.59,0,0,1,1.87-.56c.45-.06,1-.11,1.54-.14s1.2.07,1.88.14a21.55,21.55,0,0,1,4.58,1,29,29,0,0,1,5.07,2.35c-.15-.14.24.06,1,.53s1.89,1.31,3.24,2.37a47.66,47.66,0,0,1,4.38,4.14c34,3.78,68.13,6.48,102.07,10.4,24.3,2.8,48.67,5.21,73.12,6.13,12.13.46,24.33.7,36.46.15A69.34,69.34,0,0,0,732,435.24c16.8-6.83,25-22.38,22.59-40.24-2.66-19.52-15.94-33.43-32.69-42.55-33.3-18.13-74-17.87-110.8-21-24.64-2.1-49.31-3.91-74-4.39-12-.24-24.07-.17-36.09.33-4.85.21-9.69.55-14.53.87-3,.2-6.48.61-9.31-.74-4.62-2.19-6.27-6.14-4-10.84,1.68-3.41,7.6-4.83,10.93-6.11a121.29,121.29,0,0,1,16-4.84c21.67-5.11,44.17-5.33,66.3-6.64,48.91-2.91,98.11-6.73,146.64-13.65,19.88-2.84,40.71-8.86,52.85-26.08C777.29,243.11,771.92,222.46,757.9,209.71Z"/><path class="b" d="M493.12,418.93c-1.35-1.06-2.48-1.88-3.24-2.37s-1.19-.67-1-.53a29,29,0,0,0-5.07-2.35,21.55,21.55,0,0,0-4.58-1c-.68-.07-1.3-.13-1.88-.14s-1.09.08-1.54.14a4.59,4.59,0,0,0-1.87.56c-.67.53-.14,1.22,1.74,2.23a37.46,37.46,0,0,1,8.86,5.91l.19.19a42.45,42.45,0,0,1,5.94,7.35c1.84,2.85,3.48,5.85,4.87,8.57s2.53,5.2,3.35,7l1.32,2.82,2.89,5.31,1.48,2.71,3.29,5.81a49.24,49.24,0,0,1,3.78,8.18,30.63,30.63,0,0,1,1.47,8.31A38.7,38.7,0,0,1,513,482c0,.73-.11,1.53-.19,2.33s-.14,1.59-.26,2.37a67,67,0,0,1-1.73,9.18,46.58,46.58,0,0,1-7.59,16.22,50.53,50.53,0,0,1-6,6.68c-1.15,1-2.29,2-3.49,2.9-.6.44-1.18.92-1.79,1.35l-1.87,1.18-.93.6-1,.51-1.95,1c-.67.3-1.35.56-2,.85l-1,.42c-.34.14-.7.23-1,.34l-2.1.68-2.15.5-1.07.26-1.11.16-2.2.34A66.07,66.07,0,0,1,455,529,170.92,170.92,0,0,1,436,524.3c-6.37-1.9-12.69-3.95-18.92-6.29a297.42,297.42,0,0,1-36.37-16.29c-5.84-3.18-11.65-6.42-17.26-10l-2.12-1.31-2.09-1.36L355,486.35c-2.73-1.9-5.51-3.72-8.17-5.71a279.16,279.16,0,0,1-57.24-55c-2-2.62-4-5.3-5.94-7.95s-3.65-5.31-5.21-8c-3.12-5.41-5.43-11.09-5.88-16.5a20.32,20.32,0,0,1,.78-7.73,18.79,18.79,0,0,1,3.69-6.57,23.07,23.07,0,0,1,6.23-5,33.8,33.8,0,0,1,7.93-3.1,35.87,35.87,0,0,1,8.64-1.14,34.65,34.65,0,0,1,8.69.9,42.7,42.7,0,0,1,4.34,1.14c1.44.43,2.85,1.05,4.29,1.56s2.82,1.24,4.22,2,2.8,1.4,4.18,2.25c5.55,3.17,11,7,16.53,10.86a201.55,201.55,0,0,0,17.63,11.4l2.38,1.31,2.46,1.2c1.69.85,3.21,1.5,4.77,2.21q4.7,2.08,9.4,4.13,9.42,4.06,18.94,7.89,19,7.65,38.46,14.3c3.27,1.16,6.59,2.13,9.89,3.18L456,437a3.33,3.33,0,0,0,1.09-.19c7.86-3.15,5.38-8.66,3.32-11.15a1,1,0,0,0-.67-.53l-9.77-3.06c-3.25-1-6.53-2-9.75-3.12q-18.78-6.45-37.23-13.83-9.22-3.69-18.34-7.61l-9.1-4c-1.49-.67-3.06-1.35-4.49-2s-2.77-1.29-4.13-2.07A168.74,168.74,0,0,1,350.62,379c-5.44-3.78-11-7.76-17-11.35a79.23,79.23,0,0,0-19.83-8.74,27.76,27.76,0,0,0-2.73-.64l-2.77-.55a47.41,47.41,0,0,0-5.7-.56,49.27,49.27,0,0,0-11.37.81,48.4,48.4,0,0,0-11,3.45,37.58,37.58,0,0,0-9.93,6.55,34.1,34.1,0,0,0-2.93,3.07c.91.63,1.45,2,2.13,4-1.62,2.27-2.67,3.47-4.17,3.31-.44-.05-1.35-.18-2.44-.35a32,32,0,0,0-2.77,12,38.41,38.41,0,0,0,1.51,11.78,58.3,58.3,0,0,0,4.13,10.42c1,2,2.15,4,3.32,5.89a20.82,20.82,0,0,1,8.57,2.43c1.93,1.29,2.13,2.07,1.38,2.43a4.75,4.75,0,0,1-1.77.34l-2.9.2c-.52,0-1.07.08-1.65.15,1.5,2.15,3,4.22,4.56,6.23a290.91,290.91,0,0,0,57.82,57.51,306.42,306.42,0,0,0,71.14,39.75c3.15,1.3,6.36,2.42,9.55,3.62,1.6.58,3.22,1.11,4.83,1.66s3.22,1.12,4.85,1.61l4.87,1.53c1.63.5,3.27.95,4.91,1.42l.92.26a20.23,20.23,0,0,1,1-2,9.8,9.8,0,0,1,1.71-2.39,4.84,4.84,0,0,1,3-1.46,7.29,7.29,0,0,1,5.06,1.69,4.21,4.21,0,0,1,.91,1,25.36,25.36,0,0,1,1.23,6.3,98,98,0,0,0,17.24,2.12,61.84,61.84,0,0,0,11.07-.72,56,56,0,0,0,5.53-1.15c.92-.22,1.81-.55,2.72-.83a23,23,0,0,0,2.68-.95,55.57,55.57,0,0,0,18.68-12.29,56.82,56.82,0,0,0,7.24-8.51,57.76,57.76,0,0,0,5.45-9.81A73.88,73.88,0,0,0,525,487.24a64.61,64.61,0,0,0,.42-11.07,41.06,41.06,0,0,0-2.28-11.45,62.05,62.05,0,0,0-4.7-10l-2.37-4.18-1.4-2.52-2.86-5.25-3-4.65c-1.81-2.79-4.3-6.51-7.11-10.08-1.35-1.74-2.8-3.42-4.24-4.94A47.66,47.66,0,0,0,493.12,418.93Z"/><path class="b" d="M446.88,533.15a7.29,7.29,0,0,0-5.06-1.69,4.84,4.84,0,0,0-3,1.46,9.8,9.8,0,0,0-1.71,2.39,20.23,20.23,0,0,0-1,2,1.54,1.54,0,0,0-.08.19c-.19.36-.15.42-.1.62,1.5,4.35.42,10.16-1.83,16-1.13,3-2.52,6-4,9l-2.31,4.67-2.31,4.79c-2.67,5.6-6.17,10.39-10.72,12.86a21.59,21.59,0,0,1-7.58,2.39,42.3,42.3,0,0,1-8.89-.18,78.69,78.69,0,0,1-9.43-2c-3.18-.81-6.36-1.85-9.63-2.91a286.52,286.52,0,0,1-37.85-15.34A209.79,209.79,0,0,1,307,546.11c-5.31-4.08-10.53-8.56-15.53-13.14s-9.82-9.39-14.45-14.36a247.34,247.34,0,0,1-25.18-32c-1-1.4-1.85-2.84-2.77-4.27s-1.8-2.88-2.68-4.33c-1.77-2.91-3.49-5.84-4.93-8.67a41.19,41.19,0,0,1-3.3-8.42,25.19,25.19,0,0,1-.68-8.29,27,27,0,0,1,.71-4.16c.1-.34.17-.68.27-1l.22-.68.19-.57c.28-.76.56-1.52.9-2.25a27,27,0,0,1,2.37-4.2l.65-1a13.47,13.47,0,0,1,.79-1.13,16.87,16.87,0,0,1,1.11-1.4c.4-.53.92-1,1.43-1.56s1.09-1,1.76-1.55a35.64,35.64,0,0,1,4.53-3A50.14,50.14,0,0,1,262,426c1.35-.42,2.45-.69,3.17-.88s1.07-.28.9-.3a54.58,54.58,0,0,1,6.62-1.16c.58-.07,1.13-.11,1.65-.15l2.9-.2A4.75,4.75,0,0,0,279,423c.75-.36.55-1.14-1.38-2.43a20.82,20.82,0,0,0-8.57-2.43c-1-.1-2.13-.17-3.33-.17A49,49,0,0,0,243.46,423l-2.35,1.3L239,425.73l-1.79,1.39c-.55.44-1,.9-1.46,1.29a35.87,35.87,0,0,0-2.65,2.71,40.51,40.51,0,0,0-3.87,6.1c-.51,1.08-1.05,2.16-1.47,3.28-.21.56-.46,1.11-.64,1.68l-.28.86-.36,1.16-.4,1.53a37.69,37.69,0,0,0-.94,12.59,40.82,40.82,0,0,0,3.1,12,85.44,85.44,0,0,0,5.18,10.21c1.85,3.13,3.7,6.23,5.67,9.28a263.12,263.12,0,0,0,26.34,34.56q6,6.64,12.45,12.85c4.28,1.07,8.57,2.23,12.86,3.59a107.32,107.32,0,0,1,20.14,8.44,1.2,1.2,0,0,1,.61.71,7.52,7.52,0,0,1,.9,5.73c-.63,2-2.62,3.66-6.55,4.45a3.83,3.83,0,0,1-.73,0,219.65,219.65,0,0,0,28.83,17.37A296.73,296.73,0,0,0,374,594.08l5.13,1.67c1.78.53,3.52,1.09,5.32,1.57s3.59,1,5.47,1.36c.93.2,1.84.42,2.79.59l2.86.46a50,50,0,0,0,12.05.46,31.66,31.66,0,0,0,22.5-11.72L432,586a10.59,10.59,0,0,0,.87-1.27l.8-1.29a30.06,30.06,0,0,0,1.54-2.6l1.33-2.64.65-1.3.52-1.13,1.12-2.3,2.36-4.76c1.59-3.25,3.18-6.62,4.55-10.22a50.76,50.76,0,0,0,3-11.33,32.6,32.6,0,0,0,.22-6.66,25.36,25.36,0,0,0-1.23-6.3A4.21,4.21,0,0,0,446.88,533.15Z"/><path class="b" d="M104.5,340.8a71.81,71.81,0,0,0,3.81,11.72c1.31,3,2.28,4.78,2.19,4.39a47.79,47.79,0,0,0,2.81,4.46,30.59,30.59,0,0,0,2.78,3.45,15.77,15.77,0,0,0,2.42,2.24,4.62,4.62,0,0,0,1.69.92c.84.12,1-.72.38-2.8s-2-5.42-3.58-10.58a82.2,82.2,0,0,1-2.8-19.72c-.07-1.49,0-2.9,0-4.14s.11-2.37.15-3.29c.16-1.84.25-2.94.25-2.94a86.46,86.46,0,0,1,.92-10.65,115.32,115.32,0,0,1,9-29.29,191.15,191.15,0,0,1,9.17-17.75,3.68,3.68,0,0,0,0-1.08c-.69-4.11-2.46-6-4.46-6.55a8,8,0,0,0-5.69.84,1.08,1.08,0,0,0-.67.56,209.17,209.17,0,0,0-9.75,18.9,128.11,128.11,0,0,0-9.92,32.5,97.55,97.55,0,0,0-1,10.51s0,2.35.28,5.81A81.65,81.65,0,0,0,104.5,340.8Z"/><path class="b" d="M265.7,342c1.15-.14,2.29-.3,3.43-.48l1.7-.29c.57-.11,1.12-.27,1.68-.42a42.08,42.08,0,0,0,6.9-2.36c1.18-.53,2.42-1.06,3.67-1.71s2.51-1.42,3.85-2.22a112.43,112.43,0,0,0,14.73-11l1.48-1.27,1.53-1.43,3.26-3.08c2.14-2.19,4.39-4.41,6.27-6.53.95-1.06,1.88-2,2.67-2.95l2.09-2.43,1.9-2.22s.83-1,2.18-2.67,3.15-3.93,5.11-6.44c3.88-5.08,8.25-11.08,10.77-14.81a113.28,113.28,0,0,0,6.59-10.75,40,40,0,0,0,4.85-15.26,29.12,29.12,0,0,0-2.32-14.2,44.17,44.17,0,0,1-3.26,12.93,126.23,126.23,0,0,1-6.14,12.84,113,113,0,0,1-6.2,10c-2.42,3.54-6.75,9.51-10.51,14.46-1.91,2.46-3.64,4.71-4.95,6.28l-2.11,2.59L313,300.74l-2,2.34c-.77.88-1.66,1.81-2.58,2.82-1.81,2-4,4.14-6,6.23l-3.1,2.92-1.44,1.36c-.49.41-.95.81-1.4,1.2a109.23,109.23,0,0,1-13.71,10.32c-1.23.75-2.38,1.48-3.46,2.19l-3.2,1.91c-2,1.32-3.94,2.33-5.78,3.5-.46.29-.92.59-1.38.87l-1.41.79c-.94.54-1.88,1.09-2.84,1.68s-2,1.07-3,1.65l-3.28,1.75,3.73,0A31.58,31.58,0,0,0,265.7,342Z"/><path d="M150.26,494.75l-.9-.94c-.19-.19-.37-.39-.55-.59L147.75,492l-2.11-2.44-2-2.53-1.13-1.47c-41.89-1.74-84-.15-125.88,1.44q-8.31.31-16.62.67v12c28.84-1.24,57.7-2.11,86.55-2.46,22.33-.26,44.72-.31,67,.93C152.45,497,151.34,495.89,150.26,494.75Z"/><path class="b" d="M305.82,560.14c3.93-.79,5.92-2.46,6.55-4.45a7.52,7.52,0,0,0-.9-5.73,1.2,1.2,0,0,0-.61-.71,107.32,107.32,0,0,0-20.14-8.44c-4.29-1.36-8.58-2.52-12.86-3.59-9.38-2.35-18.69-4.23-27.7-6.48-1.64-.4-3.28-.81-4.88-1.26s-3.23-.88-4.8-1.38l-2.39-.72-2.45-.79L230.76,525c-6.5-2.14-12.94-4.35-19.24-6.77-12.6-4.84-24.74-10.54-35.61-17.94a99.33,99.33,0,0,1-15-12.39l-1.68-1.75-.76-.79c-.17-.17-.32-.34-.47-.52l-1.84-2.1-.92-1.06-.86-1.09-1.72-2.19s-.34-.39-.89-1.08-1.38-1.66-2.3-2.87a80.9,80.9,0,0,1-6.06-9.23c-1-1.72-1.83-3.53-2.68-5.18s-1.4-3.27-1.95-4.6a24.89,24.89,0,0,0-1.55-4.06c-.46-1.58-1-3.08-1.43-4.5s-.77-2.72-1.16-3.87c-.6-2.31-1.22-4-1.84-4.58s-1.26-.06-1.82,2.09a20.36,20.36,0,0,0-.69,4.54c-.05,1-.11,2.09-.11,3.31s.14,2.56.25,4c.12,1.75.43,3.57.68,5.46s.76,3.76,1.28,5.62A74,74,0,0,0,136.1,474c1.35,3.14,2.82,5.72,3.83,7.59l1.76,2.89c.26.38.53.75.81,1.12l1.13,1.47,2,2.53,2.11,2.44,1.06,1.22c.18.2.36.4.55.59l.9.94c1.08,1.14,2.19,2.25,3.32,3.35a114.12,114.12,0,0,0,13.52,11.18c12,8.54,25.29,14.79,38.62,20,6.68,2.61,13.42,5,20.14,7.18l5,1.64c1.7.54,3.32,1.09,5.1,1.62s3.49,1.07,5.23,1.52,3.49,1,5.23,1.38c13.89,3.48,27.63,6,40.49,10a94.78,94.78,0,0,1,17.85,7.46,1.19,1.19,0,0,0,.29,0A3.83,3.83,0,0,0,305.82,560.14Z"/><path d="M344.24,433.56a72.59,72.59,0,0,1-5.3,6.72,76.51,76.51,0,0,1-6,6.07c-2.17,2-4.53,3.82-7.23,6A17.33,17.33,0,0,0,335.82,451a24.1,24.1,0,0,0,13.4-15.17,17.42,17.42,0,0,0,.08-10.21C347.49,428.6,346,431.16,344.24,433.56Z"/><path d="M439.44,476.32c-1.3,2.74-2.67,5.34-4.13,7.89s-3,5-4.75,7.54-3.6,5-5.62,7.89a19.58,19.58,0,0,0,9.54-4.06,26.91,26.91,0,0,0,10.26-17.78,19.54,19.54,0,0,0-1.28-10.3C442,470.71,440.77,473.57,439.44,476.32Z"/><path d="M375.27,565.48c.09.5.14,1,.27,1.49l.46,1.46a12,12,0,0,0,3.17,5,30.32,30.32,0,0,1,1.29-10.37,62,62,0,0,1,3.56-9.27,88.93,88.93,0,0,1,4.82-8.86,104.74,104.74,0,0,1,6.2-8.86,20.53,20.53,0,0,0-10.37,5.28,29.6,29.6,0,0,0-7,9.47A27.08,27.08,0,0,0,375,562.45c0,.51,0,1,0,1.51S375.19,565,375.27,565.48Z"/><path d="M291.19,504.38c0,.51.12,1,.21,1.52s.14,1,.27,1.49l.45,1.46a12.13,12.13,0,0,0,3.18,5,30.07,30.07,0,0,1,1.29-10.37,62,62,0,0,1,3.56-9.27,88.93,88.93,0,0,1,4.82-8.86,104.74,104.74,0,0,1,6.2-8.86,20.49,20.49,0,0,0-10.37,5.28,29.6,29.6,0,0,0-7,9.47,27.08,27.08,0,0,0-2.66,11.59C291.14,503.38,291.17,503.88,291.19,504.38Z"/><path d="M291.79,375.53a26.24,26.24,0,0,0-6.52,1.79,15.67,15.67,0,0,0-5.77,4.13,11.77,11.77,0,0,0-1.08,1.57c-.32.55-.53,1-.8,1.56a23.29,23.29,0,0,0-1.22,3.23,28.36,28.36,0,0,0-.35,13.51,38.21,38.21,0,0,0,2,6.42,42.27,42.27,0,0,0,3.14,5.87,54.52,54.52,0,0,0,8.4,10,102.76,102.76,0,0,0,9.88,8.2c-5.45-6.58-11.34-12.76-15.3-19.95a36.62,36.62,0,0,1-2.56-5.51,32.29,32.29,0,0,1-1.68-5.77,33.7,33.7,0,0,1-.57-5.91,23.08,23.08,0,0,1,.74-5.81A20.86,20.86,0,0,1,281,386c.2-.42.38-.92.58-1.3a9.79,9.79,0,0,1,.69-1.08,13,13,0,0,1,4.41-3.36,28,28,0,0,1,11.71-2.5,49.14,49.14,0,0,1,24,6.42,44.39,44.39,0,0,0-23.93-9A33.38,33.38,0,0,0,291.79,375.53Z"/><path d="M257.56,431.54a20.66,20.66,0,0,0-11.37,5.65,18.92,18.92,0,0,0-3.75,5.36,27.74,27.74,0,0,0-2,5.9,29.22,29.22,0,0,0-.05,12.28,23.29,23.29,0,0,0,5.42,10.92A16.23,16.23,0,0,0,256.23,477a18.29,18.29,0,0,1-8.32-7,23.61,23.61,0,0,1-3.38-10,29,29,0,0,1,.68-10.46,25.87,25.87,0,0,1,1.75-4.89,14.27,14.27,0,0,1,2.74-4,17,17,0,0,1,8.68-4.65,20.66,20.66,0,0,1,10.25.47,26.57,26.57,0,0,1,9.4,5.19,44,44,0,0,1,7.54,8.4,34.81,34.81,0,0,0-2.52-5.22,30.19,30.19,0,0,0-3.45-4.78,25.76,25.76,0,0,0-4.42-4,24.15,24.15,0,0,0-5.31-3A23.19,23.19,0,0,0,257.56,431.54Z"/><path d="M333.08,416a75.6,75.6,0,0,1-7,8.82,24.88,24.88,0,0,0,10.09-6.35,20.77,20.77,0,0,0,5.73-11.14,16.45,16.45,0,0,0-3.25-12.43,13.63,13.63,0,0,0-4.94-4.05,9.51,9.51,0,0,0-6.05-.8,13.23,13.23,0,0,1,7.7,7,16.2,16.2,0,0,1,1.6,9.53A24.28,24.28,0,0,1,333.08,416Z"/><path d="M279.05,472.89a46.69,46.69,0,0,1-8.33,5.45,54.07,54.07,0,0,1-9.77,3.78,20.74,20.74,0,0,0,11.16-.1,27.6,27.6,0,0,0,17.23-14.15A20.81,20.81,0,0,0,291.63,457,54.55,54.55,0,0,1,286,465.8,46.31,46.31,0,0,1,279.05,472.89Z"/><path d="M439.85,276.8a37.94,37.94,0,0,0,14.37,9.45,120.88,120.88,0,0,1-10.07-12.89,52.15,52.15,0,0,1-6.49-13.83A44.11,44.11,0,0,1,436,244.47a78.46,78.46,0,0,1,2.85-16,33.27,33.27,0,0,0-8.27,15.14,34.26,34.26,0,0,0,.38,17.83A37.17,37.17,0,0,0,439.85,276.8Z"/><path d="M380.81,335.79a73.14,73.14,0,0,1,21.33-40.05,89.11,89.11,0,0,1,19.16-14.08,51.45,51.45,0,0,0-22.72,9.9,58.29,58.29,0,0,0-23.24,43.61,51.36,51.36,0,0,0,4.47,24.38A89.72,89.72,0,0,1,380.81,335.79Z"/><path d="M200.75,371.63q8.33-2,16.51-4.53a130.12,130.12,0,0,0,16.12-6.19,128.45,128.45,0,0,0-17.19,1.61q-8.48,1.31-16.8,3.27t-16.51,4.52a127.08,127.08,0,0,0-16.12,6.2,126.82,126.82,0,0,0,17.19-1.6Q192.43,373.59,200.75,371.63Z"/><path class="b" d="M256.8,369.21s-8.08-1.3-9.71-1.48-2.55,1-4.17,3.31c.87,2.65,1.51,4.11,3,4.4s9.71,1.48,9.71,1.48,4.3.7,7.26,1.14c1.09.17,2,.3,2.44.35,1.5.16,2.55-1,4.17-3.31-.68-2.07-1.22-3.4-2.13-4a2.21,2.21,0,0,0-.86-.37C264.89,370.38,256.8,369.21,256.8,369.21Z"/><path d="M406.09,116.87c-1.94-.87-3.86-1.76-5.85-2.73s-4-2-6.46-3.09a13.91,13.91,0,0,0,3.59,6.83A19.31,19.31,0,0,0,411.2,124a15.44,15.44,0,0,0,5-.79,11.62,11.62,0,0,0,2.43-1.13l-.81-.35c-2.1-.9-4-1.61-5.82-2.36C410,118.55,408,117.73,406.09,116.87Z"/><path d="M350.27,72.38a26.28,26.28,0,0,0,5.54,10.2,18,18,0,0,0,4.84,4,17.87,17.87,0,0,0-.7-6.23,26.24,26.24,0,0,0-5.56-10.18,18.8,18.8,0,0,0-4.29-3.64l-.54-.34c0,.28,0,.55,0,.82A18.7,18.7,0,0,0,350.27,72.38Z"/><path d="M320.85,143.09a32.3,32.3,0,0,0,5.22,4.66,22,22,0,0,0,6.72,3.31,21.78,21.78,0,0,0-2.64-7,32.65,32.65,0,0,0-9.35-10.31,22.27,22.27,0,0,0-6.71-3.32,22.29,22.29,0,0,0,2.64,7A32,32,0,0,0,320.85,143.09Z"/><path d="M312.55,159.09a91.51,91.51,0,0,1,9.62,8.79c3.05,3.2,5.87,6.67,8.86,10.47a30.84,30.84,0,0,0-4.46-13.75,40.84,40.84,0,0,0-22.64-17.87,30.69,30.69,0,0,0-14.41-1.13c4.39,2,8.42,4,12.24,6.19A91.5,91.5,0,0,1,312.55,159.09Z"/><path class="b" d="M130.88,395.74a40.51,40.51,0,0,0-3.18,8.47c-.23.89-.44,1.77-.57,2.59s-.31,1.57-.36,2.21c-.15,1.29-.25,2.12-.25,2.12s0,.84-.13,2.13c0,.65,0,1.41,0,2.24s0,1.73.11,2.65a40.24,40.24,0,0,0,1.65,8.9,4.85,4.85,0,0,0,2,2.6,12,12,0,0,0,3.67,1.32,22.48,22.48,0,0,0,1.67-3.39,4.26,4.26,0,0,0,.16-2.77,39,39,0,0,1-1.29-7.24,18.06,18.06,0,0,1-.1-2.17c0-.68,0-1.3,0-1.83,0-1.07.09-1.75.09-1.75s.08-.68.21-1.74c.05-.53.2-1.14.32-1.81a21,21,0,0,1,.47-2.12,40.42,40.42,0,0,1,2.54-6.9,4.21,4.21,0,0,0,.33-2.76,22.21,22.21,0,0,0-1-3.62,11.94,11.94,0,0,0-3.85.66A4.86,4.86,0,0,0,130.88,395.74Z"/><path class="b" d="M17.1,338.19,34.86,337l6.71-.47s5.17-.3,7.35-.47l12.17-.83a99,99,0,0,0,21.07-3.55V328.2l-.24,0v0a98.49,98.49,0,0,0-21.36-.72l-12.17.78c-2.18.12-7.34.51-7.34.51l-6.72.42L16.58,330.4A102,102,0,0,0,0,332.79V338A102,102,0,0,0,17.1,338.19Z"/><path class="b" d="M23.09,433.27l5.51-.51,5.89-.48,6.6-.46,2.26-.14,5.4-.26c4.2-.19,9.14-.37,12.07-.43,3.4-.1,5.93-.13,7.85-.15l4.25,0c11.9,0,18.66-1.18,28.78-3.18-9.87-3-16.72-4.54-28.79-4.63-1,0-2.36,0-4.32,0s-4.51,0-8,.13c-3,0-8,.24-12.24.44l-5.48.3-2.29.15-6.7.44-6,.46-5.6.52c-9.19.91-14.85,1.66-17.81,2.05-1.6.22-3.1.45-4.52.7v7.65c1.73-.17,3.56-.37,5.53-.61C8.45,434.88,14,434.16,23.09,433.27Z"/><path d="M372.78,101.47a7,7,0,0,0,2.68,1.44,7.76,7.76,0,0,0,3.78.14,7.83,7.83,0,0,0-.72-3.72,7,7,0,0,0-1.84-2.42A7.27,7.27,0,0,0,374,95.48a7.88,7.88,0,0,0-3.78-.14,7.9,7.9,0,0,0,.73,3.71A7.24,7.24,0,0,0,372.78,101.47Z"/></svg>